G75*
G70*
%OFA0B0*%
%FSLAX24Y24*%
%IPPOS*%
%LPD*%
%AMOC8*
5,1,8,0,0,1.08239X$1,22.5*
%
%ADD10C,0.0050*%
%ADD11R,0.0472X0.1772*%
%ADD12C,0.0000*%
%ADD13C,0.2854*%
%ADD14C,0.0886*%
%ADD15C,0.0000*%
%ADD16C,0.0001*%
%ADD17C,0.0945*%
%ADD18C,0.0295*%
%ADD19R,0.0591X0.0295*%
%ADD20R,0.0295X0.0591*%
%ADD21R,0.0810X0.0240*%
%ADD22R,0.0394X0.0433*%
%ADD23R,0.0433X0.0394*%
D10*
X000875Y001427D02*
X000875Y004477D01*
X000575Y004777D01*
X000575Y008477D01*
X000125Y008477D01*
X000125Y009677D01*
X000575Y009677D01*
X000575Y017927D01*
X000125Y017927D01*
X000125Y019127D01*
X000575Y019127D01*
X000575Y024427D01*
X000577Y024471D01*
X000583Y024514D01*
X000592Y024556D01*
X000605Y024598D01*
X000622Y024638D01*
X000642Y024677D01*
X000665Y024714D01*
X000692Y024748D01*
X000721Y024781D01*
X000754Y024810D01*
X000788Y024837D01*
X000825Y024860D01*
X000864Y024880D01*
X000904Y024897D01*
X000946Y024910D01*
X000988Y024919D01*
X001031Y024925D01*
X001075Y024927D01*
X005675Y024927D01*
X005675Y025127D01*
X006875Y025127D01*
X006875Y024927D01*
X014375Y024927D01*
X014375Y025127D01*
X015575Y025127D01*
X015575Y024927D01*
X018175Y024927D01*
X018219Y024925D01*
X018262Y024919D01*
X018304Y024910D01*
X018346Y024897D01*
X018386Y024880D01*
X018425Y024860D01*
X018462Y024837D01*
X018496Y024810D01*
X018529Y024781D01*
X018558Y024748D01*
X018585Y024714D01*
X018608Y024677D01*
X018628Y024638D01*
X018645Y024598D01*
X018658Y024556D01*
X018667Y024514D01*
X018673Y024471D01*
X018675Y024427D01*
X018675Y024227D01*
X018677Y024183D01*
X018683Y024140D01*
X018692Y024098D01*
X018705Y024056D01*
X018722Y024016D01*
X018742Y023977D01*
X018765Y023940D01*
X018792Y023906D01*
X018821Y023873D01*
X018854Y023844D01*
X018888Y023817D01*
X018925Y023794D01*
X018964Y023774D01*
X019004Y023757D01*
X019046Y023744D01*
X019088Y023735D01*
X019131Y023729D01*
X019175Y023727D01*
X020175Y023727D01*
X020219Y023725D01*
X020262Y023719D01*
X020304Y023710D01*
X020346Y023697D01*
X020386Y023680D01*
X020425Y023660D01*
X020462Y023637D01*
X020496Y023610D01*
X020529Y023581D01*
X020558Y023548D01*
X020585Y023514D01*
X020608Y023477D01*
X020628Y023438D01*
X020645Y023398D01*
X020658Y023356D01*
X020667Y023314D01*
X020673Y023271D01*
X020675Y023227D01*
X020675Y019127D01*
X021125Y019127D01*
X021125Y017927D01*
X020675Y017927D01*
X020675Y009677D01*
X021125Y009677D01*
X021125Y008477D01*
X020675Y008477D01*
X020675Y004777D01*
X020375Y004477D01*
X020375Y001427D01*
X020373Y001383D01*
X020367Y001340D01*
X020358Y001298D01*
X020345Y001256D01*
X020328Y001216D01*
X020308Y001177D01*
X020285Y001140D01*
X020258Y001106D01*
X020229Y001073D01*
X020196Y001044D01*
X020162Y001017D01*
X020125Y000994D01*
X020086Y000974D01*
X020046Y000957D01*
X020004Y000944D01*
X019962Y000935D01*
X019919Y000929D01*
X019875Y000927D01*
X001375Y000927D01*
X001331Y000929D01*
X001288Y000935D01*
X001246Y000944D01*
X001204Y000957D01*
X001164Y000974D01*
X001125Y000994D01*
X001088Y001017D01*
X001054Y001044D01*
X001021Y001073D01*
X000992Y001106D01*
X000965Y001140D01*
X000942Y001177D01*
X000922Y001216D01*
X000905Y001256D01*
X000892Y001298D01*
X000883Y001340D01*
X000877Y001383D01*
X000875Y001427D01*
X000575Y008527D02*
X000175Y008527D01*
X000175Y009627D01*
X000575Y009627D01*
X000575Y008527D01*
X000575Y008562D02*
X000175Y008562D01*
X000175Y008611D02*
X000575Y008611D01*
X000575Y008659D02*
X000175Y008659D01*
X000175Y008708D02*
X000575Y008708D01*
X000575Y008756D02*
X000175Y008756D01*
X000175Y008805D02*
X000575Y008805D01*
X000575Y008853D02*
X000175Y008853D01*
X000175Y008902D02*
X000575Y008902D01*
X000575Y008950D02*
X000175Y008950D01*
X000175Y008999D02*
X000575Y008999D01*
X000575Y009047D02*
X000175Y009047D01*
X000175Y009096D02*
X000575Y009096D01*
X000575Y009144D02*
X000175Y009144D01*
X000175Y009193D02*
X000575Y009193D01*
X000575Y009241D02*
X000175Y009241D01*
X000175Y009290D02*
X000575Y009290D01*
X000575Y009338D02*
X000175Y009338D01*
X000175Y009387D02*
X000575Y009387D01*
X000575Y009435D02*
X000175Y009435D01*
X000175Y009484D02*
X000575Y009484D01*
X000575Y009532D02*
X000175Y009532D01*
X000175Y009581D02*
X000575Y009581D01*
X000575Y017977D02*
X000175Y017977D01*
X000175Y019077D01*
X000575Y019077D01*
X000575Y017977D01*
X000575Y018020D02*
X000175Y018020D01*
X000175Y018068D02*
X000575Y018068D01*
X000575Y018117D02*
X000175Y018117D01*
X000175Y018165D02*
X000575Y018165D01*
X000575Y018214D02*
X000175Y018214D01*
X000175Y018262D02*
X000575Y018262D01*
X000575Y018311D02*
X000175Y018311D01*
X000175Y018359D02*
X000575Y018359D01*
X000575Y018408D02*
X000175Y018408D01*
X000175Y018456D02*
X000575Y018456D01*
X000575Y018505D02*
X000175Y018505D01*
X000175Y018553D02*
X000575Y018553D01*
X000575Y018602D02*
X000175Y018602D01*
X000175Y018650D02*
X000575Y018650D01*
X000575Y018699D02*
X000175Y018699D01*
X000175Y018747D02*
X000575Y018747D01*
X000575Y018796D02*
X000175Y018796D01*
X000175Y018844D02*
X000575Y018844D01*
X000575Y018893D02*
X000175Y018893D01*
X000175Y018941D02*
X000575Y018941D01*
X000575Y018990D02*
X000175Y018990D01*
X000175Y019038D02*
X000575Y019038D01*
X005725Y024927D02*
X006825Y024927D01*
X006825Y025077D01*
X005725Y025077D01*
X005725Y024927D01*
X005725Y024955D02*
X006825Y024955D01*
X006825Y025004D02*
X005725Y025004D01*
X005725Y025052D02*
X006825Y025052D01*
X014425Y025052D02*
X015525Y025052D01*
X015525Y025077D02*
X015525Y024927D01*
X014425Y024927D01*
X014425Y025077D01*
X015525Y025077D01*
X015525Y025004D02*
X014425Y025004D01*
X014425Y024955D02*
X015525Y024955D01*
X020675Y019077D02*
X020675Y017977D01*
X021075Y017977D01*
X021075Y019077D01*
X020675Y019077D01*
X020675Y019038D02*
X021075Y019038D01*
X021075Y018990D02*
X020675Y018990D01*
X020675Y018941D02*
X021075Y018941D01*
X021075Y018893D02*
X020675Y018893D01*
X020675Y018844D02*
X021075Y018844D01*
X021075Y018796D02*
X020675Y018796D01*
X020675Y018747D02*
X021075Y018747D01*
X021075Y018699D02*
X020675Y018699D01*
X020675Y018650D02*
X021075Y018650D01*
X021075Y018602D02*
X020675Y018602D01*
X020675Y018553D02*
X021075Y018553D01*
X021075Y018505D02*
X020675Y018505D01*
X020675Y018456D02*
X021075Y018456D01*
X021075Y018408D02*
X020675Y018408D01*
X020675Y018359D02*
X021075Y018359D01*
X021075Y018311D02*
X020675Y018311D01*
X020675Y018262D02*
X021075Y018262D01*
X021075Y018214D02*
X020675Y018214D01*
X020675Y018165D02*
X021075Y018165D01*
X021075Y018117D02*
X020675Y018117D01*
X020675Y018068D02*
X021075Y018068D01*
X021075Y018020D02*
X020675Y018020D01*
X020675Y009627D02*
X020675Y008527D01*
X021075Y008527D01*
X021075Y009627D01*
X020675Y009627D01*
X020675Y009581D02*
X021075Y009581D01*
X021075Y009532D02*
X020675Y009532D01*
X020675Y009484D02*
X021075Y009484D01*
X021075Y009435D02*
X020675Y009435D01*
X020675Y009387D02*
X021075Y009387D01*
X021075Y009338D02*
X020675Y009338D01*
X020675Y009290D02*
X021075Y009290D01*
X021075Y009241D02*
X020675Y009241D01*
X020675Y009193D02*
X021075Y009193D01*
X021075Y009144D02*
X020675Y009144D01*
X020675Y009096D02*
X021075Y009096D01*
X021075Y009047D02*
X020675Y009047D01*
X020675Y008999D02*
X021075Y008999D01*
X021075Y008950D02*
X020675Y008950D01*
X020675Y008902D02*
X021075Y008902D01*
X021075Y008853D02*
X020675Y008853D01*
X020675Y008805D02*
X021075Y008805D01*
X021075Y008756D02*
X020675Y008756D01*
X020675Y008708D02*
X021075Y008708D01*
X021075Y008659D02*
X020675Y008659D01*
X020675Y008611D02*
X021075Y008611D01*
X021075Y008562D02*
X020675Y008562D01*
D11*
X019188Y002398D03*
X018597Y002398D03*
X018007Y002398D03*
X017416Y002398D03*
X016826Y002398D03*
X016235Y002398D03*
X015645Y002398D03*
X015054Y002398D03*
X014464Y002398D03*
X013873Y002398D03*
X013282Y002398D03*
X012692Y002398D03*
X012101Y002398D03*
X011511Y002398D03*
X010920Y002398D03*
X010330Y002398D03*
X009739Y002398D03*
X009149Y002398D03*
X008558Y002398D03*
X007968Y002398D03*
X007377Y002398D03*
X006786Y002398D03*
X006196Y002398D03*
X005605Y002398D03*
X005015Y002398D03*
X004424Y002398D03*
X003834Y002398D03*
X003243Y002398D03*
X002653Y002398D03*
X002062Y002398D03*
D12*
X009198Y007138D02*
X009200Y007213D01*
X009206Y007288D01*
X009216Y007363D01*
X009230Y007437D01*
X009247Y007510D01*
X009269Y007583D01*
X009294Y007653D01*
X009323Y007723D01*
X009356Y007791D01*
X009392Y007857D01*
X009432Y007921D01*
X009475Y007983D01*
X009521Y008042D01*
X009570Y008099D01*
X009623Y008154D01*
X009678Y008205D01*
X009735Y008254D01*
X009795Y008299D01*
X009858Y008341D01*
X009922Y008380D01*
X009989Y008415D01*
X010057Y008447D01*
X010127Y008475D01*
X010198Y008500D01*
X010271Y008520D01*
X010344Y008537D01*
X010419Y008550D01*
X010493Y008559D01*
X010569Y008564D01*
X010644Y008565D01*
X010719Y008562D01*
X010794Y008555D01*
X010869Y008544D01*
X010943Y008529D01*
X011016Y008511D01*
X011087Y008488D01*
X011158Y008462D01*
X011227Y008432D01*
X011295Y008398D01*
X011360Y008361D01*
X011424Y008321D01*
X011485Y008277D01*
X011544Y008230D01*
X011600Y008180D01*
X011654Y008127D01*
X011705Y008071D01*
X011752Y008013D01*
X011797Y007952D01*
X011838Y007889D01*
X011876Y007824D01*
X011911Y007757D01*
X011942Y007688D01*
X011969Y007618D01*
X011992Y007547D01*
X012012Y007474D01*
X012028Y007400D01*
X012040Y007326D01*
X012048Y007251D01*
X012052Y007176D01*
X012052Y007100D01*
X012048Y007025D01*
X012040Y006950D01*
X012028Y006876D01*
X012012Y006802D01*
X011992Y006729D01*
X011969Y006658D01*
X011942Y006588D01*
X011911Y006519D01*
X011876Y006452D01*
X011838Y006387D01*
X011797Y006324D01*
X011752Y006263D01*
X011705Y006205D01*
X011654Y006149D01*
X011600Y006096D01*
X011544Y006046D01*
X011485Y005999D01*
X011424Y005955D01*
X011360Y005915D01*
X011295Y005878D01*
X011227Y005844D01*
X011158Y005814D01*
X011087Y005788D01*
X011016Y005765D01*
X010943Y005747D01*
X010869Y005732D01*
X010794Y005721D01*
X010719Y005714D01*
X010644Y005711D01*
X010569Y005712D01*
X010493Y005717D01*
X010419Y005726D01*
X010344Y005739D01*
X010271Y005756D01*
X010198Y005776D01*
X010127Y005801D01*
X010057Y005829D01*
X009989Y005861D01*
X009922Y005896D01*
X009858Y005935D01*
X009795Y005977D01*
X009735Y006022D01*
X009678Y006071D01*
X009623Y006122D01*
X009570Y006177D01*
X009521Y006234D01*
X009475Y006293D01*
X009432Y006355D01*
X009392Y006419D01*
X009356Y006485D01*
X009323Y006553D01*
X009294Y006623D01*
X009269Y006693D01*
X009247Y006766D01*
X009230Y006839D01*
X009216Y006913D01*
X009206Y006988D01*
X009200Y007063D01*
X009198Y007138D01*
X010182Y016979D02*
X010184Y017020D01*
X010190Y017062D01*
X010199Y017102D01*
X010213Y017141D01*
X010230Y017179D01*
X010250Y017215D01*
X010274Y017249D01*
X010301Y017281D01*
X010331Y017310D01*
X010363Y017336D01*
X010398Y017359D01*
X010434Y017379D01*
X010472Y017395D01*
X010512Y017407D01*
X010553Y017416D01*
X010594Y017421D01*
X010635Y017422D01*
X010677Y017419D01*
X010718Y017412D01*
X010758Y017402D01*
X010797Y017387D01*
X010834Y017369D01*
X010870Y017348D01*
X010904Y017323D01*
X010935Y017296D01*
X010963Y017266D01*
X010988Y017233D01*
X011010Y017197D01*
X011029Y017160D01*
X011044Y017122D01*
X011056Y017082D01*
X011064Y017041D01*
X011068Y017000D01*
X011068Y016958D01*
X011064Y016917D01*
X011056Y016876D01*
X011044Y016836D01*
X011029Y016798D01*
X011010Y016761D01*
X010988Y016725D01*
X010963Y016692D01*
X010935Y016662D01*
X010904Y016635D01*
X010870Y016610D01*
X010834Y016589D01*
X010797Y016571D01*
X010758Y016556D01*
X010718Y016546D01*
X010677Y016539D01*
X010635Y016536D01*
X010594Y016537D01*
X010553Y016542D01*
X010512Y016551D01*
X010472Y016563D01*
X010434Y016579D01*
X010398Y016599D01*
X010363Y016622D01*
X010331Y016648D01*
X010301Y016677D01*
X010274Y016709D01*
X010250Y016743D01*
X010230Y016779D01*
X010213Y016817D01*
X010199Y016856D01*
X010190Y016896D01*
X010184Y016938D01*
X010182Y016979D01*
D13*
X010625Y007138D03*
D14*
X010625Y016979D03*
D15*
X001708Y003284D02*
X001038Y003284D01*
X001038Y001433D01*
X001196Y001276D01*
X001708Y001276D01*
X001708Y003284D01*
X019542Y003284D02*
X019542Y001276D01*
X020054Y001276D01*
X020212Y001433D01*
X020212Y003284D01*
X019542Y003284D01*
D16*
X019542Y003283D02*
X020212Y003283D01*
X019542Y003283D01*
X019542Y003282D02*
X020212Y003282D01*
X020212Y003281D02*
X019542Y003281D01*
X019542Y003280D02*
X020212Y003280D01*
X020212Y003279D02*
X019542Y003279D01*
X020212Y003279D01*
X020212Y003278D02*
X019542Y003278D01*
X019542Y003277D02*
X020212Y003277D01*
X020212Y003276D02*
X019542Y003276D01*
X019542Y003275D02*
X020212Y003275D01*
X019542Y003275D01*
X019542Y003274D02*
X020212Y003274D01*
X020212Y003273D02*
X019542Y003273D01*
X019542Y003272D02*
X020212Y003272D01*
X020212Y003271D02*
X019542Y003271D01*
X020212Y003271D01*
X020212Y003270D02*
X019542Y003270D01*
X019542Y003269D02*
X020212Y003269D01*
X020212Y003268D02*
X019542Y003268D01*
X019542Y003267D02*
X020212Y003267D01*
X019542Y003267D01*
X019542Y003266D02*
X020212Y003266D01*
X020212Y003265D02*
X019542Y003265D01*
X019542Y003264D02*
X020212Y003264D01*
X020212Y003263D02*
X019542Y003263D01*
X020212Y003263D01*
X020212Y003262D02*
X019542Y003262D01*
X019542Y003261D02*
X020212Y003261D01*
X020212Y003260D02*
X019542Y003260D01*
X019542Y003259D02*
X020212Y003259D01*
X019542Y003259D01*
X019542Y003258D02*
X020212Y003258D01*
X020212Y003257D02*
X019542Y003257D01*
X019542Y003256D02*
X020212Y003256D01*
X020212Y003255D02*
X019542Y003255D01*
X020212Y003255D01*
X020212Y003254D02*
X019542Y003254D01*
X019542Y003253D02*
X020212Y003253D01*
X020212Y003252D02*
X019542Y003252D01*
X019542Y003251D02*
X020212Y003251D01*
X019542Y003251D01*
X019542Y003250D02*
X020212Y003250D01*
X020212Y003249D02*
X019542Y003249D01*
X019542Y003248D02*
X020212Y003248D01*
X020212Y003247D02*
X019542Y003247D01*
X019542Y003246D02*
X020212Y003246D01*
X019542Y003246D01*
X019542Y003245D02*
X020212Y003245D01*
X020212Y003244D02*
X019542Y003244D01*
X019542Y003243D02*
X020212Y003243D01*
X020212Y003242D02*
X019542Y003242D01*
X020212Y003242D01*
X020212Y003241D02*
X019542Y003241D01*
X019542Y003240D02*
X020212Y003240D01*
X020212Y003239D02*
X019542Y003239D01*
X019542Y003238D02*
X020212Y003238D01*
X019542Y003238D01*
X019542Y003237D02*
X020212Y003237D01*
X020212Y003236D02*
X019542Y003236D01*
X019542Y003235D02*
X020212Y003235D01*
X020212Y003234D02*
X019542Y003234D01*
X020212Y003234D01*
X020212Y003233D02*
X019542Y003233D01*
X019542Y003232D02*
X020212Y003232D01*
X020212Y003231D02*
X019542Y003231D01*
X019542Y003230D02*
X020212Y003230D01*
X019542Y003230D01*
X019542Y003229D02*
X020212Y003229D01*
X020212Y003228D02*
X019542Y003228D01*
X019542Y003227D02*
X020212Y003227D01*
X020212Y003226D02*
X019542Y003226D01*
X020212Y003226D01*
X020212Y003225D02*
X019542Y003225D01*
X019542Y003224D02*
X020212Y003224D01*
X020212Y003223D02*
X019542Y003223D01*
X019542Y003222D02*
X020212Y003222D01*
X019542Y003222D01*
X019542Y003221D02*
X020212Y003221D01*
X020212Y003220D02*
X019542Y003220D01*
X019542Y003219D02*
X020212Y003219D01*
X020212Y003218D02*
X019542Y003218D01*
X020212Y003218D01*
X020212Y003217D02*
X019542Y003217D01*
X019542Y003216D02*
X020212Y003216D01*
X020212Y003215D02*
X019542Y003215D01*
X019542Y003214D02*
X020212Y003214D01*
X019542Y003214D01*
X019542Y003213D02*
X020212Y003213D01*
X020212Y003212D02*
X019542Y003212D01*
X019542Y003211D02*
X020212Y003211D01*
X020212Y003210D02*
X019542Y003210D01*
X020212Y003210D01*
X020212Y003209D02*
X019542Y003209D01*
X019542Y003208D02*
X020212Y003208D01*
X020212Y003207D02*
X019542Y003207D01*
X019542Y003206D02*
X020212Y003206D01*
X019542Y003206D01*
X019542Y003205D02*
X020212Y003205D01*
X020212Y003204D02*
X019542Y003204D01*
X019542Y003203D02*
X020212Y003203D01*
X020212Y003202D02*
X019542Y003202D01*
X019542Y003201D02*
X020212Y003201D01*
X019542Y003201D01*
X019542Y003200D02*
X020212Y003200D01*
X020212Y003199D02*
X019542Y003199D01*
X019542Y003198D02*
X020212Y003198D01*
X020212Y003197D02*
X019542Y003197D01*
X020212Y003197D01*
X020212Y003196D02*
X019542Y003196D01*
X019542Y003195D02*
X020212Y003195D01*
X020212Y003194D02*
X019542Y003194D01*
X019542Y003193D02*
X020212Y003193D01*
X019542Y003193D01*
X019542Y003192D02*
X020212Y003192D01*
X020212Y003191D02*
X019542Y003191D01*
X019542Y003190D02*
X020212Y003190D01*
X020212Y003189D02*
X019542Y003189D01*
X020212Y003189D01*
X020212Y003188D02*
X019542Y003188D01*
X019542Y003187D02*
X020212Y003187D01*
X020212Y003186D02*
X019542Y003186D01*
X019542Y003185D02*
X020212Y003185D01*
X019542Y003185D01*
X019542Y003184D02*
X020212Y003184D01*
X020212Y003183D02*
X019542Y003183D01*
X019542Y003182D02*
X020212Y003182D01*
X020212Y003181D02*
X019542Y003181D01*
X020212Y003181D01*
X020212Y003180D02*
X019542Y003180D01*
X019542Y003179D02*
X020212Y003179D01*
X020212Y003178D02*
X019542Y003178D01*
X019542Y003177D02*
X020212Y003177D01*
X019542Y003177D01*
X019542Y003176D02*
X020212Y003176D01*
X020212Y003175D02*
X019542Y003175D01*
X019542Y003174D02*
X020212Y003174D01*
X020212Y003173D02*
X019542Y003173D01*
X020212Y003173D01*
X020212Y003172D02*
X019542Y003172D01*
X019542Y003171D02*
X020212Y003171D01*
X020212Y003170D02*
X019542Y003170D01*
X019542Y003169D02*
X020212Y003169D01*
X019542Y003169D01*
X019542Y003168D02*
X020212Y003168D01*
X020212Y003167D02*
X019542Y003167D01*
X019542Y003166D02*
X020212Y003166D01*
X020212Y003165D02*
X019542Y003165D01*
X020212Y003165D01*
X020212Y003164D02*
X019542Y003164D01*
X019542Y003163D02*
X020212Y003163D01*
X020212Y003162D02*
X019542Y003162D01*
X019542Y003161D02*
X020212Y003161D01*
X019542Y003161D01*
X019542Y003160D02*
X020212Y003160D01*
X020212Y003159D02*
X019542Y003159D01*
X019542Y003158D02*
X020212Y003158D01*
X020212Y003157D02*
X019542Y003157D01*
X020212Y003157D01*
X020212Y003156D02*
X019542Y003156D01*
X019542Y003155D02*
X020212Y003155D01*
X020212Y003154D02*
X019542Y003154D01*
X019542Y003153D02*
X020212Y003153D01*
X020212Y003152D02*
X019542Y003152D01*
X020212Y003152D01*
X020212Y003151D02*
X019542Y003151D01*
X019542Y003150D02*
X020212Y003150D01*
X020212Y003149D02*
X019542Y003149D01*
X019542Y003148D02*
X020212Y003148D01*
X019542Y003148D01*
X019542Y003147D02*
X020212Y003147D01*
X020212Y003146D02*
X019542Y003146D01*
X019542Y003145D02*
X020212Y003145D01*
X020212Y003144D02*
X019542Y003144D01*
X020212Y003144D01*
X020212Y003143D02*
X019542Y003143D01*
X019542Y003142D02*
X020212Y003142D01*
X020212Y003141D02*
X019542Y003141D01*
X019542Y003140D02*
X020212Y003140D01*
X019542Y003140D01*
X019542Y003139D02*
X020212Y003139D01*
X020212Y003138D02*
X019542Y003138D01*
X019542Y003137D02*
X020212Y003137D01*
X020212Y003136D02*
X019542Y003136D01*
X020212Y003136D01*
X020212Y003135D02*
X019542Y003135D01*
X019542Y003134D02*
X020212Y003134D01*
X020212Y003133D02*
X019542Y003133D01*
X019542Y003132D02*
X020212Y003132D01*
X019542Y003132D01*
X019542Y003131D02*
X020212Y003131D01*
X020212Y003130D02*
X019542Y003130D01*
X019542Y003129D02*
X020212Y003129D01*
X020212Y003128D02*
X019542Y003128D01*
X020212Y003128D01*
X020212Y003127D02*
X019542Y003127D01*
X019542Y003126D02*
X020212Y003126D01*
X020212Y003125D02*
X019542Y003125D01*
X019542Y003124D02*
X020212Y003124D01*
X019542Y003124D01*
X019542Y003123D02*
X020212Y003123D01*
X020212Y003122D02*
X019542Y003122D01*
X019542Y003121D02*
X020212Y003121D01*
X020212Y003120D02*
X019542Y003120D01*
X020212Y003120D01*
X020212Y003119D02*
X019542Y003119D01*
X019542Y003118D02*
X020212Y003118D01*
X020212Y003117D02*
X019542Y003117D01*
X019542Y003116D02*
X020212Y003116D01*
X019542Y003116D01*
X019542Y003115D02*
X020212Y003115D01*
X020212Y003114D02*
X019542Y003114D01*
X019542Y003113D02*
X020212Y003113D01*
X020212Y003112D02*
X019542Y003112D01*
X020212Y003112D01*
X020212Y003111D02*
X019542Y003111D01*
X019542Y003110D02*
X020212Y003110D01*
X020212Y003109D02*
X019542Y003109D01*
X019542Y003108D02*
X020212Y003108D01*
X020212Y003107D02*
X019542Y003107D01*
X020212Y003107D01*
X020212Y003106D02*
X019542Y003106D01*
X019542Y003105D02*
X020212Y003105D01*
X020212Y003104D02*
X019542Y003104D01*
X019542Y003103D02*
X020212Y003103D01*
X019542Y003103D01*
X019542Y003102D02*
X020212Y003102D01*
X020212Y003101D02*
X019542Y003101D01*
X019542Y003100D02*
X020212Y003100D01*
X020212Y003099D02*
X019542Y003099D01*
X020212Y003099D01*
X020212Y003098D02*
X019542Y003098D01*
X019542Y003097D02*
X020212Y003097D01*
X020212Y003096D02*
X019542Y003096D01*
X019542Y003095D02*
X020212Y003095D01*
X019542Y003095D01*
X019542Y003094D02*
X020212Y003094D01*
X020212Y003093D02*
X019542Y003093D01*
X019542Y003092D02*
X020212Y003092D01*
X020212Y003091D02*
X019542Y003091D01*
X020212Y003091D01*
X020212Y003090D02*
X019542Y003090D01*
X019542Y003089D02*
X020212Y003089D01*
X020212Y003088D02*
X019542Y003088D01*
X019542Y003087D02*
X020212Y003087D01*
X019542Y003087D01*
X019542Y003086D02*
X020212Y003086D01*
X020212Y003085D02*
X019542Y003085D01*
X019542Y003084D02*
X020212Y003084D01*
X020212Y003083D02*
X019542Y003083D01*
X020212Y003083D01*
X020212Y003082D02*
X019542Y003082D01*
X019542Y003081D02*
X020212Y003081D01*
X020212Y003080D02*
X019542Y003080D01*
X019542Y003079D02*
X020212Y003079D01*
X019542Y003079D01*
X019542Y003078D02*
X020212Y003078D01*
X020212Y003077D02*
X019542Y003077D01*
X019542Y003076D02*
X020212Y003076D01*
X020212Y003075D02*
X019542Y003075D01*
X020212Y003075D01*
X020212Y003074D02*
X019542Y003074D01*
X019542Y003073D02*
X020212Y003073D01*
X020212Y003072D02*
X019542Y003072D01*
X019542Y003071D02*
X020212Y003071D01*
X019542Y003071D01*
X019542Y003070D02*
X020212Y003070D01*
X020212Y003069D02*
X019542Y003069D01*
X019542Y003068D02*
X020212Y003068D01*
X020212Y003067D02*
X019542Y003067D01*
X020212Y003067D01*
X020212Y003066D02*
X019542Y003066D01*
X019542Y003065D02*
X020212Y003065D01*
X020212Y003064D02*
X019542Y003064D01*
X019542Y003063D02*
X020212Y003063D01*
X019542Y003063D01*
X019542Y003062D02*
X020212Y003062D01*
X020212Y003061D02*
X019542Y003061D01*
X019542Y003060D02*
X020212Y003060D01*
X020212Y003059D02*
X019542Y003059D01*
X019542Y003058D02*
X020212Y003058D01*
X019542Y003058D01*
X019542Y003057D02*
X020212Y003057D01*
X020212Y003056D02*
X019542Y003056D01*
X019542Y003055D02*
X020212Y003055D01*
X020212Y003054D02*
X019542Y003054D01*
X020212Y003054D01*
X020212Y003053D02*
X019542Y003053D01*
X019542Y003052D02*
X020212Y003052D01*
X020212Y003051D02*
X019542Y003051D01*
X019542Y003050D02*
X020212Y003050D01*
X019542Y003050D01*
X019542Y003049D02*
X020212Y003049D01*
X020212Y003048D02*
X019542Y003048D01*
X019542Y003047D02*
X020212Y003047D01*
X020212Y003046D02*
X019542Y003046D01*
X020212Y003046D01*
X020212Y003045D02*
X019542Y003045D01*
X019542Y003044D02*
X020212Y003044D01*
X020212Y003043D02*
X019542Y003043D01*
X019542Y003042D02*
X020212Y003042D01*
X019542Y003042D01*
X019542Y003041D02*
X020212Y003041D01*
X020212Y003040D02*
X019542Y003040D01*
X019542Y003039D02*
X020212Y003039D01*
X020212Y003038D02*
X019542Y003038D01*
X020212Y003038D01*
X020212Y003037D02*
X019542Y003037D01*
X019542Y003036D02*
X020212Y003036D01*
X020212Y003035D02*
X019542Y003035D01*
X019542Y003034D02*
X020212Y003034D01*
X019542Y003034D01*
X019542Y003033D02*
X020212Y003033D01*
X020212Y003032D02*
X019542Y003032D01*
X019542Y003031D02*
X020212Y003031D01*
X020212Y003030D02*
X019542Y003030D01*
X020212Y003030D01*
X020212Y003029D02*
X019542Y003029D01*
X019542Y003028D02*
X020212Y003028D01*
X020212Y003027D02*
X019542Y003027D01*
X019542Y003026D02*
X020212Y003026D01*
X019542Y003026D01*
X019542Y003025D02*
X020212Y003025D01*
X020212Y003024D02*
X019542Y003024D01*
X019542Y003023D02*
X020212Y003023D01*
X020212Y003022D02*
X019542Y003022D01*
X020212Y003022D01*
X020212Y003021D02*
X019542Y003021D01*
X019542Y003020D02*
X020212Y003020D01*
X020212Y003019D02*
X019542Y003019D01*
X019542Y003018D02*
X020212Y003018D01*
X019542Y003018D01*
X019542Y003017D02*
X020212Y003017D01*
X020212Y003016D02*
X019542Y003016D01*
X019542Y003015D02*
X020212Y003015D01*
X020212Y003014D02*
X019542Y003014D01*
X019542Y003013D02*
X020212Y003013D01*
X019542Y003013D01*
X019542Y003012D02*
X020212Y003012D01*
X020212Y003011D02*
X019542Y003011D01*
X019542Y003010D02*
X020212Y003010D01*
X020212Y003009D02*
X019542Y003009D01*
X020212Y003009D01*
X020212Y003008D02*
X019542Y003008D01*
X019542Y003007D02*
X020212Y003007D01*
X020212Y003006D02*
X019542Y003006D01*
X019542Y003005D02*
X020212Y003005D01*
X019542Y003005D01*
X019542Y003004D02*
X020212Y003004D01*
X020212Y003003D02*
X019542Y003003D01*
X019542Y003002D02*
X020212Y003002D01*
X020212Y003001D02*
X019542Y003001D01*
X020212Y003001D01*
X020212Y003000D02*
X019542Y003000D01*
X019542Y002999D02*
X020212Y002999D01*
X020212Y002998D02*
X019542Y002998D01*
X019542Y002997D02*
X020212Y002997D01*
X019542Y002997D01*
X019542Y002996D02*
X020212Y002996D01*
X020212Y002995D02*
X019542Y002995D01*
X019542Y002994D02*
X020212Y002994D01*
X020212Y002993D02*
X019542Y002993D01*
X020212Y002993D01*
X020212Y002992D02*
X019542Y002992D01*
X019542Y002991D02*
X020212Y002991D01*
X020212Y002990D02*
X019542Y002990D01*
X019542Y002989D02*
X020212Y002989D01*
X019542Y002989D01*
X019542Y002988D02*
X020212Y002988D01*
X020212Y002987D02*
X019542Y002987D01*
X019542Y002986D02*
X020212Y002986D01*
X020212Y002985D02*
X019542Y002985D01*
X020212Y002985D01*
X020212Y002984D02*
X019542Y002984D01*
X019542Y002983D02*
X020212Y002983D01*
X020212Y002982D02*
X019542Y002982D01*
X019542Y002981D02*
X020212Y002981D01*
X019542Y002981D01*
X019542Y002980D02*
X020212Y002980D01*
X020212Y002979D02*
X019542Y002979D01*
X019542Y002978D02*
X020212Y002978D01*
X020212Y002977D02*
X019542Y002977D01*
X020212Y002977D01*
X020212Y002976D02*
X019542Y002976D01*
X019542Y002975D02*
X020212Y002975D01*
X020212Y002974D02*
X019542Y002974D01*
X019542Y002973D02*
X020212Y002973D01*
X019542Y002973D01*
X019542Y002972D02*
X020212Y002972D01*
X020212Y002971D02*
X019542Y002971D01*
X019542Y002970D02*
X020212Y002970D01*
X020212Y002969D02*
X019542Y002969D01*
X020212Y002969D01*
X020212Y002968D02*
X019542Y002968D01*
X019542Y002967D02*
X020212Y002967D01*
X020212Y002966D02*
X019542Y002966D01*
X019542Y002965D02*
X020212Y002965D01*
X020212Y002964D02*
X019542Y002964D01*
X020212Y002964D01*
X020212Y002963D02*
X019542Y002963D01*
X019542Y002962D02*
X020212Y002962D01*
X020212Y002961D02*
X019542Y002961D01*
X019542Y002960D02*
X020212Y002960D01*
X019542Y002960D01*
X019542Y002959D02*
X020212Y002959D01*
X020212Y002958D02*
X019542Y002958D01*
X019542Y002957D02*
X020212Y002957D01*
X020212Y002956D02*
X019542Y002956D01*
X020212Y002956D01*
X020212Y002955D02*
X019542Y002955D01*
X019542Y002954D02*
X020212Y002954D01*
X020212Y002953D02*
X019542Y002953D01*
X019542Y002952D02*
X020212Y002952D01*
X019542Y002952D01*
X019542Y002951D02*
X020212Y002951D01*
X020212Y002950D02*
X019542Y002950D01*
X019542Y002949D02*
X020212Y002949D01*
X020212Y002948D02*
X019542Y002948D01*
X020212Y002948D01*
X020212Y002947D02*
X019542Y002947D01*
X019542Y002946D02*
X020212Y002946D01*
X020212Y002945D02*
X019542Y002945D01*
X019542Y002944D02*
X020212Y002944D01*
X019542Y002944D01*
X019542Y002943D02*
X020212Y002943D01*
X020212Y002942D02*
X019542Y002942D01*
X019542Y002941D02*
X020212Y002941D01*
X020212Y002940D02*
X019542Y002940D01*
X020212Y002940D01*
X020212Y002939D02*
X019542Y002939D01*
X019542Y002938D02*
X020212Y002938D01*
X020212Y002937D02*
X019542Y002937D01*
X019542Y002936D02*
X020212Y002936D01*
X019542Y002936D01*
X019542Y002935D02*
X020212Y002935D01*
X020212Y002934D02*
X019542Y002934D01*
X019542Y002933D02*
X020212Y002933D01*
X020212Y002932D02*
X019542Y002932D01*
X020212Y002932D01*
X020212Y002931D02*
X019542Y002931D01*
X019542Y002930D02*
X020212Y002930D01*
X020212Y002929D02*
X019542Y002929D01*
X019542Y002928D02*
X020212Y002928D01*
X019542Y002928D01*
X019542Y002927D02*
X020212Y002927D01*
X020212Y002926D02*
X019542Y002926D01*
X019542Y002925D02*
X020212Y002925D01*
X020212Y002924D02*
X019542Y002924D01*
X020212Y002924D01*
X020212Y002923D02*
X019542Y002923D01*
X019542Y002922D02*
X020212Y002922D01*
X020212Y002921D02*
X019542Y002921D01*
X019542Y002920D02*
X020212Y002920D01*
X019542Y002920D01*
X019542Y002919D02*
X020212Y002919D01*
X020212Y002918D02*
X019542Y002918D01*
X019542Y002917D02*
X020212Y002917D01*
X020212Y002916D02*
X019542Y002916D01*
X019542Y002915D02*
X020212Y002915D01*
X019542Y002915D01*
X019542Y002914D02*
X020212Y002914D01*
X020212Y002913D02*
X019542Y002913D01*
X019542Y002912D02*
X020212Y002912D01*
X020212Y002911D02*
X019542Y002911D01*
X020212Y002911D01*
X020212Y002910D02*
X019542Y002910D01*
X019542Y002909D02*
X020212Y002909D01*
X020212Y002908D02*
X019542Y002908D01*
X019542Y002907D02*
X020212Y002907D01*
X019542Y002907D01*
X019542Y002906D02*
X020212Y002906D01*
X020212Y002905D02*
X019542Y002905D01*
X019542Y002904D02*
X020212Y002904D01*
X020212Y002903D02*
X019542Y002903D01*
X020212Y002903D01*
X020212Y002902D02*
X019542Y002902D01*
X019542Y002901D02*
X020212Y002901D01*
X020212Y002900D02*
X019542Y002900D01*
X019542Y002899D02*
X020212Y002899D01*
X019542Y002899D01*
X019542Y002898D02*
X020212Y002898D01*
X020212Y002897D02*
X019542Y002897D01*
X019542Y002896D02*
X020212Y002896D01*
X020212Y002895D02*
X019542Y002895D01*
X020212Y002895D01*
X020212Y002894D02*
X019542Y002894D01*
X019542Y002893D02*
X020212Y002893D01*
X020212Y002892D02*
X019542Y002892D01*
X019542Y002891D02*
X020212Y002891D01*
X019542Y002891D01*
X019542Y002890D02*
X020212Y002890D01*
X020212Y002889D02*
X019542Y002889D01*
X019542Y002888D02*
X020212Y002888D01*
X020212Y002887D02*
X019542Y002887D01*
X020212Y002887D01*
X020212Y002886D02*
X019542Y002886D01*
X019542Y002885D02*
X020212Y002885D01*
X020212Y002884D02*
X019542Y002884D01*
X019542Y002883D02*
X020212Y002883D01*
X019542Y002883D01*
X019542Y002882D02*
X020212Y002882D01*
X020212Y002881D02*
X019542Y002881D01*
X019542Y002880D02*
X020212Y002880D01*
X020212Y002879D02*
X019542Y002879D01*
X020212Y002879D01*
X020212Y002878D02*
X019542Y002878D01*
X019542Y002877D02*
X020212Y002877D01*
X020212Y002876D02*
X019542Y002876D01*
X019542Y002875D02*
X020212Y002875D01*
X019542Y002875D01*
X019542Y002874D02*
X020212Y002874D01*
X020212Y002873D02*
X019542Y002873D01*
X019542Y002872D02*
X020212Y002872D01*
X020212Y002871D02*
X019542Y002871D01*
X019542Y002870D02*
X020212Y002870D01*
X019542Y002870D01*
X019542Y002869D02*
X020212Y002869D01*
X020212Y002868D02*
X019542Y002868D01*
X019542Y002867D02*
X020212Y002867D01*
X020212Y002866D02*
X019542Y002866D01*
X020212Y002866D01*
X020212Y002865D02*
X019542Y002865D01*
X019542Y002864D02*
X020212Y002864D01*
X020212Y002863D02*
X019542Y002863D01*
X019542Y002862D02*
X020212Y002862D01*
X019542Y002862D01*
X019542Y002861D02*
X020212Y002861D01*
X020212Y002860D02*
X019542Y002860D01*
X019542Y002859D02*
X020212Y002859D01*
X020212Y002858D02*
X019542Y002858D01*
X020212Y002858D01*
X020212Y002857D02*
X019542Y002857D01*
X019542Y002856D02*
X020212Y002856D01*
X020212Y002855D02*
X019542Y002855D01*
X019542Y002854D02*
X020212Y002854D01*
X019542Y002854D01*
X019542Y002853D02*
X020212Y002853D01*
X020212Y002852D02*
X019542Y002852D01*
X019542Y002851D02*
X020212Y002851D01*
X020212Y002850D02*
X019542Y002850D01*
X020212Y002850D01*
X020212Y002849D02*
X019542Y002849D01*
X019542Y002848D02*
X020212Y002848D01*
X020212Y002847D02*
X019542Y002847D01*
X019542Y002846D02*
X020212Y002846D01*
X019542Y002846D01*
X019542Y002845D02*
X020212Y002845D01*
X020212Y002844D02*
X019542Y002844D01*
X019542Y002843D02*
X020212Y002843D01*
X020212Y002842D02*
X019542Y002842D01*
X020212Y002842D01*
X020212Y002841D02*
X019542Y002841D01*
X019542Y002840D02*
X020212Y002840D01*
X020212Y002839D02*
X019542Y002839D01*
X019542Y002838D02*
X020212Y002838D01*
X019542Y002838D01*
X019542Y002837D02*
X020212Y002837D01*
X020212Y002836D02*
X019542Y002836D01*
X019542Y002835D02*
X020212Y002835D01*
X020212Y002834D02*
X019542Y002834D01*
X020212Y002834D01*
X020212Y002833D02*
X019542Y002833D01*
X019542Y002832D02*
X020212Y002832D01*
X020212Y002831D02*
X019542Y002831D01*
X019542Y002830D02*
X020212Y002830D01*
X019542Y002830D01*
X019542Y002829D02*
X020212Y002829D01*
X020212Y002828D02*
X019542Y002828D01*
X019542Y002827D02*
X020212Y002827D01*
X020212Y002826D02*
X019542Y002826D01*
X020212Y002826D01*
X020212Y002825D02*
X019542Y002825D01*
X019542Y002824D02*
X020212Y002824D01*
X020212Y002823D02*
X019542Y002823D01*
X019542Y002822D02*
X020212Y002822D01*
X020212Y002821D02*
X019542Y002821D01*
X020212Y002821D01*
X020212Y002820D02*
X019542Y002820D01*
X019542Y002819D02*
X020212Y002819D01*
X020212Y002818D02*
X019542Y002818D01*
X019542Y002817D02*
X020212Y002817D01*
X019542Y002817D01*
X019542Y002816D02*
X020212Y002816D01*
X020212Y002815D02*
X019542Y002815D01*
X019542Y002814D02*
X020212Y002814D01*
X020212Y002813D02*
X019542Y002813D01*
X020212Y002813D01*
X020212Y002812D02*
X019542Y002812D01*
X019542Y002811D02*
X020212Y002811D01*
X020212Y002810D02*
X019542Y002810D01*
X019542Y002809D02*
X020212Y002809D01*
X019542Y002809D01*
X019542Y002808D02*
X020212Y002808D01*
X020212Y002807D02*
X019542Y002807D01*
X019542Y002806D02*
X020212Y002806D01*
X020212Y002805D02*
X019542Y002805D01*
X020212Y002805D01*
X020212Y002804D02*
X019542Y002804D01*
X019542Y002803D02*
X020212Y002803D01*
X020212Y002802D02*
X019542Y002802D01*
X019542Y002801D02*
X020212Y002801D01*
X019542Y002801D01*
X019542Y002800D02*
X020212Y002800D01*
X020212Y002799D02*
X019542Y002799D01*
X019542Y002798D02*
X020212Y002798D01*
X020212Y002797D02*
X019542Y002797D01*
X020212Y002797D01*
X020212Y002796D02*
X019542Y002796D01*
X019542Y002795D02*
X020212Y002795D01*
X020212Y002794D02*
X019542Y002794D01*
X019542Y002793D02*
X020212Y002793D01*
X019542Y002793D01*
X019542Y002792D02*
X020212Y002792D01*
X020212Y002791D02*
X019542Y002791D01*
X019542Y002790D02*
X020212Y002790D01*
X020212Y002789D02*
X019542Y002789D01*
X020212Y002789D01*
X020212Y002788D02*
X019542Y002788D01*
X019542Y002787D02*
X020212Y002787D01*
X020212Y002786D02*
X019542Y002786D01*
X019542Y002785D02*
X020212Y002785D01*
X019542Y002785D01*
X019542Y002784D02*
X020212Y002784D01*
X020212Y002783D02*
X019542Y002783D01*
X019542Y002782D02*
X020212Y002782D01*
X020212Y002781D02*
X019542Y002781D01*
X020212Y002781D01*
X020212Y002780D02*
X019542Y002780D01*
X019542Y002779D02*
X020212Y002779D01*
X020212Y002778D02*
X019542Y002778D01*
X019542Y002777D02*
X020212Y002777D01*
X020212Y002776D02*
X019542Y002776D01*
X020212Y002776D01*
X020212Y002775D02*
X019542Y002775D01*
X019542Y002774D02*
X020212Y002774D01*
X020212Y002773D02*
X019542Y002773D01*
X019542Y002772D02*
X020212Y002772D01*
X019542Y002772D01*
X019542Y002771D02*
X020212Y002771D01*
X020212Y002770D02*
X019542Y002770D01*
X019542Y002769D02*
X020212Y002769D01*
X020212Y002768D02*
X019542Y002768D01*
X020212Y002768D01*
X020212Y002767D02*
X019542Y002767D01*
X019542Y002766D02*
X020212Y002766D01*
X020212Y002765D02*
X019542Y002765D01*
X019542Y002764D02*
X020212Y002764D01*
X019542Y002764D01*
X019542Y002763D02*
X020212Y002763D01*
X020212Y002762D02*
X019542Y002762D01*
X019542Y002761D02*
X020212Y002761D01*
X020212Y002760D02*
X019542Y002760D01*
X020212Y002760D01*
X020212Y002759D02*
X019542Y002759D01*
X019542Y002758D02*
X020212Y002758D01*
X020212Y002757D02*
X019542Y002757D01*
X019542Y002756D02*
X020212Y002756D01*
X019542Y002756D01*
X019542Y002755D02*
X020212Y002755D01*
X020212Y002754D02*
X019542Y002754D01*
X019542Y002753D02*
X020212Y002753D01*
X020212Y002752D02*
X019542Y002752D01*
X020212Y002752D01*
X020212Y002751D02*
X019542Y002751D01*
X019542Y002750D02*
X020212Y002750D01*
X020212Y002749D02*
X019542Y002749D01*
X019542Y002748D02*
X020212Y002748D01*
X019542Y002748D01*
X019542Y002747D02*
X020212Y002747D01*
X020212Y002746D02*
X019542Y002746D01*
X019542Y002745D02*
X020212Y002745D01*
X020212Y002744D02*
X019542Y002744D01*
X020212Y002744D01*
X020212Y002743D02*
X019542Y002743D01*
X019542Y002742D02*
X020212Y002742D01*
X020212Y002741D02*
X019542Y002741D01*
X019542Y002740D02*
X020212Y002740D01*
X019542Y002740D01*
X019542Y002739D02*
X020212Y002739D01*
X020212Y002738D02*
X019542Y002738D01*
X019542Y002737D02*
X020212Y002737D01*
X020212Y002736D02*
X019542Y002736D01*
X020212Y002736D01*
X020212Y002735D02*
X019542Y002735D01*
X019542Y002734D02*
X020212Y002734D01*
X020212Y002733D02*
X019542Y002733D01*
X019542Y002732D02*
X020212Y002732D01*
X019542Y002732D01*
X019542Y002731D02*
X020212Y002731D01*
X020212Y002730D02*
X019542Y002730D01*
X019542Y002729D02*
X020212Y002729D01*
X020212Y002728D02*
X019542Y002728D01*
X019542Y002727D02*
X020212Y002727D01*
X019542Y002727D01*
X019542Y002726D02*
X020212Y002726D01*
X020212Y002725D02*
X019542Y002725D01*
X019542Y002724D02*
X020212Y002724D01*
X020212Y002723D02*
X019542Y002723D01*
X020212Y002723D01*
X020212Y002722D02*
X019542Y002722D01*
X019542Y002721D02*
X020212Y002721D01*
X020212Y002720D02*
X019542Y002720D01*
X019542Y002719D02*
X020212Y002719D01*
X019542Y002719D01*
X019542Y002718D02*
X020212Y002718D01*
X020212Y002717D02*
X019542Y002717D01*
X019542Y002716D02*
X020212Y002716D01*
X020212Y002715D02*
X019542Y002715D01*
X020212Y002715D01*
X020212Y002714D02*
X019542Y002714D01*
X019542Y002713D02*
X020212Y002713D01*
X020212Y002712D02*
X019542Y002712D01*
X019542Y002711D02*
X020212Y002711D01*
X019542Y002711D01*
X019542Y002710D02*
X020212Y002710D01*
X020212Y002709D02*
X019542Y002709D01*
X019542Y002708D02*
X020212Y002708D01*
X020212Y002707D02*
X019542Y002707D01*
X020212Y002707D01*
X020212Y002706D02*
X019542Y002706D01*
X019542Y002705D02*
X020212Y002705D01*
X020212Y002704D02*
X019542Y002704D01*
X019542Y002703D02*
X020212Y002703D01*
X019542Y002703D01*
X019542Y002702D02*
X020212Y002702D01*
X020212Y002701D02*
X019542Y002701D01*
X019542Y002700D02*
X020212Y002700D01*
X020212Y002699D02*
X019542Y002699D01*
X020212Y002699D01*
X020212Y002698D02*
X019542Y002698D01*
X019542Y002697D02*
X020212Y002697D01*
X020212Y002696D02*
X019542Y002696D01*
X019542Y002695D02*
X020212Y002695D01*
X019542Y002695D01*
X019542Y002694D02*
X020212Y002694D01*
X020212Y002693D02*
X019542Y002693D01*
X019542Y002692D02*
X020212Y002692D01*
X020212Y002691D02*
X019542Y002691D01*
X020212Y002691D01*
X020212Y002690D02*
X019542Y002690D01*
X019542Y002689D02*
X020212Y002689D01*
X020212Y002688D02*
X019542Y002688D01*
X019542Y002687D02*
X020212Y002687D01*
X019542Y002687D01*
X019542Y002686D02*
X020212Y002686D01*
X020212Y002685D02*
X019542Y002685D01*
X019542Y002684D02*
X020212Y002684D01*
X020212Y002683D02*
X019542Y002683D01*
X020212Y002683D01*
X020212Y002682D02*
X019542Y002682D01*
X019542Y002681D02*
X020212Y002681D01*
X020212Y002680D02*
X019542Y002680D01*
X019542Y002679D02*
X020212Y002679D01*
X020212Y002678D02*
X019542Y002678D01*
X020212Y002678D01*
X020212Y002677D02*
X019542Y002677D01*
X019542Y002676D02*
X020212Y002676D01*
X020212Y002675D02*
X019542Y002675D01*
X019542Y002674D02*
X020212Y002674D01*
X019542Y002674D01*
X019542Y002673D02*
X020212Y002673D01*
X020212Y002672D02*
X019542Y002672D01*
X019542Y002671D02*
X020212Y002671D01*
X020212Y002670D02*
X019542Y002670D01*
X020212Y002670D01*
X020212Y002669D02*
X019542Y002669D01*
X019542Y002668D02*
X020212Y002668D01*
X020212Y002667D02*
X019542Y002667D01*
X019542Y002666D02*
X020212Y002666D01*
X019542Y002666D01*
X019542Y002665D02*
X020212Y002665D01*
X020212Y002664D02*
X019542Y002664D01*
X019542Y002663D02*
X020212Y002663D01*
X020212Y002662D02*
X019542Y002662D01*
X020212Y002662D01*
X020212Y002661D02*
X019542Y002661D01*
X019542Y002660D02*
X020212Y002660D01*
X020212Y002659D02*
X019542Y002659D01*
X019542Y002658D02*
X020212Y002658D01*
X019542Y002658D01*
X019542Y002657D02*
X020212Y002657D01*
X020212Y002656D02*
X019542Y002656D01*
X019542Y002655D02*
X020212Y002655D01*
X020212Y002654D02*
X019542Y002654D01*
X020212Y002654D01*
X020212Y002653D02*
X019542Y002653D01*
X019542Y002652D02*
X020212Y002652D01*
X020212Y002651D02*
X019542Y002651D01*
X019542Y002650D02*
X020212Y002650D01*
X019542Y002650D01*
X019542Y002649D02*
X020212Y002649D01*
X020212Y002648D02*
X019542Y002648D01*
X019542Y002647D02*
X020212Y002647D01*
X020212Y002646D02*
X019542Y002646D01*
X020212Y002646D01*
X020212Y002645D02*
X019542Y002645D01*
X019542Y002644D02*
X020212Y002644D01*
X020212Y002643D02*
X019542Y002643D01*
X019542Y002642D02*
X020212Y002642D01*
X019542Y002642D01*
X019542Y002641D02*
X020212Y002641D01*
X020212Y002640D02*
X019542Y002640D01*
X019542Y002639D02*
X020212Y002639D01*
X020212Y002638D02*
X019542Y002638D01*
X020212Y002638D01*
X020212Y002637D02*
X019542Y002637D01*
X019542Y002636D02*
X020212Y002636D01*
X020212Y002635D02*
X019542Y002635D01*
X019542Y002634D02*
X020212Y002634D01*
X020212Y002633D02*
X019542Y002633D01*
X020212Y002633D01*
X020212Y002632D02*
X019542Y002632D01*
X019542Y002631D02*
X020212Y002631D01*
X020212Y002630D02*
X019542Y002630D01*
X019542Y002629D02*
X020212Y002629D01*
X019542Y002629D01*
X019542Y002628D02*
X020212Y002628D01*
X020212Y002627D02*
X019542Y002627D01*
X019542Y002626D02*
X020212Y002626D01*
X020212Y002625D02*
X019542Y002625D01*
X020212Y002625D01*
X020212Y002624D02*
X019542Y002624D01*
X019542Y002623D02*
X020212Y002623D01*
X020212Y002622D02*
X019542Y002622D01*
X019542Y002621D02*
X020212Y002621D01*
X019542Y002621D01*
X019542Y002620D02*
X020212Y002620D01*
X020212Y002619D02*
X019542Y002619D01*
X019542Y002618D02*
X020212Y002618D01*
X020212Y002617D02*
X019542Y002617D01*
X020212Y002617D01*
X020212Y002616D02*
X019542Y002616D01*
X019542Y002615D02*
X020212Y002615D01*
X020212Y002614D02*
X019542Y002614D01*
X019542Y002613D02*
X020212Y002613D01*
X019542Y002613D01*
X019542Y002612D02*
X020212Y002612D01*
X020212Y002611D02*
X019542Y002611D01*
X019542Y002610D02*
X020212Y002610D01*
X020212Y002609D02*
X019542Y002609D01*
X020212Y002609D01*
X020212Y002608D02*
X019542Y002608D01*
X019542Y002607D02*
X020212Y002607D01*
X020212Y002606D02*
X019542Y002606D01*
X019542Y002605D02*
X020212Y002605D01*
X019542Y002605D01*
X019542Y002604D02*
X020212Y002604D01*
X020212Y002603D02*
X019542Y002603D01*
X019542Y002602D02*
X020212Y002602D01*
X020212Y002601D02*
X019542Y002601D01*
X020212Y002601D01*
X020212Y002600D02*
X019542Y002600D01*
X019542Y002599D02*
X020212Y002599D01*
X020212Y002598D02*
X019542Y002598D01*
X019542Y002597D02*
X020212Y002597D01*
X019542Y002597D01*
X019542Y002596D02*
X020212Y002596D01*
X020212Y002595D02*
X019542Y002595D01*
X019542Y002594D02*
X020212Y002594D01*
X020212Y002593D02*
X019542Y002593D01*
X020212Y002593D01*
X020212Y002592D02*
X019542Y002592D01*
X019542Y002591D02*
X020212Y002591D01*
X020212Y002590D02*
X019542Y002590D01*
X019542Y002589D02*
X020212Y002589D01*
X019542Y002589D01*
X019542Y002588D02*
X020212Y002588D01*
X020212Y002587D02*
X019542Y002587D01*
X019542Y002586D02*
X020212Y002586D01*
X020212Y002585D02*
X019542Y002585D01*
X019542Y002584D02*
X020212Y002584D01*
X019542Y002584D01*
X019542Y002583D02*
X020212Y002583D01*
X020212Y002582D02*
X019542Y002582D01*
X019542Y002581D02*
X020212Y002581D01*
X020212Y002580D02*
X019542Y002580D01*
X020212Y002580D01*
X020212Y002579D02*
X019542Y002579D01*
X019542Y002578D02*
X020212Y002578D01*
X020212Y002577D02*
X019542Y002577D01*
X019542Y002576D02*
X020212Y002576D01*
X019542Y002576D01*
X019542Y002575D02*
X020212Y002575D01*
X020212Y002574D02*
X019542Y002574D01*
X019542Y002573D02*
X020212Y002573D01*
X020212Y002572D02*
X019542Y002572D01*
X020212Y002572D01*
X020212Y002571D02*
X019542Y002571D01*
X019542Y002570D02*
X020212Y002570D01*
X020212Y002569D02*
X019542Y002569D01*
X019542Y002568D02*
X020212Y002568D01*
X019542Y002568D01*
X019542Y002567D02*
X020212Y002567D01*
X020212Y002566D02*
X019542Y002566D01*
X019542Y002565D02*
X020212Y002565D01*
X020212Y002564D02*
X019542Y002564D01*
X020212Y002564D01*
X020212Y002563D02*
X019542Y002563D01*
X019542Y002562D02*
X020212Y002562D01*
X020212Y002561D02*
X019542Y002561D01*
X019542Y002560D02*
X020212Y002560D01*
X019542Y002560D01*
X019542Y002559D02*
X020212Y002559D01*
X020212Y002558D02*
X019542Y002558D01*
X019542Y002557D02*
X020212Y002557D01*
X020212Y002556D02*
X019542Y002556D01*
X020212Y002556D01*
X020212Y002555D02*
X019542Y002555D01*
X019542Y002554D02*
X020212Y002554D01*
X020212Y002553D02*
X019542Y002553D01*
X019542Y002552D02*
X020212Y002552D01*
X019542Y002552D01*
X019542Y002551D02*
X020212Y002551D01*
X020212Y002550D02*
X019542Y002550D01*
X019542Y002549D02*
X020212Y002549D01*
X020212Y002548D02*
X019542Y002548D01*
X020212Y002548D01*
X020212Y002547D02*
X019542Y002547D01*
X019542Y002546D02*
X020212Y002546D01*
X020212Y002545D02*
X019542Y002545D01*
X019542Y002544D02*
X020212Y002544D01*
X019542Y002544D01*
X019542Y002543D02*
X020212Y002543D01*
X020212Y002542D02*
X019542Y002542D01*
X019542Y002541D02*
X020212Y002541D01*
X020212Y002540D02*
X019542Y002540D01*
X019542Y002539D02*
X020212Y002539D01*
X019542Y002539D01*
X019542Y002538D02*
X020212Y002538D01*
X020212Y002537D02*
X019542Y002537D01*
X019542Y002536D02*
X020212Y002536D01*
X020212Y002535D02*
X019542Y002535D01*
X020212Y002535D01*
X020212Y002534D02*
X019542Y002534D01*
X019542Y002533D02*
X020212Y002533D01*
X020212Y002532D02*
X019542Y002532D01*
X019542Y002531D02*
X020212Y002531D01*
X019542Y002531D01*
X019542Y002530D02*
X020212Y002530D01*
X020212Y002529D02*
X019542Y002529D01*
X019542Y002528D02*
X020212Y002528D01*
X020212Y002527D02*
X019542Y002527D01*
X020212Y002527D01*
X020212Y002526D02*
X019542Y002526D01*
X019542Y002525D02*
X020212Y002525D01*
X020212Y002524D02*
X019542Y002524D01*
X019542Y002523D02*
X020212Y002523D01*
X019542Y002523D01*
X019542Y002522D02*
X020212Y002522D01*
X020212Y002521D02*
X019542Y002521D01*
X019542Y002520D02*
X020212Y002520D01*
X020212Y002519D02*
X019542Y002519D01*
X020212Y002519D01*
X020212Y002518D02*
X019542Y002518D01*
X019542Y002517D02*
X020212Y002517D01*
X020212Y002516D02*
X019542Y002516D01*
X019542Y002515D02*
X020212Y002515D01*
X019542Y002515D01*
X019542Y002514D02*
X020212Y002514D01*
X020212Y002513D02*
X019542Y002513D01*
X019542Y002512D02*
X020212Y002512D01*
X020212Y002511D02*
X019542Y002511D01*
X020212Y002511D01*
X020212Y002510D02*
X019542Y002510D01*
X019542Y002509D02*
X020212Y002509D01*
X020212Y002508D02*
X019542Y002508D01*
X019542Y002507D02*
X020212Y002507D01*
X019542Y002507D01*
X019542Y002506D02*
X020212Y002506D01*
X020212Y002505D02*
X019542Y002505D01*
X019542Y002504D02*
X020212Y002504D01*
X020212Y002503D02*
X019542Y002503D01*
X020212Y002503D01*
X020212Y002502D02*
X019542Y002502D01*
X019542Y002501D02*
X020212Y002501D01*
X020212Y002500D02*
X019542Y002500D01*
X019542Y002499D02*
X020212Y002499D01*
X019542Y002499D01*
X019542Y002498D02*
X020212Y002498D01*
X020212Y002497D02*
X019542Y002497D01*
X019542Y002496D02*
X020212Y002496D01*
X020212Y002495D02*
X019542Y002495D01*
X020212Y002495D01*
X020212Y002494D02*
X019542Y002494D01*
X019542Y002493D02*
X020212Y002493D01*
X020212Y002492D02*
X019542Y002492D01*
X019542Y002491D02*
X020212Y002491D01*
X020212Y002490D02*
X019542Y002490D01*
X020212Y002490D01*
X020212Y002489D02*
X019542Y002489D01*
X019542Y002488D02*
X020212Y002488D01*
X020212Y002487D02*
X019542Y002487D01*
X019542Y002486D02*
X020212Y002486D01*
X019542Y002486D01*
X019542Y002485D02*
X020212Y002485D01*
X020212Y002484D02*
X019542Y002484D01*
X019542Y002483D02*
X020212Y002483D01*
X020212Y002482D02*
X019542Y002482D01*
X020212Y002482D01*
X020212Y002481D02*
X019542Y002481D01*
X019542Y002480D02*
X020212Y002480D01*
X020212Y002479D02*
X019542Y002479D01*
X019542Y002478D02*
X020212Y002478D01*
X019542Y002478D01*
X019542Y002477D02*
X020212Y002477D01*
X020212Y002476D02*
X019542Y002476D01*
X019542Y002475D02*
X020212Y002475D01*
X020212Y002474D02*
X019542Y002474D01*
X020212Y002474D01*
X020212Y002473D02*
X019542Y002473D01*
X019542Y002472D02*
X020212Y002472D01*
X020212Y002471D02*
X019542Y002471D01*
X019542Y002470D02*
X020212Y002470D01*
X019542Y002470D01*
X019542Y002469D02*
X020212Y002469D01*
X020212Y002468D02*
X019542Y002468D01*
X019542Y002467D02*
X020212Y002467D01*
X020212Y002466D02*
X019542Y002466D01*
X020212Y002466D01*
X020212Y002465D02*
X019542Y002465D01*
X019542Y002464D02*
X020212Y002464D01*
X020212Y002463D02*
X019542Y002463D01*
X019542Y002462D02*
X020212Y002462D01*
X019542Y002462D01*
X019542Y002461D02*
X020212Y002461D01*
X020212Y002460D02*
X019542Y002460D01*
X019542Y002459D02*
X020212Y002459D01*
X020212Y002458D02*
X019542Y002458D01*
X020212Y002458D01*
X020212Y002457D02*
X019542Y002457D01*
X019542Y002456D02*
X020212Y002456D01*
X020212Y002455D02*
X019542Y002455D01*
X019542Y002454D02*
X020212Y002454D01*
X019542Y002454D01*
X019542Y002453D02*
X020212Y002453D01*
X020212Y002452D02*
X019542Y002452D01*
X019542Y002451D02*
X020212Y002451D01*
X020212Y002450D02*
X019542Y002450D01*
X020212Y002450D01*
X020212Y002449D02*
X019542Y002449D01*
X019542Y002448D02*
X020212Y002448D01*
X020212Y002447D02*
X019542Y002447D01*
X019542Y002446D02*
X020212Y002446D01*
X020212Y002445D02*
X019542Y002445D01*
X020212Y002445D01*
X020212Y002444D02*
X019542Y002444D01*
X019542Y002443D02*
X020212Y002443D01*
X020212Y002442D02*
X019542Y002442D01*
X019542Y002441D02*
X020212Y002441D01*
X019542Y002441D01*
X019542Y002440D02*
X020212Y002440D01*
X020212Y002439D02*
X019542Y002439D01*
X019542Y002438D02*
X020212Y002438D01*
X020212Y002437D02*
X019542Y002437D01*
X020212Y002437D01*
X020212Y002436D02*
X019542Y002436D01*
X019542Y002435D02*
X020212Y002435D01*
X020212Y002434D02*
X019542Y002434D01*
X019542Y002433D02*
X020212Y002433D01*
X019542Y002433D01*
X019542Y002432D02*
X020212Y002432D01*
X020212Y002431D02*
X019542Y002431D01*
X019542Y002430D02*
X020212Y002430D01*
X020212Y002429D02*
X019542Y002429D01*
X020212Y002429D01*
X020212Y002428D02*
X019542Y002428D01*
X019542Y002427D02*
X020212Y002427D01*
X020212Y002426D02*
X019542Y002426D01*
X019542Y002425D02*
X020212Y002425D01*
X019542Y002425D01*
X019542Y002424D02*
X020212Y002424D01*
X020212Y002423D02*
X019542Y002423D01*
X019542Y002422D02*
X020212Y002422D01*
X020212Y002421D02*
X019542Y002421D01*
X020212Y002421D01*
X020212Y002420D02*
X019542Y002420D01*
X019542Y002419D02*
X020212Y002419D01*
X020212Y002418D02*
X019542Y002418D01*
X019542Y002417D02*
X020212Y002417D01*
X019542Y002417D01*
X019542Y002416D02*
X020212Y002416D01*
X020212Y002415D02*
X019542Y002415D01*
X019542Y002414D02*
X020212Y002414D01*
X020212Y002413D02*
X019542Y002413D01*
X020212Y002413D01*
X020212Y002412D02*
X019542Y002412D01*
X019542Y002411D02*
X020212Y002411D01*
X020212Y002410D02*
X019542Y002410D01*
X019542Y002409D02*
X020212Y002409D01*
X019542Y002409D01*
X019542Y002408D02*
X020212Y002408D01*
X020212Y002407D02*
X019542Y002407D01*
X019542Y002406D02*
X020212Y002406D01*
X020212Y002405D02*
X019542Y002405D01*
X020212Y002405D01*
X020212Y002404D02*
X019542Y002404D01*
X019542Y002403D02*
X020212Y002403D01*
X020212Y002402D02*
X019542Y002402D01*
X019542Y002401D02*
X020212Y002401D01*
X019542Y002401D01*
X019542Y002400D02*
X020212Y002400D01*
X020212Y002399D02*
X019542Y002399D01*
X019542Y002398D02*
X020212Y002398D01*
X020212Y002397D02*
X019542Y002397D01*
X019542Y002396D02*
X020212Y002396D01*
X019542Y002396D01*
X019542Y002395D02*
X020212Y002395D01*
X020212Y002394D02*
X019542Y002394D01*
X019542Y002393D02*
X020212Y002393D01*
X020212Y002392D02*
X019542Y002392D01*
X020212Y002392D01*
X020212Y002391D02*
X019542Y002391D01*
X019542Y002390D02*
X020212Y002390D01*
X020212Y002389D02*
X019542Y002389D01*
X019542Y002388D02*
X020212Y002388D01*
X019542Y002388D01*
X019542Y002387D02*
X020212Y002387D01*
X020212Y002386D02*
X019542Y002386D01*
X019542Y002385D02*
X020212Y002385D01*
X020212Y002384D02*
X019542Y002384D01*
X020212Y002384D01*
X020212Y002383D02*
X019542Y002383D01*
X019542Y002382D02*
X020212Y002382D01*
X020212Y002381D02*
X019542Y002381D01*
X019542Y002380D02*
X020212Y002380D01*
X019542Y002380D01*
X019542Y002379D02*
X020212Y002379D01*
X020212Y002378D02*
X019542Y002378D01*
X019542Y002377D02*
X020212Y002377D01*
X020212Y002376D02*
X019542Y002376D01*
X020212Y002376D01*
X020212Y002375D02*
X019542Y002375D01*
X019542Y002374D02*
X020212Y002374D01*
X020212Y002373D02*
X019542Y002373D01*
X019542Y002372D02*
X020212Y002372D01*
X019542Y002372D01*
X019542Y002371D02*
X020212Y002371D01*
X020212Y002370D02*
X019542Y002370D01*
X019542Y002369D02*
X020212Y002369D01*
X020212Y002368D02*
X019542Y002368D01*
X020212Y002368D01*
X020212Y002367D02*
X019542Y002367D01*
X019542Y002366D02*
X020212Y002366D01*
X020212Y002365D02*
X019542Y002365D01*
X019542Y002364D02*
X020212Y002364D01*
X019542Y002364D01*
X019542Y002363D02*
X020212Y002363D01*
X020212Y002362D02*
X019542Y002362D01*
X019542Y002361D02*
X020212Y002361D01*
X020212Y002360D02*
X019542Y002360D01*
X020212Y002360D01*
X020212Y002359D02*
X019542Y002359D01*
X019542Y002358D02*
X020212Y002358D01*
X020212Y002357D02*
X019542Y002357D01*
X019542Y002356D02*
X020212Y002356D01*
X019542Y002356D01*
X019542Y002355D02*
X020212Y002355D01*
X020212Y002354D02*
X019542Y002354D01*
X019542Y002353D02*
X020212Y002353D01*
X020212Y002352D02*
X019542Y002352D01*
X020212Y002352D01*
X020212Y002351D02*
X019542Y002351D01*
X019542Y002350D02*
X020212Y002350D01*
X020212Y002349D02*
X019542Y002349D01*
X019542Y002348D02*
X020212Y002348D01*
X020212Y002347D02*
X019542Y002347D01*
X020212Y002347D01*
X020212Y002346D02*
X019542Y002346D01*
X019542Y002345D02*
X020212Y002345D01*
X020212Y002344D02*
X019542Y002344D01*
X019542Y002343D02*
X020212Y002343D01*
X019542Y002343D01*
X019542Y002342D02*
X020212Y002342D01*
X020212Y002341D02*
X019542Y002341D01*
X019542Y002340D02*
X020212Y002340D01*
X020212Y002339D02*
X019542Y002339D01*
X020212Y002339D01*
X020212Y002338D02*
X019542Y002338D01*
X019542Y002337D02*
X020212Y002337D01*
X020212Y002336D02*
X019542Y002336D01*
X019542Y002335D02*
X020212Y002335D01*
X019542Y002335D01*
X019542Y002334D02*
X020212Y002334D01*
X020212Y002333D02*
X019542Y002333D01*
X019542Y002332D02*
X020212Y002332D01*
X020212Y002331D02*
X019542Y002331D01*
X020212Y002331D01*
X020212Y002330D02*
X019542Y002330D01*
X019542Y002329D02*
X020212Y002329D01*
X020212Y002328D02*
X019542Y002328D01*
X019542Y002327D02*
X020212Y002327D01*
X019542Y002327D01*
X019542Y002326D02*
X020212Y002326D01*
X020212Y002325D02*
X019542Y002325D01*
X019542Y002324D02*
X020212Y002324D01*
X020212Y002323D02*
X019542Y002323D01*
X020212Y002323D01*
X020212Y002322D02*
X019542Y002322D01*
X019542Y002321D02*
X020212Y002321D01*
X020212Y002320D02*
X019542Y002320D01*
X019542Y002319D02*
X020212Y002319D01*
X019542Y002319D01*
X019542Y002318D02*
X020212Y002318D01*
X020212Y002317D02*
X019542Y002317D01*
X019542Y002316D02*
X020212Y002316D01*
X020212Y002315D02*
X019542Y002315D01*
X020212Y002315D01*
X020212Y002314D02*
X019542Y002314D01*
X019542Y002313D02*
X020212Y002313D01*
X020212Y002312D02*
X019542Y002312D01*
X019542Y002311D02*
X020212Y002311D01*
X019542Y002311D01*
X019542Y002310D02*
X020212Y002310D01*
X020212Y002309D02*
X019542Y002309D01*
X019542Y002308D02*
X020212Y002308D01*
X020212Y002307D02*
X019542Y002307D01*
X020212Y002307D01*
X020212Y002306D02*
X019542Y002306D01*
X019542Y002305D02*
X020212Y002305D01*
X020212Y002304D02*
X019542Y002304D01*
X019542Y002303D02*
X020212Y002303D01*
X020212Y002302D02*
X019542Y002302D01*
X020212Y002302D01*
X020212Y002301D02*
X019542Y002301D01*
X019542Y002300D02*
X020212Y002300D01*
X020212Y002299D02*
X019542Y002299D01*
X019542Y002298D02*
X020212Y002298D01*
X019542Y002298D01*
X019542Y002297D02*
X020212Y002297D01*
X020212Y002296D02*
X019542Y002296D01*
X019542Y002295D02*
X020212Y002295D01*
X020212Y002294D02*
X019542Y002294D01*
X020212Y002294D01*
X020212Y002293D02*
X019542Y002293D01*
X019542Y002292D02*
X020212Y002292D01*
X020212Y002291D02*
X019542Y002291D01*
X019542Y002290D02*
X020212Y002290D01*
X019542Y002290D01*
X019542Y002289D02*
X020212Y002289D01*
X020212Y002288D02*
X019542Y002288D01*
X019542Y002287D02*
X020212Y002287D01*
X020212Y002286D02*
X019542Y002286D01*
X020212Y002286D01*
X020212Y002285D02*
X019542Y002285D01*
X019542Y002284D02*
X020212Y002284D01*
X020212Y002283D02*
X019542Y002283D01*
X019542Y002282D02*
X020212Y002282D01*
X019542Y002282D01*
X019542Y002281D02*
X020212Y002281D01*
X020212Y002280D02*
X019542Y002280D01*
X019542Y002279D02*
X020212Y002279D01*
X020212Y002278D02*
X019542Y002278D01*
X020212Y002278D01*
X020212Y002277D02*
X019542Y002277D01*
X019542Y002276D02*
X020212Y002276D01*
X020212Y002275D02*
X019542Y002275D01*
X019542Y002274D02*
X020212Y002274D01*
X019542Y002274D01*
X019542Y002273D02*
X020212Y002273D01*
X020212Y002272D02*
X019542Y002272D01*
X019542Y002271D02*
X020212Y002271D01*
X020212Y002270D02*
X019542Y002270D01*
X020212Y002270D01*
X020212Y002269D02*
X019542Y002269D01*
X019542Y002268D02*
X020212Y002268D01*
X020212Y002267D02*
X019542Y002267D01*
X019542Y002266D02*
X020212Y002266D01*
X019542Y002266D01*
X019542Y002265D02*
X020212Y002265D01*
X020212Y002264D02*
X019542Y002264D01*
X019542Y002263D02*
X020212Y002263D01*
X020212Y002262D02*
X019542Y002262D01*
X020212Y002262D01*
X020212Y002261D02*
X019542Y002261D01*
X019542Y002260D02*
X020212Y002260D01*
X020212Y002259D02*
X019542Y002259D01*
X019542Y002258D02*
X020212Y002258D01*
X019542Y002258D01*
X019542Y002257D02*
X020212Y002257D01*
X020212Y002256D02*
X019542Y002256D01*
X019542Y002255D02*
X020212Y002255D01*
X020212Y002254D02*
X019542Y002254D01*
X019542Y002253D02*
X020212Y002253D01*
X019542Y002253D01*
X019542Y002252D02*
X020212Y002252D01*
X020212Y002251D02*
X019542Y002251D01*
X019542Y002250D02*
X020212Y002250D01*
X020212Y002249D02*
X019542Y002249D01*
X020212Y002249D01*
X020212Y002248D02*
X019542Y002248D01*
X019542Y002247D02*
X020212Y002247D01*
X020212Y002246D02*
X019542Y002246D01*
X019542Y002245D02*
X020212Y002245D01*
X019542Y002245D01*
X019542Y002244D02*
X020212Y002244D01*
X020212Y002243D02*
X019542Y002243D01*
X019542Y002242D02*
X020212Y002242D01*
X020212Y002241D02*
X019542Y002241D01*
X020212Y002241D01*
X020212Y002240D02*
X019542Y002240D01*
X019542Y002239D02*
X020212Y002239D01*
X020212Y002238D02*
X019542Y002238D01*
X019542Y002237D02*
X020212Y002237D01*
X019542Y002237D01*
X019542Y002236D02*
X020212Y002236D01*
X020212Y002235D02*
X019542Y002235D01*
X019542Y002234D02*
X020212Y002234D01*
X020212Y002233D02*
X019542Y002233D01*
X020212Y002233D01*
X020212Y002232D02*
X019542Y002232D01*
X019542Y002231D02*
X020212Y002231D01*
X020212Y002230D02*
X019542Y002230D01*
X019542Y002229D02*
X020212Y002229D01*
X019542Y002229D01*
X019542Y002228D02*
X020212Y002228D01*
X020212Y002227D02*
X019542Y002227D01*
X019542Y002226D02*
X020212Y002226D01*
X020212Y002225D02*
X019542Y002225D01*
X020212Y002225D01*
X020212Y002224D02*
X019542Y002224D01*
X019542Y002223D02*
X020212Y002223D01*
X020212Y002222D02*
X019542Y002222D01*
X019542Y002221D02*
X020212Y002221D01*
X019542Y002221D01*
X019542Y002220D02*
X020212Y002220D01*
X020212Y002219D02*
X019542Y002219D01*
X019542Y002218D02*
X020212Y002218D01*
X020212Y002217D02*
X019542Y002217D01*
X020212Y002217D01*
X020212Y002216D02*
X019542Y002216D01*
X019542Y002215D02*
X020212Y002215D01*
X020212Y002214D02*
X019542Y002214D01*
X019542Y002213D02*
X020212Y002213D01*
X019542Y002213D01*
X019542Y002212D02*
X020212Y002212D01*
X020212Y002211D02*
X019542Y002211D01*
X019542Y002210D02*
X020212Y002210D01*
X020212Y002209D02*
X019542Y002209D01*
X019542Y002208D02*
X020212Y002208D01*
X019542Y002208D01*
X019542Y002207D02*
X020212Y002207D01*
X020212Y002206D02*
X019542Y002206D01*
X019542Y002205D02*
X020212Y002205D01*
X020212Y002204D02*
X019542Y002204D01*
X020212Y002204D01*
X020212Y002203D02*
X019542Y002203D01*
X019542Y002202D02*
X020212Y002202D01*
X020212Y002201D02*
X019542Y002201D01*
X019542Y002200D02*
X020212Y002200D01*
X019542Y002200D01*
X019542Y002199D02*
X020212Y002199D01*
X020212Y002198D02*
X019542Y002198D01*
X019542Y002197D02*
X020212Y002197D01*
X020212Y002196D02*
X019542Y002196D01*
X020212Y002196D01*
X020212Y002195D02*
X019542Y002195D01*
X019542Y002194D02*
X020212Y002194D01*
X020212Y002193D02*
X019542Y002193D01*
X019542Y002192D02*
X020212Y002192D01*
X019542Y002192D01*
X019542Y002191D02*
X020212Y002191D01*
X020212Y002190D02*
X019542Y002190D01*
X019542Y002189D02*
X020212Y002189D01*
X020212Y002188D02*
X019542Y002188D01*
X020212Y002188D01*
X020212Y002187D02*
X019542Y002187D01*
X019542Y002186D02*
X020212Y002186D01*
X020212Y002185D02*
X019542Y002185D01*
X019542Y002184D02*
X020212Y002184D01*
X019542Y002184D01*
X019542Y002183D02*
X020212Y002183D01*
X020212Y002182D02*
X019542Y002182D01*
X019542Y002181D02*
X020212Y002181D01*
X020212Y002180D02*
X019542Y002180D01*
X020212Y002180D01*
X020212Y002179D02*
X019542Y002179D01*
X019542Y002178D02*
X020212Y002178D01*
X020212Y002177D02*
X019542Y002177D01*
X019542Y002176D02*
X020212Y002176D01*
X019542Y002176D01*
X019542Y002175D02*
X020212Y002175D01*
X020212Y002174D02*
X019542Y002174D01*
X019542Y002173D02*
X020212Y002173D01*
X020212Y002172D02*
X019542Y002172D01*
X020212Y002172D01*
X020212Y002171D02*
X019542Y002171D01*
X019542Y002170D02*
X020212Y002170D01*
X020212Y002169D02*
X019542Y002169D01*
X019542Y002168D02*
X020212Y002168D01*
X019542Y002168D01*
X019542Y002167D02*
X020212Y002167D01*
X020212Y002166D02*
X019542Y002166D01*
X019542Y002165D02*
X020212Y002165D01*
X020212Y002164D02*
X019542Y002164D01*
X020212Y002164D01*
X020212Y002163D02*
X019542Y002163D01*
X019542Y002162D02*
X020212Y002162D01*
X020212Y002161D02*
X019542Y002161D01*
X019542Y002160D02*
X020212Y002160D01*
X020212Y002159D02*
X019542Y002159D01*
X020212Y002159D01*
X020212Y002158D02*
X019542Y002158D01*
X019542Y002157D02*
X020212Y002157D01*
X020212Y002156D02*
X019542Y002156D01*
X019542Y002155D02*
X020212Y002155D01*
X019542Y002155D01*
X019542Y002154D02*
X020212Y002154D01*
X020212Y002153D02*
X019542Y002153D01*
X019542Y002152D02*
X020212Y002152D01*
X020212Y002151D02*
X019542Y002151D01*
X020212Y002151D01*
X020212Y002150D02*
X019542Y002150D01*
X019542Y002149D02*
X020212Y002149D01*
X020212Y002148D02*
X019542Y002148D01*
X019542Y002147D02*
X020212Y002147D01*
X019542Y002147D01*
X019542Y002146D02*
X020212Y002146D01*
X020212Y002145D02*
X019542Y002145D01*
X019542Y002144D02*
X020212Y002144D01*
X020212Y002143D02*
X019542Y002143D01*
X020212Y002143D01*
X020212Y002142D02*
X019542Y002142D01*
X019542Y002141D02*
X020212Y002141D01*
X020212Y002140D02*
X019542Y002140D01*
X019542Y002139D02*
X020212Y002139D01*
X019542Y002139D01*
X019542Y002138D02*
X020212Y002138D01*
X020212Y002137D02*
X019542Y002137D01*
X019542Y002136D02*
X020212Y002136D01*
X020212Y002135D02*
X019542Y002135D01*
X020212Y002135D01*
X020212Y002134D02*
X019542Y002134D01*
X019542Y002133D02*
X020212Y002133D01*
X020212Y002132D02*
X019542Y002132D01*
X019542Y002131D02*
X020212Y002131D01*
X019542Y002131D01*
X019542Y002130D02*
X020212Y002130D01*
X020212Y002129D02*
X019542Y002129D01*
X019542Y002128D02*
X020212Y002128D01*
X020212Y002127D02*
X019542Y002127D01*
X020212Y002127D01*
X020212Y002126D02*
X019542Y002126D01*
X019542Y002125D02*
X020212Y002125D01*
X020212Y002124D02*
X019542Y002124D01*
X019542Y002123D02*
X020212Y002123D01*
X019542Y002123D01*
X019542Y002122D02*
X020212Y002122D01*
X020212Y002121D02*
X019542Y002121D01*
X019542Y002120D02*
X020212Y002120D01*
X020212Y002119D02*
X019542Y002119D01*
X020212Y002119D01*
X020212Y002118D02*
X019542Y002118D01*
X019542Y002117D02*
X020212Y002117D01*
X020212Y002116D02*
X019542Y002116D01*
X019542Y002115D02*
X020212Y002115D01*
X020212Y002114D02*
X019542Y002114D01*
X020212Y002114D01*
X020212Y002113D02*
X019542Y002113D01*
X019542Y002112D02*
X020212Y002112D01*
X020212Y002111D02*
X019542Y002111D01*
X019542Y002110D02*
X020212Y002110D01*
X019542Y002110D01*
X019542Y002109D02*
X020212Y002109D01*
X020212Y002108D02*
X019542Y002108D01*
X019542Y002107D02*
X020212Y002107D01*
X020212Y002106D02*
X019542Y002106D01*
X020212Y002106D01*
X020212Y002105D02*
X019542Y002105D01*
X019542Y002104D02*
X020212Y002104D01*
X020212Y002103D02*
X019542Y002103D01*
X019542Y002102D02*
X020212Y002102D01*
X019542Y002102D01*
X019542Y002101D02*
X020212Y002101D01*
X020212Y002100D02*
X019542Y002100D01*
X019542Y002099D02*
X020212Y002099D01*
X020212Y002098D02*
X019542Y002098D01*
X020212Y002098D01*
X020212Y002097D02*
X019542Y002097D01*
X019542Y002096D02*
X020212Y002096D01*
X020212Y002095D02*
X019542Y002095D01*
X019542Y002094D02*
X020212Y002094D01*
X019542Y002094D01*
X019542Y002093D02*
X020212Y002093D01*
X020212Y002092D02*
X019542Y002092D01*
X019542Y002091D02*
X020212Y002091D01*
X020212Y002090D02*
X019542Y002090D01*
X020212Y002090D01*
X020212Y002089D02*
X019542Y002089D01*
X019542Y002088D02*
X020212Y002088D01*
X020212Y002087D02*
X019542Y002087D01*
X019542Y002086D02*
X020212Y002086D01*
X019542Y002086D01*
X019542Y002085D02*
X020212Y002085D01*
X020212Y002084D02*
X019542Y002084D01*
X019542Y002083D02*
X020212Y002083D01*
X020212Y002082D02*
X019542Y002082D01*
X020212Y002082D01*
X020212Y002081D02*
X019542Y002081D01*
X019542Y002080D02*
X020212Y002080D01*
X020212Y002079D02*
X019542Y002079D01*
X019542Y002078D02*
X020212Y002078D01*
X019542Y002078D01*
X019542Y002077D02*
X020212Y002077D01*
X020212Y002076D02*
X019542Y002076D01*
X019542Y002075D02*
X020212Y002075D01*
X020212Y002074D02*
X019542Y002074D01*
X020212Y002074D01*
X020212Y002073D02*
X019542Y002073D01*
X019542Y002072D02*
X020212Y002072D01*
X020212Y002071D02*
X019542Y002071D01*
X019542Y002070D02*
X020212Y002070D01*
X019542Y002070D01*
X019542Y002069D02*
X020212Y002069D01*
X020212Y002068D02*
X019542Y002068D01*
X019542Y002067D02*
X020212Y002067D01*
X020212Y002066D02*
X019542Y002066D01*
X019542Y002065D02*
X020212Y002065D01*
X019542Y002065D01*
X019542Y002064D02*
X020212Y002064D01*
X020212Y002063D02*
X019542Y002063D01*
X019542Y002062D02*
X020212Y002062D01*
X020212Y002061D02*
X019542Y002061D01*
X020212Y002061D01*
X020212Y002060D02*
X019542Y002060D01*
X019542Y002059D02*
X020212Y002059D01*
X020212Y002058D02*
X019542Y002058D01*
X019542Y002057D02*
X020212Y002057D01*
X019542Y002057D01*
X019542Y002056D02*
X020212Y002056D01*
X020212Y002055D02*
X019542Y002055D01*
X019542Y002054D02*
X020212Y002054D01*
X020212Y002053D02*
X019542Y002053D01*
X020212Y002053D01*
X020212Y002052D02*
X019542Y002052D01*
X019542Y002051D02*
X020212Y002051D01*
X020212Y002050D02*
X019542Y002050D01*
X019542Y002049D02*
X020212Y002049D01*
X019542Y002049D01*
X019542Y002048D02*
X020212Y002048D01*
X020212Y002047D02*
X019542Y002047D01*
X019542Y002046D02*
X020212Y002046D01*
X020212Y002045D02*
X019542Y002045D01*
X020212Y002045D01*
X020212Y002044D02*
X019542Y002044D01*
X019542Y002043D02*
X020212Y002043D01*
X020212Y002042D02*
X019542Y002042D01*
X019542Y002041D02*
X020212Y002041D01*
X019542Y002041D01*
X019542Y002040D02*
X020212Y002040D01*
X020212Y002039D02*
X019542Y002039D01*
X019542Y002038D02*
X020212Y002038D01*
X020212Y002037D02*
X019542Y002037D01*
X020212Y002037D01*
X020212Y002036D02*
X019542Y002036D01*
X019542Y002035D02*
X020212Y002035D01*
X020212Y002034D02*
X019542Y002034D01*
X019542Y002033D02*
X020212Y002033D01*
X019542Y002033D01*
X019542Y002032D02*
X020212Y002032D01*
X020212Y002031D02*
X019542Y002031D01*
X019542Y002030D02*
X020212Y002030D01*
X020212Y002029D02*
X019542Y002029D01*
X020212Y002029D01*
X020212Y002028D02*
X019542Y002028D01*
X019542Y002027D02*
X020212Y002027D01*
X020212Y002026D02*
X019542Y002026D01*
X019542Y002025D02*
X020212Y002025D01*
X019542Y002025D01*
X019542Y002024D02*
X020212Y002024D01*
X020212Y002023D02*
X019542Y002023D01*
X019542Y002022D02*
X020212Y002022D01*
X020212Y002021D02*
X019542Y002021D01*
X020212Y002021D01*
X020212Y002020D02*
X019542Y002020D01*
X019542Y002019D02*
X020212Y002019D01*
X020212Y002018D02*
X019542Y002018D01*
X019542Y002017D02*
X020212Y002017D01*
X020212Y002016D02*
X019542Y002016D01*
X020212Y002016D01*
X020212Y002015D02*
X019542Y002015D01*
X019542Y002014D02*
X020212Y002014D01*
X020212Y002013D02*
X019542Y002013D01*
X019542Y002012D02*
X020212Y002012D01*
X019542Y002012D01*
X019542Y002011D02*
X020212Y002011D01*
X020212Y002010D02*
X019542Y002010D01*
X019542Y002009D02*
X020212Y002009D01*
X020212Y002008D02*
X019542Y002008D01*
X020212Y002008D01*
X020212Y002007D02*
X019542Y002007D01*
X019542Y002006D02*
X020212Y002006D01*
X020212Y002005D02*
X019542Y002005D01*
X019542Y002004D02*
X020212Y002004D01*
X019542Y002004D01*
X019542Y002003D02*
X020212Y002003D01*
X020212Y002002D02*
X019542Y002002D01*
X019542Y002001D02*
X020212Y002001D01*
X020212Y002000D02*
X019542Y002000D01*
X020212Y002000D01*
X020212Y001999D02*
X019542Y001999D01*
X019542Y001998D02*
X020212Y001998D01*
X020212Y001997D02*
X019542Y001997D01*
X019542Y001996D02*
X020212Y001996D01*
X019542Y001996D01*
X019542Y001995D02*
X020212Y001995D01*
X020212Y001994D02*
X019542Y001994D01*
X019542Y001993D02*
X020212Y001993D01*
X020212Y001992D02*
X019542Y001992D01*
X020212Y001992D01*
X020212Y001991D02*
X019542Y001991D01*
X019542Y001990D02*
X020212Y001990D01*
X020212Y001989D02*
X019542Y001989D01*
X019542Y001988D02*
X020212Y001988D01*
X019542Y001988D01*
X019542Y001987D02*
X020212Y001987D01*
X020212Y001986D02*
X019542Y001986D01*
X019542Y001985D02*
X020212Y001985D01*
X020212Y001984D02*
X019542Y001984D01*
X020212Y001984D01*
X020212Y001983D02*
X019542Y001983D01*
X019542Y001982D02*
X020212Y001982D01*
X020212Y001981D02*
X019542Y001981D01*
X019542Y001980D02*
X020212Y001980D01*
X019542Y001980D01*
X019542Y001979D02*
X020212Y001979D01*
X020212Y001978D02*
X019542Y001978D01*
X019542Y001977D02*
X020212Y001977D01*
X020212Y001976D02*
X019542Y001976D01*
X020212Y001976D01*
X020212Y001975D02*
X019542Y001975D01*
X019542Y001974D02*
X020212Y001974D01*
X020212Y001973D02*
X019542Y001973D01*
X019542Y001972D02*
X020212Y001972D01*
X020212Y001971D02*
X019542Y001971D01*
X020212Y001971D01*
X020212Y001970D02*
X019542Y001970D01*
X019542Y001969D02*
X020212Y001969D01*
X020212Y001968D02*
X019542Y001968D01*
X019542Y001967D02*
X020212Y001967D01*
X019542Y001967D01*
X019542Y001966D02*
X020212Y001966D01*
X020212Y001965D02*
X019542Y001965D01*
X019542Y001964D02*
X020212Y001964D01*
X020212Y001963D02*
X019542Y001963D01*
X020212Y001963D01*
X020212Y001962D02*
X019542Y001962D01*
X019542Y001961D02*
X020212Y001961D01*
X020212Y001960D02*
X019542Y001960D01*
X019542Y001959D02*
X020212Y001959D01*
X019542Y001959D01*
X019542Y001958D02*
X020212Y001958D01*
X020212Y001957D02*
X019542Y001957D01*
X019542Y001956D02*
X020212Y001956D01*
X020212Y001955D02*
X019542Y001955D01*
X020212Y001955D01*
X020212Y001954D02*
X019542Y001954D01*
X019542Y001953D02*
X020212Y001953D01*
X020212Y001952D02*
X019542Y001952D01*
X019542Y001951D02*
X020212Y001951D01*
X019542Y001951D01*
X019542Y001950D02*
X020212Y001950D01*
X020212Y001949D02*
X019542Y001949D01*
X019542Y001948D02*
X020212Y001948D01*
X020212Y001947D02*
X019542Y001947D01*
X020212Y001947D01*
X020212Y001946D02*
X019542Y001946D01*
X019542Y001945D02*
X020212Y001945D01*
X020212Y001944D02*
X019542Y001944D01*
X019542Y001943D02*
X020212Y001943D01*
X019542Y001943D01*
X019542Y001942D02*
X020212Y001942D01*
X020212Y001941D02*
X019542Y001941D01*
X019542Y001940D02*
X020212Y001940D01*
X020212Y001939D02*
X019542Y001939D01*
X020212Y001939D01*
X020212Y001938D02*
X019542Y001938D01*
X019542Y001937D02*
X020212Y001937D01*
X020212Y001936D02*
X019542Y001936D01*
X019542Y001935D02*
X020212Y001935D01*
X019542Y001935D01*
X019542Y001934D02*
X020212Y001934D01*
X020212Y001933D02*
X019542Y001933D01*
X019542Y001932D02*
X020212Y001932D01*
X020212Y001931D02*
X019542Y001931D01*
X020212Y001931D01*
X020212Y001930D02*
X019542Y001930D01*
X019542Y001929D02*
X020212Y001929D01*
X020212Y001928D02*
X019542Y001928D01*
X019542Y001927D02*
X020212Y001927D01*
X019542Y001927D01*
X019542Y001926D02*
X020212Y001926D01*
X020212Y001925D02*
X019542Y001925D01*
X019542Y001924D02*
X020212Y001924D01*
X020212Y001923D02*
X019542Y001923D01*
X019542Y001922D02*
X020212Y001922D01*
X019542Y001922D01*
X019542Y001921D02*
X020212Y001921D01*
X020212Y001920D02*
X019542Y001920D01*
X019542Y001919D02*
X020212Y001919D01*
X020212Y001918D02*
X019542Y001918D01*
X020212Y001918D01*
X020212Y001917D02*
X019542Y001917D01*
X019542Y001916D02*
X020212Y001916D01*
X020212Y001915D02*
X019542Y001915D01*
X019542Y001914D02*
X020212Y001914D01*
X019542Y001914D01*
X019542Y001913D02*
X020212Y001913D01*
X020212Y001912D02*
X019542Y001912D01*
X019542Y001911D02*
X020212Y001911D01*
X020212Y001910D02*
X019542Y001910D01*
X020212Y001910D01*
X020212Y001909D02*
X019542Y001909D01*
X019542Y001908D02*
X020212Y001908D01*
X020212Y001907D02*
X019542Y001907D01*
X019542Y001906D02*
X020212Y001906D01*
X019542Y001906D01*
X019542Y001905D02*
X020212Y001905D01*
X020212Y001904D02*
X019542Y001904D01*
X019542Y001903D02*
X020212Y001903D01*
X020212Y001902D02*
X019542Y001902D01*
X020212Y001902D01*
X020212Y001901D02*
X019542Y001901D01*
X019542Y001900D02*
X020212Y001900D01*
X020212Y001899D02*
X019542Y001899D01*
X019542Y001898D02*
X020212Y001898D01*
X019542Y001898D01*
X019542Y001897D02*
X020212Y001897D01*
X020212Y001896D02*
X019542Y001896D01*
X019542Y001895D02*
X020212Y001895D01*
X020212Y001894D02*
X019542Y001894D01*
X020212Y001894D01*
X020212Y001893D02*
X019542Y001893D01*
X019542Y001892D02*
X020212Y001892D01*
X020212Y001891D02*
X019542Y001891D01*
X019542Y001890D02*
X020212Y001890D01*
X019542Y001890D01*
X019542Y001889D02*
X020212Y001889D01*
X020212Y001888D02*
X019542Y001888D01*
X019542Y001887D02*
X020212Y001887D01*
X020212Y001886D02*
X019542Y001886D01*
X020212Y001886D01*
X020212Y001885D02*
X019542Y001885D01*
X019542Y001884D02*
X020212Y001884D01*
X020212Y001883D02*
X019542Y001883D01*
X019542Y001882D02*
X020212Y001882D01*
X019542Y001882D01*
X019542Y001881D02*
X020212Y001881D01*
X020212Y001880D02*
X019542Y001880D01*
X019542Y001879D02*
X020212Y001879D01*
X020212Y001878D02*
X019542Y001878D01*
X019542Y001877D02*
X020212Y001877D01*
X019542Y001877D01*
X019542Y001876D02*
X020212Y001876D01*
X020212Y001875D02*
X019542Y001875D01*
X019542Y001874D02*
X020212Y001874D01*
X020212Y001873D02*
X019542Y001873D01*
X020212Y001873D01*
X020212Y001872D02*
X019542Y001872D01*
X019542Y001871D02*
X020212Y001871D01*
X020212Y001870D02*
X019542Y001870D01*
X019542Y001869D02*
X020212Y001869D01*
X019542Y001869D01*
X019542Y001868D02*
X020212Y001868D01*
X020212Y001867D02*
X019542Y001867D01*
X019542Y001866D02*
X020212Y001866D01*
X020212Y001865D02*
X019542Y001865D01*
X020212Y001865D01*
X020212Y001864D02*
X019542Y001864D01*
X019542Y001863D02*
X020212Y001863D01*
X020212Y001862D02*
X019542Y001862D01*
X019542Y001861D02*
X020212Y001861D01*
X019542Y001861D01*
X019542Y001860D02*
X020212Y001860D01*
X020212Y001859D02*
X019542Y001859D01*
X019542Y001858D02*
X020212Y001858D01*
X020212Y001857D02*
X019542Y001857D01*
X020212Y001857D01*
X020212Y001856D02*
X019542Y001856D01*
X019542Y001855D02*
X020212Y001855D01*
X020212Y001854D02*
X019542Y001854D01*
X019542Y001853D02*
X020212Y001853D01*
X019542Y001853D01*
X019542Y001852D02*
X020212Y001852D01*
X020212Y001851D02*
X019542Y001851D01*
X019542Y001850D02*
X020212Y001850D01*
X020212Y001849D02*
X019542Y001849D01*
X020212Y001849D01*
X020212Y001848D02*
X019542Y001848D01*
X019542Y001847D02*
X020212Y001847D01*
X020212Y001846D02*
X019542Y001846D01*
X019542Y001845D02*
X020212Y001845D01*
X019542Y001845D01*
X019542Y001844D02*
X020212Y001844D01*
X020212Y001843D02*
X019542Y001843D01*
X019542Y001842D02*
X020212Y001842D01*
X020212Y001841D02*
X019542Y001841D01*
X020212Y001841D01*
X020212Y001840D02*
X019542Y001840D01*
X019542Y001839D02*
X020212Y001839D01*
X020212Y001838D02*
X019542Y001838D01*
X019542Y001837D02*
X020212Y001837D01*
X019542Y001837D01*
X019542Y001836D02*
X020212Y001836D01*
X020212Y001835D02*
X019542Y001835D01*
X019542Y001834D02*
X020212Y001834D01*
X020212Y001833D02*
X019542Y001833D01*
X020212Y001833D01*
X020212Y001832D02*
X019542Y001832D01*
X019542Y001831D02*
X020212Y001831D01*
X020212Y001830D02*
X019542Y001830D01*
X019542Y001829D02*
X020212Y001829D01*
X020212Y001828D02*
X019542Y001828D01*
X020212Y001828D01*
X020212Y001827D02*
X019542Y001827D01*
X019542Y001826D02*
X020212Y001826D01*
X020212Y001825D02*
X019542Y001825D01*
X019542Y001824D02*
X020212Y001824D01*
X019542Y001824D01*
X019542Y001823D02*
X020212Y001823D01*
X020212Y001822D02*
X019542Y001822D01*
X019542Y001821D02*
X020212Y001821D01*
X020212Y001820D02*
X019542Y001820D01*
X020212Y001820D01*
X020212Y001819D02*
X019542Y001819D01*
X019542Y001818D02*
X020212Y001818D01*
X020212Y001817D02*
X019542Y001817D01*
X019542Y001816D02*
X020212Y001816D01*
X019542Y001816D01*
X019542Y001815D02*
X020212Y001815D01*
X020212Y001814D02*
X019542Y001814D01*
X019542Y001813D02*
X020212Y001813D01*
X020212Y001812D02*
X019542Y001812D01*
X020212Y001812D01*
X020212Y001811D02*
X019542Y001811D01*
X019542Y001810D02*
X020212Y001810D01*
X020212Y001809D02*
X019542Y001809D01*
X019542Y001808D02*
X020212Y001808D01*
X019542Y001808D01*
X019542Y001807D02*
X020212Y001807D01*
X020212Y001806D02*
X019542Y001806D01*
X019542Y001805D02*
X020212Y001805D01*
X020212Y001804D02*
X019542Y001804D01*
X020212Y001804D01*
X020212Y001803D02*
X019542Y001803D01*
X019542Y001802D02*
X020212Y001802D01*
X020212Y001801D02*
X019542Y001801D01*
X019542Y001800D02*
X020212Y001800D01*
X019542Y001800D01*
X019542Y001799D02*
X020212Y001799D01*
X020212Y001798D02*
X019542Y001798D01*
X019542Y001797D02*
X020212Y001797D01*
X020212Y001796D02*
X019542Y001796D01*
X020212Y001796D01*
X020212Y001795D02*
X019542Y001795D01*
X019542Y001794D02*
X020212Y001794D01*
X020212Y001793D02*
X019542Y001793D01*
X019542Y001792D02*
X020212Y001792D01*
X019542Y001792D01*
X019542Y001791D02*
X020212Y001791D01*
X020212Y001790D02*
X019542Y001790D01*
X019542Y001789D02*
X020212Y001789D01*
X020212Y001788D02*
X019542Y001788D01*
X020212Y001788D01*
X020212Y001787D02*
X019542Y001787D01*
X019542Y001786D02*
X020212Y001786D01*
X020212Y001785D02*
X019542Y001785D01*
X019542Y001784D02*
X020212Y001784D01*
X019542Y001784D01*
X019542Y001783D02*
X020212Y001783D01*
X020212Y001782D02*
X019542Y001782D01*
X019542Y001781D02*
X020212Y001781D01*
X020212Y001780D02*
X019542Y001780D01*
X019542Y001779D02*
X020212Y001779D01*
X019542Y001779D01*
X019542Y001778D02*
X020212Y001778D01*
X020212Y001777D02*
X019542Y001777D01*
X019542Y001776D02*
X020212Y001776D01*
X020212Y001775D02*
X019542Y001775D01*
X020212Y001775D01*
X020212Y001774D02*
X019542Y001774D01*
X019542Y001773D02*
X020212Y001773D01*
X020212Y001772D02*
X019542Y001772D01*
X019542Y001771D02*
X020212Y001771D01*
X019542Y001771D01*
X019542Y001770D02*
X020212Y001770D01*
X020212Y001769D02*
X019542Y001769D01*
X019542Y001768D02*
X020212Y001768D01*
X020212Y001767D02*
X019542Y001767D01*
X020212Y001767D01*
X020212Y001766D02*
X019542Y001766D01*
X019542Y001765D02*
X020212Y001765D01*
X020212Y001764D02*
X019542Y001764D01*
X019542Y001763D02*
X020212Y001763D01*
X019542Y001763D01*
X019542Y001762D02*
X020212Y001762D01*
X020212Y001761D02*
X019542Y001761D01*
X019542Y001760D02*
X020212Y001760D01*
X020212Y001759D02*
X019542Y001759D01*
X020212Y001759D01*
X020212Y001758D02*
X019542Y001758D01*
X019542Y001757D02*
X020212Y001757D01*
X020212Y001756D02*
X019542Y001756D01*
X019542Y001755D02*
X020212Y001755D01*
X019542Y001755D01*
X019542Y001754D02*
X020212Y001754D01*
X020212Y001753D02*
X019542Y001753D01*
X019542Y001752D02*
X020212Y001752D01*
X020212Y001751D02*
X019542Y001751D01*
X020212Y001751D01*
X020212Y001750D02*
X019542Y001750D01*
X019542Y001749D02*
X020212Y001749D01*
X020212Y001748D02*
X019542Y001748D01*
X019542Y001747D02*
X020212Y001747D01*
X019542Y001747D01*
X019542Y001746D02*
X020212Y001746D01*
X020212Y001745D02*
X019542Y001745D01*
X019542Y001744D02*
X020212Y001744D01*
X020212Y001743D02*
X019542Y001743D01*
X020212Y001743D01*
X020212Y001742D02*
X019542Y001742D01*
X019542Y001741D02*
X020212Y001741D01*
X020212Y001740D02*
X019542Y001740D01*
X019542Y001739D02*
X020212Y001739D01*
X019542Y001739D01*
X019542Y001738D02*
X020212Y001738D01*
X020212Y001737D02*
X019542Y001737D01*
X019542Y001736D02*
X020212Y001736D01*
X020212Y001735D02*
X019542Y001735D01*
X019542Y001734D02*
X020212Y001734D01*
X019542Y001734D01*
X019542Y001733D02*
X020212Y001733D01*
X020212Y001732D02*
X019542Y001732D01*
X019542Y001731D02*
X020212Y001731D01*
X020212Y001730D02*
X019542Y001730D01*
X020212Y001730D01*
X020212Y001729D02*
X019542Y001729D01*
X019542Y001728D02*
X020212Y001728D01*
X020212Y001727D02*
X019542Y001727D01*
X019542Y001726D02*
X020212Y001726D01*
X019542Y001726D01*
X019542Y001725D02*
X020212Y001725D01*
X020212Y001724D02*
X019542Y001724D01*
X019542Y001723D02*
X020212Y001723D01*
X020212Y001722D02*
X019542Y001722D01*
X020212Y001722D01*
X020212Y001721D02*
X019542Y001721D01*
X019542Y001720D02*
X020212Y001720D01*
X020212Y001719D02*
X019542Y001719D01*
X019542Y001718D02*
X020212Y001718D01*
X019542Y001718D01*
X019542Y001717D02*
X020212Y001717D01*
X020212Y001716D02*
X019542Y001716D01*
X019542Y001715D02*
X020212Y001715D01*
X020212Y001714D02*
X019542Y001714D01*
X020212Y001714D01*
X020212Y001713D02*
X019542Y001713D01*
X019542Y001712D02*
X020212Y001712D01*
X020212Y001711D02*
X019542Y001711D01*
X019542Y001710D02*
X020212Y001710D01*
X019542Y001710D01*
X019542Y001709D02*
X020212Y001709D01*
X020212Y001708D02*
X019542Y001708D01*
X019542Y001707D02*
X020212Y001707D01*
X020212Y001706D02*
X019542Y001706D01*
X020212Y001706D01*
X020212Y001705D02*
X019542Y001705D01*
X019542Y001704D02*
X020212Y001704D01*
X020212Y001703D02*
X019542Y001703D01*
X019542Y001702D02*
X020212Y001702D01*
X019542Y001702D01*
X019542Y001701D02*
X020212Y001701D01*
X020212Y001700D02*
X019542Y001700D01*
X019542Y001699D02*
X020212Y001699D01*
X020212Y001698D02*
X019542Y001698D01*
X020212Y001698D01*
X020212Y001697D02*
X019542Y001697D01*
X019542Y001696D02*
X020212Y001696D01*
X020212Y001695D02*
X019542Y001695D01*
X019542Y001694D02*
X020212Y001694D01*
X019542Y001694D01*
X019542Y001693D02*
X020212Y001693D01*
X020212Y001692D02*
X019542Y001692D01*
X019542Y001691D02*
X020212Y001691D01*
X020212Y001690D02*
X019542Y001690D01*
X020212Y001690D01*
X020212Y001689D02*
X019542Y001689D01*
X019542Y001688D02*
X020212Y001688D01*
X020212Y001687D02*
X019542Y001687D01*
X019542Y001686D02*
X020212Y001686D01*
X020212Y001685D02*
X019542Y001685D01*
X020212Y001685D01*
X020212Y001684D02*
X019542Y001684D01*
X019542Y001683D02*
X020212Y001683D01*
X020212Y001682D02*
X019542Y001682D01*
X019542Y001681D02*
X020212Y001681D01*
X019542Y001681D01*
X019542Y001680D02*
X020212Y001680D01*
X020212Y001679D02*
X019542Y001679D01*
X019542Y001678D02*
X020212Y001678D01*
X020212Y001677D02*
X019542Y001677D01*
X020212Y001677D01*
X020212Y001676D02*
X019542Y001676D01*
X019542Y001675D02*
X020212Y001675D01*
X020212Y001674D02*
X019542Y001674D01*
X019542Y001673D02*
X020212Y001673D01*
X019542Y001673D01*
X019542Y001672D02*
X020212Y001672D01*
X020212Y001671D02*
X019542Y001671D01*
X019542Y001670D02*
X020212Y001670D01*
X020212Y001669D02*
X019542Y001669D01*
X020212Y001669D01*
X020212Y001668D02*
X019542Y001668D01*
X019542Y001667D02*
X020212Y001667D01*
X020212Y001666D02*
X019542Y001666D01*
X019542Y001665D02*
X020212Y001665D01*
X019542Y001665D01*
X019542Y001664D02*
X020212Y001664D01*
X020212Y001663D02*
X019542Y001663D01*
X019542Y001662D02*
X020212Y001662D01*
X020212Y001661D02*
X019542Y001661D01*
X020212Y001661D01*
X020212Y001660D02*
X019542Y001660D01*
X019542Y001659D02*
X020212Y001659D01*
X020212Y001658D02*
X019542Y001658D01*
X019542Y001657D02*
X020212Y001657D01*
X019542Y001657D01*
X019542Y001656D02*
X020212Y001656D01*
X020212Y001655D02*
X019542Y001655D01*
X019542Y001654D02*
X020212Y001654D01*
X020212Y001653D02*
X019542Y001653D01*
X020212Y001653D01*
X020212Y001652D02*
X019542Y001652D01*
X019542Y001651D02*
X020212Y001651D01*
X020212Y001650D02*
X019542Y001650D01*
X019542Y001649D02*
X020212Y001649D01*
X019542Y001649D01*
X019542Y001648D02*
X020212Y001648D01*
X020212Y001647D02*
X019542Y001647D01*
X019542Y001646D02*
X020212Y001646D01*
X020212Y001645D02*
X019542Y001645D01*
X020212Y001645D01*
X020212Y001644D02*
X019542Y001644D01*
X019542Y001643D02*
X020212Y001643D01*
X020212Y001642D02*
X019542Y001642D01*
X019542Y001641D02*
X020212Y001641D01*
X020212Y001640D02*
X019542Y001640D01*
X020212Y001640D01*
X020212Y001639D02*
X019542Y001639D01*
X019542Y001638D02*
X020212Y001638D01*
X020212Y001637D02*
X019542Y001637D01*
X019542Y001636D02*
X020212Y001636D01*
X019542Y001636D01*
X019542Y001635D02*
X020212Y001635D01*
X020212Y001634D02*
X019542Y001634D01*
X019542Y001633D02*
X020212Y001633D01*
X020212Y001632D02*
X019542Y001632D01*
X020212Y001632D01*
X020212Y001631D02*
X019542Y001631D01*
X019542Y001630D02*
X020212Y001630D01*
X020212Y001629D02*
X019542Y001629D01*
X019542Y001628D02*
X020212Y001628D01*
X019542Y001628D01*
X019542Y001627D02*
X020212Y001627D01*
X020212Y001626D02*
X019542Y001626D01*
X019542Y001625D02*
X020212Y001625D01*
X020212Y001624D02*
X019542Y001624D01*
X020212Y001624D01*
X020212Y001623D02*
X019542Y001623D01*
X019542Y001622D02*
X020212Y001622D01*
X020212Y001621D02*
X019542Y001621D01*
X019542Y001620D02*
X020212Y001620D01*
X019542Y001620D01*
X019542Y001619D02*
X020212Y001619D01*
X020212Y001618D02*
X019542Y001618D01*
X019542Y001617D02*
X020212Y001617D01*
X020212Y001616D02*
X019542Y001616D01*
X020212Y001616D01*
X020212Y001615D02*
X019542Y001615D01*
X019542Y001614D02*
X020212Y001614D01*
X020212Y001613D02*
X019542Y001613D01*
X019542Y001612D02*
X020212Y001612D01*
X019542Y001612D01*
X019542Y001611D02*
X020212Y001611D01*
X020212Y001610D02*
X019542Y001610D01*
X019542Y001609D02*
X020212Y001609D01*
X020212Y001608D02*
X019542Y001608D01*
X020212Y001608D01*
X020212Y001607D02*
X019542Y001607D01*
X019542Y001606D02*
X020212Y001606D01*
X020212Y001605D02*
X019542Y001605D01*
X019542Y001604D02*
X020212Y001604D01*
X019542Y001604D01*
X019542Y001603D02*
X020212Y001603D01*
X020212Y001602D02*
X019542Y001602D01*
X019542Y001601D02*
X020212Y001601D01*
X020212Y001600D02*
X019542Y001600D01*
X020212Y001600D01*
X020212Y001599D02*
X019542Y001599D01*
X019542Y001598D02*
X020212Y001598D01*
X020212Y001597D02*
X019542Y001597D01*
X019542Y001596D02*
X020212Y001596D01*
X019542Y001596D01*
X019542Y001595D02*
X020212Y001595D01*
X020212Y001594D02*
X019542Y001594D01*
X019542Y001593D02*
X020212Y001593D01*
X020212Y001592D02*
X019542Y001592D01*
X019542Y001591D02*
X020212Y001591D01*
X019542Y001591D01*
X019542Y001590D02*
X020212Y001590D01*
X020212Y001589D02*
X019542Y001589D01*
X019542Y001588D02*
X020212Y001588D01*
X020212Y001587D02*
X019542Y001587D01*
X020212Y001587D01*
X020212Y001586D02*
X019542Y001586D01*
X019542Y001585D02*
X020212Y001585D01*
X020212Y001584D02*
X019542Y001584D01*
X019542Y001583D02*
X020212Y001583D01*
X019542Y001583D01*
X019542Y001582D02*
X020212Y001582D01*
X020212Y001581D02*
X019542Y001581D01*
X019542Y001580D02*
X020212Y001580D01*
X020212Y001579D02*
X019542Y001579D01*
X020212Y001579D01*
X020212Y001578D02*
X019542Y001578D01*
X019542Y001577D02*
X020212Y001577D01*
X020212Y001576D02*
X019542Y001576D01*
X019542Y001575D02*
X020212Y001575D01*
X019542Y001575D01*
X019542Y001574D02*
X020212Y001574D01*
X020212Y001573D02*
X019542Y001573D01*
X019542Y001572D02*
X020212Y001572D01*
X020212Y001571D02*
X019542Y001571D01*
X020212Y001571D01*
X020212Y001570D02*
X019542Y001570D01*
X019542Y001569D02*
X020212Y001569D01*
X020212Y001568D02*
X019542Y001568D01*
X019542Y001567D02*
X020212Y001567D01*
X019542Y001567D01*
X019542Y001566D02*
X020212Y001566D01*
X020212Y001565D02*
X019542Y001565D01*
X019542Y001564D02*
X020212Y001564D01*
X020212Y001563D02*
X019542Y001563D01*
X020212Y001563D01*
X020212Y001562D02*
X019542Y001562D01*
X019542Y001561D02*
X020212Y001561D01*
X020212Y001560D02*
X019542Y001560D01*
X019542Y001559D02*
X020212Y001559D01*
X019542Y001559D01*
X019542Y001558D02*
X020212Y001558D01*
X020212Y001557D02*
X019542Y001557D01*
X019542Y001556D02*
X020212Y001556D01*
X020212Y001555D02*
X019542Y001555D01*
X020212Y001555D01*
X020212Y001554D02*
X019542Y001554D01*
X019542Y001553D02*
X020212Y001553D01*
X020212Y001552D02*
X019542Y001552D01*
X019542Y001551D02*
X020212Y001551D01*
X019542Y001551D01*
X019542Y001550D02*
X020212Y001550D01*
X020212Y001549D02*
X019542Y001549D01*
X019542Y001548D02*
X020212Y001548D01*
X020212Y001547D02*
X019542Y001547D01*
X019542Y001546D02*
X020212Y001546D01*
X019542Y001546D01*
X019542Y001545D02*
X020212Y001545D01*
X020212Y001544D02*
X019542Y001544D01*
X019542Y001543D02*
X020212Y001543D01*
X020212Y001542D02*
X019542Y001542D01*
X020212Y001542D01*
X020212Y001541D02*
X019542Y001541D01*
X019542Y001540D02*
X020212Y001540D01*
X020212Y001539D02*
X019542Y001539D01*
X019542Y001538D02*
X020212Y001538D01*
X019542Y001538D01*
X019542Y001537D02*
X020212Y001537D01*
X020212Y001536D02*
X019542Y001536D01*
X019542Y001535D02*
X020212Y001535D01*
X020212Y001534D02*
X019542Y001534D01*
X020212Y001534D01*
X020212Y001533D02*
X019542Y001533D01*
X019542Y001532D02*
X020212Y001532D01*
X020212Y001531D02*
X019542Y001531D01*
X019542Y001530D02*
X020212Y001530D01*
X019542Y001530D01*
X019542Y001529D02*
X020212Y001529D01*
X020212Y001528D02*
X019542Y001528D01*
X019542Y001527D02*
X020212Y001527D01*
X020212Y001526D02*
X019542Y001526D01*
X020212Y001526D01*
X020212Y001525D02*
X019542Y001525D01*
X019542Y001524D02*
X020212Y001524D01*
X020212Y001523D02*
X019542Y001523D01*
X019542Y001522D02*
X020212Y001522D01*
X019542Y001522D01*
X019542Y001521D02*
X020212Y001521D01*
X020212Y001520D02*
X019542Y001520D01*
X019542Y001519D02*
X020212Y001519D01*
X020212Y001518D02*
X019542Y001518D01*
X020212Y001518D01*
X020212Y001517D02*
X019542Y001517D01*
X019542Y001516D02*
X020212Y001516D01*
X020212Y001515D02*
X019542Y001515D01*
X019542Y001514D02*
X020212Y001514D01*
X019542Y001514D01*
X019542Y001513D02*
X020212Y001513D01*
X020212Y001512D02*
X019542Y001512D01*
X019542Y001511D02*
X020212Y001511D01*
X020212Y001510D02*
X019542Y001510D01*
X020212Y001510D01*
X020212Y001509D02*
X019542Y001509D01*
X019542Y001508D02*
X020212Y001508D01*
X020212Y001507D02*
X019542Y001507D01*
X019542Y001506D02*
X020212Y001506D01*
X019542Y001506D01*
X019542Y001505D02*
X020212Y001505D01*
X020212Y001504D02*
X019542Y001504D01*
X019542Y001503D02*
X020212Y001503D01*
X020212Y001502D02*
X019542Y001502D01*
X020212Y001502D01*
X020212Y001501D02*
X019542Y001501D01*
X019542Y001500D02*
X020212Y001500D01*
X020212Y001499D02*
X019542Y001499D01*
X019542Y001498D02*
X020212Y001498D01*
X020212Y001497D02*
X019542Y001497D01*
X020212Y001497D01*
X020212Y001496D02*
X019542Y001496D01*
X019542Y001495D02*
X020212Y001495D01*
X020212Y001494D02*
X019542Y001494D01*
X019542Y001493D02*
X020212Y001493D01*
X019542Y001493D01*
X019542Y001492D02*
X020212Y001492D01*
X020212Y001491D02*
X019542Y001491D01*
X019542Y001490D02*
X020212Y001490D01*
X020212Y001489D02*
X019542Y001489D01*
X020212Y001489D01*
X020212Y001488D02*
X019542Y001488D01*
X019542Y001487D02*
X020212Y001487D01*
X020212Y001486D02*
X019542Y001486D01*
X019542Y001485D02*
X020212Y001485D01*
X019542Y001485D01*
X019542Y001484D02*
X020212Y001484D01*
X020212Y001483D02*
X019542Y001483D01*
X019542Y001482D02*
X020212Y001482D01*
X020212Y001481D02*
X019542Y001481D01*
X020212Y001481D01*
X020212Y001480D02*
X019542Y001480D01*
X019542Y001479D02*
X020212Y001479D01*
X020212Y001478D02*
X019542Y001478D01*
X019542Y001477D02*
X020212Y001477D01*
X019542Y001477D01*
X019542Y001476D02*
X020212Y001476D01*
X020212Y001475D02*
X019542Y001475D01*
X019542Y001474D02*
X020212Y001474D01*
X020212Y001473D02*
X019542Y001473D01*
X020212Y001473D01*
X020212Y001472D02*
X019542Y001472D01*
X019542Y001471D02*
X020212Y001471D01*
X020212Y001470D02*
X019542Y001470D01*
X019542Y001469D02*
X020212Y001469D01*
X019542Y001469D01*
X019542Y001468D02*
X020212Y001468D01*
X020212Y001467D02*
X019542Y001467D01*
X019542Y001466D02*
X020212Y001466D01*
X020212Y001465D02*
X019542Y001465D01*
X020212Y001465D01*
X020212Y001464D02*
X019542Y001464D01*
X019542Y001463D02*
X020212Y001463D01*
X020212Y001462D02*
X019542Y001462D01*
X019542Y001461D02*
X020212Y001461D01*
X019542Y001461D01*
X019542Y001460D02*
X020212Y001460D01*
X020212Y001459D02*
X019542Y001459D01*
X019542Y001458D02*
X020212Y001458D01*
X020212Y001457D02*
X019542Y001457D01*
X020212Y001457D01*
X020212Y001456D02*
X019542Y001456D01*
X019542Y001455D02*
X020212Y001455D01*
X020212Y001454D02*
X019542Y001454D01*
X019542Y001453D02*
X020212Y001453D01*
X019542Y001453D01*
X019542Y001452D02*
X020212Y001452D01*
X020212Y001451D02*
X019542Y001451D01*
X019542Y001450D02*
X020212Y001450D01*
X020212Y001449D02*
X019542Y001449D01*
X019542Y001448D02*
X020212Y001448D01*
X019542Y001448D01*
X019542Y001447D02*
X020212Y001447D01*
X020212Y001446D02*
X019542Y001446D01*
X019542Y001445D02*
X020212Y001445D01*
X020212Y001444D02*
X019542Y001444D01*
X020212Y001444D01*
X020212Y001443D02*
X019542Y001443D01*
X019542Y001442D02*
X020212Y001442D01*
X020212Y001441D02*
X019542Y001441D01*
X019542Y001440D02*
X020212Y001440D01*
X019542Y001440D01*
X019542Y001439D02*
X020212Y001439D01*
X020212Y001438D02*
X019542Y001438D01*
X019542Y001437D02*
X020212Y001437D01*
X020212Y001436D02*
X019542Y001436D01*
X020212Y001436D01*
X020212Y001435D02*
X019542Y001435D01*
X019542Y001434D02*
X020212Y001434D01*
X020212Y001433D02*
X019542Y001433D01*
X019542Y001432D02*
X020211Y001432D01*
X020210Y001432D02*
X019542Y001432D01*
X019542Y001431D02*
X020209Y001431D01*
X020208Y001430D02*
X019542Y001430D01*
X019542Y001429D02*
X020208Y001429D01*
X020207Y001428D02*
X019542Y001428D01*
X020206Y001428D01*
X020205Y001427D02*
X019542Y001427D01*
X019542Y001426D02*
X020204Y001426D01*
X020203Y001425D02*
X019542Y001425D01*
X019542Y001424D02*
X020203Y001424D01*
X020202Y001424D02*
X019542Y001424D01*
X019542Y001423D02*
X020201Y001423D01*
X020200Y001422D02*
X019542Y001422D01*
X019542Y001421D02*
X020199Y001421D01*
X020199Y001420D02*
X019542Y001420D01*
X020198Y001420D01*
X020197Y001419D02*
X019542Y001419D01*
X019542Y001418D02*
X020196Y001418D01*
X020195Y001417D02*
X019542Y001417D01*
X019542Y001416D02*
X020195Y001416D01*
X020194Y001416D02*
X019542Y001416D01*
X019542Y001415D02*
X020193Y001415D01*
X020192Y001414D02*
X019542Y001414D01*
X019542Y001413D02*
X020191Y001413D01*
X020191Y001412D02*
X019542Y001412D01*
X020190Y001412D01*
X020189Y001411D02*
X019542Y001411D01*
X019542Y001410D02*
X020188Y001410D01*
X020187Y001409D02*
X019542Y001409D01*
X019542Y001408D02*
X020187Y001408D01*
X020186Y001408D02*
X019542Y001408D01*
X019542Y001407D02*
X020185Y001407D01*
X020184Y001406D02*
X019542Y001406D01*
X019542Y001405D02*
X020183Y001405D01*
X020183Y001404D02*
X019542Y001404D01*
X019542Y001403D02*
X020182Y001403D01*
X020181Y001403D02*
X019542Y001403D01*
X019542Y001402D02*
X020180Y001402D01*
X020179Y001401D02*
X019542Y001401D01*
X019542Y001400D02*
X020179Y001400D01*
X020178Y001399D02*
X019542Y001399D01*
X020177Y001399D01*
X020176Y001398D02*
X019542Y001398D01*
X019542Y001397D02*
X020175Y001397D01*
X020175Y001396D02*
X019542Y001396D01*
X019542Y001395D02*
X020174Y001395D01*
X020173Y001395D02*
X019542Y001395D01*
X019542Y001394D02*
X020172Y001394D01*
X020171Y001393D02*
X019542Y001393D01*
X019542Y001392D02*
X020171Y001392D01*
X020170Y001391D02*
X019542Y001391D01*
X020169Y001391D01*
X020168Y001390D02*
X019542Y001390D01*
X019542Y001389D02*
X020167Y001389D01*
X020167Y001388D02*
X019542Y001388D01*
X019542Y001387D02*
X020166Y001387D01*
X020165Y001387D02*
X019542Y001387D01*
X019542Y001386D02*
X020164Y001386D01*
X020163Y001385D02*
X019542Y001385D01*
X019542Y001384D02*
X020163Y001384D01*
X020162Y001383D02*
X019542Y001383D01*
X020161Y001383D01*
X020160Y001382D02*
X019542Y001382D01*
X019542Y001381D02*
X020159Y001381D01*
X020159Y001380D02*
X019542Y001380D01*
X019542Y001379D02*
X020158Y001379D01*
X020157Y001379D02*
X019542Y001379D01*
X019542Y001378D02*
X020156Y001378D01*
X020155Y001377D02*
X019542Y001377D01*
X019542Y001376D02*
X020154Y001376D01*
X020154Y001375D02*
X019542Y001375D01*
X020153Y001375D01*
X020152Y001374D02*
X019542Y001374D01*
X019542Y001373D02*
X020151Y001373D01*
X020150Y001372D02*
X019542Y001372D01*
X019542Y001371D02*
X020150Y001371D01*
X020149Y001371D02*
X019542Y001371D01*
X019542Y001370D02*
X020148Y001370D01*
X020147Y001369D02*
X019542Y001369D01*
X019542Y001368D02*
X020146Y001368D01*
X020146Y001367D02*
X019542Y001367D01*
X020145Y001367D01*
X020144Y001366D02*
X019542Y001366D01*
X019542Y001365D02*
X020143Y001365D01*
X020142Y001364D02*
X019542Y001364D01*
X019542Y001363D02*
X020142Y001363D01*
X020141Y001363D02*
X019542Y001363D01*
X019542Y001362D02*
X020140Y001362D01*
X020139Y001361D02*
X019542Y001361D01*
X019542Y001360D02*
X020138Y001360D01*
X020138Y001359D02*
X019542Y001359D01*
X020137Y001359D01*
X020136Y001358D02*
X019542Y001358D01*
X019542Y001357D02*
X020135Y001357D01*
X020134Y001356D02*
X019542Y001356D01*
X019542Y001355D02*
X020134Y001355D01*
X020133Y001354D02*
X019542Y001354D01*
X020132Y001354D01*
X020131Y001353D02*
X019542Y001353D01*
X019542Y001352D02*
X020130Y001352D01*
X020130Y001351D02*
X019542Y001351D01*
X019542Y001350D02*
X020129Y001350D01*
X020128Y001350D02*
X019542Y001350D01*
X019542Y001349D02*
X020127Y001349D01*
X020126Y001348D02*
X019542Y001348D01*
X019542Y001347D02*
X020126Y001347D01*
X020125Y001346D02*
X019542Y001346D01*
X020124Y001346D01*
X020123Y001345D02*
X019542Y001345D01*
X019542Y001344D02*
X020122Y001344D01*
X020122Y001343D02*
X019542Y001343D01*
X019542Y001342D02*
X020121Y001342D01*
X020120Y001342D02*
X019542Y001342D01*
X019542Y001341D02*
X020119Y001341D01*
X020118Y001340D02*
X019542Y001340D01*
X019542Y001339D02*
X020118Y001339D01*
X020117Y001338D02*
X019542Y001338D01*
X020116Y001338D01*
X020115Y001337D02*
X019542Y001337D01*
X019542Y001336D02*
X020114Y001336D01*
X020114Y001335D02*
X019542Y001335D01*
X019542Y001334D02*
X020113Y001334D01*
X020112Y001334D02*
X019542Y001334D01*
X019542Y001333D02*
X020111Y001333D01*
X020110Y001332D02*
X019542Y001332D01*
X019542Y001331D02*
X020109Y001331D01*
X020109Y001330D02*
X019542Y001330D01*
X020108Y001330D01*
X020107Y001329D02*
X019542Y001329D01*
X019542Y001328D02*
X020106Y001328D01*
X020105Y001327D02*
X019542Y001327D01*
X019542Y001326D02*
X020105Y001326D01*
X020104Y001326D02*
X019542Y001326D01*
X019542Y001325D02*
X020103Y001325D01*
X020102Y001324D02*
X019542Y001324D01*
X019542Y001323D02*
X020101Y001323D01*
X020101Y001322D02*
X019542Y001322D01*
X020100Y001322D01*
X020099Y001321D02*
X019542Y001321D01*
X019542Y001320D02*
X020098Y001320D01*
X020097Y001319D02*
X019542Y001319D01*
X019542Y001318D02*
X020097Y001318D01*
X020096Y001318D02*
X019542Y001318D01*
X019542Y001317D02*
X020095Y001317D01*
X020094Y001316D02*
X019542Y001316D01*
X019542Y001315D02*
X020093Y001315D01*
X020093Y001314D02*
X019542Y001314D01*
X020092Y001314D01*
X020091Y001313D02*
X019542Y001313D01*
X019542Y001312D02*
X020090Y001312D01*
X020089Y001311D02*
X019542Y001311D01*
X019542Y001310D02*
X020089Y001310D01*
X020088Y001309D02*
X019542Y001309D01*
X020087Y001309D01*
X020086Y001308D02*
X019542Y001308D01*
X019542Y001307D02*
X020085Y001307D01*
X020085Y001306D02*
X019542Y001306D01*
X019542Y001305D02*
X020084Y001305D01*
X020083Y001305D02*
X019542Y001305D01*
X019542Y001304D02*
X020082Y001304D01*
X020081Y001303D02*
X019542Y001303D01*
X019542Y001302D02*
X020081Y001302D01*
X020080Y001301D02*
X019542Y001301D01*
X020079Y001301D01*
X020078Y001300D02*
X019542Y001300D01*
X019542Y001299D02*
X020077Y001299D01*
X020077Y001298D02*
X019542Y001298D01*
X019542Y001297D02*
X020076Y001297D01*
X020075Y001297D02*
X019542Y001297D01*
X019542Y001296D02*
X020074Y001296D01*
X020073Y001295D02*
X019542Y001295D01*
X019542Y001294D02*
X020073Y001294D01*
X020072Y001293D02*
X019542Y001293D01*
X020071Y001293D01*
X020070Y001292D02*
X019542Y001292D01*
X019542Y001291D02*
X020069Y001291D01*
X020069Y001290D02*
X019542Y001290D01*
X019542Y001289D02*
X020068Y001289D01*
X020067Y001289D02*
X019542Y001289D01*
X019542Y001288D02*
X020066Y001288D01*
X020065Y001287D02*
X019542Y001287D01*
X019542Y001286D02*
X020065Y001286D01*
X020064Y001285D02*
X019542Y001285D01*
X020063Y001285D01*
X020062Y001284D02*
X019542Y001284D01*
X019542Y001283D02*
X020061Y001283D01*
X020060Y001282D02*
X019542Y001282D01*
X019542Y001281D02*
X020060Y001281D01*
X020059Y001281D02*
X019542Y001281D01*
X019542Y001280D02*
X020058Y001280D01*
X020057Y001279D02*
X019542Y001279D01*
X019542Y001278D02*
X020056Y001278D01*
X020056Y001277D02*
X019542Y001277D01*
X020055Y001277D01*
X001708Y001283D02*
X001189Y001283D01*
X001190Y001282D02*
X001708Y001282D01*
X001708Y001281D02*
X001190Y001281D01*
X001191Y001281D02*
X001708Y001281D01*
X001708Y001280D02*
X001192Y001280D01*
X001193Y001279D02*
X001708Y001279D01*
X001708Y001278D02*
X001194Y001278D01*
X001194Y001277D02*
X001708Y001277D01*
X001195Y001277D01*
X001188Y001284D02*
X001708Y001284D01*
X001708Y001285D02*
X001187Y001285D01*
X001186Y001285D02*
X001708Y001285D01*
X001708Y001286D02*
X001185Y001286D01*
X001185Y001287D02*
X001708Y001287D01*
X001708Y001288D02*
X001184Y001288D01*
X001183Y001289D02*
X001708Y001289D01*
X001182Y001289D01*
X001181Y001290D02*
X001708Y001290D01*
X001708Y001291D02*
X001181Y001291D01*
X001180Y001292D02*
X001708Y001292D01*
X001708Y001293D02*
X001179Y001293D01*
X001178Y001293D02*
X001708Y001293D01*
X001708Y001294D02*
X001177Y001294D01*
X001177Y001295D02*
X001708Y001295D01*
X001708Y001296D02*
X001176Y001296D01*
X001175Y001297D02*
X001708Y001297D01*
X001174Y001297D01*
X001173Y001298D02*
X001708Y001298D01*
X001708Y001299D02*
X001173Y001299D01*
X001172Y001300D02*
X001708Y001300D01*
X001708Y001301D02*
X001171Y001301D01*
X001170Y001301D02*
X001708Y001301D01*
X001708Y001302D02*
X001169Y001302D01*
X001169Y001303D02*
X001708Y001303D01*
X001708Y001304D02*
X001168Y001304D01*
X001167Y001305D02*
X001708Y001305D01*
X001166Y001305D01*
X001165Y001306D02*
X001708Y001306D01*
X001708Y001307D02*
X001165Y001307D01*
X001164Y001308D02*
X001708Y001308D01*
X001708Y001309D02*
X001163Y001309D01*
X001162Y001309D02*
X001708Y001309D01*
X001708Y001310D02*
X001161Y001310D01*
X001161Y001311D02*
X001708Y001311D01*
X001708Y001312D02*
X001160Y001312D01*
X001159Y001313D02*
X001708Y001313D01*
X001708Y001314D02*
X001158Y001314D01*
X001157Y001314D02*
X001708Y001314D01*
X001708Y001315D02*
X001157Y001315D01*
X001156Y001316D02*
X001708Y001316D01*
X001708Y001317D02*
X001155Y001317D01*
X001154Y001318D02*
X001708Y001318D01*
X001153Y001318D01*
X001153Y001319D02*
X001708Y001319D01*
X001708Y001320D02*
X001152Y001320D01*
X001151Y001321D02*
X001708Y001321D01*
X001708Y001322D02*
X001150Y001322D01*
X001149Y001322D02*
X001708Y001322D01*
X001708Y001323D02*
X001149Y001323D01*
X001148Y001324D02*
X001708Y001324D01*
X001708Y001325D02*
X001147Y001325D01*
X001146Y001326D02*
X001708Y001326D01*
X001145Y001326D01*
X001145Y001327D02*
X001708Y001327D01*
X001708Y001328D02*
X001144Y001328D01*
X001143Y001329D02*
X001708Y001329D01*
X001708Y001330D02*
X001142Y001330D01*
X001141Y001330D02*
X001708Y001330D01*
X001708Y001331D02*
X001141Y001331D01*
X001140Y001332D02*
X001708Y001332D01*
X001708Y001333D02*
X001139Y001333D01*
X001138Y001334D02*
X001708Y001334D01*
X001137Y001334D01*
X001136Y001335D02*
X001708Y001335D01*
X001708Y001336D02*
X001136Y001336D01*
X001135Y001337D02*
X001708Y001337D01*
X001708Y001338D02*
X001134Y001338D01*
X001133Y001338D02*
X001708Y001338D01*
X001708Y001339D02*
X001132Y001339D01*
X001132Y001340D02*
X001708Y001340D01*
X001708Y001341D02*
X001131Y001341D01*
X001130Y001342D02*
X001708Y001342D01*
X001129Y001342D01*
X001128Y001343D02*
X001708Y001343D01*
X001708Y001344D02*
X001128Y001344D01*
X001127Y001345D02*
X001708Y001345D01*
X001708Y001346D02*
X001126Y001346D01*
X001125Y001346D02*
X001708Y001346D01*
X001708Y001347D02*
X001124Y001347D01*
X001124Y001348D02*
X001708Y001348D01*
X001708Y001349D02*
X001123Y001349D01*
X001122Y001350D02*
X001708Y001350D01*
X001121Y001350D01*
X001120Y001351D02*
X001708Y001351D01*
X001708Y001352D02*
X001120Y001352D01*
X001119Y001353D02*
X001708Y001353D01*
X001708Y001354D02*
X001118Y001354D01*
X001117Y001354D02*
X001708Y001354D01*
X001708Y001355D02*
X001116Y001355D01*
X001116Y001356D02*
X001708Y001356D01*
X001708Y001357D02*
X001115Y001357D01*
X001114Y001358D02*
X001708Y001358D01*
X001708Y001359D02*
X001113Y001359D01*
X001112Y001359D02*
X001708Y001359D01*
X001708Y001360D02*
X001112Y001360D01*
X001111Y001361D02*
X001708Y001361D01*
X001708Y001362D02*
X001110Y001362D01*
X001109Y001363D02*
X001708Y001363D01*
X001108Y001363D01*
X001108Y001364D02*
X001708Y001364D01*
X001708Y001365D02*
X001107Y001365D01*
X001106Y001366D02*
X001708Y001366D01*
X001708Y001367D02*
X001105Y001367D01*
X001104Y001367D02*
X001708Y001367D01*
X001708Y001368D02*
X001104Y001368D01*
X001103Y001369D02*
X001708Y001369D01*
X001708Y001370D02*
X001102Y001370D01*
X001101Y001371D02*
X001708Y001371D01*
X001100Y001371D01*
X001100Y001372D02*
X001708Y001372D01*
X001708Y001373D02*
X001099Y001373D01*
X001098Y001374D02*
X001708Y001374D01*
X001708Y001375D02*
X001097Y001375D01*
X001096Y001375D02*
X001708Y001375D01*
X001708Y001376D02*
X001096Y001376D01*
X001095Y001377D02*
X001708Y001377D01*
X001708Y001378D02*
X001094Y001378D01*
X001093Y001379D02*
X001708Y001379D01*
X001092Y001379D01*
X001091Y001380D02*
X001708Y001380D01*
X001708Y001381D02*
X001091Y001381D01*
X001090Y001382D02*
X001708Y001382D01*
X001708Y001383D02*
X001089Y001383D01*
X001088Y001383D02*
X001708Y001383D01*
X001708Y001384D02*
X001087Y001384D01*
X001087Y001385D02*
X001708Y001385D01*
X001708Y001386D02*
X001086Y001386D01*
X001085Y001387D02*
X001708Y001387D01*
X001084Y001387D01*
X001083Y001388D02*
X001708Y001388D01*
X001708Y001389D02*
X001083Y001389D01*
X001082Y001390D02*
X001708Y001390D01*
X001708Y001391D02*
X001081Y001391D01*
X001080Y001391D02*
X001708Y001391D01*
X001708Y001392D02*
X001079Y001392D01*
X001079Y001393D02*
X001708Y001393D01*
X001708Y001394D02*
X001078Y001394D01*
X001077Y001395D02*
X001708Y001395D01*
X001076Y001395D01*
X001075Y001396D02*
X001708Y001396D01*
X001708Y001397D02*
X001075Y001397D01*
X001074Y001398D02*
X001708Y001398D01*
X001708Y001399D02*
X001073Y001399D01*
X001072Y001399D02*
X001708Y001399D01*
X001708Y001400D02*
X001071Y001400D01*
X001071Y001401D02*
X001708Y001401D01*
X001708Y001402D02*
X001070Y001402D01*
X001069Y001403D02*
X001708Y001403D01*
X001068Y001403D01*
X001067Y001404D02*
X001708Y001404D01*
X001708Y001405D02*
X001067Y001405D01*
X001066Y001406D02*
X001708Y001406D01*
X001708Y001407D02*
X001065Y001407D01*
X001064Y001408D02*
X001708Y001408D01*
X001063Y001408D01*
X001063Y001409D02*
X001708Y001409D01*
X001708Y001410D02*
X001062Y001410D01*
X001061Y001411D02*
X001708Y001411D01*
X001708Y001412D02*
X001060Y001412D01*
X001059Y001412D02*
X001708Y001412D01*
X001708Y001413D02*
X001059Y001413D01*
X001058Y001414D02*
X001708Y001414D01*
X001708Y001415D02*
X001057Y001415D01*
X001056Y001416D02*
X001708Y001416D01*
X001055Y001416D01*
X001055Y001417D02*
X001708Y001417D01*
X001708Y001418D02*
X001054Y001418D01*
X001053Y001419D02*
X001708Y001419D01*
X001708Y001420D02*
X001052Y001420D01*
X001051Y001420D02*
X001708Y001420D01*
X001708Y001421D02*
X001051Y001421D01*
X001050Y001422D02*
X001708Y001422D01*
X001708Y001423D02*
X001049Y001423D01*
X001048Y001424D02*
X001708Y001424D01*
X001047Y001424D01*
X001047Y001425D02*
X001708Y001425D01*
X001708Y001426D02*
X001046Y001426D01*
X001045Y001427D02*
X001708Y001427D01*
X001708Y001428D02*
X001044Y001428D01*
X001043Y001428D02*
X001708Y001428D01*
X001708Y001429D02*
X001042Y001429D01*
X001042Y001430D02*
X001708Y001430D01*
X001708Y001431D02*
X001041Y001431D01*
X001040Y001432D02*
X001708Y001432D01*
X001039Y001432D01*
X001038Y001433D02*
X001708Y001433D01*
X001708Y001434D02*
X001038Y001434D01*
X001038Y001435D02*
X001708Y001435D01*
X001708Y001436D02*
X001038Y001436D01*
X001708Y001436D01*
X001708Y001437D02*
X001038Y001437D01*
X001038Y001438D02*
X001708Y001438D01*
X001708Y001439D02*
X001038Y001439D01*
X001038Y001440D02*
X001708Y001440D01*
X001038Y001440D01*
X001038Y001441D02*
X001708Y001441D01*
X001708Y001442D02*
X001038Y001442D01*
X001038Y001443D02*
X001708Y001443D01*
X001708Y001444D02*
X001038Y001444D01*
X001708Y001444D01*
X001708Y001445D02*
X001038Y001445D01*
X001038Y001446D02*
X001708Y001446D01*
X001708Y001447D02*
X001038Y001447D01*
X001038Y001448D02*
X001708Y001448D01*
X001038Y001448D01*
X001038Y001449D02*
X001708Y001449D01*
X001708Y001450D02*
X001038Y001450D01*
X001038Y001451D02*
X001708Y001451D01*
X001708Y001452D02*
X001038Y001452D01*
X001038Y001453D02*
X001708Y001453D01*
X001038Y001453D01*
X001038Y001454D02*
X001708Y001454D01*
X001708Y001455D02*
X001038Y001455D01*
X001038Y001456D02*
X001708Y001456D01*
X001708Y001457D02*
X001038Y001457D01*
X001708Y001457D01*
X001708Y001458D02*
X001038Y001458D01*
X001038Y001459D02*
X001708Y001459D01*
X001708Y001460D02*
X001038Y001460D01*
X001038Y001461D02*
X001708Y001461D01*
X001038Y001461D01*
X001038Y001462D02*
X001708Y001462D01*
X001708Y001463D02*
X001038Y001463D01*
X001038Y001464D02*
X001708Y001464D01*
X001708Y001465D02*
X001038Y001465D01*
X001708Y001465D01*
X001708Y001466D02*
X001038Y001466D01*
X001038Y001467D02*
X001708Y001467D01*
X001708Y001468D02*
X001038Y001468D01*
X001038Y001469D02*
X001708Y001469D01*
X001038Y001469D01*
X001038Y001470D02*
X001708Y001470D01*
X001708Y001471D02*
X001038Y001471D01*
X001038Y001472D02*
X001708Y001472D01*
X001708Y001473D02*
X001038Y001473D01*
X001708Y001473D01*
X001708Y001474D02*
X001038Y001474D01*
X001038Y001475D02*
X001708Y001475D01*
X001708Y001476D02*
X001038Y001476D01*
X001038Y001477D02*
X001708Y001477D01*
X001038Y001477D01*
X001038Y001478D02*
X001708Y001478D01*
X001708Y001479D02*
X001038Y001479D01*
X001038Y001480D02*
X001708Y001480D01*
X001708Y001481D02*
X001038Y001481D01*
X001708Y001481D01*
X001708Y001482D02*
X001038Y001482D01*
X001038Y001483D02*
X001708Y001483D01*
X001708Y001484D02*
X001038Y001484D01*
X001038Y001485D02*
X001708Y001485D01*
X001038Y001485D01*
X001038Y001486D02*
X001708Y001486D01*
X001708Y001487D02*
X001038Y001487D01*
X001038Y001488D02*
X001708Y001488D01*
X001708Y001489D02*
X001038Y001489D01*
X001708Y001489D01*
X001708Y001490D02*
X001038Y001490D01*
X001038Y001491D02*
X001708Y001491D01*
X001708Y001492D02*
X001038Y001492D01*
X001038Y001493D02*
X001708Y001493D01*
X001038Y001493D01*
X001038Y001494D02*
X001708Y001494D01*
X001708Y001495D02*
X001038Y001495D01*
X001038Y001496D02*
X001708Y001496D01*
X001708Y001497D02*
X001038Y001497D01*
X001708Y001497D01*
X001708Y001498D02*
X001038Y001498D01*
X001038Y001499D02*
X001708Y001499D01*
X001708Y001500D02*
X001038Y001500D01*
X001038Y001501D02*
X001708Y001501D01*
X001708Y001502D02*
X001038Y001502D01*
X001708Y001502D01*
X001708Y001503D02*
X001038Y001503D01*
X001038Y001504D02*
X001708Y001504D01*
X001708Y001505D02*
X001038Y001505D01*
X001038Y001506D02*
X001708Y001506D01*
X001038Y001506D01*
X001038Y001507D02*
X001708Y001507D01*
X001708Y001508D02*
X001038Y001508D01*
X001038Y001509D02*
X001708Y001509D01*
X001708Y001510D02*
X001038Y001510D01*
X001708Y001510D01*
X001708Y001511D02*
X001038Y001511D01*
X001038Y001512D02*
X001708Y001512D01*
X001708Y001513D02*
X001038Y001513D01*
X001038Y001514D02*
X001708Y001514D01*
X001038Y001514D01*
X001038Y001515D02*
X001708Y001515D01*
X001708Y001516D02*
X001038Y001516D01*
X001038Y001517D02*
X001708Y001517D01*
X001708Y001518D02*
X001038Y001518D01*
X001708Y001518D01*
X001708Y001519D02*
X001038Y001519D01*
X001038Y001520D02*
X001708Y001520D01*
X001708Y001521D02*
X001038Y001521D01*
X001038Y001522D02*
X001708Y001522D01*
X001038Y001522D01*
X001038Y001523D02*
X001708Y001523D01*
X001708Y001524D02*
X001038Y001524D01*
X001038Y001525D02*
X001708Y001525D01*
X001708Y001526D02*
X001038Y001526D01*
X001708Y001526D01*
X001708Y001527D02*
X001038Y001527D01*
X001038Y001528D02*
X001708Y001528D01*
X001708Y001529D02*
X001038Y001529D01*
X001038Y001530D02*
X001708Y001530D01*
X001038Y001530D01*
X001038Y001531D02*
X001708Y001531D01*
X001708Y001532D02*
X001038Y001532D01*
X001038Y001533D02*
X001708Y001533D01*
X001708Y001534D02*
X001038Y001534D01*
X001708Y001534D01*
X001708Y001535D02*
X001038Y001535D01*
X001038Y001536D02*
X001708Y001536D01*
X001708Y001537D02*
X001038Y001537D01*
X001038Y001538D02*
X001708Y001538D01*
X001038Y001538D01*
X001038Y001539D02*
X001708Y001539D01*
X001708Y001540D02*
X001038Y001540D01*
X001038Y001541D02*
X001708Y001541D01*
X001708Y001542D02*
X001038Y001542D01*
X001708Y001542D01*
X001708Y001543D02*
X001038Y001543D01*
X001038Y001544D02*
X001708Y001544D01*
X001708Y001545D02*
X001038Y001545D01*
X001038Y001546D02*
X001708Y001546D01*
X001038Y001546D01*
X001038Y001547D02*
X001708Y001547D01*
X001708Y001548D02*
X001038Y001548D01*
X001038Y001549D02*
X001708Y001549D01*
X001708Y001550D02*
X001038Y001550D01*
X001038Y001551D02*
X001708Y001551D01*
X001038Y001551D01*
X001038Y001552D02*
X001708Y001552D01*
X001708Y001553D02*
X001038Y001553D01*
X001038Y001554D02*
X001708Y001554D01*
X001708Y001555D02*
X001038Y001555D01*
X001708Y001555D01*
X001708Y001556D02*
X001038Y001556D01*
X001038Y001557D02*
X001708Y001557D01*
X001708Y001558D02*
X001038Y001558D01*
X001038Y001559D02*
X001708Y001559D01*
X001038Y001559D01*
X001038Y001560D02*
X001708Y001560D01*
X001708Y001561D02*
X001038Y001561D01*
X001038Y001562D02*
X001708Y001562D01*
X001708Y001563D02*
X001038Y001563D01*
X001708Y001563D01*
X001708Y001564D02*
X001038Y001564D01*
X001038Y001565D02*
X001708Y001565D01*
X001708Y001566D02*
X001038Y001566D01*
X001038Y001567D02*
X001708Y001567D01*
X001038Y001567D01*
X001038Y001568D02*
X001708Y001568D01*
X001708Y001569D02*
X001038Y001569D01*
X001038Y001570D02*
X001708Y001570D01*
X001708Y001571D02*
X001038Y001571D01*
X001708Y001571D01*
X001708Y001572D02*
X001038Y001572D01*
X001038Y001573D02*
X001708Y001573D01*
X001708Y001574D02*
X001038Y001574D01*
X001038Y001575D02*
X001708Y001575D01*
X001038Y001575D01*
X001038Y001576D02*
X001708Y001576D01*
X001708Y001577D02*
X001038Y001577D01*
X001038Y001578D02*
X001708Y001578D01*
X001708Y001579D02*
X001038Y001579D01*
X001708Y001579D01*
X001708Y001580D02*
X001038Y001580D01*
X001038Y001581D02*
X001708Y001581D01*
X001708Y001582D02*
X001038Y001582D01*
X001038Y001583D02*
X001708Y001583D01*
X001038Y001583D01*
X001038Y001584D02*
X001708Y001584D01*
X001708Y001585D02*
X001038Y001585D01*
X001038Y001586D02*
X001708Y001586D01*
X001708Y001587D02*
X001038Y001587D01*
X001708Y001587D01*
X001708Y001588D02*
X001038Y001588D01*
X001038Y001589D02*
X001708Y001589D01*
X001708Y001590D02*
X001038Y001590D01*
X001038Y001591D02*
X001708Y001591D01*
X001038Y001591D01*
X001038Y001592D02*
X001708Y001592D01*
X001708Y001593D02*
X001038Y001593D01*
X001038Y001594D02*
X001708Y001594D01*
X001708Y001595D02*
X001038Y001595D01*
X001038Y001596D02*
X001708Y001596D01*
X001038Y001596D01*
X001038Y001597D02*
X001708Y001597D01*
X001708Y001598D02*
X001038Y001598D01*
X001038Y001599D02*
X001708Y001599D01*
X001708Y001600D02*
X001038Y001600D01*
X001708Y001600D01*
X001708Y001601D02*
X001038Y001601D01*
X001038Y001602D02*
X001708Y001602D01*
X001708Y001603D02*
X001038Y001603D01*
X001038Y001604D02*
X001708Y001604D01*
X001038Y001604D01*
X001038Y001605D02*
X001708Y001605D01*
X001708Y001606D02*
X001038Y001606D01*
X001038Y001607D02*
X001708Y001607D01*
X001708Y001608D02*
X001038Y001608D01*
X001708Y001608D01*
X001708Y001609D02*
X001038Y001609D01*
X001038Y001610D02*
X001708Y001610D01*
X001708Y001611D02*
X001038Y001611D01*
X001038Y001612D02*
X001708Y001612D01*
X001038Y001612D01*
X001038Y001613D02*
X001708Y001613D01*
X001708Y001614D02*
X001038Y001614D01*
X001038Y001615D02*
X001708Y001615D01*
X001708Y001616D02*
X001038Y001616D01*
X001708Y001616D01*
X001708Y001617D02*
X001038Y001617D01*
X001038Y001618D02*
X001708Y001618D01*
X001708Y001619D02*
X001038Y001619D01*
X001038Y001620D02*
X001708Y001620D01*
X001038Y001620D01*
X001038Y001621D02*
X001708Y001621D01*
X001708Y001622D02*
X001038Y001622D01*
X001038Y001623D02*
X001708Y001623D01*
X001708Y001624D02*
X001038Y001624D01*
X001708Y001624D01*
X001708Y001625D02*
X001038Y001625D01*
X001038Y001626D02*
X001708Y001626D01*
X001708Y001627D02*
X001038Y001627D01*
X001038Y001628D02*
X001708Y001628D01*
X001038Y001628D01*
X001038Y001629D02*
X001708Y001629D01*
X001708Y001630D02*
X001038Y001630D01*
X001038Y001631D02*
X001708Y001631D01*
X001708Y001632D02*
X001038Y001632D01*
X001708Y001632D01*
X001708Y001633D02*
X001038Y001633D01*
X001038Y001634D02*
X001708Y001634D01*
X001708Y001635D02*
X001038Y001635D01*
X001038Y001636D02*
X001708Y001636D01*
X001038Y001636D01*
X001038Y001637D02*
X001708Y001637D01*
X001708Y001638D02*
X001038Y001638D01*
X001038Y001639D02*
X001708Y001639D01*
X001708Y001640D02*
X001038Y001640D01*
X001708Y001640D01*
X001708Y001641D02*
X001038Y001641D01*
X001038Y001642D02*
X001708Y001642D01*
X001708Y001643D02*
X001038Y001643D01*
X001038Y001644D02*
X001708Y001644D01*
X001708Y001645D02*
X001038Y001645D01*
X001708Y001645D01*
X001708Y001646D02*
X001038Y001646D01*
X001038Y001647D02*
X001708Y001647D01*
X001708Y001648D02*
X001038Y001648D01*
X001038Y001649D02*
X001708Y001649D01*
X001038Y001649D01*
X001038Y001650D02*
X001708Y001650D01*
X001708Y001651D02*
X001038Y001651D01*
X001038Y001652D02*
X001708Y001652D01*
X001708Y001653D02*
X001038Y001653D01*
X001708Y001653D01*
X001708Y001654D02*
X001038Y001654D01*
X001038Y001655D02*
X001708Y001655D01*
X001708Y001656D02*
X001038Y001656D01*
X001038Y001657D02*
X001708Y001657D01*
X001038Y001657D01*
X001038Y001658D02*
X001708Y001658D01*
X001708Y001659D02*
X001038Y001659D01*
X001038Y001660D02*
X001708Y001660D01*
X001708Y001661D02*
X001038Y001661D01*
X001708Y001661D01*
X001708Y001662D02*
X001038Y001662D01*
X001038Y001663D02*
X001708Y001663D01*
X001708Y001664D02*
X001038Y001664D01*
X001038Y001665D02*
X001708Y001665D01*
X001038Y001665D01*
X001038Y001666D02*
X001708Y001666D01*
X001708Y001667D02*
X001038Y001667D01*
X001038Y001668D02*
X001708Y001668D01*
X001708Y001669D02*
X001038Y001669D01*
X001708Y001669D01*
X001708Y001670D02*
X001038Y001670D01*
X001038Y001671D02*
X001708Y001671D01*
X001708Y001672D02*
X001038Y001672D01*
X001038Y001673D02*
X001708Y001673D01*
X001038Y001673D01*
X001038Y001674D02*
X001708Y001674D01*
X001708Y001675D02*
X001038Y001675D01*
X001038Y001676D02*
X001708Y001676D01*
X001708Y001677D02*
X001038Y001677D01*
X001708Y001677D01*
X001708Y001678D02*
X001038Y001678D01*
X001038Y001679D02*
X001708Y001679D01*
X001708Y001680D02*
X001038Y001680D01*
X001038Y001681D02*
X001708Y001681D01*
X001038Y001681D01*
X001038Y001682D02*
X001708Y001682D01*
X001708Y001683D02*
X001038Y001683D01*
X001038Y001684D02*
X001708Y001684D01*
X001708Y001685D02*
X001038Y001685D01*
X001708Y001685D01*
X001708Y001686D02*
X001038Y001686D01*
X001038Y001687D02*
X001708Y001687D01*
X001708Y001688D02*
X001038Y001688D01*
X001038Y001689D02*
X001708Y001689D01*
X001708Y001690D02*
X001038Y001690D01*
X001708Y001690D01*
X001708Y001691D02*
X001038Y001691D01*
X001038Y001692D02*
X001708Y001692D01*
X001708Y001693D02*
X001038Y001693D01*
X001038Y001694D02*
X001708Y001694D01*
X001038Y001694D01*
X001038Y001695D02*
X001708Y001695D01*
X001708Y001696D02*
X001038Y001696D01*
X001038Y001697D02*
X001708Y001697D01*
X001708Y001698D02*
X001038Y001698D01*
X001708Y001698D01*
X001708Y001699D02*
X001038Y001699D01*
X001038Y001700D02*
X001708Y001700D01*
X001708Y001701D02*
X001038Y001701D01*
X001038Y001702D02*
X001708Y001702D01*
X001038Y001702D01*
X001038Y001703D02*
X001708Y001703D01*
X001708Y001704D02*
X001038Y001704D01*
X001038Y001705D02*
X001708Y001705D01*
X001708Y001706D02*
X001038Y001706D01*
X001708Y001706D01*
X001708Y001707D02*
X001038Y001707D01*
X001038Y001708D02*
X001708Y001708D01*
X001708Y001709D02*
X001038Y001709D01*
X001038Y001710D02*
X001708Y001710D01*
X001038Y001710D01*
X001038Y001711D02*
X001708Y001711D01*
X001708Y001712D02*
X001038Y001712D01*
X001038Y001713D02*
X001708Y001713D01*
X001708Y001714D02*
X001038Y001714D01*
X001708Y001714D01*
X001708Y001715D02*
X001038Y001715D01*
X001038Y001716D02*
X001708Y001716D01*
X001708Y001717D02*
X001038Y001717D01*
X001038Y001718D02*
X001708Y001718D01*
X001038Y001718D01*
X001038Y001719D02*
X001708Y001719D01*
X001708Y001720D02*
X001038Y001720D01*
X001038Y001721D02*
X001708Y001721D01*
X001708Y001722D02*
X001038Y001722D01*
X001708Y001722D01*
X001708Y001723D02*
X001038Y001723D01*
X001038Y001724D02*
X001708Y001724D01*
X001708Y001725D02*
X001038Y001725D01*
X001038Y001726D02*
X001708Y001726D01*
X001038Y001726D01*
X001038Y001727D02*
X001708Y001727D01*
X001708Y001728D02*
X001038Y001728D01*
X001038Y001729D02*
X001708Y001729D01*
X001708Y001730D02*
X001038Y001730D01*
X001708Y001730D01*
X001708Y001731D02*
X001038Y001731D01*
X001038Y001732D02*
X001708Y001732D01*
X001708Y001733D02*
X001038Y001733D01*
X001038Y001734D02*
X001708Y001734D01*
X001038Y001734D01*
X001038Y001735D02*
X001708Y001735D01*
X001708Y001736D02*
X001038Y001736D01*
X001038Y001737D02*
X001708Y001737D01*
X001708Y001738D02*
X001038Y001738D01*
X001038Y001739D02*
X001708Y001739D01*
X001038Y001739D01*
X001038Y001740D02*
X001708Y001740D01*
X001708Y001741D02*
X001038Y001741D01*
X001038Y001742D02*
X001708Y001742D01*
X001708Y001743D02*
X001038Y001743D01*
X001708Y001743D01*
X001708Y001744D02*
X001038Y001744D01*
X001038Y001745D02*
X001708Y001745D01*
X001708Y001746D02*
X001038Y001746D01*
X001038Y001747D02*
X001708Y001747D01*
X001038Y001747D01*
X001038Y001748D02*
X001708Y001748D01*
X001708Y001749D02*
X001038Y001749D01*
X001038Y001750D02*
X001708Y001750D01*
X001708Y001751D02*
X001038Y001751D01*
X001708Y001751D01*
X001708Y001752D02*
X001038Y001752D01*
X001038Y001753D02*
X001708Y001753D01*
X001708Y001754D02*
X001038Y001754D01*
X001038Y001755D02*
X001708Y001755D01*
X001038Y001755D01*
X001038Y001756D02*
X001708Y001756D01*
X001708Y001757D02*
X001038Y001757D01*
X001038Y001758D02*
X001708Y001758D01*
X001708Y001759D02*
X001038Y001759D01*
X001708Y001759D01*
X001708Y001760D02*
X001038Y001760D01*
X001038Y001761D02*
X001708Y001761D01*
X001708Y001762D02*
X001038Y001762D01*
X001038Y001763D02*
X001708Y001763D01*
X001038Y001763D01*
X001038Y001764D02*
X001708Y001764D01*
X001708Y001765D02*
X001038Y001765D01*
X001038Y001766D02*
X001708Y001766D01*
X001708Y001767D02*
X001038Y001767D01*
X001708Y001767D01*
X001708Y001768D02*
X001038Y001768D01*
X001038Y001769D02*
X001708Y001769D01*
X001708Y001770D02*
X001038Y001770D01*
X001038Y001771D02*
X001708Y001771D01*
X001038Y001771D01*
X001038Y001772D02*
X001708Y001772D01*
X001708Y001773D02*
X001038Y001773D01*
X001038Y001774D02*
X001708Y001774D01*
X001708Y001775D02*
X001038Y001775D01*
X001708Y001775D01*
X001708Y001776D02*
X001038Y001776D01*
X001038Y001777D02*
X001708Y001777D01*
X001708Y001778D02*
X001038Y001778D01*
X001038Y001779D02*
X001708Y001779D01*
X001038Y001779D01*
X001038Y001780D02*
X001708Y001780D01*
X001708Y001781D02*
X001038Y001781D01*
X001038Y001782D02*
X001708Y001782D01*
X001708Y001783D02*
X001038Y001783D01*
X001038Y001784D02*
X001708Y001784D01*
X001038Y001784D01*
X001038Y001785D02*
X001708Y001785D01*
X001708Y001786D02*
X001038Y001786D01*
X001038Y001787D02*
X001708Y001787D01*
X001708Y001788D02*
X001038Y001788D01*
X001708Y001788D01*
X001708Y001789D02*
X001038Y001789D01*
X001038Y001790D02*
X001708Y001790D01*
X001708Y001791D02*
X001038Y001791D01*
X001038Y001792D02*
X001708Y001792D01*
X001038Y001792D01*
X001038Y001793D02*
X001708Y001793D01*
X001708Y001794D02*
X001038Y001794D01*
X001038Y001795D02*
X001708Y001795D01*
X001708Y001796D02*
X001038Y001796D01*
X001708Y001796D01*
X001708Y001797D02*
X001038Y001797D01*
X001038Y001798D02*
X001708Y001798D01*
X001708Y001799D02*
X001038Y001799D01*
X001038Y001800D02*
X001708Y001800D01*
X001038Y001800D01*
X001038Y001801D02*
X001708Y001801D01*
X001708Y001802D02*
X001038Y001802D01*
X001038Y001803D02*
X001708Y001803D01*
X001708Y001804D02*
X001038Y001804D01*
X001708Y001804D01*
X001708Y001805D02*
X001038Y001805D01*
X001038Y001806D02*
X001708Y001806D01*
X001708Y001807D02*
X001038Y001807D01*
X001038Y001808D02*
X001708Y001808D01*
X001038Y001808D01*
X001038Y001809D02*
X001708Y001809D01*
X001708Y001810D02*
X001038Y001810D01*
X001038Y001811D02*
X001708Y001811D01*
X001708Y001812D02*
X001038Y001812D01*
X001708Y001812D01*
X001708Y001813D02*
X001038Y001813D01*
X001038Y001814D02*
X001708Y001814D01*
X001708Y001815D02*
X001038Y001815D01*
X001038Y001816D02*
X001708Y001816D01*
X001038Y001816D01*
X001038Y001817D02*
X001708Y001817D01*
X001708Y001818D02*
X001038Y001818D01*
X001038Y001819D02*
X001708Y001819D01*
X001708Y001820D02*
X001038Y001820D01*
X001708Y001820D01*
X001708Y001821D02*
X001038Y001821D01*
X001038Y001822D02*
X001708Y001822D01*
X001708Y001823D02*
X001038Y001823D01*
X001038Y001824D02*
X001708Y001824D01*
X001038Y001824D01*
X001038Y001825D02*
X001708Y001825D01*
X001708Y001826D02*
X001038Y001826D01*
X001038Y001827D02*
X001708Y001827D01*
X001708Y001828D02*
X001038Y001828D01*
X001708Y001828D01*
X001708Y001829D02*
X001038Y001829D01*
X001038Y001830D02*
X001708Y001830D01*
X001708Y001831D02*
X001038Y001831D01*
X001038Y001832D02*
X001708Y001832D01*
X001708Y001833D02*
X001038Y001833D01*
X001708Y001833D01*
X001708Y001834D02*
X001038Y001834D01*
X001038Y001835D02*
X001708Y001835D01*
X001708Y001836D02*
X001038Y001836D01*
X001038Y001837D02*
X001708Y001837D01*
X001038Y001837D01*
X001038Y001838D02*
X001708Y001838D01*
X001708Y001839D02*
X001038Y001839D01*
X001038Y001840D02*
X001708Y001840D01*
X001708Y001841D02*
X001038Y001841D01*
X001708Y001841D01*
X001708Y001842D02*
X001038Y001842D01*
X001038Y001843D02*
X001708Y001843D01*
X001708Y001844D02*
X001038Y001844D01*
X001038Y001845D02*
X001708Y001845D01*
X001038Y001845D01*
X001038Y001846D02*
X001708Y001846D01*
X001708Y001847D02*
X001038Y001847D01*
X001038Y001848D02*
X001708Y001848D01*
X001708Y001849D02*
X001038Y001849D01*
X001708Y001849D01*
X001708Y001850D02*
X001038Y001850D01*
X001038Y001851D02*
X001708Y001851D01*
X001708Y001852D02*
X001038Y001852D01*
X001038Y001853D02*
X001708Y001853D01*
X001038Y001853D01*
X001038Y001854D02*
X001708Y001854D01*
X001708Y001855D02*
X001038Y001855D01*
X001038Y001856D02*
X001708Y001856D01*
X001708Y001857D02*
X001038Y001857D01*
X001708Y001857D01*
X001708Y001858D02*
X001038Y001858D01*
X001038Y001859D02*
X001708Y001859D01*
X001708Y001860D02*
X001038Y001860D01*
X001038Y001861D02*
X001708Y001861D01*
X001038Y001861D01*
X001038Y001862D02*
X001708Y001862D01*
X001708Y001863D02*
X001038Y001863D01*
X001038Y001864D02*
X001708Y001864D01*
X001708Y001865D02*
X001038Y001865D01*
X001708Y001865D01*
X001708Y001866D02*
X001038Y001866D01*
X001038Y001867D02*
X001708Y001867D01*
X001708Y001868D02*
X001038Y001868D01*
X001038Y001869D02*
X001708Y001869D01*
X001038Y001869D01*
X001038Y001870D02*
X001708Y001870D01*
X001708Y001871D02*
X001038Y001871D01*
X001038Y001872D02*
X001708Y001872D01*
X001708Y001873D02*
X001038Y001873D01*
X001708Y001873D01*
X001708Y001874D02*
X001038Y001874D01*
X001038Y001875D02*
X001708Y001875D01*
X001708Y001876D02*
X001038Y001876D01*
X001038Y001877D02*
X001708Y001877D01*
X001038Y001877D01*
X001038Y001878D02*
X001708Y001878D01*
X001708Y001879D02*
X001038Y001879D01*
X001038Y001880D02*
X001708Y001880D01*
X001708Y001881D02*
X001038Y001881D01*
X001038Y001882D02*
X001708Y001882D01*
X001038Y001882D01*
X001038Y001883D02*
X001708Y001883D01*
X001708Y001884D02*
X001038Y001884D01*
X001038Y001885D02*
X001708Y001885D01*
X001708Y001886D02*
X001038Y001886D01*
X001708Y001886D01*
X001708Y001887D02*
X001038Y001887D01*
X001038Y001888D02*
X001708Y001888D01*
X001708Y001889D02*
X001038Y001889D01*
X001038Y001890D02*
X001708Y001890D01*
X001038Y001890D01*
X001038Y001891D02*
X001708Y001891D01*
X001708Y001892D02*
X001038Y001892D01*
X001038Y001893D02*
X001708Y001893D01*
X001708Y001894D02*
X001038Y001894D01*
X001708Y001894D01*
X001708Y001895D02*
X001038Y001895D01*
X001038Y001896D02*
X001708Y001896D01*
X001708Y001897D02*
X001038Y001897D01*
X001038Y001898D02*
X001708Y001898D01*
X001038Y001898D01*
X001038Y001899D02*
X001708Y001899D01*
X001708Y001900D02*
X001038Y001900D01*
X001038Y001901D02*
X001708Y001901D01*
X001708Y001902D02*
X001038Y001902D01*
X001708Y001902D01*
X001708Y001903D02*
X001038Y001903D01*
X001038Y001904D02*
X001708Y001904D01*
X001708Y001905D02*
X001038Y001905D01*
X001038Y001906D02*
X001708Y001906D01*
X001038Y001906D01*
X001038Y001907D02*
X001708Y001907D01*
X001708Y001908D02*
X001038Y001908D01*
X001038Y001909D02*
X001708Y001909D01*
X001708Y001910D02*
X001038Y001910D01*
X001708Y001910D01*
X001708Y001911D02*
X001038Y001911D01*
X001038Y001912D02*
X001708Y001912D01*
X001708Y001913D02*
X001038Y001913D01*
X001038Y001914D02*
X001708Y001914D01*
X001038Y001914D01*
X001038Y001915D02*
X001708Y001915D01*
X001708Y001916D02*
X001038Y001916D01*
X001038Y001917D02*
X001708Y001917D01*
X001708Y001918D02*
X001038Y001918D01*
X001708Y001918D01*
X001708Y001919D02*
X001038Y001919D01*
X001038Y001920D02*
X001708Y001920D01*
X001708Y001921D02*
X001038Y001921D01*
X001038Y001922D02*
X001708Y001922D01*
X001038Y001922D01*
X001038Y001923D02*
X001708Y001923D01*
X001708Y001924D02*
X001038Y001924D01*
X001038Y001925D02*
X001708Y001925D01*
X001708Y001926D02*
X001038Y001926D01*
X001038Y001927D02*
X001708Y001927D01*
X001038Y001927D01*
X001038Y001928D02*
X001708Y001928D01*
X001708Y001929D02*
X001038Y001929D01*
X001038Y001930D02*
X001708Y001930D01*
X001708Y001931D02*
X001038Y001931D01*
X001708Y001931D01*
X001708Y001932D02*
X001038Y001932D01*
X001038Y001933D02*
X001708Y001933D01*
X001708Y001934D02*
X001038Y001934D01*
X001038Y001935D02*
X001708Y001935D01*
X001038Y001935D01*
X001038Y001936D02*
X001708Y001936D01*
X001708Y001937D02*
X001038Y001937D01*
X001038Y001938D02*
X001708Y001938D01*
X001708Y001939D02*
X001038Y001939D01*
X001708Y001939D01*
X001708Y001940D02*
X001038Y001940D01*
X001038Y001941D02*
X001708Y001941D01*
X001708Y001942D02*
X001038Y001942D01*
X001038Y001943D02*
X001708Y001943D01*
X001038Y001943D01*
X001038Y001944D02*
X001708Y001944D01*
X001708Y001945D02*
X001038Y001945D01*
X001038Y001946D02*
X001708Y001946D01*
X001708Y001947D02*
X001038Y001947D01*
X001708Y001947D01*
X001708Y001948D02*
X001038Y001948D01*
X001038Y001949D02*
X001708Y001949D01*
X001708Y001950D02*
X001038Y001950D01*
X001038Y001951D02*
X001708Y001951D01*
X001038Y001951D01*
X001038Y001952D02*
X001708Y001952D01*
X001708Y001953D02*
X001038Y001953D01*
X001038Y001954D02*
X001708Y001954D01*
X001708Y001955D02*
X001038Y001955D01*
X001708Y001955D01*
X001708Y001956D02*
X001038Y001956D01*
X001038Y001957D02*
X001708Y001957D01*
X001708Y001958D02*
X001038Y001958D01*
X001038Y001959D02*
X001708Y001959D01*
X001038Y001959D01*
X001038Y001960D02*
X001708Y001960D01*
X001708Y001961D02*
X001038Y001961D01*
X001038Y001962D02*
X001708Y001962D01*
X001708Y001963D02*
X001038Y001963D01*
X001708Y001963D01*
X001708Y001964D02*
X001038Y001964D01*
X001038Y001965D02*
X001708Y001965D01*
X001708Y001966D02*
X001038Y001966D01*
X001038Y001967D02*
X001708Y001967D01*
X001038Y001967D01*
X001038Y001968D02*
X001708Y001968D01*
X001708Y001969D02*
X001038Y001969D01*
X001038Y001970D02*
X001708Y001970D01*
X001708Y001971D02*
X001038Y001971D01*
X001708Y001971D01*
X001708Y001972D02*
X001038Y001972D01*
X001038Y001973D02*
X001708Y001973D01*
X001708Y001974D02*
X001038Y001974D01*
X001038Y001975D02*
X001708Y001975D01*
X001708Y001976D02*
X001038Y001976D01*
X001708Y001976D01*
X001708Y001977D02*
X001038Y001977D01*
X001038Y001978D02*
X001708Y001978D01*
X001708Y001979D02*
X001038Y001979D01*
X001038Y001980D02*
X001708Y001980D01*
X001038Y001980D01*
X001038Y001981D02*
X001708Y001981D01*
X001708Y001982D02*
X001038Y001982D01*
X001038Y001983D02*
X001708Y001983D01*
X001708Y001984D02*
X001038Y001984D01*
X001708Y001984D01*
X001708Y001985D02*
X001038Y001985D01*
X001038Y001986D02*
X001708Y001986D01*
X001708Y001987D02*
X001038Y001987D01*
X001038Y001988D02*
X001708Y001988D01*
X001038Y001988D01*
X001038Y001989D02*
X001708Y001989D01*
X001708Y001990D02*
X001038Y001990D01*
X001038Y001991D02*
X001708Y001991D01*
X001708Y001992D02*
X001038Y001992D01*
X001708Y001992D01*
X001708Y001993D02*
X001038Y001993D01*
X001038Y001994D02*
X001708Y001994D01*
X001708Y001995D02*
X001038Y001995D01*
X001038Y001996D02*
X001708Y001996D01*
X001038Y001996D01*
X001038Y001997D02*
X001708Y001997D01*
X001708Y001998D02*
X001038Y001998D01*
X001038Y001999D02*
X001708Y001999D01*
X001708Y002000D02*
X001038Y002000D01*
X001708Y002000D01*
X001708Y002001D02*
X001038Y002001D01*
X001038Y002002D02*
X001708Y002002D01*
X001708Y002003D02*
X001038Y002003D01*
X001038Y002004D02*
X001708Y002004D01*
X001038Y002004D01*
X001038Y002005D02*
X001708Y002005D01*
X001708Y002006D02*
X001038Y002006D01*
X001038Y002007D02*
X001708Y002007D01*
X001708Y002008D02*
X001038Y002008D01*
X001708Y002008D01*
X001708Y002009D02*
X001038Y002009D01*
X001038Y002010D02*
X001708Y002010D01*
X001708Y002011D02*
X001038Y002011D01*
X001038Y002012D02*
X001708Y002012D01*
X001038Y002012D01*
X001038Y002013D02*
X001708Y002013D01*
X001708Y002014D02*
X001038Y002014D01*
X001038Y002015D02*
X001708Y002015D01*
X001708Y002016D02*
X001038Y002016D01*
X001708Y002016D01*
X001708Y002017D02*
X001038Y002017D01*
X001038Y002018D02*
X001708Y002018D01*
X001708Y002019D02*
X001038Y002019D01*
X001038Y002020D02*
X001708Y002020D01*
X001708Y002021D02*
X001038Y002021D01*
X001708Y002021D01*
X001708Y002022D02*
X001038Y002022D01*
X001038Y002023D02*
X001708Y002023D01*
X001708Y002024D02*
X001038Y002024D01*
X001038Y002025D02*
X001708Y002025D01*
X001038Y002025D01*
X001038Y002026D02*
X001708Y002026D01*
X001708Y002027D02*
X001038Y002027D01*
X001038Y002028D02*
X001708Y002028D01*
X001708Y002029D02*
X001038Y002029D01*
X001708Y002029D01*
X001708Y002030D02*
X001038Y002030D01*
X001038Y002031D02*
X001708Y002031D01*
X001708Y002032D02*
X001038Y002032D01*
X001038Y002033D02*
X001708Y002033D01*
X001038Y002033D01*
X001038Y002034D02*
X001708Y002034D01*
X001708Y002035D02*
X001038Y002035D01*
X001038Y002036D02*
X001708Y002036D01*
X001708Y002037D02*
X001038Y002037D01*
X001708Y002037D01*
X001708Y002038D02*
X001038Y002038D01*
X001038Y002039D02*
X001708Y002039D01*
X001708Y002040D02*
X001038Y002040D01*
X001038Y002041D02*
X001708Y002041D01*
X001038Y002041D01*
X001038Y002042D02*
X001708Y002042D01*
X001708Y002043D02*
X001038Y002043D01*
X001038Y002044D02*
X001708Y002044D01*
X001708Y002045D02*
X001038Y002045D01*
X001708Y002045D01*
X001708Y002046D02*
X001038Y002046D01*
X001038Y002047D02*
X001708Y002047D01*
X001708Y002048D02*
X001038Y002048D01*
X001038Y002049D02*
X001708Y002049D01*
X001038Y002049D01*
X001038Y002050D02*
X001708Y002050D01*
X001708Y002051D02*
X001038Y002051D01*
X001038Y002052D02*
X001708Y002052D01*
X001708Y002053D02*
X001038Y002053D01*
X001708Y002053D01*
X001708Y002054D02*
X001038Y002054D01*
X001038Y002055D02*
X001708Y002055D01*
X001708Y002056D02*
X001038Y002056D01*
X001038Y002057D02*
X001708Y002057D01*
X001038Y002057D01*
X001038Y002058D02*
X001708Y002058D01*
X001708Y002059D02*
X001038Y002059D01*
X001038Y002060D02*
X001708Y002060D01*
X001708Y002061D02*
X001038Y002061D01*
X001708Y002061D01*
X001708Y002062D02*
X001038Y002062D01*
X001038Y002063D02*
X001708Y002063D01*
X001708Y002064D02*
X001038Y002064D01*
X001038Y002065D02*
X001708Y002065D01*
X001038Y002065D01*
X001038Y002066D02*
X001708Y002066D01*
X001708Y002067D02*
X001038Y002067D01*
X001038Y002068D02*
X001708Y002068D01*
X001708Y002069D02*
X001038Y002069D01*
X001038Y002070D02*
X001708Y002070D01*
X001038Y002070D01*
X001038Y002071D02*
X001708Y002071D01*
X001708Y002072D02*
X001038Y002072D01*
X001038Y002073D02*
X001708Y002073D01*
X001708Y002074D02*
X001038Y002074D01*
X001708Y002074D01*
X001708Y002075D02*
X001038Y002075D01*
X001038Y002076D02*
X001708Y002076D01*
X001708Y002077D02*
X001038Y002077D01*
X001038Y002078D02*
X001708Y002078D01*
X001038Y002078D01*
X001038Y002079D02*
X001708Y002079D01*
X001708Y002080D02*
X001038Y002080D01*
X001038Y002081D02*
X001708Y002081D01*
X001708Y002082D02*
X001038Y002082D01*
X001708Y002082D01*
X001708Y002083D02*
X001038Y002083D01*
X001038Y002084D02*
X001708Y002084D01*
X001708Y002085D02*
X001038Y002085D01*
X001038Y002086D02*
X001708Y002086D01*
X001038Y002086D01*
X001038Y002087D02*
X001708Y002087D01*
X001708Y002088D02*
X001038Y002088D01*
X001038Y002089D02*
X001708Y002089D01*
X001708Y002090D02*
X001038Y002090D01*
X001708Y002090D01*
X001708Y002091D02*
X001038Y002091D01*
X001038Y002092D02*
X001708Y002092D01*
X001708Y002093D02*
X001038Y002093D01*
X001038Y002094D02*
X001708Y002094D01*
X001038Y002094D01*
X001038Y002095D02*
X001708Y002095D01*
X001708Y002096D02*
X001038Y002096D01*
X001038Y002097D02*
X001708Y002097D01*
X001708Y002098D02*
X001038Y002098D01*
X001708Y002098D01*
X001708Y002099D02*
X001038Y002099D01*
X001038Y002100D02*
X001708Y002100D01*
X001708Y002101D02*
X001038Y002101D01*
X001038Y002102D02*
X001708Y002102D01*
X001038Y002102D01*
X001038Y002103D02*
X001708Y002103D01*
X001708Y002104D02*
X001038Y002104D01*
X001038Y002105D02*
X001708Y002105D01*
X001708Y002106D02*
X001038Y002106D01*
X001708Y002106D01*
X001708Y002107D02*
X001038Y002107D01*
X001038Y002108D02*
X001708Y002108D01*
X001708Y002109D02*
X001038Y002109D01*
X001038Y002110D02*
X001708Y002110D01*
X001038Y002110D01*
X001038Y002111D02*
X001708Y002111D01*
X001708Y002112D02*
X001038Y002112D01*
X001038Y002113D02*
X001708Y002113D01*
X001708Y002114D02*
X001038Y002114D01*
X001708Y002114D01*
X001708Y002115D02*
X001038Y002115D01*
X001038Y002116D02*
X001708Y002116D01*
X001708Y002117D02*
X001038Y002117D01*
X001038Y002118D02*
X001708Y002118D01*
X001708Y002119D02*
X001038Y002119D01*
X001708Y002119D01*
X001708Y002120D02*
X001038Y002120D01*
X001038Y002121D02*
X001708Y002121D01*
X001708Y002122D02*
X001038Y002122D01*
X001038Y002123D02*
X001708Y002123D01*
X001038Y002123D01*
X001038Y002124D02*
X001708Y002124D01*
X001708Y002125D02*
X001038Y002125D01*
X001038Y002126D02*
X001708Y002126D01*
X001708Y002127D02*
X001038Y002127D01*
X001708Y002127D01*
X001708Y002128D02*
X001038Y002128D01*
X001038Y002129D02*
X001708Y002129D01*
X001708Y002130D02*
X001038Y002130D01*
X001038Y002131D02*
X001708Y002131D01*
X001038Y002131D01*
X001038Y002132D02*
X001708Y002132D01*
X001708Y002133D02*
X001038Y002133D01*
X001038Y002134D02*
X001708Y002134D01*
X001708Y002135D02*
X001038Y002135D01*
X001708Y002135D01*
X001708Y002136D02*
X001038Y002136D01*
X001038Y002137D02*
X001708Y002137D01*
X001708Y002138D02*
X001038Y002138D01*
X001038Y002139D02*
X001708Y002139D01*
X001038Y002139D01*
X001038Y002140D02*
X001708Y002140D01*
X001708Y002141D02*
X001038Y002141D01*
X001038Y002142D02*
X001708Y002142D01*
X001708Y002143D02*
X001038Y002143D01*
X001708Y002143D01*
X001708Y002144D02*
X001038Y002144D01*
X001038Y002145D02*
X001708Y002145D01*
X001708Y002146D02*
X001038Y002146D01*
X001038Y002147D02*
X001708Y002147D01*
X001038Y002147D01*
X001038Y002148D02*
X001708Y002148D01*
X001708Y002149D02*
X001038Y002149D01*
X001038Y002150D02*
X001708Y002150D01*
X001708Y002151D02*
X001038Y002151D01*
X001708Y002151D01*
X001708Y002152D02*
X001038Y002152D01*
X001038Y002153D02*
X001708Y002153D01*
X001708Y002154D02*
X001038Y002154D01*
X001038Y002155D02*
X001708Y002155D01*
X001038Y002155D01*
X001038Y002156D02*
X001708Y002156D01*
X001708Y002157D02*
X001038Y002157D01*
X001038Y002158D02*
X001708Y002158D01*
X001708Y002159D02*
X001038Y002159D01*
X001708Y002159D01*
X001708Y002160D02*
X001038Y002160D01*
X001038Y002161D02*
X001708Y002161D01*
X001708Y002162D02*
X001038Y002162D01*
X001038Y002163D02*
X001708Y002163D01*
X001708Y002164D02*
X001038Y002164D01*
X001708Y002164D01*
X001708Y002165D02*
X001038Y002165D01*
X001038Y002166D02*
X001708Y002166D01*
X001708Y002167D02*
X001038Y002167D01*
X001038Y002168D02*
X001708Y002168D01*
X001038Y002168D01*
X001038Y002169D02*
X001708Y002169D01*
X001708Y002170D02*
X001038Y002170D01*
X001038Y002171D02*
X001708Y002171D01*
X001708Y002172D02*
X001038Y002172D01*
X001708Y002172D01*
X001708Y002173D02*
X001038Y002173D01*
X001038Y002174D02*
X001708Y002174D01*
X001708Y002175D02*
X001038Y002175D01*
X001038Y002176D02*
X001708Y002176D01*
X001038Y002176D01*
X001038Y002177D02*
X001708Y002177D01*
X001708Y002178D02*
X001038Y002178D01*
X001038Y002179D02*
X001708Y002179D01*
X001708Y002180D02*
X001038Y002180D01*
X001708Y002180D01*
X001708Y002181D02*
X001038Y002181D01*
X001038Y002182D02*
X001708Y002182D01*
X001708Y002183D02*
X001038Y002183D01*
X001038Y002184D02*
X001708Y002184D01*
X001038Y002184D01*
X001038Y002185D02*
X001708Y002185D01*
X001708Y002186D02*
X001038Y002186D01*
X001038Y002187D02*
X001708Y002187D01*
X001708Y002188D02*
X001038Y002188D01*
X001708Y002188D01*
X001708Y002189D02*
X001038Y002189D01*
X001038Y002190D02*
X001708Y002190D01*
X001708Y002191D02*
X001038Y002191D01*
X001038Y002192D02*
X001708Y002192D01*
X001038Y002192D01*
X001038Y002193D02*
X001708Y002193D01*
X001708Y002194D02*
X001038Y002194D01*
X001038Y002195D02*
X001708Y002195D01*
X001708Y002196D02*
X001038Y002196D01*
X001708Y002196D01*
X001708Y002197D02*
X001038Y002197D01*
X001038Y002198D02*
X001708Y002198D01*
X001708Y002199D02*
X001038Y002199D01*
X001038Y002200D02*
X001708Y002200D01*
X001038Y002200D01*
X001038Y002201D02*
X001708Y002201D01*
X001708Y002202D02*
X001038Y002202D01*
X001038Y002203D02*
X001708Y002203D01*
X001708Y002204D02*
X001038Y002204D01*
X001708Y002204D01*
X001708Y002205D02*
X001038Y002205D01*
X001038Y002206D02*
X001708Y002206D01*
X001708Y002207D02*
X001038Y002207D01*
X001038Y002208D02*
X001708Y002208D01*
X001038Y002208D01*
X001038Y002209D02*
X001708Y002209D01*
X001708Y002210D02*
X001038Y002210D01*
X001038Y002211D02*
X001708Y002211D01*
X001708Y002212D02*
X001038Y002212D01*
X001038Y002213D02*
X001708Y002213D01*
X001038Y002213D01*
X001038Y002214D02*
X001708Y002214D01*
X001708Y002215D02*
X001038Y002215D01*
X001038Y002216D02*
X001708Y002216D01*
X001708Y002217D02*
X001038Y002217D01*
X001708Y002217D01*
X001708Y002218D02*
X001038Y002218D01*
X001038Y002219D02*
X001708Y002219D01*
X001708Y002220D02*
X001038Y002220D01*
X001038Y002221D02*
X001708Y002221D01*
X001038Y002221D01*
X001038Y002222D02*
X001708Y002222D01*
X001708Y002223D02*
X001038Y002223D01*
X001038Y002224D02*
X001708Y002224D01*
X001708Y002225D02*
X001038Y002225D01*
X001708Y002225D01*
X001708Y002226D02*
X001038Y002226D01*
X001038Y002227D02*
X001708Y002227D01*
X001708Y002228D02*
X001038Y002228D01*
X001038Y002229D02*
X001708Y002229D01*
X001038Y002229D01*
X001038Y002230D02*
X001708Y002230D01*
X001708Y002231D02*
X001038Y002231D01*
X001038Y002232D02*
X001708Y002232D01*
X001708Y002233D02*
X001038Y002233D01*
X001708Y002233D01*
X001708Y002234D02*
X001038Y002234D01*
X001038Y002235D02*
X001708Y002235D01*
X001708Y002236D02*
X001038Y002236D01*
X001038Y002237D02*
X001708Y002237D01*
X001038Y002237D01*
X001038Y002238D02*
X001708Y002238D01*
X001708Y002239D02*
X001038Y002239D01*
X001038Y002240D02*
X001708Y002240D01*
X001708Y002241D02*
X001038Y002241D01*
X001708Y002241D01*
X001708Y002242D02*
X001038Y002242D01*
X001038Y002243D02*
X001708Y002243D01*
X001708Y002244D02*
X001038Y002244D01*
X001038Y002245D02*
X001708Y002245D01*
X001038Y002245D01*
X001038Y002246D02*
X001708Y002246D01*
X001708Y002247D02*
X001038Y002247D01*
X001038Y002248D02*
X001708Y002248D01*
X001708Y002249D02*
X001038Y002249D01*
X001708Y002249D01*
X001708Y002250D02*
X001038Y002250D01*
X001038Y002251D02*
X001708Y002251D01*
X001708Y002252D02*
X001038Y002252D01*
X001038Y002253D02*
X001708Y002253D01*
X001038Y002253D01*
X001038Y002254D02*
X001708Y002254D01*
X001708Y002255D02*
X001038Y002255D01*
X001038Y002256D02*
X001708Y002256D01*
X001708Y002257D02*
X001038Y002257D01*
X001038Y002258D02*
X001708Y002258D01*
X001038Y002258D01*
X001038Y002259D02*
X001708Y002259D01*
X001708Y002260D02*
X001038Y002260D01*
X001038Y002261D02*
X001708Y002261D01*
X001708Y002262D02*
X001038Y002262D01*
X001708Y002262D01*
X001708Y002263D02*
X001038Y002263D01*
X001038Y002264D02*
X001708Y002264D01*
X001708Y002265D02*
X001038Y002265D01*
X001038Y002266D02*
X001708Y002266D01*
X001038Y002266D01*
X001038Y002267D02*
X001708Y002267D01*
X001708Y002268D02*
X001038Y002268D01*
X001038Y002269D02*
X001708Y002269D01*
X001708Y002270D02*
X001038Y002270D01*
X001708Y002270D01*
X001708Y002271D02*
X001038Y002271D01*
X001038Y002272D02*
X001708Y002272D01*
X001708Y002273D02*
X001038Y002273D01*
X001038Y002274D02*
X001708Y002274D01*
X001038Y002274D01*
X001038Y002275D02*
X001708Y002275D01*
X001708Y002276D02*
X001038Y002276D01*
X001038Y002277D02*
X001708Y002277D01*
X001708Y002278D02*
X001038Y002278D01*
X001708Y002278D01*
X001708Y002279D02*
X001038Y002279D01*
X001038Y002280D02*
X001708Y002280D01*
X001708Y002281D02*
X001038Y002281D01*
X001038Y002282D02*
X001708Y002282D01*
X001038Y002282D01*
X001038Y002283D02*
X001708Y002283D01*
X001708Y002284D02*
X001038Y002284D01*
X001038Y002285D02*
X001708Y002285D01*
X001708Y002286D02*
X001038Y002286D01*
X001708Y002286D01*
X001708Y002287D02*
X001038Y002287D01*
X001038Y002288D02*
X001708Y002288D01*
X001708Y002289D02*
X001038Y002289D01*
X001038Y002290D02*
X001708Y002290D01*
X001038Y002290D01*
X001038Y002291D02*
X001708Y002291D01*
X001708Y002292D02*
X001038Y002292D01*
X001038Y002293D02*
X001708Y002293D01*
X001708Y002294D02*
X001038Y002294D01*
X001708Y002294D01*
X001708Y002295D02*
X001038Y002295D01*
X001038Y002296D02*
X001708Y002296D01*
X001708Y002297D02*
X001038Y002297D01*
X001038Y002298D02*
X001708Y002298D01*
X001038Y002298D01*
X001038Y002299D02*
X001708Y002299D01*
X001708Y002300D02*
X001038Y002300D01*
X001038Y002301D02*
X001708Y002301D01*
X001708Y002302D02*
X001038Y002302D01*
X001708Y002302D01*
X001708Y002303D02*
X001038Y002303D01*
X001038Y002304D02*
X001708Y002304D01*
X001708Y002305D02*
X001038Y002305D01*
X001038Y002306D02*
X001708Y002306D01*
X001708Y002307D02*
X001038Y002307D01*
X001708Y002307D01*
X001708Y002308D02*
X001038Y002308D01*
X001038Y002309D02*
X001708Y002309D01*
X001708Y002310D02*
X001038Y002310D01*
X001038Y002311D02*
X001708Y002311D01*
X001038Y002311D01*
X001038Y002312D02*
X001708Y002312D01*
X001708Y002313D02*
X001038Y002313D01*
X001038Y002314D02*
X001708Y002314D01*
X001708Y002315D02*
X001038Y002315D01*
X001708Y002315D01*
X001708Y002316D02*
X001038Y002316D01*
X001038Y002317D02*
X001708Y002317D01*
X001708Y002318D02*
X001038Y002318D01*
X001038Y002319D02*
X001708Y002319D01*
X001038Y002319D01*
X001038Y002320D02*
X001708Y002320D01*
X001708Y002321D02*
X001038Y002321D01*
X001038Y002322D02*
X001708Y002322D01*
X001708Y002323D02*
X001038Y002323D01*
X001708Y002323D01*
X001708Y002324D02*
X001038Y002324D01*
X001038Y002325D02*
X001708Y002325D01*
X001708Y002326D02*
X001038Y002326D01*
X001038Y002327D02*
X001708Y002327D01*
X001038Y002327D01*
X001038Y002328D02*
X001708Y002328D01*
X001708Y002329D02*
X001038Y002329D01*
X001038Y002330D02*
X001708Y002330D01*
X001708Y002331D02*
X001038Y002331D01*
X001708Y002331D01*
X001708Y002332D02*
X001038Y002332D01*
X001038Y002333D02*
X001708Y002333D01*
X001708Y002334D02*
X001038Y002334D01*
X001038Y002335D02*
X001708Y002335D01*
X001038Y002335D01*
X001038Y002336D02*
X001708Y002336D01*
X001708Y002337D02*
X001038Y002337D01*
X001038Y002338D02*
X001708Y002338D01*
X001708Y002339D02*
X001038Y002339D01*
X001708Y002339D01*
X001708Y002340D02*
X001038Y002340D01*
X001038Y002341D02*
X001708Y002341D01*
X001708Y002342D02*
X001038Y002342D01*
X001038Y002343D02*
X001708Y002343D01*
X001038Y002343D01*
X001038Y002344D02*
X001708Y002344D01*
X001708Y002345D02*
X001038Y002345D01*
X001038Y002346D02*
X001708Y002346D01*
X001708Y002347D02*
X001038Y002347D01*
X001708Y002347D01*
X001708Y002348D02*
X001038Y002348D01*
X001038Y002349D02*
X001708Y002349D01*
X001708Y002350D02*
X001038Y002350D01*
X001038Y002351D02*
X001708Y002351D01*
X001708Y002352D02*
X001038Y002352D01*
X001708Y002352D01*
X001708Y002353D02*
X001038Y002353D01*
X001038Y002354D02*
X001708Y002354D01*
X001708Y002355D02*
X001038Y002355D01*
X001038Y002356D02*
X001708Y002356D01*
X001038Y002356D01*
X001038Y002357D02*
X001708Y002357D01*
X001708Y002358D02*
X001038Y002358D01*
X001038Y002359D02*
X001708Y002359D01*
X001708Y002360D02*
X001038Y002360D01*
X001708Y002360D01*
X001708Y002361D02*
X001038Y002361D01*
X001038Y002362D02*
X001708Y002362D01*
X001708Y002363D02*
X001038Y002363D01*
X001038Y002364D02*
X001708Y002364D01*
X001038Y002364D01*
X001038Y002365D02*
X001708Y002365D01*
X001708Y002366D02*
X001038Y002366D01*
X001038Y002367D02*
X001708Y002367D01*
X001708Y002368D02*
X001038Y002368D01*
X001708Y002368D01*
X001708Y002369D02*
X001038Y002369D01*
X001038Y002370D02*
X001708Y002370D01*
X001708Y002371D02*
X001038Y002371D01*
X001038Y002372D02*
X001708Y002372D01*
X001038Y002372D01*
X001038Y002373D02*
X001708Y002373D01*
X001708Y002374D02*
X001038Y002374D01*
X001038Y002375D02*
X001708Y002375D01*
X001708Y002376D02*
X001038Y002376D01*
X001708Y002376D01*
X001708Y002377D02*
X001038Y002377D01*
X001038Y002378D02*
X001708Y002378D01*
X001708Y002379D02*
X001038Y002379D01*
X001038Y002380D02*
X001708Y002380D01*
X001038Y002380D01*
X001038Y002381D02*
X001708Y002381D01*
X001708Y002382D02*
X001038Y002382D01*
X001038Y002383D02*
X001708Y002383D01*
X001708Y002384D02*
X001038Y002384D01*
X001708Y002384D01*
X001708Y002385D02*
X001038Y002385D01*
X001038Y002386D02*
X001708Y002386D01*
X001708Y002387D02*
X001038Y002387D01*
X001038Y002388D02*
X001708Y002388D01*
X001038Y002388D01*
X001038Y002389D02*
X001708Y002389D01*
X001708Y002390D02*
X001038Y002390D01*
X001038Y002391D02*
X001708Y002391D01*
X001708Y002392D02*
X001038Y002392D01*
X001708Y002392D01*
X001708Y002393D02*
X001038Y002393D01*
X001038Y002394D02*
X001708Y002394D01*
X001708Y002395D02*
X001038Y002395D01*
X001038Y002396D02*
X001708Y002396D01*
X001038Y002396D01*
X001038Y002397D02*
X001708Y002397D01*
X001708Y002398D02*
X001038Y002398D01*
X001038Y002399D02*
X001708Y002399D01*
X001708Y002400D02*
X001038Y002400D01*
X001038Y002401D02*
X001708Y002401D01*
X001038Y002401D01*
X001038Y002402D02*
X001708Y002402D01*
X001708Y002403D02*
X001038Y002403D01*
X001038Y002404D02*
X001708Y002404D01*
X001708Y002405D02*
X001038Y002405D01*
X001708Y002405D01*
X001708Y002406D02*
X001038Y002406D01*
X001038Y002407D02*
X001708Y002407D01*
X001708Y002408D02*
X001038Y002408D01*
X001038Y002409D02*
X001708Y002409D01*
X001038Y002409D01*
X001038Y002410D02*
X001708Y002410D01*
X001708Y002411D02*
X001038Y002411D01*
X001038Y002412D02*
X001708Y002412D01*
X001708Y002413D02*
X001038Y002413D01*
X001708Y002413D01*
X001708Y002414D02*
X001038Y002414D01*
X001038Y002415D02*
X001708Y002415D01*
X001708Y002416D02*
X001038Y002416D01*
X001038Y002417D02*
X001708Y002417D01*
X001038Y002417D01*
X001038Y002418D02*
X001708Y002418D01*
X001708Y002419D02*
X001038Y002419D01*
X001038Y002420D02*
X001708Y002420D01*
X001708Y002421D02*
X001038Y002421D01*
X001708Y002421D01*
X001708Y002422D02*
X001038Y002422D01*
X001038Y002423D02*
X001708Y002423D01*
X001708Y002424D02*
X001038Y002424D01*
X001038Y002425D02*
X001708Y002425D01*
X001038Y002425D01*
X001038Y002426D02*
X001708Y002426D01*
X001708Y002427D02*
X001038Y002427D01*
X001038Y002428D02*
X001708Y002428D01*
X001708Y002429D02*
X001038Y002429D01*
X001708Y002429D01*
X001708Y002430D02*
X001038Y002430D01*
X001038Y002431D02*
X001708Y002431D01*
X001708Y002432D02*
X001038Y002432D01*
X001038Y002433D02*
X001708Y002433D01*
X001038Y002433D01*
X001038Y002434D02*
X001708Y002434D01*
X001708Y002435D02*
X001038Y002435D01*
X001038Y002436D02*
X001708Y002436D01*
X001708Y002437D02*
X001038Y002437D01*
X001708Y002437D01*
X001708Y002438D02*
X001038Y002438D01*
X001038Y002439D02*
X001708Y002439D01*
X001708Y002440D02*
X001038Y002440D01*
X001038Y002441D02*
X001708Y002441D01*
X001038Y002441D01*
X001038Y002442D02*
X001708Y002442D01*
X001708Y002443D02*
X001038Y002443D01*
X001038Y002444D02*
X001708Y002444D01*
X001708Y002445D02*
X001038Y002445D01*
X001708Y002445D01*
X001708Y002446D02*
X001038Y002446D01*
X001038Y002447D02*
X001708Y002447D01*
X001708Y002448D02*
X001038Y002448D01*
X001038Y002449D02*
X001708Y002449D01*
X001708Y002450D02*
X001038Y002450D01*
X001708Y002450D01*
X001708Y002451D02*
X001038Y002451D01*
X001038Y002452D02*
X001708Y002452D01*
X001708Y002453D02*
X001038Y002453D01*
X001038Y002454D02*
X001708Y002454D01*
X001038Y002454D01*
X001038Y002455D02*
X001708Y002455D01*
X001708Y002456D02*
X001038Y002456D01*
X001038Y002457D02*
X001708Y002457D01*
X001708Y002458D02*
X001038Y002458D01*
X001708Y002458D01*
X001708Y002459D02*
X001038Y002459D01*
X001038Y002460D02*
X001708Y002460D01*
X001708Y002461D02*
X001038Y002461D01*
X001038Y002462D02*
X001708Y002462D01*
X001038Y002462D01*
X001038Y002463D02*
X001708Y002463D01*
X001708Y002464D02*
X001038Y002464D01*
X001038Y002465D02*
X001708Y002465D01*
X001708Y002466D02*
X001038Y002466D01*
X001708Y002466D01*
X001708Y002467D02*
X001038Y002467D01*
X001038Y002468D02*
X001708Y002468D01*
X001708Y002469D02*
X001038Y002469D01*
X001038Y002470D02*
X001708Y002470D01*
X001038Y002470D01*
X001038Y002471D02*
X001708Y002471D01*
X001708Y002472D02*
X001038Y002472D01*
X001038Y002473D02*
X001708Y002473D01*
X001708Y002474D02*
X001038Y002474D01*
X001708Y002474D01*
X001708Y002475D02*
X001038Y002475D01*
X001038Y002476D02*
X001708Y002476D01*
X001708Y002477D02*
X001038Y002477D01*
X001038Y002478D02*
X001708Y002478D01*
X001038Y002478D01*
X001038Y002479D02*
X001708Y002479D01*
X001708Y002480D02*
X001038Y002480D01*
X001038Y002481D02*
X001708Y002481D01*
X001708Y002482D02*
X001038Y002482D01*
X001708Y002482D01*
X001708Y002483D02*
X001038Y002483D01*
X001038Y002484D02*
X001708Y002484D01*
X001708Y002485D02*
X001038Y002485D01*
X001038Y002486D02*
X001708Y002486D01*
X001038Y002486D01*
X001038Y002487D02*
X001708Y002487D01*
X001708Y002488D02*
X001038Y002488D01*
X001038Y002489D02*
X001708Y002489D01*
X001708Y002490D02*
X001038Y002490D01*
X001708Y002490D01*
X001708Y002491D02*
X001038Y002491D01*
X001038Y002492D02*
X001708Y002492D01*
X001708Y002493D02*
X001038Y002493D01*
X001038Y002494D02*
X001708Y002494D01*
X001708Y002495D02*
X001038Y002495D01*
X001708Y002495D01*
X001708Y002496D02*
X001038Y002496D01*
X001038Y002497D02*
X001708Y002497D01*
X001708Y002498D02*
X001038Y002498D01*
X001038Y002499D02*
X001708Y002499D01*
X001038Y002499D01*
X001038Y002500D02*
X001708Y002500D01*
X001708Y002501D02*
X001038Y002501D01*
X001038Y002502D02*
X001708Y002502D01*
X001708Y002503D02*
X001038Y002503D01*
X001708Y002503D01*
X001708Y002504D02*
X001038Y002504D01*
X001038Y002505D02*
X001708Y002505D01*
X001708Y002506D02*
X001038Y002506D01*
X001038Y002507D02*
X001708Y002507D01*
X001038Y002507D01*
X001038Y002508D02*
X001708Y002508D01*
X001708Y002509D02*
X001038Y002509D01*
X001038Y002510D02*
X001708Y002510D01*
X001708Y002511D02*
X001038Y002511D01*
X001708Y002511D01*
X001708Y002512D02*
X001038Y002512D01*
X001038Y002513D02*
X001708Y002513D01*
X001708Y002514D02*
X001038Y002514D01*
X001038Y002515D02*
X001708Y002515D01*
X001038Y002515D01*
X001038Y002516D02*
X001708Y002516D01*
X001708Y002517D02*
X001038Y002517D01*
X001038Y002518D02*
X001708Y002518D01*
X001708Y002519D02*
X001038Y002519D01*
X001708Y002519D01*
X001708Y002520D02*
X001038Y002520D01*
X001038Y002521D02*
X001708Y002521D01*
X001708Y002522D02*
X001038Y002522D01*
X001038Y002523D02*
X001708Y002523D01*
X001038Y002523D01*
X001038Y002524D02*
X001708Y002524D01*
X001708Y002525D02*
X001038Y002525D01*
X001038Y002526D02*
X001708Y002526D01*
X001708Y002527D02*
X001038Y002527D01*
X001708Y002527D01*
X001708Y002528D02*
X001038Y002528D01*
X001038Y002529D02*
X001708Y002529D01*
X001708Y002530D02*
X001038Y002530D01*
X001038Y002531D02*
X001708Y002531D01*
X001038Y002531D01*
X001038Y002532D02*
X001708Y002532D01*
X001708Y002533D02*
X001038Y002533D01*
X001038Y002534D02*
X001708Y002534D01*
X001708Y002535D02*
X001038Y002535D01*
X001708Y002535D01*
X001708Y002536D02*
X001038Y002536D01*
X001038Y002537D02*
X001708Y002537D01*
X001708Y002538D02*
X001038Y002538D01*
X001038Y002539D02*
X001708Y002539D01*
X001038Y002539D01*
X001038Y002540D02*
X001708Y002540D01*
X001708Y002541D02*
X001038Y002541D01*
X001038Y002542D02*
X001708Y002542D01*
X001708Y002543D02*
X001038Y002543D01*
X001038Y002544D02*
X001708Y002544D01*
X001038Y002544D01*
X001038Y002545D02*
X001708Y002545D01*
X001708Y002546D02*
X001038Y002546D01*
X001038Y002547D02*
X001708Y002547D01*
X001708Y002548D02*
X001038Y002548D01*
X001708Y002548D01*
X001708Y002549D02*
X001038Y002549D01*
X001038Y002550D02*
X001708Y002550D01*
X001708Y002551D02*
X001038Y002551D01*
X001038Y002552D02*
X001708Y002552D01*
X001038Y002552D01*
X001038Y002553D02*
X001708Y002553D01*
X001708Y002554D02*
X001038Y002554D01*
X001038Y002555D02*
X001708Y002555D01*
X001708Y002556D02*
X001038Y002556D01*
X001708Y002556D01*
X001708Y002557D02*
X001038Y002557D01*
X001038Y002558D02*
X001708Y002558D01*
X001708Y002559D02*
X001038Y002559D01*
X001038Y002560D02*
X001708Y002560D01*
X001038Y002560D01*
X001038Y002561D02*
X001708Y002561D01*
X001708Y002562D02*
X001038Y002562D01*
X001038Y002563D02*
X001708Y002563D01*
X001708Y002564D02*
X001038Y002564D01*
X001708Y002564D01*
X001708Y002565D02*
X001038Y002565D01*
X001038Y002566D02*
X001708Y002566D01*
X001708Y002567D02*
X001038Y002567D01*
X001038Y002568D02*
X001708Y002568D01*
X001038Y002568D01*
X001038Y002569D02*
X001708Y002569D01*
X001708Y002570D02*
X001038Y002570D01*
X001038Y002571D02*
X001708Y002571D01*
X001708Y002572D02*
X001038Y002572D01*
X001708Y002572D01*
X001708Y002573D02*
X001038Y002573D01*
X001038Y002574D02*
X001708Y002574D01*
X001708Y002575D02*
X001038Y002575D01*
X001038Y002576D02*
X001708Y002576D01*
X001038Y002576D01*
X001038Y002577D02*
X001708Y002577D01*
X001708Y002578D02*
X001038Y002578D01*
X001038Y002579D02*
X001708Y002579D01*
X001708Y002580D02*
X001038Y002580D01*
X001708Y002580D01*
X001708Y002581D02*
X001038Y002581D01*
X001038Y002582D02*
X001708Y002582D01*
X001708Y002583D02*
X001038Y002583D01*
X001038Y002584D02*
X001708Y002584D01*
X001038Y002584D01*
X001038Y002585D02*
X001708Y002585D01*
X001708Y002586D02*
X001038Y002586D01*
X001038Y002587D02*
X001708Y002587D01*
X001708Y002588D02*
X001038Y002588D01*
X001038Y002589D02*
X001708Y002589D01*
X001038Y002589D01*
X001038Y002590D02*
X001708Y002590D01*
X001708Y002591D02*
X001038Y002591D01*
X001038Y002592D02*
X001708Y002592D01*
X001708Y002593D02*
X001038Y002593D01*
X001708Y002593D01*
X001708Y002594D02*
X001038Y002594D01*
X001038Y002595D02*
X001708Y002595D01*
X001708Y002596D02*
X001038Y002596D01*
X001038Y002597D02*
X001708Y002597D01*
X001038Y002597D01*
X001038Y002598D02*
X001708Y002598D01*
X001708Y002599D02*
X001038Y002599D01*
X001038Y002600D02*
X001708Y002600D01*
X001708Y002601D02*
X001038Y002601D01*
X001708Y002601D01*
X001708Y002602D02*
X001038Y002602D01*
X001038Y002603D02*
X001708Y002603D01*
X001708Y002604D02*
X001038Y002604D01*
X001038Y002605D02*
X001708Y002605D01*
X001038Y002605D01*
X001038Y002606D02*
X001708Y002606D01*
X001708Y002607D02*
X001038Y002607D01*
X001038Y002608D02*
X001708Y002608D01*
X001708Y002609D02*
X001038Y002609D01*
X001708Y002609D01*
X001708Y002610D02*
X001038Y002610D01*
X001038Y002611D02*
X001708Y002611D01*
X001708Y002612D02*
X001038Y002612D01*
X001038Y002613D02*
X001708Y002613D01*
X001038Y002613D01*
X001038Y002614D02*
X001708Y002614D01*
X001708Y002615D02*
X001038Y002615D01*
X001038Y002616D02*
X001708Y002616D01*
X001708Y002617D02*
X001038Y002617D01*
X001708Y002617D01*
X001708Y002618D02*
X001038Y002618D01*
X001038Y002619D02*
X001708Y002619D01*
X001708Y002620D02*
X001038Y002620D01*
X001038Y002621D02*
X001708Y002621D01*
X001038Y002621D01*
X001038Y002622D02*
X001708Y002622D01*
X001708Y002623D02*
X001038Y002623D01*
X001038Y002624D02*
X001708Y002624D01*
X001708Y002625D02*
X001038Y002625D01*
X001708Y002625D01*
X001708Y002626D02*
X001038Y002626D01*
X001038Y002627D02*
X001708Y002627D01*
X001708Y002628D02*
X001038Y002628D01*
X001038Y002629D02*
X001708Y002629D01*
X001038Y002629D01*
X001038Y002630D02*
X001708Y002630D01*
X001708Y002631D02*
X001038Y002631D01*
X001038Y002632D02*
X001708Y002632D01*
X001708Y002633D02*
X001038Y002633D01*
X001708Y002633D01*
X001708Y002634D02*
X001038Y002634D01*
X001038Y002635D02*
X001708Y002635D01*
X001708Y002636D02*
X001038Y002636D01*
X001038Y002637D02*
X001708Y002637D01*
X001708Y002638D02*
X001038Y002638D01*
X001708Y002638D01*
X001708Y002639D02*
X001038Y002639D01*
X001038Y002640D02*
X001708Y002640D01*
X001708Y002641D02*
X001038Y002641D01*
X001038Y002642D02*
X001708Y002642D01*
X001038Y002642D01*
X001038Y002643D02*
X001708Y002643D01*
X001708Y002644D02*
X001038Y002644D01*
X001038Y002645D02*
X001708Y002645D01*
X001708Y002646D02*
X001038Y002646D01*
X001708Y002646D01*
X001708Y002647D02*
X001038Y002647D01*
X001038Y002648D02*
X001708Y002648D01*
X001708Y002649D02*
X001038Y002649D01*
X001038Y002650D02*
X001708Y002650D01*
X001038Y002650D01*
X001038Y002651D02*
X001708Y002651D01*
X001708Y002652D02*
X001038Y002652D01*
X001038Y002653D02*
X001708Y002653D01*
X001708Y002654D02*
X001038Y002654D01*
X001708Y002654D01*
X001708Y002655D02*
X001038Y002655D01*
X001038Y002656D02*
X001708Y002656D01*
X001708Y002657D02*
X001038Y002657D01*
X001038Y002658D02*
X001708Y002658D01*
X001038Y002658D01*
X001038Y002659D02*
X001708Y002659D01*
X001708Y002660D02*
X001038Y002660D01*
X001038Y002661D02*
X001708Y002661D01*
X001708Y002662D02*
X001038Y002662D01*
X001708Y002662D01*
X001708Y002663D02*
X001038Y002663D01*
X001038Y002664D02*
X001708Y002664D01*
X001708Y002665D02*
X001038Y002665D01*
X001038Y002666D02*
X001708Y002666D01*
X001038Y002666D01*
X001038Y002667D02*
X001708Y002667D01*
X001708Y002668D02*
X001038Y002668D01*
X001038Y002669D02*
X001708Y002669D01*
X001708Y002670D02*
X001038Y002670D01*
X001708Y002670D01*
X001708Y002671D02*
X001038Y002671D01*
X001038Y002672D02*
X001708Y002672D01*
X001708Y002673D02*
X001038Y002673D01*
X001038Y002674D02*
X001708Y002674D01*
X001038Y002674D01*
X001038Y002675D02*
X001708Y002675D01*
X001708Y002676D02*
X001038Y002676D01*
X001038Y002677D02*
X001708Y002677D01*
X001708Y002678D02*
X001038Y002678D01*
X001708Y002678D01*
X001708Y002679D02*
X001038Y002679D01*
X001038Y002680D02*
X001708Y002680D01*
X001708Y002681D02*
X001038Y002681D01*
X001038Y002682D02*
X001708Y002682D01*
X001708Y002683D02*
X001038Y002683D01*
X001708Y002683D01*
X001708Y002684D02*
X001038Y002684D01*
X001038Y002685D02*
X001708Y002685D01*
X001708Y002686D02*
X001038Y002686D01*
X001038Y002687D02*
X001708Y002687D01*
X001038Y002687D01*
X001038Y002688D02*
X001708Y002688D01*
X001708Y002689D02*
X001038Y002689D01*
X001038Y002690D02*
X001708Y002690D01*
X001708Y002691D02*
X001038Y002691D01*
X001708Y002691D01*
X001708Y002692D02*
X001038Y002692D01*
X001038Y002693D02*
X001708Y002693D01*
X001708Y002694D02*
X001038Y002694D01*
X001038Y002695D02*
X001708Y002695D01*
X001038Y002695D01*
X001038Y002696D02*
X001708Y002696D01*
X001708Y002697D02*
X001038Y002697D01*
X001038Y002698D02*
X001708Y002698D01*
X001708Y002699D02*
X001038Y002699D01*
X001708Y002699D01*
X001708Y002700D02*
X001038Y002700D01*
X001038Y002701D02*
X001708Y002701D01*
X001708Y002702D02*
X001038Y002702D01*
X001038Y002703D02*
X001708Y002703D01*
X001038Y002703D01*
X001038Y002704D02*
X001708Y002704D01*
X001708Y002705D02*
X001038Y002705D01*
X001038Y002706D02*
X001708Y002706D01*
X001708Y002707D02*
X001038Y002707D01*
X001708Y002707D01*
X001708Y002708D02*
X001038Y002708D01*
X001038Y002709D02*
X001708Y002709D01*
X001708Y002710D02*
X001038Y002710D01*
X001038Y002711D02*
X001708Y002711D01*
X001038Y002711D01*
X001038Y002712D02*
X001708Y002712D01*
X001708Y002713D02*
X001038Y002713D01*
X001038Y002714D02*
X001708Y002714D01*
X001708Y002715D02*
X001038Y002715D01*
X001708Y002715D01*
X001708Y002716D02*
X001038Y002716D01*
X001038Y002717D02*
X001708Y002717D01*
X001708Y002718D02*
X001038Y002718D01*
X001038Y002719D02*
X001708Y002719D01*
X001038Y002719D01*
X001038Y002720D02*
X001708Y002720D01*
X001708Y002721D02*
X001038Y002721D01*
X001038Y002722D02*
X001708Y002722D01*
X001708Y002723D02*
X001038Y002723D01*
X001708Y002723D01*
X001708Y002724D02*
X001038Y002724D01*
X001038Y002725D02*
X001708Y002725D01*
X001708Y002726D02*
X001038Y002726D01*
X001038Y002727D02*
X001708Y002727D01*
X001038Y002727D01*
X001038Y002728D02*
X001708Y002728D01*
X001708Y002729D02*
X001038Y002729D01*
X001038Y002730D02*
X001708Y002730D01*
X001708Y002731D02*
X001038Y002731D01*
X001038Y002732D02*
X001708Y002732D01*
X001038Y002732D01*
X001038Y002733D02*
X001708Y002733D01*
X001708Y002734D02*
X001038Y002734D01*
X001038Y002735D02*
X001708Y002735D01*
X001708Y002736D02*
X001038Y002736D01*
X001708Y002736D01*
X001708Y002737D02*
X001038Y002737D01*
X001038Y002738D02*
X001708Y002738D01*
X001708Y002739D02*
X001038Y002739D01*
X001038Y002740D02*
X001708Y002740D01*
X001038Y002740D01*
X001038Y002741D02*
X001708Y002741D01*
X001708Y002742D02*
X001038Y002742D01*
X001038Y002743D02*
X001708Y002743D01*
X001708Y002744D02*
X001038Y002744D01*
X001708Y002744D01*
X001708Y002745D02*
X001038Y002745D01*
X001038Y002746D02*
X001708Y002746D01*
X001708Y002747D02*
X001038Y002747D01*
X001038Y002748D02*
X001708Y002748D01*
X001038Y002748D01*
X001038Y002749D02*
X001708Y002749D01*
X001708Y002750D02*
X001038Y002750D01*
X001038Y002751D02*
X001708Y002751D01*
X001708Y002752D02*
X001038Y002752D01*
X001708Y002752D01*
X001708Y002753D02*
X001038Y002753D01*
X001038Y002754D02*
X001708Y002754D01*
X001708Y002755D02*
X001038Y002755D01*
X001038Y002756D02*
X001708Y002756D01*
X001038Y002756D01*
X001038Y002757D02*
X001708Y002757D01*
X001708Y002758D02*
X001038Y002758D01*
X001038Y002759D02*
X001708Y002759D01*
X001708Y002760D02*
X001038Y002760D01*
X001708Y002760D01*
X001708Y002761D02*
X001038Y002761D01*
X001038Y002762D02*
X001708Y002762D01*
X001708Y002763D02*
X001038Y002763D01*
X001038Y002764D02*
X001708Y002764D01*
X001038Y002764D01*
X001038Y002765D02*
X001708Y002765D01*
X001708Y002766D02*
X001038Y002766D01*
X001038Y002767D02*
X001708Y002767D01*
X001708Y002768D02*
X001038Y002768D01*
X001708Y002768D01*
X001708Y002769D02*
X001038Y002769D01*
X001038Y002770D02*
X001708Y002770D01*
X001708Y002771D02*
X001038Y002771D01*
X001038Y002772D02*
X001708Y002772D01*
X001038Y002772D01*
X001038Y002773D02*
X001708Y002773D01*
X001708Y002774D02*
X001038Y002774D01*
X001038Y002775D02*
X001708Y002775D01*
X001708Y002776D02*
X001038Y002776D01*
X001708Y002776D01*
X001708Y002777D02*
X001038Y002777D01*
X001038Y002778D02*
X001708Y002778D01*
X001708Y002779D02*
X001038Y002779D01*
X001038Y002780D02*
X001708Y002780D01*
X001708Y002781D02*
X001038Y002781D01*
X001708Y002781D01*
X001708Y002782D02*
X001038Y002782D01*
X001038Y002783D02*
X001708Y002783D01*
X001708Y002784D02*
X001038Y002784D01*
X001038Y002785D02*
X001708Y002785D01*
X001038Y002785D01*
X001038Y002786D02*
X001708Y002786D01*
X001708Y002787D02*
X001038Y002787D01*
X001038Y002788D02*
X001708Y002788D01*
X001708Y002789D02*
X001038Y002789D01*
X001708Y002789D01*
X001708Y002790D02*
X001038Y002790D01*
X001038Y002791D02*
X001708Y002791D01*
X001708Y002792D02*
X001038Y002792D01*
X001038Y002793D02*
X001708Y002793D01*
X001038Y002793D01*
X001038Y002794D02*
X001708Y002794D01*
X001708Y002795D02*
X001038Y002795D01*
X001038Y002796D02*
X001708Y002796D01*
X001708Y002797D02*
X001038Y002797D01*
X001708Y002797D01*
X001708Y002798D02*
X001038Y002798D01*
X001038Y002799D02*
X001708Y002799D01*
X001708Y002800D02*
X001038Y002800D01*
X001038Y002801D02*
X001708Y002801D01*
X001038Y002801D01*
X001038Y002802D02*
X001708Y002802D01*
X001708Y002803D02*
X001038Y002803D01*
X001038Y002804D02*
X001708Y002804D01*
X001708Y002805D02*
X001038Y002805D01*
X001708Y002805D01*
X001708Y002806D02*
X001038Y002806D01*
X001038Y002807D02*
X001708Y002807D01*
X001708Y002808D02*
X001038Y002808D01*
X001038Y002809D02*
X001708Y002809D01*
X001038Y002809D01*
X001038Y002810D02*
X001708Y002810D01*
X001708Y002811D02*
X001038Y002811D01*
X001038Y002812D02*
X001708Y002812D01*
X001708Y002813D02*
X001038Y002813D01*
X001708Y002813D01*
X001708Y002814D02*
X001038Y002814D01*
X001038Y002815D02*
X001708Y002815D01*
X001708Y002816D02*
X001038Y002816D01*
X001038Y002817D02*
X001708Y002817D01*
X001038Y002817D01*
X001038Y002818D02*
X001708Y002818D01*
X001708Y002819D02*
X001038Y002819D01*
X001038Y002820D02*
X001708Y002820D01*
X001708Y002821D02*
X001038Y002821D01*
X001708Y002821D01*
X001708Y002822D02*
X001038Y002822D01*
X001038Y002823D02*
X001708Y002823D01*
X001708Y002824D02*
X001038Y002824D01*
X001038Y002825D02*
X001708Y002825D01*
X001708Y002826D02*
X001038Y002826D01*
X001708Y002826D01*
X001708Y002827D02*
X001038Y002827D01*
X001038Y002828D02*
X001708Y002828D01*
X001708Y002829D02*
X001038Y002829D01*
X001038Y002830D02*
X001708Y002830D01*
X001038Y002830D01*
X001038Y002831D02*
X001708Y002831D01*
X001708Y002832D02*
X001038Y002832D01*
X001038Y002833D02*
X001708Y002833D01*
X001708Y002834D02*
X001038Y002834D01*
X001708Y002834D01*
X001708Y002835D02*
X001038Y002835D01*
X001038Y002836D02*
X001708Y002836D01*
X001708Y002837D02*
X001038Y002837D01*
X001038Y002838D02*
X001708Y002838D01*
X001038Y002838D01*
X001038Y002839D02*
X001708Y002839D01*
X001708Y002840D02*
X001038Y002840D01*
X001038Y002841D02*
X001708Y002841D01*
X001708Y002842D02*
X001038Y002842D01*
X001708Y002842D01*
X001708Y002843D02*
X001038Y002843D01*
X001038Y002844D02*
X001708Y002844D01*
X001708Y002845D02*
X001038Y002845D01*
X001038Y002846D02*
X001708Y002846D01*
X001038Y002846D01*
X001038Y002847D02*
X001708Y002847D01*
X001708Y002848D02*
X001038Y002848D01*
X001038Y002849D02*
X001708Y002849D01*
X001708Y002850D02*
X001038Y002850D01*
X001708Y002850D01*
X001708Y002851D02*
X001038Y002851D01*
X001038Y002852D02*
X001708Y002852D01*
X001708Y002853D02*
X001038Y002853D01*
X001038Y002854D02*
X001708Y002854D01*
X001038Y002854D01*
X001038Y002855D02*
X001708Y002855D01*
X001708Y002856D02*
X001038Y002856D01*
X001038Y002857D02*
X001708Y002857D01*
X001708Y002858D02*
X001038Y002858D01*
X001708Y002858D01*
X001708Y002859D02*
X001038Y002859D01*
X001038Y002860D02*
X001708Y002860D01*
X001708Y002861D02*
X001038Y002861D01*
X001038Y002862D02*
X001708Y002862D01*
X001038Y002862D01*
X001038Y002863D02*
X001708Y002863D01*
X001708Y002864D02*
X001038Y002864D01*
X001038Y002865D02*
X001708Y002865D01*
X001708Y002866D02*
X001038Y002866D01*
X001708Y002866D01*
X001708Y002867D02*
X001038Y002867D01*
X001038Y002868D02*
X001708Y002868D01*
X001708Y002869D02*
X001038Y002869D01*
X001038Y002870D02*
X001708Y002870D01*
X001038Y002870D01*
X001038Y002871D02*
X001708Y002871D01*
X001708Y002872D02*
X001038Y002872D01*
X001038Y002873D02*
X001708Y002873D01*
X001708Y002874D02*
X001038Y002874D01*
X001038Y002875D02*
X001708Y002875D01*
X001038Y002875D01*
X001038Y002876D02*
X001708Y002876D01*
X001708Y002877D02*
X001038Y002877D01*
X001038Y002878D02*
X001708Y002878D01*
X001708Y002879D02*
X001038Y002879D01*
X001708Y002879D01*
X001708Y002880D02*
X001038Y002880D01*
X001038Y002881D02*
X001708Y002881D01*
X001708Y002882D02*
X001038Y002882D01*
X001038Y002883D02*
X001708Y002883D01*
X001038Y002883D01*
X001038Y002884D02*
X001708Y002884D01*
X001708Y002885D02*
X001038Y002885D01*
X001038Y002886D02*
X001708Y002886D01*
X001708Y002887D02*
X001038Y002887D01*
X001708Y002887D01*
X001708Y002888D02*
X001038Y002888D01*
X001038Y002889D02*
X001708Y002889D01*
X001708Y002890D02*
X001038Y002890D01*
X001038Y002891D02*
X001708Y002891D01*
X001038Y002891D01*
X001038Y002892D02*
X001708Y002892D01*
X001708Y002893D02*
X001038Y002893D01*
X001038Y002894D02*
X001708Y002894D01*
X001708Y002895D02*
X001038Y002895D01*
X001708Y002895D01*
X001708Y002896D02*
X001038Y002896D01*
X001038Y002897D02*
X001708Y002897D01*
X001708Y002898D02*
X001038Y002898D01*
X001038Y002899D02*
X001708Y002899D01*
X001038Y002899D01*
X001038Y002900D02*
X001708Y002900D01*
X001708Y002901D02*
X001038Y002901D01*
X001038Y002902D02*
X001708Y002902D01*
X001708Y002903D02*
X001038Y002903D01*
X001708Y002903D01*
X001708Y002904D02*
X001038Y002904D01*
X001038Y002905D02*
X001708Y002905D01*
X001708Y002906D02*
X001038Y002906D01*
X001038Y002907D02*
X001708Y002907D01*
X001038Y002907D01*
X001038Y002908D02*
X001708Y002908D01*
X001708Y002909D02*
X001038Y002909D01*
X001038Y002910D02*
X001708Y002910D01*
X001708Y002911D02*
X001038Y002911D01*
X001708Y002911D01*
X001708Y002912D02*
X001038Y002912D01*
X001038Y002913D02*
X001708Y002913D01*
X001708Y002914D02*
X001038Y002914D01*
X001038Y002915D02*
X001708Y002915D01*
X001038Y002915D01*
X001038Y002916D02*
X001708Y002916D01*
X001708Y002917D02*
X001038Y002917D01*
X001038Y002918D02*
X001708Y002918D01*
X001708Y002919D02*
X001038Y002919D01*
X001038Y002920D02*
X001708Y002920D01*
X001038Y002920D01*
X001038Y002921D02*
X001708Y002921D01*
X001708Y002922D02*
X001038Y002922D01*
X001038Y002923D02*
X001708Y002923D01*
X001708Y002924D02*
X001038Y002924D01*
X001708Y002924D01*
X001708Y002925D02*
X001038Y002925D01*
X001038Y002926D02*
X001708Y002926D01*
X001708Y002927D02*
X001038Y002927D01*
X001038Y002928D02*
X001708Y002928D01*
X001038Y002928D01*
X001038Y002929D02*
X001708Y002929D01*
X001708Y002930D02*
X001038Y002930D01*
X001038Y002931D02*
X001708Y002931D01*
X001708Y002932D02*
X001038Y002932D01*
X001708Y002932D01*
X001708Y002933D02*
X001038Y002933D01*
X001038Y002934D02*
X001708Y002934D01*
X001708Y002935D02*
X001038Y002935D01*
X001038Y002936D02*
X001708Y002936D01*
X001038Y002936D01*
X001038Y002937D02*
X001708Y002937D01*
X001708Y002938D02*
X001038Y002938D01*
X001038Y002939D02*
X001708Y002939D01*
X001708Y002940D02*
X001038Y002940D01*
X001708Y002940D01*
X001708Y002941D02*
X001038Y002941D01*
X001038Y002942D02*
X001708Y002942D01*
X001708Y002943D02*
X001038Y002943D01*
X001038Y002944D02*
X001708Y002944D01*
X001038Y002944D01*
X001038Y002945D02*
X001708Y002945D01*
X001708Y002946D02*
X001038Y002946D01*
X001038Y002947D02*
X001708Y002947D01*
X001708Y002948D02*
X001038Y002948D01*
X001708Y002948D01*
X001708Y002949D02*
X001038Y002949D01*
X001038Y002950D02*
X001708Y002950D01*
X001708Y002951D02*
X001038Y002951D01*
X001038Y002952D02*
X001708Y002952D01*
X001038Y002952D01*
X001038Y002953D02*
X001708Y002953D01*
X001708Y002954D02*
X001038Y002954D01*
X001038Y002955D02*
X001708Y002955D01*
X001708Y002956D02*
X001038Y002956D01*
X001708Y002956D01*
X001708Y002957D02*
X001038Y002957D01*
X001038Y002958D02*
X001708Y002958D01*
X001708Y002959D02*
X001038Y002959D01*
X001038Y002960D02*
X001708Y002960D01*
X001038Y002960D01*
X001038Y002961D02*
X001708Y002961D01*
X001708Y002962D02*
X001038Y002962D01*
X001038Y002963D02*
X001708Y002963D01*
X001708Y002964D02*
X001038Y002964D01*
X001708Y002964D01*
X001708Y002965D02*
X001038Y002965D01*
X001038Y002966D02*
X001708Y002966D01*
X001708Y002967D02*
X001038Y002967D01*
X001038Y002968D02*
X001708Y002968D01*
X001708Y002969D02*
X001038Y002969D01*
X001708Y002969D01*
X001708Y002970D02*
X001038Y002970D01*
X001038Y002971D02*
X001708Y002971D01*
X001708Y002972D02*
X001038Y002972D01*
X001038Y002973D02*
X001708Y002973D01*
X001038Y002973D01*
X001038Y002974D02*
X001708Y002974D01*
X001708Y002975D02*
X001038Y002975D01*
X001038Y002976D02*
X001708Y002976D01*
X001708Y002977D02*
X001038Y002977D01*
X001708Y002977D01*
X001708Y002978D02*
X001038Y002978D01*
X001038Y002979D02*
X001708Y002979D01*
X001708Y002980D02*
X001038Y002980D01*
X001038Y002981D02*
X001708Y002981D01*
X001038Y002981D01*
X001038Y002982D02*
X001708Y002982D01*
X001708Y002983D02*
X001038Y002983D01*
X001038Y002984D02*
X001708Y002984D01*
X001708Y002985D02*
X001038Y002985D01*
X001708Y002985D01*
X001708Y002986D02*
X001038Y002986D01*
X001038Y002987D02*
X001708Y002987D01*
X001708Y002988D02*
X001038Y002988D01*
X001038Y002989D02*
X001708Y002989D01*
X001038Y002989D01*
X001038Y002990D02*
X001708Y002990D01*
X001708Y002991D02*
X001038Y002991D01*
X001038Y002992D02*
X001708Y002992D01*
X001708Y002993D02*
X001038Y002993D01*
X001708Y002993D01*
X001708Y002994D02*
X001038Y002994D01*
X001038Y002995D02*
X001708Y002995D01*
X001708Y002996D02*
X001038Y002996D01*
X001038Y002997D02*
X001708Y002997D01*
X001038Y002997D01*
X001038Y002998D02*
X001708Y002998D01*
X001708Y002999D02*
X001038Y002999D01*
X001038Y003000D02*
X001708Y003000D01*
X001708Y003001D02*
X001038Y003001D01*
X001708Y003001D01*
X001708Y003002D02*
X001038Y003002D01*
X001038Y003003D02*
X001708Y003003D01*
X001708Y003004D02*
X001038Y003004D01*
X001038Y003005D02*
X001708Y003005D01*
X001038Y003005D01*
X001038Y003006D02*
X001708Y003006D01*
X001708Y003007D02*
X001038Y003007D01*
X001038Y003008D02*
X001708Y003008D01*
X001708Y003009D02*
X001038Y003009D01*
X001708Y003009D01*
X001708Y003010D02*
X001038Y003010D01*
X001038Y003011D02*
X001708Y003011D01*
X001708Y003012D02*
X001038Y003012D01*
X001038Y003013D02*
X001708Y003013D01*
X001038Y003013D01*
X001038Y003014D02*
X001708Y003014D01*
X001708Y003015D02*
X001038Y003015D01*
X001038Y003016D02*
X001708Y003016D01*
X001708Y003017D02*
X001038Y003017D01*
X001038Y003018D02*
X001708Y003018D01*
X001038Y003018D01*
X001038Y003019D02*
X001708Y003019D01*
X001708Y003020D02*
X001038Y003020D01*
X001038Y003021D02*
X001708Y003021D01*
X001708Y003022D02*
X001038Y003022D01*
X001708Y003022D01*
X001708Y003023D02*
X001038Y003023D01*
X001038Y003024D02*
X001708Y003024D01*
X001708Y003025D02*
X001038Y003025D01*
X001038Y003026D02*
X001708Y003026D01*
X001038Y003026D01*
X001038Y003027D02*
X001708Y003027D01*
X001708Y003028D02*
X001038Y003028D01*
X001038Y003029D02*
X001708Y003029D01*
X001708Y003030D02*
X001038Y003030D01*
X001708Y003030D01*
X001708Y003031D02*
X001038Y003031D01*
X001038Y003032D02*
X001708Y003032D01*
X001708Y003033D02*
X001038Y003033D01*
X001038Y003034D02*
X001708Y003034D01*
X001038Y003034D01*
X001038Y003035D02*
X001708Y003035D01*
X001708Y003036D02*
X001038Y003036D01*
X001038Y003037D02*
X001708Y003037D01*
X001708Y003038D02*
X001038Y003038D01*
X001708Y003038D01*
X001708Y003039D02*
X001038Y003039D01*
X001038Y003040D02*
X001708Y003040D01*
X001708Y003041D02*
X001038Y003041D01*
X001038Y003042D02*
X001708Y003042D01*
X001038Y003042D01*
X001038Y003043D02*
X001708Y003043D01*
X001708Y003044D02*
X001038Y003044D01*
X001038Y003045D02*
X001708Y003045D01*
X001708Y003046D02*
X001038Y003046D01*
X001708Y003046D01*
X001708Y003047D02*
X001038Y003047D01*
X001038Y003048D02*
X001708Y003048D01*
X001708Y003049D02*
X001038Y003049D01*
X001038Y003050D02*
X001708Y003050D01*
X001038Y003050D01*
X001038Y003051D02*
X001708Y003051D01*
X001708Y003052D02*
X001038Y003052D01*
X001038Y003053D02*
X001708Y003053D01*
X001708Y003054D02*
X001038Y003054D01*
X001708Y003054D01*
X001708Y003055D02*
X001038Y003055D01*
X001038Y003056D02*
X001708Y003056D01*
X001708Y003057D02*
X001038Y003057D01*
X001038Y003058D02*
X001708Y003058D01*
X001038Y003058D01*
X001038Y003059D02*
X001708Y003059D01*
X001708Y003060D02*
X001038Y003060D01*
X001038Y003061D02*
X001708Y003061D01*
X001708Y003062D02*
X001038Y003062D01*
X001038Y003063D02*
X001708Y003063D01*
X001038Y003063D01*
X001038Y003064D02*
X001708Y003064D01*
X001708Y003065D02*
X001038Y003065D01*
X001038Y003066D02*
X001708Y003066D01*
X001708Y003067D02*
X001038Y003067D01*
X001708Y003067D01*
X001708Y003068D02*
X001038Y003068D01*
X001038Y003069D02*
X001708Y003069D01*
X001708Y003070D02*
X001038Y003070D01*
X001038Y003071D02*
X001708Y003071D01*
X001038Y003071D01*
X001038Y003072D02*
X001708Y003072D01*
X001708Y003073D02*
X001038Y003073D01*
X001038Y003074D02*
X001708Y003074D01*
X001708Y003075D02*
X001038Y003075D01*
X001708Y003075D01*
X001708Y003076D02*
X001038Y003076D01*
X001038Y003077D02*
X001708Y003077D01*
X001708Y003078D02*
X001038Y003078D01*
X001038Y003079D02*
X001708Y003079D01*
X001038Y003079D01*
X001038Y003080D02*
X001708Y003080D01*
X001708Y003081D02*
X001038Y003081D01*
X001038Y003082D02*
X001708Y003082D01*
X001708Y003083D02*
X001038Y003083D01*
X001708Y003083D01*
X001708Y003084D02*
X001038Y003084D01*
X001038Y003085D02*
X001708Y003085D01*
X001708Y003086D02*
X001038Y003086D01*
X001038Y003087D02*
X001708Y003087D01*
X001038Y003087D01*
X001038Y003088D02*
X001708Y003088D01*
X001708Y003089D02*
X001038Y003089D01*
X001038Y003090D02*
X001708Y003090D01*
X001708Y003091D02*
X001038Y003091D01*
X001708Y003091D01*
X001708Y003092D02*
X001038Y003092D01*
X001038Y003093D02*
X001708Y003093D01*
X001708Y003094D02*
X001038Y003094D01*
X001038Y003095D02*
X001708Y003095D01*
X001038Y003095D01*
X001038Y003096D02*
X001708Y003096D01*
X001708Y003097D02*
X001038Y003097D01*
X001038Y003098D02*
X001708Y003098D01*
X001708Y003099D02*
X001038Y003099D01*
X001708Y003099D01*
X001708Y003100D02*
X001038Y003100D01*
X001038Y003101D02*
X001708Y003101D01*
X001708Y003102D02*
X001038Y003102D01*
X001038Y003103D02*
X001708Y003103D01*
X001038Y003103D01*
X001038Y003104D02*
X001708Y003104D01*
X001708Y003105D02*
X001038Y003105D01*
X001038Y003106D02*
X001708Y003106D01*
X001708Y003107D02*
X001038Y003107D01*
X001708Y003107D01*
X001708Y003108D02*
X001038Y003108D01*
X001038Y003109D02*
X001708Y003109D01*
X001708Y003110D02*
X001038Y003110D01*
X001038Y003111D02*
X001708Y003111D01*
X001708Y003112D02*
X001038Y003112D01*
X001708Y003112D01*
X001708Y003113D02*
X001038Y003113D01*
X001038Y003114D02*
X001708Y003114D01*
X001708Y003115D02*
X001038Y003115D01*
X001038Y003116D02*
X001708Y003116D01*
X001038Y003116D01*
X001038Y003117D02*
X001708Y003117D01*
X001708Y003118D02*
X001038Y003118D01*
X001038Y003119D02*
X001708Y003119D01*
X001708Y003120D02*
X001038Y003120D01*
X001708Y003120D01*
X001708Y003121D02*
X001038Y003121D01*
X001038Y003122D02*
X001708Y003122D01*
X001708Y003123D02*
X001038Y003123D01*
X001038Y003124D02*
X001708Y003124D01*
X001038Y003124D01*
X001038Y003125D02*
X001708Y003125D01*
X001708Y003126D02*
X001038Y003126D01*
X001038Y003127D02*
X001708Y003127D01*
X001708Y003128D02*
X001038Y003128D01*
X001708Y003128D01*
X001708Y003129D02*
X001038Y003129D01*
X001038Y003130D02*
X001708Y003130D01*
X001708Y003131D02*
X001038Y003131D01*
X001038Y003132D02*
X001708Y003132D01*
X001038Y003132D01*
X001038Y003133D02*
X001708Y003133D01*
X001708Y003134D02*
X001038Y003134D01*
X001038Y003135D02*
X001708Y003135D01*
X001708Y003136D02*
X001038Y003136D01*
X001708Y003136D01*
X001708Y003137D02*
X001038Y003137D01*
X001038Y003138D02*
X001708Y003138D01*
X001708Y003139D02*
X001038Y003139D01*
X001038Y003140D02*
X001708Y003140D01*
X001038Y003140D01*
X001038Y003141D02*
X001708Y003141D01*
X001708Y003142D02*
X001038Y003142D01*
X001038Y003143D02*
X001708Y003143D01*
X001708Y003144D02*
X001038Y003144D01*
X001708Y003144D01*
X001708Y003145D02*
X001038Y003145D01*
X001038Y003146D02*
X001708Y003146D01*
X001708Y003147D02*
X001038Y003147D01*
X001038Y003148D02*
X001708Y003148D01*
X001038Y003148D01*
X001038Y003149D02*
X001708Y003149D01*
X001708Y003150D02*
X001038Y003150D01*
X001038Y003151D02*
X001708Y003151D01*
X001708Y003152D02*
X001038Y003152D01*
X001708Y003152D01*
X001708Y003153D02*
X001038Y003153D01*
X001038Y003154D02*
X001708Y003154D01*
X001708Y003155D02*
X001038Y003155D01*
X001038Y003156D02*
X001708Y003156D01*
X001708Y003157D02*
X001038Y003157D01*
X001708Y003157D01*
X001708Y003158D02*
X001038Y003158D01*
X001038Y003159D02*
X001708Y003159D01*
X001708Y003160D02*
X001038Y003160D01*
X001038Y003161D02*
X001708Y003161D01*
X001038Y003161D01*
X001038Y003162D02*
X001708Y003162D01*
X001708Y003163D02*
X001038Y003163D01*
X001038Y003164D02*
X001708Y003164D01*
X001708Y003165D02*
X001038Y003165D01*
X001708Y003165D01*
X001708Y003166D02*
X001038Y003166D01*
X001038Y003167D02*
X001708Y003167D01*
X001708Y003168D02*
X001038Y003168D01*
X001038Y003169D02*
X001708Y003169D01*
X001038Y003169D01*
X001038Y003170D02*
X001708Y003170D01*
X001708Y003171D02*
X001038Y003171D01*
X001038Y003172D02*
X001708Y003172D01*
X001708Y003173D02*
X001038Y003173D01*
X001708Y003173D01*
X001708Y003174D02*
X001038Y003174D01*
X001038Y003175D02*
X001708Y003175D01*
X001708Y003176D02*
X001038Y003176D01*
X001038Y003177D02*
X001708Y003177D01*
X001038Y003177D01*
X001038Y003178D02*
X001708Y003178D01*
X001708Y003179D02*
X001038Y003179D01*
X001038Y003180D02*
X001708Y003180D01*
X001708Y003181D02*
X001038Y003181D01*
X001708Y003181D01*
X001708Y003182D02*
X001038Y003182D01*
X001038Y003183D02*
X001708Y003183D01*
X001708Y003184D02*
X001038Y003184D01*
X001038Y003185D02*
X001708Y003185D01*
X001038Y003185D01*
X001038Y003186D02*
X001708Y003186D01*
X001708Y003187D02*
X001038Y003187D01*
X001038Y003188D02*
X001708Y003188D01*
X001708Y003189D02*
X001038Y003189D01*
X001708Y003189D01*
X001708Y003190D02*
X001038Y003190D01*
X001038Y003191D02*
X001708Y003191D01*
X001708Y003192D02*
X001038Y003192D01*
X001038Y003193D02*
X001708Y003193D01*
X001038Y003193D01*
X001038Y003194D02*
X001708Y003194D01*
X001708Y003195D02*
X001038Y003195D01*
X001038Y003196D02*
X001708Y003196D01*
X001708Y003197D02*
X001038Y003197D01*
X001708Y003197D01*
X001708Y003198D02*
X001038Y003198D01*
X001038Y003199D02*
X001708Y003199D01*
X001708Y003200D02*
X001038Y003200D01*
X001038Y003201D02*
X001708Y003201D01*
X001038Y003201D01*
X001038Y003202D02*
X001708Y003202D01*
X001708Y003203D02*
X001038Y003203D01*
X001038Y003204D02*
X001708Y003204D01*
X001708Y003205D02*
X001038Y003205D01*
X001038Y003206D02*
X001708Y003206D01*
X001038Y003206D01*
X001038Y003207D02*
X001708Y003207D01*
X001708Y003208D02*
X001038Y003208D01*
X001038Y003209D02*
X001708Y003209D01*
X001708Y003210D02*
X001038Y003210D01*
X001708Y003210D01*
X001708Y003211D02*
X001038Y003211D01*
X001038Y003212D02*
X001708Y003212D01*
X001708Y003213D02*
X001038Y003213D01*
X001038Y003214D02*
X001708Y003214D01*
X001038Y003214D01*
X001038Y003215D02*
X001708Y003215D01*
X001708Y003216D02*
X001038Y003216D01*
X001038Y003217D02*
X001708Y003217D01*
X001708Y003218D02*
X001038Y003218D01*
X001708Y003218D01*
X001708Y003219D02*
X001038Y003219D01*
X001038Y003220D02*
X001708Y003220D01*
X001708Y003221D02*
X001038Y003221D01*
X001038Y003222D02*
X001708Y003222D01*
X001038Y003222D01*
X001038Y003223D02*
X001708Y003223D01*
X001708Y003224D02*
X001038Y003224D01*
X001038Y003225D02*
X001708Y003225D01*
X001708Y003226D02*
X001038Y003226D01*
X001708Y003226D01*
X001708Y003227D02*
X001038Y003227D01*
X001038Y003228D02*
X001708Y003228D01*
X001708Y003229D02*
X001038Y003229D01*
X001038Y003230D02*
X001708Y003230D01*
X001038Y003230D01*
X001038Y003231D02*
X001708Y003231D01*
X001708Y003232D02*
X001038Y003232D01*
X001038Y003233D02*
X001708Y003233D01*
X001708Y003234D02*
X001038Y003234D01*
X001708Y003234D01*
X001708Y003235D02*
X001038Y003235D01*
X001038Y003236D02*
X001708Y003236D01*
X001708Y003237D02*
X001038Y003237D01*
X001038Y003238D02*
X001708Y003238D01*
X001038Y003238D01*
X001038Y003239D02*
X001708Y003239D01*
X001708Y003240D02*
X001038Y003240D01*
X001038Y003241D02*
X001708Y003241D01*
X001708Y003242D02*
X001038Y003242D01*
X001708Y003242D01*
X001708Y003243D02*
X001038Y003243D01*
X001038Y003244D02*
X001708Y003244D01*
X001708Y003245D02*
X001038Y003245D01*
X001038Y003246D02*
X001708Y003246D01*
X001038Y003246D01*
X001038Y003247D02*
X001708Y003247D01*
X001708Y003248D02*
X001038Y003248D01*
X001038Y003249D02*
X001708Y003249D01*
X001708Y003250D02*
X001038Y003250D01*
X001038Y003251D02*
X001708Y003251D01*
X001038Y003251D01*
X001038Y003252D02*
X001708Y003252D01*
X001708Y003253D02*
X001038Y003253D01*
X001038Y003254D02*
X001708Y003254D01*
X001708Y003255D02*
X001038Y003255D01*
X001708Y003255D01*
X001708Y003256D02*
X001038Y003256D01*
X001038Y003257D02*
X001708Y003257D01*
X001708Y003258D02*
X001038Y003258D01*
X001038Y003259D02*
X001708Y003259D01*
X001038Y003259D01*
X001038Y003260D02*
X001708Y003260D01*
X001708Y003261D02*
X001038Y003261D01*
X001038Y003262D02*
X001708Y003262D01*
X001708Y003263D02*
X001038Y003263D01*
X001708Y003263D01*
X001708Y003264D02*
X001038Y003264D01*
X001038Y003265D02*
X001708Y003265D01*
X001708Y003266D02*
X001038Y003266D01*
X001038Y003267D02*
X001708Y003267D01*
X001038Y003267D01*
X001038Y003268D02*
X001708Y003268D01*
X001708Y003269D02*
X001038Y003269D01*
X001038Y003270D02*
X001708Y003270D01*
X001708Y003271D02*
X001038Y003271D01*
X001708Y003271D01*
X001708Y003272D02*
X001038Y003272D01*
X001038Y003273D02*
X001708Y003273D01*
X001708Y003274D02*
X001038Y003274D01*
X001038Y003275D02*
X001708Y003275D01*
X001038Y003275D01*
X001038Y003276D02*
X001708Y003276D01*
X001708Y003277D02*
X001038Y003277D01*
X001038Y003278D02*
X001708Y003278D01*
X001708Y003279D02*
X001038Y003279D01*
X001708Y003279D01*
X001708Y003280D02*
X001038Y003280D01*
X001038Y003281D02*
X001708Y003281D01*
X001708Y003282D02*
X001038Y003282D01*
X001038Y003283D02*
X001708Y003283D01*
X001038Y003283D01*
D17*
X011867Y021606D02*
X011867Y021606D01*
X012897Y022636D01*
X012897Y022636D01*
X011867Y021606D01*
X012811Y022550D02*
X012811Y022550D01*
X018353Y015119D02*
X018353Y015119D01*
X019383Y016149D01*
X019383Y016149D01*
X018353Y015119D01*
X019297Y016063D02*
X019297Y016063D01*
D18*
X017017Y018599D02*
X017019Y018599D01*
X017018Y018598D01*
X017017Y018597D01*
X017016Y018598D01*
X017015Y018599D01*
X017016Y018600D01*
X017017Y018601D01*
X017018Y018600D01*
X017019Y018599D01*
X015347Y020269D02*
X015349Y020269D01*
X015348Y020268D01*
X015347Y020267D01*
X015346Y020268D01*
X015345Y020269D01*
X015346Y020270D01*
X015347Y020271D01*
X015348Y020270D01*
X015349Y020269D01*
X014621Y017873D02*
X014623Y017873D01*
X014622Y017872D01*
X014621Y017871D01*
X014620Y017872D01*
X014619Y017873D01*
X014620Y017874D01*
X014621Y017875D01*
X014622Y017874D01*
X014623Y017873D01*
D19*
X013052Y012902D03*
X013052Y012402D03*
X013052Y011902D03*
X013052Y011402D03*
X013052Y010902D03*
X013052Y010402D03*
X013052Y009902D03*
X013052Y009402D03*
X013052Y008902D03*
X013052Y008402D03*
X013052Y007902D03*
X013052Y007402D03*
X013052Y006902D03*
X013052Y006402D03*
X013052Y005902D03*
X013052Y005402D03*
X008198Y005407D03*
X008198Y005907D03*
X008198Y006407D03*
X008198Y006907D03*
X008198Y007407D03*
X008198Y007907D03*
X008198Y008407D03*
X008198Y008907D03*
X008198Y009407D03*
X008198Y009907D03*
X008198Y010407D03*
X008198Y010907D03*
X008198Y011407D03*
X008198Y011907D03*
X003952Y011907D03*
X003952Y011407D03*
X003952Y010907D03*
X003952Y010407D03*
X003952Y009907D03*
X003952Y009407D03*
X003952Y008907D03*
X003952Y008407D03*
X003952Y007907D03*
X003952Y007407D03*
X003952Y006907D03*
X003952Y006407D03*
X003952Y005907D03*
X003952Y005407D03*
X018298Y005402D03*
X018298Y005902D03*
X018298Y006402D03*
X018298Y006902D03*
X018298Y007402D03*
X018298Y007902D03*
X018298Y008402D03*
X018298Y008902D03*
X018298Y009402D03*
X018298Y009902D03*
X018298Y010402D03*
X018298Y010902D03*
X018298Y011402D03*
X018298Y011902D03*
X018298Y012402D03*
X018298Y012902D03*
D20*
X008415Y013784D03*
X007915Y013784D03*
X007415Y013784D03*
X006915Y013784D03*
X006415Y013784D03*
X005915Y013784D03*
X005415Y013784D03*
X004915Y013784D03*
X004415Y013784D03*
X003915Y013784D03*
X003415Y013784D03*
X002915Y013784D03*
X002915Y018031D03*
X003415Y018031D03*
X003915Y018031D03*
X004415Y018031D03*
X004915Y018031D03*
X005415Y018031D03*
X005915Y018031D03*
X006415Y018031D03*
X006915Y018031D03*
X007415Y018031D03*
X007915Y018031D03*
X008415Y018031D03*
D21*
X005295Y019447D03*
X005295Y019947D03*
X005295Y020447D03*
X005295Y020947D03*
X003175Y020947D03*
X003175Y020447D03*
X003175Y019947D03*
X003175Y019447D03*
D22*
X003880Y021727D03*
X004590Y021727D03*
X009360Y012857D03*
X010070Y012857D03*
X016835Y013752D03*
X017545Y013752D03*
D23*
X002015Y016568D03*
X002015Y017277D03*
M02*
