%
M48
M72
T01C0.0120
T02C0.0160
T03C0.0886
T04C0.2854
%
T01
X1471Y3481
X2062Y3481
X2653Y3481
X3243Y3481
X3834Y3481
X4424Y3481
X5015Y3481
X5605Y3481
X6196Y3481
X6786Y3481
X7377Y3481
X7968Y3481
X8558Y3481
X9149Y3481
X9739Y3481
X10330Y3481
X10920Y3481
X11511Y3481
X12101Y3481
X12692Y3481
X13282Y3481
X13873Y3481
X14464Y3481
X15054Y3481
X15645Y3481
X16235Y3481
X16826Y3481
X17416Y3481
X18007Y3481
X18597Y3481
X19188Y3481
X19779Y3481
X19625Y5327
X19325Y5327
X19625Y5627
X19925Y5627
X17700Y5402
X17700Y5902
X17700Y6402
X17700Y6902
X17075Y6902
X16925Y6402
X16735Y5902
X16525Y5402
X16115Y6077
X15925Y6427
X15725Y6777
X15500Y8402
X16075Y8877
X15500Y9402
X14525Y9402
X13725Y9407
X13725Y8907
X13705Y8407
X13725Y7907
X13725Y7407
X13725Y6777
X13725Y6427
X13725Y6077
X12325Y5927
X12025Y5927
X12325Y6227
X12325Y6527
X12075Y5247
X14360Y8402
X13725Y9907
X13725Y10407
X14175Y10327
X14475Y10327
X14475Y10627
X14475Y10927
X13725Y10907
X13725Y11377
X13725Y12527
X14075Y12527
X15425Y12477
X15675Y11877
X15675Y11527
X15975Y13977
X15975Y14277
X16275Y14277
X16275Y14577
X15425Y14177
X14075Y14427
X14075Y14777
X11625Y14127
X11325Y14127
X11325Y13827
X11325Y13527
X9575Y11727
X9225Y11527
X8875Y11527
X7475Y11777
X7175Y11777
X7475Y12077
X7475Y12377
X6025Y12327
X6025Y12027
X5725Y12027
X5725Y12327
X4825Y12527
X4475Y12527
X4175Y12327
X4475Y11577
X4475Y10957
X4475Y10407
X4475Y9907
X4475Y9407
X4475Y8907
X4475Y8407
X4475Y7907
X4475Y7507
X4475Y7127
X4475Y6757
X4475Y6357
X4475Y5907
X4575Y5377
X4075Y4427
X2325Y6127
X2025Y6127
X2325Y6427
X2025Y5827
X4875Y7217
X7045Y5907
X7045Y5407
X7805Y5407
X7805Y5907
X7805Y6407
X7805Y6907
X7805Y7307
X9025Y7927
X8625Y8907
X7245Y10577
X7475Y10807
X6925Y10427
X6125Y10427
X5675Y10577
X3275Y12477
X2925Y12477
X2575Y12477
X2225Y12477
X1915Y15427
X1915Y15727
X2215Y15727
X1915Y16027
X2925Y16727
X2925Y17077
X3725Y17077
X3725Y16727
X6325Y19127
X6325Y19427
X6625Y19427
X6325Y19727
X4675Y20447
X4125Y19927
X2475Y22027
X2475Y22327
X2475Y22627
X2475Y22927
X9525Y23027
X9525Y22727
X9825Y22727
X9825Y23027
X9675Y18877
X9675Y18577
X9975Y18577
X9975Y18277
X12825Y18177
X12825Y17877
X13125Y17877
X13125Y18177
X18275Y17577
X18575Y17577
X18575Y17877
X18575Y17277
X19825Y12127
X19825Y11827
X19825Y11527
X19525Y11527
X8725Y4627
X8425Y4627
X8425Y4927
X8125Y4927
X17925Y24227
X17925Y24527
X18225Y24527
X17625Y24527
T02
X8525Y12857
X8225Y12857
X2525Y20447
X2225Y20447
T03
X10625Y16979
T04
X10625Y7138
M30
