G75*
G70*
%OFA0B0*%
%FSLAX24Y24*%
%IPPOS*%
%LPD*%
%AMOC8*
5,1,8,0,0,1.08239X$1,22.5*
%
%ADD10C,0.0050*%
%ADD11C,0.0000*%
%ADD12C,0.0945*%
%ADD13C,0.0295*%
%ADD14R,0.0709X0.0295*%
%ADD15R,0.0295X0.0709*%
%ADD16R,0.0810X0.0240*%
%ADD17R,0.0394X0.0433*%
%ADD18R,0.0433X0.0394*%
D10*
X000875Y001427D02*
X000875Y004477D01*
X000575Y004777D01*
X000575Y008477D01*
X000150Y008477D01*
X000150Y009677D01*
X000575Y009677D01*
X000575Y017927D01*
X000150Y017927D01*
X000150Y019127D01*
X000575Y019127D01*
X000575Y024427D01*
X000577Y024471D01*
X000583Y024514D01*
X000592Y024556D01*
X000605Y024598D01*
X000622Y024638D01*
X000642Y024677D01*
X000665Y024714D01*
X000692Y024748D01*
X000721Y024781D01*
X000754Y024810D01*
X000788Y024837D01*
X000825Y024860D01*
X000864Y024880D01*
X000904Y024897D01*
X000946Y024910D01*
X000988Y024919D01*
X001031Y024925D01*
X001075Y024927D01*
X005675Y024927D01*
X005675Y025127D01*
X006875Y025127D01*
X006875Y024927D01*
X014375Y024927D01*
X014375Y025127D01*
X015575Y025127D01*
X015575Y024927D01*
X018175Y024927D01*
X018219Y024925D01*
X018262Y024919D01*
X018304Y024910D01*
X018346Y024897D01*
X018386Y024880D01*
X018425Y024860D01*
X018462Y024837D01*
X018496Y024810D01*
X018529Y024781D01*
X018558Y024748D01*
X018585Y024714D01*
X018608Y024677D01*
X018628Y024638D01*
X018645Y024598D01*
X018658Y024556D01*
X018667Y024514D01*
X018673Y024471D01*
X018675Y024427D01*
X018675Y024227D01*
X018677Y024183D01*
X018683Y024140D01*
X018692Y024098D01*
X018705Y024056D01*
X018722Y024016D01*
X018742Y023977D01*
X018765Y023940D01*
X018792Y023906D01*
X018821Y023873D01*
X018854Y023844D01*
X018888Y023817D01*
X018925Y023794D01*
X018964Y023774D01*
X019004Y023757D01*
X019046Y023744D01*
X019088Y023735D01*
X019131Y023729D01*
X019175Y023727D01*
X020175Y023727D01*
X020219Y023725D01*
X020262Y023719D01*
X020304Y023710D01*
X020346Y023697D01*
X020386Y023680D01*
X020425Y023660D01*
X020462Y023637D01*
X020496Y023610D01*
X020529Y023581D01*
X020558Y023548D01*
X020585Y023514D01*
X020608Y023477D01*
X020628Y023438D01*
X020645Y023398D01*
X020658Y023356D01*
X020667Y023314D01*
X020673Y023271D01*
X020675Y023227D01*
X020675Y019127D01*
X021100Y019127D01*
X021100Y017927D01*
X020675Y017927D01*
X020675Y009677D01*
X021100Y009677D01*
X021100Y008477D01*
X020675Y008477D01*
X020675Y004777D01*
X020375Y004477D01*
X020375Y001427D01*
X020373Y001383D01*
X020367Y001340D01*
X020358Y001298D01*
X020345Y001256D01*
X020328Y001216D01*
X020308Y001177D01*
X020285Y001140D01*
X020258Y001106D01*
X020229Y001073D01*
X020196Y001044D01*
X020162Y001017D01*
X020125Y000994D01*
X020086Y000974D01*
X020046Y000957D01*
X020004Y000944D01*
X019962Y000935D01*
X019919Y000929D01*
X019875Y000927D01*
X001375Y000927D01*
X001331Y000929D01*
X001288Y000935D01*
X001246Y000944D01*
X001204Y000957D01*
X001164Y000974D01*
X001125Y000994D01*
X001088Y001017D01*
X001054Y001044D01*
X001021Y001073D01*
X000992Y001106D01*
X000965Y001140D01*
X000942Y001177D01*
X000922Y001216D01*
X000905Y001256D01*
X000892Y001298D01*
X000883Y001340D01*
X000877Y001383D01*
X000875Y001427D01*
D11*
X009198Y007138D02*
X009200Y007213D01*
X009206Y007288D01*
X009216Y007363D01*
X009230Y007437D01*
X009247Y007510D01*
X009269Y007583D01*
X009294Y007653D01*
X009323Y007723D01*
X009356Y007791D01*
X009392Y007857D01*
X009432Y007921D01*
X009475Y007983D01*
X009521Y008042D01*
X009570Y008099D01*
X009623Y008154D01*
X009678Y008205D01*
X009735Y008254D01*
X009795Y008299D01*
X009858Y008341D01*
X009922Y008380D01*
X009989Y008415D01*
X010057Y008447D01*
X010127Y008475D01*
X010198Y008500D01*
X010271Y008520D01*
X010344Y008537D01*
X010419Y008550D01*
X010493Y008559D01*
X010569Y008564D01*
X010644Y008565D01*
X010719Y008562D01*
X010794Y008555D01*
X010869Y008544D01*
X010943Y008529D01*
X011016Y008511D01*
X011087Y008488D01*
X011158Y008462D01*
X011227Y008432D01*
X011295Y008398D01*
X011360Y008361D01*
X011424Y008321D01*
X011485Y008277D01*
X011544Y008230D01*
X011600Y008180D01*
X011654Y008127D01*
X011705Y008071D01*
X011752Y008013D01*
X011797Y007952D01*
X011838Y007889D01*
X011876Y007824D01*
X011911Y007757D01*
X011942Y007688D01*
X011969Y007618D01*
X011992Y007547D01*
X012012Y007474D01*
X012028Y007400D01*
X012040Y007326D01*
X012048Y007251D01*
X012052Y007176D01*
X012052Y007100D01*
X012048Y007025D01*
X012040Y006950D01*
X012028Y006876D01*
X012012Y006802D01*
X011992Y006729D01*
X011969Y006658D01*
X011942Y006588D01*
X011911Y006519D01*
X011876Y006452D01*
X011838Y006387D01*
X011797Y006324D01*
X011752Y006263D01*
X011705Y006205D01*
X011654Y006149D01*
X011600Y006096D01*
X011544Y006046D01*
X011485Y005999D01*
X011424Y005955D01*
X011360Y005915D01*
X011295Y005878D01*
X011227Y005844D01*
X011158Y005814D01*
X011087Y005788D01*
X011016Y005765D01*
X010943Y005747D01*
X010869Y005732D01*
X010794Y005721D01*
X010719Y005714D01*
X010644Y005711D01*
X010569Y005712D01*
X010493Y005717D01*
X010419Y005726D01*
X010344Y005739D01*
X010271Y005756D01*
X010198Y005776D01*
X010127Y005801D01*
X010057Y005829D01*
X009989Y005861D01*
X009922Y005896D01*
X009858Y005935D01*
X009795Y005977D01*
X009735Y006022D01*
X009678Y006071D01*
X009623Y006122D01*
X009570Y006177D01*
X009521Y006234D01*
X009475Y006293D01*
X009432Y006355D01*
X009392Y006419D01*
X009356Y006485D01*
X009323Y006553D01*
X009294Y006623D01*
X009269Y006693D01*
X009247Y006766D01*
X009230Y006839D01*
X009216Y006913D01*
X009206Y006988D01*
X009200Y007063D01*
X009198Y007138D01*
X010182Y016979D02*
X010184Y017020D01*
X010190Y017062D01*
X010199Y017102D01*
X010213Y017141D01*
X010230Y017179D01*
X010250Y017215D01*
X010274Y017249D01*
X010301Y017281D01*
X010331Y017310D01*
X010363Y017336D01*
X010398Y017359D01*
X010434Y017379D01*
X010472Y017395D01*
X010512Y017407D01*
X010553Y017416D01*
X010594Y017421D01*
X010635Y017422D01*
X010677Y017419D01*
X010718Y017412D01*
X010758Y017402D01*
X010797Y017387D01*
X010834Y017369D01*
X010870Y017348D01*
X010904Y017323D01*
X010935Y017296D01*
X010963Y017266D01*
X010988Y017233D01*
X011010Y017197D01*
X011029Y017160D01*
X011044Y017122D01*
X011056Y017082D01*
X011064Y017041D01*
X011068Y017000D01*
X011068Y016958D01*
X011064Y016917D01*
X011056Y016876D01*
X011044Y016836D01*
X011029Y016798D01*
X011010Y016761D01*
X010988Y016725D01*
X010963Y016692D01*
X010935Y016662D01*
X010904Y016635D01*
X010870Y016610D01*
X010834Y016589D01*
X010797Y016571D01*
X010758Y016556D01*
X010718Y016546D01*
X010677Y016539D01*
X010635Y016536D01*
X010594Y016537D01*
X010553Y016542D01*
X010512Y016551D01*
X010472Y016563D01*
X010434Y016579D01*
X010398Y016599D01*
X010363Y016622D01*
X010331Y016648D01*
X010301Y016677D01*
X010274Y016709D01*
X010250Y016743D01*
X010230Y016779D01*
X010213Y016817D01*
X010199Y016856D01*
X010190Y016896D01*
X010184Y016938D01*
X010182Y016979D01*
D12*
X011867Y021606D02*
X011867Y021606D01*
X012897Y022636D01*
X012897Y022636D01*
X011867Y021606D01*
X012811Y022550D02*
X012811Y022550D01*
X018353Y015119D02*
X018353Y015119D01*
X019383Y016149D01*
X019383Y016149D01*
X018353Y015119D01*
X019297Y016063D02*
X019297Y016063D01*
D13*
X017017Y018599D02*
X017019Y018599D01*
X017018Y018598D01*
X017017Y018597D01*
X017016Y018598D01*
X017015Y018599D01*
X017016Y018600D01*
X017017Y018601D01*
X017018Y018600D01*
X017019Y018599D01*
X015347Y020269D02*
X015349Y020269D01*
X015348Y020268D01*
X015347Y020267D01*
X015346Y020268D01*
X015345Y020269D01*
X015346Y020270D01*
X015347Y020271D01*
X015348Y020270D01*
X015349Y020269D01*
X014621Y017873D02*
X014623Y017873D01*
X014622Y017872D01*
X014621Y017871D01*
X014620Y017872D01*
X014619Y017873D01*
X014620Y017874D01*
X014621Y017875D01*
X014622Y017874D01*
X014623Y017873D01*
D14*
X013002Y012902D03*
X013002Y012402D03*
X013002Y011902D03*
X013002Y011402D03*
X013002Y010902D03*
X013002Y010402D03*
X013002Y009902D03*
X013002Y009402D03*
X013002Y008902D03*
X013002Y008402D03*
X013002Y007902D03*
X013002Y007402D03*
X013002Y006902D03*
X013002Y006402D03*
X013002Y005902D03*
X013002Y005402D03*
X008248Y005407D03*
X008248Y005907D03*
X008248Y006407D03*
X008248Y006907D03*
X008248Y007407D03*
X008248Y007907D03*
X008248Y008407D03*
X008248Y008907D03*
X008248Y009407D03*
X008248Y009907D03*
X008248Y010407D03*
X008248Y010907D03*
X008248Y011407D03*
X008248Y011907D03*
X003902Y011907D03*
X003902Y011407D03*
X003902Y010907D03*
X003902Y010407D03*
X003902Y009907D03*
X003902Y009407D03*
X003902Y008907D03*
X003902Y008407D03*
X003902Y007907D03*
X003902Y007407D03*
X003902Y006907D03*
X003902Y006407D03*
X003902Y005907D03*
X003902Y005407D03*
X018348Y005402D03*
X018348Y005902D03*
X018348Y006402D03*
X018348Y006902D03*
X018348Y007402D03*
X018348Y007902D03*
X018348Y008402D03*
X018348Y008902D03*
X018348Y009402D03*
X018348Y009902D03*
X018348Y010402D03*
X018348Y010902D03*
X018348Y011402D03*
X018348Y011902D03*
X018348Y012402D03*
X018348Y012902D03*
D15*
X008415Y013734D03*
X007915Y013734D03*
X007415Y013734D03*
X006915Y013734D03*
X006415Y013734D03*
X005915Y013734D03*
X005415Y013734D03*
X004915Y013734D03*
X004415Y013734D03*
X003915Y013734D03*
X003415Y013734D03*
X002915Y013734D03*
X002915Y018081D03*
X003415Y018081D03*
X003915Y018081D03*
X004415Y018081D03*
X004915Y018081D03*
X005415Y018081D03*
X005915Y018081D03*
X006415Y018081D03*
X006915Y018081D03*
X007415Y018081D03*
X007915Y018081D03*
X008415Y018081D03*
D16*
X005295Y019447D03*
X005295Y019947D03*
X005295Y020447D03*
X005295Y020947D03*
X003175Y020947D03*
X003175Y020447D03*
X003175Y019947D03*
X003175Y019447D03*
D17*
X003880Y021727D03*
X004590Y021727D03*
X009360Y012857D03*
X010070Y012857D03*
X016835Y013752D03*
X017545Y013752D03*
D18*
X002015Y016568D03*
X002015Y017277D03*
M02*
