G75*
G70*
%OFA0B0*%
%FSLAX24Y24*%
%IPPOS*%
%LPD*%
%AMOC8*
5,1,8,0,0,1.08239X$1,22.5*
%
%ADD10C,0.0070*%
%ADD11C,0.0050*%
%ADD12C,0.0040*%
%ADD13C,0.0000*%
%ADD14C,0.0120*%
%ADD15C,0.0060*%
%ADD16C,0.0080*%
D10*
X017767Y020520D02*
X017869Y020520D01*
X017767Y020520D02*
X017666Y020621D01*
X017666Y020722D01*
X017717Y020773D01*
X018122Y020773D01*
X017919Y020976D01*
X017746Y021048D02*
X017746Y021149D01*
X017645Y021251D01*
X017543Y021251D01*
X017340Y021048D01*
X017746Y021048D01*
X017543Y020845D01*
X017442Y020845D01*
X017340Y020947D01*
X017340Y021048D01*
X017218Y021171D02*
X017116Y021171D01*
X017015Y021272D01*
X017015Y021374D01*
X017066Y021424D01*
X017167Y021424D01*
X017167Y021526D01*
X017218Y021576D01*
X017319Y021576D01*
X017421Y021475D01*
X017421Y021374D01*
X017218Y021374D02*
X017167Y021424D01*
X016892Y021496D02*
X016791Y021496D01*
X016689Y021598D01*
X016689Y021699D01*
X016740Y021750D01*
X017146Y021750D01*
X016943Y021953D01*
X017570Y021604D02*
X017773Y021401D01*
X017672Y021502D02*
X017976Y021806D01*
X018200Y021582D02*
X017997Y021380D01*
X017997Y021177D01*
X018200Y021177D01*
X018403Y021380D01*
X018475Y021206D02*
X018577Y021206D01*
X018729Y021054D01*
X018424Y020750D01*
X018272Y020902D01*
X018272Y021003D01*
X018323Y021054D01*
X018424Y021054D01*
X018577Y020902D01*
X018424Y021054D02*
X018424Y021155D01*
X018475Y021206D01*
X018251Y021227D02*
X018048Y021430D01*
X018245Y020651D02*
X018245Y020448D01*
X018194Y020498D02*
X018346Y020346D01*
X018448Y020448D02*
X018144Y020143D01*
X017991Y020295D01*
X017991Y020397D01*
X018093Y020498D01*
X018194Y020498D01*
X018520Y020274D02*
X018621Y020274D01*
X018723Y020173D01*
X018723Y020071D01*
X018520Y019868D01*
X018418Y019868D01*
X018317Y019970D01*
X018317Y020071D01*
D11*
X000875Y004477D02*
X000875Y001427D01*
X000877Y001383D01*
X000883Y001340D01*
X000892Y001298D01*
X000905Y001256D01*
X000922Y001216D01*
X000942Y001177D01*
X000965Y001140D01*
X000992Y001106D01*
X001021Y001073D01*
X001054Y001044D01*
X001088Y001017D01*
X001125Y000994D01*
X001164Y000974D01*
X001204Y000957D01*
X001246Y000944D01*
X001288Y000935D01*
X001331Y000929D01*
X001375Y000927D01*
X019875Y000927D01*
X019919Y000929D01*
X019962Y000935D01*
X020004Y000944D01*
X020046Y000957D01*
X020086Y000974D01*
X020125Y000994D01*
X020162Y001017D01*
X020196Y001044D01*
X020229Y001073D01*
X020258Y001106D01*
X020285Y001140D01*
X020308Y001177D01*
X020328Y001216D01*
X020345Y001256D01*
X020358Y001298D01*
X020367Y001340D01*
X020373Y001383D01*
X020375Y001427D01*
X020375Y004477D01*
X020675Y004777D01*
X020675Y008477D01*
X021100Y008477D01*
X021100Y009677D01*
X020675Y009677D01*
X020675Y017927D01*
X021100Y017927D01*
X021100Y019127D01*
X020675Y019127D01*
X020675Y023227D01*
X020673Y023271D01*
X020667Y023314D01*
X020658Y023356D01*
X020645Y023398D01*
X020628Y023438D01*
X020608Y023477D01*
X020585Y023514D01*
X020558Y023548D01*
X020529Y023581D01*
X020496Y023610D01*
X020462Y023637D01*
X020425Y023660D01*
X020386Y023680D01*
X020346Y023697D01*
X020304Y023710D01*
X020262Y023719D01*
X020219Y023725D01*
X020175Y023727D01*
X019175Y023727D01*
X019131Y023729D01*
X019088Y023735D01*
X019046Y023744D01*
X019004Y023757D01*
X018964Y023774D01*
X018925Y023794D01*
X018888Y023817D01*
X018854Y023844D01*
X018821Y023873D01*
X018792Y023906D01*
X018765Y023940D01*
X018742Y023977D01*
X018722Y024016D01*
X018705Y024056D01*
X018692Y024098D01*
X018683Y024140D01*
X018677Y024183D01*
X018675Y024227D01*
X018675Y024427D01*
X018673Y024471D01*
X018667Y024514D01*
X018658Y024556D01*
X018645Y024598D01*
X018628Y024638D01*
X018608Y024677D01*
X018585Y024714D01*
X018558Y024748D01*
X018529Y024781D01*
X018496Y024810D01*
X018462Y024837D01*
X018425Y024860D01*
X018386Y024880D01*
X018346Y024897D01*
X018304Y024910D01*
X018262Y024919D01*
X018219Y024925D01*
X018175Y024927D01*
X015575Y024927D01*
X015575Y025127D01*
X014375Y025127D01*
X014375Y024927D01*
X006875Y024927D01*
X006875Y025127D01*
X005675Y025127D01*
X005675Y024927D01*
X001075Y024927D01*
X001031Y024925D01*
X000988Y024919D01*
X000946Y024910D01*
X000904Y024897D01*
X000864Y024880D01*
X000825Y024860D01*
X000788Y024837D01*
X000754Y024810D01*
X000721Y024781D01*
X000692Y024748D01*
X000665Y024714D01*
X000642Y024677D01*
X000622Y024638D01*
X000605Y024598D01*
X000592Y024556D01*
X000583Y024514D01*
X000577Y024471D01*
X000575Y024427D01*
X000575Y019127D01*
X000150Y019127D01*
X000150Y017927D01*
X000575Y017927D01*
X000575Y009677D01*
X000150Y009677D01*
X000150Y008477D01*
X000575Y008477D01*
X000575Y004777D01*
X000875Y004477D01*
X003690Y019909D02*
X003932Y019909D01*
X003980Y019958D01*
X003980Y020054D01*
X003932Y020103D01*
X003690Y020103D01*
X003835Y020222D02*
X003690Y020368D01*
X003980Y020368D01*
X003835Y020416D02*
X003835Y020222D01*
X011688Y018877D02*
X011693Y019070D01*
X011707Y019263D01*
X011731Y019455D01*
X011764Y019645D01*
X011806Y019834D01*
X011858Y020020D01*
X011918Y020203D01*
X011988Y020384D01*
X012066Y020560D01*
X012153Y020733D01*
X012248Y020901D01*
X012352Y021064D01*
X012463Y021222D01*
X012582Y021375D01*
X012708Y021521D01*
X012841Y021661D01*
X012981Y021794D01*
X013127Y021920D01*
X013280Y022039D01*
X013438Y022150D01*
X013601Y022254D01*
X013769Y022349D01*
X013942Y022436D01*
X014118Y022514D01*
X014299Y022584D01*
X014482Y022644D01*
X014668Y022696D01*
X014857Y022738D01*
X015047Y022771D01*
X015239Y022795D01*
X015432Y022809D01*
X015625Y022814D01*
X015818Y022809D01*
X016011Y022795D01*
X016203Y022771D01*
X016393Y022738D01*
X016582Y022696D01*
X016768Y022644D01*
X016951Y022584D01*
X017132Y022514D01*
X017308Y022436D01*
X017481Y022349D01*
X017649Y022254D01*
X017812Y022150D01*
X017970Y022039D01*
X018123Y021920D01*
X018269Y021794D01*
X018409Y021661D01*
X018542Y021521D01*
X018668Y021375D01*
X018787Y021222D01*
X018898Y021064D01*
X019002Y020901D01*
X019097Y020733D01*
X019184Y020560D01*
X019262Y020384D01*
X019332Y020203D01*
X019392Y020020D01*
X019444Y019834D01*
X019486Y019645D01*
X019519Y019455D01*
X019543Y019263D01*
X019557Y019070D01*
X019562Y018877D01*
X019557Y018684D01*
X019543Y018491D01*
X019519Y018299D01*
X019486Y018109D01*
X019444Y017920D01*
X019392Y017734D01*
X019332Y017551D01*
X019262Y017370D01*
X019184Y017194D01*
X019097Y017021D01*
X019002Y016853D01*
X018898Y016690D01*
X018787Y016532D01*
X018668Y016379D01*
X018542Y016233D01*
X018409Y016093D01*
X018269Y015960D01*
X018123Y015834D01*
X017970Y015715D01*
X017812Y015604D01*
X017649Y015500D01*
X017481Y015405D01*
X017308Y015318D01*
X017132Y015240D01*
X016951Y015170D01*
X016768Y015110D01*
X016582Y015058D01*
X016393Y015016D01*
X016203Y014983D01*
X016011Y014959D01*
X015818Y014945D01*
X015625Y014940D01*
X015432Y014945D01*
X015239Y014959D01*
X015047Y014983D01*
X014857Y015016D01*
X014668Y015058D01*
X014482Y015110D01*
X014299Y015170D01*
X014118Y015240D01*
X013942Y015318D01*
X013769Y015405D01*
X013601Y015500D01*
X013438Y015604D01*
X013280Y015715D01*
X013127Y015834D01*
X012981Y015960D01*
X012841Y016093D01*
X012708Y016233D01*
X012582Y016379D01*
X012463Y016532D01*
X012352Y016690D01*
X012248Y016853D01*
X012153Y017021D01*
X012066Y017194D01*
X011988Y017370D01*
X011918Y017551D01*
X011858Y017734D01*
X011806Y017920D01*
X011764Y018109D01*
X011731Y018299D01*
X011707Y018491D01*
X011693Y018684D01*
X011688Y018877D01*
D12*
X009768Y012998D02*
X009674Y012998D01*
X009628Y012951D01*
X009628Y012764D01*
X009674Y012717D01*
X009768Y012717D01*
X009815Y012764D01*
X009815Y012951D02*
X009768Y012998D01*
X004425Y019363D02*
X004425Y019504D01*
X004378Y019550D01*
X004332Y019550D01*
X004285Y019504D01*
X004285Y019363D01*
X004425Y019363D02*
X004145Y019363D01*
X004145Y019504D01*
X004191Y019550D01*
X004238Y019550D01*
X004285Y019504D01*
X004285Y019658D02*
X004285Y019845D01*
X004238Y019845D02*
X004425Y019845D01*
X004378Y019953D02*
X004425Y019999D01*
X004425Y020093D01*
X004378Y020140D01*
X004332Y020140D01*
X004285Y020093D01*
X004285Y019953D01*
X004378Y019953D01*
X004285Y019953D02*
X004191Y020046D01*
X004145Y020140D01*
X004145Y020247D02*
X004145Y020434D01*
X004191Y020434D01*
X004378Y020247D01*
X004425Y020247D01*
X004378Y020542D02*
X004425Y020589D01*
X004425Y020682D01*
X004378Y020729D01*
X004332Y020729D01*
X004285Y020682D01*
X004285Y020635D01*
X004285Y020682D02*
X004238Y020729D01*
X004191Y020729D01*
X004145Y020682D01*
X004145Y020589D01*
X004191Y020542D01*
X004145Y020837D02*
X004285Y020837D01*
X004238Y020930D01*
X004238Y020977D01*
X004285Y021024D01*
X004378Y021024D01*
X004425Y020977D01*
X004425Y020883D01*
X004378Y020837D01*
X004145Y020837D02*
X004145Y021024D01*
X004148Y021587D02*
X004148Y021868D01*
X004288Y021868D01*
X004335Y021821D01*
X004335Y021728D01*
X004288Y021681D01*
X004148Y021681D01*
X004241Y021681D02*
X004335Y021587D01*
X004238Y019845D02*
X004145Y019752D01*
X004238Y019658D01*
X004425Y019658D01*
X002108Y017022D02*
X002155Y016975D01*
X002155Y016882D01*
X002108Y016835D01*
X001921Y016835D01*
X001875Y016882D01*
X001875Y016975D01*
X001921Y017022D01*
X017103Y013846D02*
X017103Y013659D01*
X017149Y013612D01*
X017243Y013612D01*
X017290Y013659D01*
X017290Y013846D02*
X017243Y013893D01*
X017149Y013893D01*
X017103Y013846D01*
D13*
X010182Y016979D02*
X010184Y017020D01*
X010190Y017062D01*
X010199Y017102D01*
X010213Y017141D01*
X010230Y017179D01*
X010250Y017215D01*
X010274Y017249D01*
X010301Y017281D01*
X010331Y017310D01*
X010363Y017336D01*
X010398Y017359D01*
X010434Y017379D01*
X010472Y017395D01*
X010512Y017407D01*
X010553Y017416D01*
X010594Y017421D01*
X010635Y017422D01*
X010677Y017419D01*
X010718Y017412D01*
X010758Y017402D01*
X010797Y017387D01*
X010834Y017369D01*
X010870Y017348D01*
X010904Y017323D01*
X010935Y017296D01*
X010963Y017266D01*
X010988Y017233D01*
X011010Y017197D01*
X011029Y017160D01*
X011044Y017122D01*
X011056Y017082D01*
X011064Y017041D01*
X011068Y017000D01*
X011068Y016958D01*
X011064Y016917D01*
X011056Y016876D01*
X011044Y016836D01*
X011029Y016798D01*
X011010Y016761D01*
X010988Y016725D01*
X010963Y016692D01*
X010935Y016662D01*
X010904Y016635D01*
X010870Y016610D01*
X010834Y016589D01*
X010797Y016571D01*
X010758Y016556D01*
X010718Y016546D01*
X010677Y016539D01*
X010635Y016536D01*
X010594Y016537D01*
X010553Y016542D01*
X010512Y016551D01*
X010472Y016563D01*
X010434Y016579D01*
X010398Y016599D01*
X010363Y016622D01*
X010331Y016648D01*
X010301Y016677D01*
X010274Y016709D01*
X010250Y016743D01*
X010230Y016779D01*
X010213Y016817D01*
X010199Y016856D01*
X010190Y016896D01*
X010184Y016938D01*
X010182Y016979D01*
X009198Y007138D02*
X009200Y007213D01*
X009206Y007288D01*
X009216Y007363D01*
X009230Y007437D01*
X009247Y007510D01*
X009269Y007583D01*
X009294Y007653D01*
X009323Y007723D01*
X009356Y007791D01*
X009392Y007857D01*
X009432Y007921D01*
X009475Y007983D01*
X009521Y008042D01*
X009570Y008099D01*
X009623Y008154D01*
X009678Y008205D01*
X009735Y008254D01*
X009795Y008299D01*
X009858Y008341D01*
X009922Y008380D01*
X009989Y008415D01*
X010057Y008447D01*
X010127Y008475D01*
X010198Y008500D01*
X010271Y008520D01*
X010344Y008537D01*
X010419Y008550D01*
X010493Y008559D01*
X010569Y008564D01*
X010644Y008565D01*
X010719Y008562D01*
X010794Y008555D01*
X010869Y008544D01*
X010943Y008529D01*
X011016Y008511D01*
X011087Y008488D01*
X011158Y008462D01*
X011227Y008432D01*
X011295Y008398D01*
X011360Y008361D01*
X011424Y008321D01*
X011485Y008277D01*
X011544Y008230D01*
X011600Y008180D01*
X011654Y008127D01*
X011705Y008071D01*
X011752Y008013D01*
X011797Y007952D01*
X011838Y007889D01*
X011876Y007824D01*
X011911Y007757D01*
X011942Y007688D01*
X011969Y007618D01*
X011992Y007547D01*
X012012Y007474D01*
X012028Y007400D01*
X012040Y007326D01*
X012048Y007251D01*
X012052Y007176D01*
X012052Y007100D01*
X012048Y007025D01*
X012040Y006950D01*
X012028Y006876D01*
X012012Y006802D01*
X011992Y006729D01*
X011969Y006658D01*
X011942Y006588D01*
X011911Y006519D01*
X011876Y006452D01*
X011838Y006387D01*
X011797Y006324D01*
X011752Y006263D01*
X011705Y006205D01*
X011654Y006149D01*
X011600Y006096D01*
X011544Y006046D01*
X011485Y005999D01*
X011424Y005955D01*
X011360Y005915D01*
X011295Y005878D01*
X011227Y005844D01*
X011158Y005814D01*
X011087Y005788D01*
X011016Y005765D01*
X010943Y005747D01*
X010869Y005732D01*
X010794Y005721D01*
X010719Y005714D01*
X010644Y005711D01*
X010569Y005712D01*
X010493Y005717D01*
X010419Y005726D01*
X010344Y005739D01*
X010271Y005756D01*
X010198Y005776D01*
X010127Y005801D01*
X010057Y005829D01*
X009989Y005861D01*
X009922Y005896D01*
X009858Y005935D01*
X009795Y005977D01*
X009735Y006022D01*
X009678Y006071D01*
X009623Y006122D01*
X009570Y006177D01*
X009521Y006234D01*
X009475Y006293D01*
X009432Y006355D01*
X009392Y006419D01*
X009356Y006485D01*
X009323Y006553D01*
X009294Y006623D01*
X009269Y006693D01*
X009247Y006766D01*
X009230Y006839D01*
X009216Y006913D01*
X009206Y006988D01*
X009200Y007063D01*
X009198Y007138D01*
D14*
X007680Y005177D02*
X007680Y012177D01*
X004470Y012177D01*
X004470Y005177D01*
X007680Y005177D01*
X004748Y011659D02*
X004750Y011688D01*
X004756Y011716D01*
X004765Y011743D01*
X004779Y011768D01*
X004795Y011792D01*
X004815Y011812D01*
X004837Y011831D01*
X004861Y011845D01*
X004888Y011857D01*
X004915Y011865D01*
X004944Y011869D01*
X004972Y011869D01*
X005001Y011865D01*
X005028Y011857D01*
X005055Y011845D01*
X005079Y011831D01*
X005101Y011812D01*
X005121Y011792D01*
X005137Y011768D01*
X005151Y011743D01*
X005160Y011716D01*
X005166Y011688D01*
X005168Y011659D01*
X005166Y011630D01*
X005160Y011602D01*
X005151Y011575D01*
X005137Y011550D01*
X005121Y011526D01*
X005101Y011506D01*
X005079Y011487D01*
X005055Y011473D01*
X005028Y011461D01*
X005001Y011453D01*
X004972Y011449D01*
X004944Y011449D01*
X004915Y011453D01*
X004888Y011461D01*
X004861Y011473D01*
X004837Y011487D01*
X004815Y011506D01*
X004795Y011526D01*
X004779Y011550D01*
X004765Y011575D01*
X004756Y011602D01*
X004750Y011630D01*
X004748Y011659D01*
X002645Y014302D02*
X002645Y017512D01*
X008685Y017512D01*
X008685Y014302D01*
X002645Y014302D01*
X002953Y014791D02*
X002955Y014820D01*
X002961Y014848D01*
X002970Y014875D01*
X002984Y014900D01*
X003000Y014924D01*
X003020Y014944D01*
X003042Y014963D01*
X003066Y014977D01*
X003093Y014989D01*
X003120Y014997D01*
X003149Y015001D01*
X003177Y015001D01*
X003206Y014997D01*
X003233Y014989D01*
X003260Y014977D01*
X003284Y014963D01*
X003306Y014944D01*
X003326Y014924D01*
X003342Y014900D01*
X003356Y014875D01*
X003365Y014848D01*
X003371Y014820D01*
X003373Y014791D01*
X003371Y014762D01*
X003365Y014734D01*
X003356Y014707D01*
X003342Y014682D01*
X003326Y014658D01*
X003306Y014638D01*
X003284Y014619D01*
X003260Y014605D01*
X003233Y014593D01*
X003206Y014585D01*
X003177Y014581D01*
X003149Y014581D01*
X003120Y014585D01*
X003093Y014593D01*
X003066Y014605D01*
X003042Y014619D01*
X003020Y014638D01*
X003000Y014658D01*
X002984Y014682D01*
X002970Y014707D01*
X002961Y014734D01*
X002955Y014762D01*
X002953Y014791D01*
X013570Y013122D02*
X013570Y005172D01*
X017780Y005172D01*
X017780Y013122D01*
X013570Y013122D01*
X013848Y012654D02*
X013850Y012683D01*
X013856Y012711D01*
X013865Y012738D01*
X013879Y012763D01*
X013895Y012787D01*
X013915Y012807D01*
X013937Y012826D01*
X013961Y012840D01*
X013988Y012852D01*
X014015Y012860D01*
X014044Y012864D01*
X014072Y012864D01*
X014101Y012860D01*
X014128Y012852D01*
X014155Y012840D01*
X014179Y012826D01*
X014201Y012807D01*
X014221Y012787D01*
X014237Y012763D01*
X014251Y012738D01*
X014260Y012711D01*
X014266Y012683D01*
X014268Y012654D01*
X014266Y012625D01*
X014260Y012597D01*
X014251Y012570D01*
X014237Y012545D01*
X014221Y012521D01*
X014201Y012501D01*
X014179Y012482D01*
X014155Y012468D01*
X014128Y012456D01*
X014101Y012448D01*
X014072Y012444D01*
X014044Y012444D01*
X014015Y012448D01*
X013988Y012456D01*
X013961Y012468D01*
X013937Y012482D01*
X013915Y012501D01*
X013895Y012521D01*
X013879Y012545D01*
X013865Y012570D01*
X013856Y012597D01*
X013850Y012625D01*
X013848Y012654D01*
D15*
X015735Y011153D02*
X016115Y011153D01*
X016115Y010899D02*
X015735Y010899D01*
X015861Y011026D01*
X015735Y011153D01*
X015925Y010748D02*
X015925Y010494D01*
X015735Y010684D01*
X016115Y010684D01*
X016115Y010343D02*
X015735Y010343D01*
X015735Y010089D02*
X016115Y010343D01*
X016115Y010089D02*
X015735Y010089D01*
X015735Y009937D02*
X016115Y009937D01*
X016115Y009684D02*
X015735Y009684D01*
X015861Y009811D01*
X015735Y009937D01*
X015735Y009532D02*
X016115Y009532D01*
X015925Y009532D02*
X015925Y009279D01*
X016115Y009279D02*
X015735Y009279D01*
X015615Y009304D02*
X015235Y009304D01*
X015361Y009177D01*
X015235Y009026D02*
X015552Y009026D01*
X015615Y008962D01*
X015615Y008836D01*
X015552Y008772D01*
X015235Y008772D01*
X015615Y009177D02*
X015615Y009431D01*
X016115Y009127D02*
X016115Y008874D01*
X015735Y008874D01*
X015861Y008329D02*
X015925Y008329D01*
X015925Y008266D01*
X015861Y008266D01*
X015861Y008329D01*
X016052Y008329D02*
X016115Y008329D01*
X016115Y008266D01*
X016052Y008266D01*
X016052Y008329D01*
X016115Y008114D02*
X015735Y008114D01*
X015861Y007987D01*
X015735Y007861D01*
X016115Y007861D01*
X016052Y007709D02*
X015798Y007709D01*
X015735Y007646D01*
X015735Y007519D01*
X015798Y007456D01*
X016052Y007456D01*
X016115Y007519D01*
X016115Y007646D01*
X016052Y007709D01*
X016115Y007304D02*
X015988Y007177D01*
X015988Y007241D02*
X015988Y007050D01*
X016115Y007050D02*
X015735Y007050D01*
X015735Y007241D01*
X015798Y007304D01*
X015925Y007304D01*
X015988Y007241D01*
X016570Y013466D02*
X016570Y014039D01*
X017811Y014039D01*
X017811Y013466D01*
X016570Y013466D01*
X010336Y013144D02*
X010336Y012571D01*
X009095Y012571D01*
X009095Y013144D01*
X010336Y013144D01*
X008278Y015467D02*
X008025Y015467D01*
X008151Y015467D02*
X008151Y015848D01*
X008025Y015721D01*
X007873Y015721D02*
X007873Y015784D01*
X007810Y015848D01*
X007619Y015848D01*
X007619Y015467D01*
X007810Y015467D01*
X007873Y015531D01*
X007873Y015594D01*
X007810Y015658D01*
X007619Y015658D01*
X007810Y015658D02*
X007873Y015721D01*
X007468Y015467D02*
X007214Y015467D01*
X007341Y015467D02*
X007341Y015848D01*
X007214Y015721D01*
X007063Y015784D02*
X006999Y015848D01*
X006873Y015848D01*
X006809Y015784D01*
X006809Y015531D01*
X006873Y015467D01*
X006999Y015467D01*
X007063Y015531D01*
X006658Y015531D02*
X006594Y015467D01*
X006404Y015467D01*
X006404Y015848D01*
X006594Y015848D01*
X006658Y015784D01*
X006658Y015721D01*
X006594Y015658D01*
X006404Y015658D01*
X006594Y015658D02*
X006658Y015594D01*
X006658Y015531D01*
X006252Y015467D02*
X006252Y015848D01*
X006126Y015721D01*
X005999Y015848D01*
X005999Y015467D01*
X005949Y015967D02*
X005695Y015967D01*
X005949Y016221D01*
X005949Y016284D01*
X005885Y016348D01*
X005758Y016348D01*
X005695Y016284D01*
X005543Y016348D02*
X005543Y016031D01*
X005480Y015967D01*
X005353Y015967D01*
X005290Y016031D01*
X005290Y016348D01*
X005176Y015848D02*
X004986Y015848D01*
X004986Y015467D01*
X004986Y015594D02*
X005176Y015594D01*
X005240Y015658D01*
X005240Y015784D01*
X005176Y015848D01*
X005391Y015721D02*
X005391Y015658D01*
X005455Y015658D01*
X005455Y015721D01*
X005391Y015721D01*
X005391Y015531D02*
X005391Y015467D01*
X005455Y015467D01*
X005455Y015531D01*
X005391Y015531D01*
X005240Y015467D02*
X005113Y015594D01*
X004834Y015467D02*
X004581Y015467D01*
X004581Y015848D01*
X004834Y015848D01*
X004708Y015658D02*
X004581Y015658D01*
X004429Y015658D02*
X004366Y015594D01*
X004176Y015594D01*
X004176Y015467D02*
X004176Y015848D01*
X004366Y015848D01*
X004429Y015784D01*
X004429Y015658D01*
X004024Y015658D02*
X003961Y015594D01*
X003771Y015594D01*
X003771Y015467D02*
X003771Y015848D01*
X003961Y015848D01*
X004024Y015784D01*
X004024Y015658D01*
X003619Y015658D02*
X003365Y015658D01*
X003365Y015721D02*
X003492Y015848D01*
X003619Y015721D01*
X003619Y015467D01*
X003365Y015467D02*
X003365Y015721D01*
X003214Y015848D02*
X003214Y015467D01*
X002960Y015467D02*
X002960Y015848D01*
X003087Y015721D01*
X003214Y015848D01*
X002302Y016301D02*
X002302Y017542D01*
X001729Y017542D01*
X001729Y016301D01*
X002302Y016301D01*
X003525Y019267D02*
X004945Y019267D01*
X004945Y021127D02*
X003525Y021127D01*
X003613Y021440D02*
X003613Y022015D01*
X004856Y022015D01*
X004856Y021440D01*
X003613Y021440D01*
X006515Y011898D02*
X006515Y011645D01*
X006135Y011645D01*
X006198Y011493D02*
X006135Y011430D01*
X006135Y011303D01*
X006198Y011240D01*
X006452Y011240D01*
X006198Y011493D01*
X006452Y011493D01*
X006515Y011430D01*
X006515Y011303D01*
X006452Y011240D01*
X006515Y011088D02*
X006515Y010834D01*
X006515Y010961D02*
X006135Y010961D01*
X006261Y010834D01*
X006325Y010683D02*
X006325Y010429D01*
X006515Y010278D02*
X006135Y010278D01*
X006135Y010024D02*
X006515Y010278D01*
X006515Y010024D02*
X006135Y010024D01*
X006261Y009873D02*
X006135Y009746D01*
X006261Y009619D01*
X006515Y009619D01*
X006325Y009619D02*
X006325Y009873D01*
X006261Y009873D02*
X006515Y009873D01*
X006325Y009467D02*
X006325Y009214D01*
X006135Y009404D01*
X006515Y009404D01*
X006452Y009062D02*
X006388Y009062D01*
X006325Y008999D01*
X006325Y008809D01*
X006452Y008809D01*
X006515Y008872D01*
X006515Y008999D01*
X006452Y009062D01*
X006198Y008935D02*
X006325Y008809D01*
X006198Y008935D02*
X006135Y009062D01*
X006015Y008898D02*
X006015Y008771D01*
X005952Y008707D01*
X005952Y008556D02*
X005635Y008556D01*
X005698Y008707D02*
X005635Y008771D01*
X005635Y008898D01*
X005698Y008961D01*
X005761Y008961D01*
X005825Y008898D01*
X005888Y008961D01*
X005952Y008961D01*
X006015Y008898D01*
X005825Y008898D02*
X005825Y008834D01*
X005952Y008556D02*
X006015Y008492D01*
X006015Y008366D01*
X005952Y008302D01*
X005635Y008302D01*
X006135Y008252D02*
X006135Y007998D01*
X006325Y007998D01*
X006261Y008125D01*
X006261Y008189D01*
X006325Y008252D01*
X006452Y008252D01*
X006515Y008189D01*
X006515Y008062D01*
X006452Y007998D01*
X006515Y007847D02*
X006135Y007847D01*
X006325Y007847D02*
X006325Y007593D01*
X006515Y007593D02*
X006135Y007593D01*
X006135Y007188D02*
X006515Y007188D01*
X006515Y007442D01*
X006515Y006644D02*
X006515Y006580D01*
X006452Y006580D01*
X006452Y006644D01*
X006515Y006644D01*
X006325Y006644D02*
X006325Y006580D01*
X006261Y006580D01*
X006261Y006644D01*
X006325Y006644D01*
X006135Y006429D02*
X006515Y006429D01*
X006515Y006175D02*
X006135Y006175D01*
X006261Y006302D01*
X006135Y006429D01*
X006261Y006024D02*
X006135Y005897D01*
X006261Y005770D01*
X006515Y005770D01*
X006515Y005618D02*
X006388Y005492D01*
X006388Y005555D02*
X006388Y005365D01*
X006515Y005365D02*
X006135Y005365D01*
X006135Y005555D01*
X006198Y005618D01*
X006325Y005618D01*
X006388Y005555D01*
X006325Y005770D02*
X006325Y006024D01*
X006261Y006024D02*
X006515Y006024D01*
X006515Y008404D02*
X006515Y008657D01*
X006515Y008530D02*
X006135Y008530D01*
X006261Y008404D01*
D16*
X004568Y019487D02*
X004570Y019502D01*
X004576Y019515D01*
X004585Y019527D01*
X004596Y019536D01*
X004610Y019542D01*
X004625Y019544D01*
X004640Y019542D01*
X004653Y019536D01*
X004665Y019527D01*
X004674Y019516D01*
X004680Y019502D01*
X004682Y019487D01*
X004680Y019472D01*
X004674Y019459D01*
X004665Y019447D01*
X004654Y019438D01*
X004640Y019432D01*
X004625Y019430D01*
X004610Y019432D01*
X004597Y019438D01*
X004585Y019447D01*
X004576Y019458D01*
X004570Y019472D01*
X004568Y019487D01*
M02*
