G75*
G70*
%OFA0B0*%
%FSLAX24Y24*%
%IPPOS*%
%LPD*%
%AMOC8*
5,1,8,0,0,1.08239X$1,22.5*
%
%ADD10C,0.0050*%
%ADD11R,0.0591X0.2205*%
%ADD12R,0.0394X0.2126*%
%ADD13C,0.0000*%
%ADD14C,0.0240*%
%ADD15C,0.0000*%
%ADD16C,0.0001*%
%ADD17C,0.0945*%
%ADD18C,0.0295*%
%ADD19R,0.0709X0.0295*%
%ADD20R,0.0295X0.0709*%
%ADD21R,0.0810X0.0240*%
%ADD22R,0.0394X0.0433*%
%ADD23R,0.0433X0.0394*%
%ADD24C,0.0080*%
%ADD25C,0.0320*%
%ADD26C,0.0100*%
%ADD27C,0.0280*%
%ADD28C,0.0220*%
%ADD29C,0.0160*%
%ADD30C,0.0280*%
%ADD31C,0.0180*%
D10*
X000875Y001427D02*
X000875Y004477D01*
X000575Y004777D01*
X000575Y008477D01*
X000150Y008477D01*
X000150Y009677D01*
X000575Y009677D01*
X000575Y017927D01*
X000150Y017927D01*
X000150Y019127D01*
X000575Y019127D01*
X000575Y024427D01*
X000577Y024471D01*
X000583Y024514D01*
X000592Y024556D01*
X000605Y024598D01*
X000622Y024638D01*
X000642Y024677D01*
X000665Y024714D01*
X000692Y024748D01*
X000721Y024781D01*
X000754Y024810D01*
X000788Y024837D01*
X000825Y024860D01*
X000864Y024880D01*
X000904Y024897D01*
X000946Y024910D01*
X000988Y024919D01*
X001031Y024925D01*
X001075Y024927D01*
X005675Y024927D01*
X005675Y025127D01*
X006875Y025127D01*
X006875Y024927D01*
X014375Y024927D01*
X014375Y025127D01*
X015575Y025127D01*
X015575Y024927D01*
X018175Y024927D01*
X018219Y024925D01*
X018262Y024919D01*
X018304Y024910D01*
X018346Y024897D01*
X018386Y024880D01*
X018425Y024860D01*
X018462Y024837D01*
X018496Y024810D01*
X018529Y024781D01*
X018558Y024748D01*
X018585Y024714D01*
X018608Y024677D01*
X018628Y024638D01*
X018645Y024598D01*
X018658Y024556D01*
X018667Y024514D01*
X018673Y024471D01*
X018675Y024427D01*
X018675Y024227D01*
X018677Y024183D01*
X018683Y024140D01*
X018692Y024098D01*
X018705Y024056D01*
X018722Y024016D01*
X018742Y023977D01*
X018765Y023940D01*
X018792Y023906D01*
X018821Y023873D01*
X018854Y023844D01*
X018888Y023817D01*
X018925Y023794D01*
X018964Y023774D01*
X019004Y023757D01*
X019046Y023744D01*
X019088Y023735D01*
X019131Y023729D01*
X019175Y023727D01*
X020175Y023727D01*
X020219Y023725D01*
X020262Y023719D01*
X020304Y023710D01*
X020346Y023697D01*
X020386Y023680D01*
X020425Y023660D01*
X020462Y023637D01*
X020496Y023610D01*
X020529Y023581D01*
X020558Y023548D01*
X020585Y023514D01*
X020608Y023477D01*
X020628Y023438D01*
X020645Y023398D01*
X020658Y023356D01*
X020667Y023314D01*
X020673Y023271D01*
X020675Y023227D01*
X020675Y019127D01*
X021100Y019127D01*
X021100Y017927D01*
X020675Y017927D01*
X020675Y009677D01*
X021100Y009677D01*
X021100Y008477D01*
X020675Y008477D01*
X020675Y004777D01*
X020375Y004477D01*
X020375Y001427D01*
X020373Y001383D01*
X020367Y001340D01*
X020358Y001298D01*
X020345Y001256D01*
X020328Y001216D01*
X020308Y001177D01*
X020285Y001140D01*
X020258Y001106D01*
X020229Y001073D01*
X020196Y001044D01*
X020162Y001017D01*
X020125Y000994D01*
X020086Y000974D01*
X020046Y000957D01*
X020004Y000944D01*
X019962Y000935D01*
X019919Y000929D01*
X019875Y000927D01*
X001375Y000927D01*
X001331Y000929D01*
X001288Y000935D01*
X001246Y000944D01*
X001204Y000957D01*
X001164Y000974D01*
X001125Y000994D01*
X001088Y001017D01*
X001054Y001044D01*
X001021Y001073D01*
X000992Y001106D01*
X000965Y001140D01*
X000942Y001177D01*
X000922Y001216D01*
X000905Y001256D01*
X000892Y001298D01*
X000883Y001340D01*
X000877Y001383D01*
X000875Y001427D01*
D11*
X001373Y002571D03*
X019877Y002571D03*
D12*
X019188Y002610D03*
X018597Y002610D03*
X018007Y002610D03*
X017416Y002610D03*
X016826Y002610D03*
X016235Y002610D03*
X015645Y002610D03*
X015054Y002610D03*
X014464Y002610D03*
X013873Y002610D03*
X013282Y002610D03*
X012692Y002610D03*
X012101Y002610D03*
X011511Y002610D03*
X010920Y002610D03*
X010330Y002610D03*
X009739Y002610D03*
X009149Y002610D03*
X008558Y002610D03*
X007968Y002610D03*
X007377Y002610D03*
X006786Y002610D03*
X006196Y002610D03*
X005605Y002610D03*
X005015Y002610D03*
X004424Y002610D03*
X003834Y002610D03*
X003243Y002610D03*
X002653Y002610D03*
X002062Y002610D03*
D13*
X009198Y007138D02*
X009200Y007213D01*
X009206Y007288D01*
X009216Y007363D01*
X009230Y007437D01*
X009247Y007510D01*
X009269Y007583D01*
X009294Y007653D01*
X009323Y007723D01*
X009356Y007791D01*
X009392Y007857D01*
X009432Y007921D01*
X009475Y007983D01*
X009521Y008042D01*
X009570Y008099D01*
X009623Y008154D01*
X009678Y008205D01*
X009735Y008254D01*
X009795Y008299D01*
X009858Y008341D01*
X009922Y008380D01*
X009989Y008415D01*
X010057Y008447D01*
X010127Y008475D01*
X010198Y008500D01*
X010271Y008520D01*
X010344Y008537D01*
X010419Y008550D01*
X010493Y008559D01*
X010569Y008564D01*
X010644Y008565D01*
X010719Y008562D01*
X010794Y008555D01*
X010869Y008544D01*
X010943Y008529D01*
X011016Y008511D01*
X011087Y008488D01*
X011158Y008462D01*
X011227Y008432D01*
X011295Y008398D01*
X011360Y008361D01*
X011424Y008321D01*
X011485Y008277D01*
X011544Y008230D01*
X011600Y008180D01*
X011654Y008127D01*
X011705Y008071D01*
X011752Y008013D01*
X011797Y007952D01*
X011838Y007889D01*
X011876Y007824D01*
X011911Y007757D01*
X011942Y007688D01*
X011969Y007618D01*
X011992Y007547D01*
X012012Y007474D01*
X012028Y007400D01*
X012040Y007326D01*
X012048Y007251D01*
X012052Y007176D01*
X012052Y007100D01*
X012048Y007025D01*
X012040Y006950D01*
X012028Y006876D01*
X012012Y006802D01*
X011992Y006729D01*
X011969Y006658D01*
X011942Y006588D01*
X011911Y006519D01*
X011876Y006452D01*
X011838Y006387D01*
X011797Y006324D01*
X011752Y006263D01*
X011705Y006205D01*
X011654Y006149D01*
X011600Y006096D01*
X011544Y006046D01*
X011485Y005999D01*
X011424Y005955D01*
X011360Y005915D01*
X011295Y005878D01*
X011227Y005844D01*
X011158Y005814D01*
X011087Y005788D01*
X011016Y005765D01*
X010943Y005747D01*
X010869Y005732D01*
X010794Y005721D01*
X010719Y005714D01*
X010644Y005711D01*
X010569Y005712D01*
X010493Y005717D01*
X010419Y005726D01*
X010344Y005739D01*
X010271Y005756D01*
X010198Y005776D01*
X010127Y005801D01*
X010057Y005829D01*
X009989Y005861D01*
X009922Y005896D01*
X009858Y005935D01*
X009795Y005977D01*
X009735Y006022D01*
X009678Y006071D01*
X009623Y006122D01*
X009570Y006177D01*
X009521Y006234D01*
X009475Y006293D01*
X009432Y006355D01*
X009392Y006419D01*
X009356Y006485D01*
X009323Y006553D01*
X009294Y006623D01*
X009269Y006693D01*
X009247Y006766D01*
X009230Y006839D01*
X009216Y006913D01*
X009206Y006988D01*
X009200Y007063D01*
X009198Y007138D01*
X010182Y016979D02*
X010184Y017020D01*
X010190Y017062D01*
X010199Y017102D01*
X010213Y017141D01*
X010230Y017179D01*
X010250Y017215D01*
X010274Y017249D01*
X010301Y017281D01*
X010331Y017310D01*
X010363Y017336D01*
X010398Y017359D01*
X010434Y017379D01*
X010472Y017395D01*
X010512Y017407D01*
X010553Y017416D01*
X010594Y017421D01*
X010635Y017422D01*
X010677Y017419D01*
X010718Y017412D01*
X010758Y017402D01*
X010797Y017387D01*
X010834Y017369D01*
X010870Y017348D01*
X010904Y017323D01*
X010935Y017296D01*
X010963Y017266D01*
X010988Y017233D01*
X011010Y017197D01*
X011029Y017160D01*
X011044Y017122D01*
X011056Y017082D01*
X011064Y017041D01*
X011068Y017000D01*
X011068Y016958D01*
X011064Y016917D01*
X011056Y016876D01*
X011044Y016836D01*
X011029Y016798D01*
X011010Y016761D01*
X010988Y016725D01*
X010963Y016692D01*
X010935Y016662D01*
X010904Y016635D01*
X010870Y016610D01*
X010834Y016589D01*
X010797Y016571D01*
X010758Y016556D01*
X010718Y016546D01*
X010677Y016539D01*
X010635Y016536D01*
X010594Y016537D01*
X010553Y016542D01*
X010512Y016551D01*
X010472Y016563D01*
X010434Y016579D01*
X010398Y016599D01*
X010363Y016622D01*
X010331Y016648D01*
X010301Y016677D01*
X010274Y016709D01*
X010250Y016743D01*
X010230Y016779D01*
X010213Y016817D01*
X010199Y016856D01*
X010190Y016896D01*
X010184Y016938D01*
X010182Y016979D01*
D14*
X009975Y018277D03*
X009975Y018577D03*
X009675Y018577D03*
X009675Y018877D03*
X006625Y019427D03*
X006325Y019427D03*
X006325Y019127D03*
X006325Y019727D03*
X004675Y020447D03*
X004125Y019927D03*
X002475Y022027D03*
X002475Y022327D03*
X002475Y022627D03*
X002475Y022927D03*
X002925Y017077D03*
X002925Y016727D03*
X003725Y016727D03*
X003725Y017077D03*
X002215Y015727D03*
X001915Y015727D03*
X001915Y015427D03*
X001915Y016027D03*
X002225Y012477D03*
X002575Y012477D03*
X002925Y012477D03*
X003275Y012477D03*
X004175Y012327D03*
X004475Y012527D03*
X004825Y012527D03*
X005725Y012327D03*
X005725Y012027D03*
X006025Y012027D03*
X006025Y012327D03*
X007175Y011777D03*
X007475Y011777D03*
X007475Y012077D03*
X007475Y012377D03*
X007475Y010807D03*
X007245Y010577D03*
X006925Y010427D03*
X006125Y010427D03*
X005675Y010577D03*
X004475Y010407D03*
X004475Y009907D03*
X004475Y009407D03*
X004475Y008907D03*
X004475Y008407D03*
X004475Y007907D03*
X004475Y007507D03*
X004475Y007127D03*
X004475Y006757D03*
X004475Y006357D03*
X004475Y005907D03*
X004575Y005377D03*
X004075Y004427D03*
X003834Y003481D03*
X004424Y003481D03*
X005015Y003481D03*
X005605Y003481D03*
X006196Y003481D03*
X006786Y003481D03*
X007377Y003481D03*
X007968Y003481D03*
X008558Y003481D03*
X009149Y003481D03*
X009739Y003481D03*
X010330Y003481D03*
X010920Y003481D03*
X011511Y003481D03*
X012101Y003481D03*
X012692Y003481D03*
X013282Y003481D03*
X013873Y003481D03*
X014464Y003481D03*
X015054Y003481D03*
X015645Y003481D03*
X016235Y003481D03*
X016826Y003481D03*
X017416Y003481D03*
X018007Y003481D03*
X018597Y003481D03*
X019188Y003481D03*
X019779Y003481D03*
X019625Y005327D03*
X019325Y005327D03*
X019625Y005627D03*
X019925Y005627D03*
X017700Y005402D03*
X017700Y005902D03*
X017700Y006402D03*
X017700Y006902D03*
X017075Y006902D03*
X016925Y006402D03*
X016735Y005902D03*
X016525Y005402D03*
X016115Y006077D03*
X015925Y006427D03*
X015725Y006777D03*
X015500Y008402D03*
X016075Y008877D03*
X015500Y009402D03*
X014525Y009402D03*
X013725Y009407D03*
X013725Y008907D03*
X013705Y008407D03*
X013725Y007907D03*
X013725Y007407D03*
X013725Y006777D03*
X013725Y006427D03*
X013725Y006077D03*
X012325Y005927D03*
X012025Y005927D03*
X012325Y006227D03*
X012325Y006527D03*
X012075Y005247D03*
X014360Y008402D03*
X013725Y009907D03*
X013725Y010407D03*
X014175Y010327D03*
X014475Y010327D03*
X014475Y010627D03*
X014475Y010927D03*
X013725Y010907D03*
X013725Y011377D03*
X013725Y012527D03*
X014075Y012527D03*
X015425Y012477D03*
X015675Y011877D03*
X015675Y011527D03*
X015975Y013977D03*
X015975Y014277D03*
X016275Y014277D03*
X016275Y014577D03*
X015425Y014177D03*
X014075Y014427D03*
X014075Y014777D03*
X011625Y014127D03*
X011325Y014127D03*
X011325Y013827D03*
X011325Y013527D03*
X009575Y011727D03*
X009225Y011527D03*
X008875Y011527D03*
X008625Y008907D03*
X009125Y008027D03*
X007805Y007307D03*
X007805Y006907D03*
X007805Y006407D03*
X007805Y005907D03*
X007805Y005407D03*
X008125Y004927D03*
X008425Y004927D03*
X008425Y004627D03*
X008725Y004627D03*
X007045Y005407D03*
X007045Y005907D03*
X004875Y007217D03*
X002325Y006427D03*
X002325Y006127D03*
X002025Y006127D03*
X002025Y005827D03*
X002062Y003481D03*
X001471Y003481D03*
X002653Y003481D03*
X003243Y003481D03*
X004475Y010957D03*
X004475Y011577D03*
X012825Y017877D03*
X013125Y017877D03*
X013125Y018177D03*
X012825Y018177D03*
X009825Y022727D03*
X009525Y022727D03*
X009525Y023027D03*
X009825Y023027D03*
X017625Y024527D03*
X017925Y024527D03*
X017925Y024227D03*
X018225Y024527D03*
X018575Y017877D03*
X018575Y017577D03*
X018575Y017277D03*
X018275Y017577D03*
X019825Y012127D03*
X019825Y011827D03*
X019825Y011527D03*
X019525Y011527D03*
D15*
X019582Y001512D02*
X020172Y001512D01*
X020172Y001453D01*
X020034Y001315D01*
X019582Y001315D01*
X019582Y001512D01*
X001668Y001512D02*
X001078Y001512D01*
X001078Y001453D01*
X001216Y001315D01*
X001668Y001315D01*
X001668Y001512D01*
D16*
X001078Y001512D01*
X001078Y001511D02*
X001668Y001511D01*
X001668Y001510D02*
X001078Y001510D01*
X001668Y001510D01*
X001668Y001509D02*
X001078Y001509D01*
X001078Y001508D02*
X001668Y001508D01*
X001668Y001507D02*
X001078Y001507D01*
X001078Y001506D02*
X001668Y001506D01*
X001078Y001506D01*
X001078Y001505D02*
X001668Y001505D01*
X001668Y001504D02*
X001078Y001504D01*
X001078Y001503D02*
X001668Y001503D01*
X001668Y001502D02*
X001078Y001502D01*
X001668Y001502D01*
X001668Y001501D02*
X001078Y001501D01*
X001078Y001500D02*
X001668Y001500D01*
X001668Y001499D02*
X001078Y001499D01*
X001078Y001498D02*
X001668Y001498D01*
X001668Y001497D02*
X001078Y001497D01*
X001668Y001497D01*
X001668Y001496D02*
X001078Y001496D01*
X001078Y001495D02*
X001668Y001495D01*
X001668Y001494D02*
X001078Y001494D01*
X001078Y001493D02*
X001668Y001493D01*
X001078Y001493D01*
X001078Y001492D02*
X001668Y001492D01*
X001668Y001491D02*
X001078Y001491D01*
X001078Y001490D02*
X001668Y001490D01*
X001668Y001489D02*
X001078Y001489D01*
X001668Y001489D01*
X001668Y001488D02*
X001078Y001488D01*
X001078Y001487D02*
X001668Y001487D01*
X001668Y001486D02*
X001078Y001486D01*
X001078Y001485D02*
X001668Y001485D01*
X001078Y001485D01*
X001078Y001484D02*
X001668Y001484D01*
X001668Y001483D02*
X001078Y001483D01*
X001078Y001482D02*
X001668Y001482D01*
X001668Y001481D02*
X001078Y001481D01*
X001668Y001481D01*
X001668Y001480D02*
X001078Y001480D01*
X001078Y001479D02*
X001668Y001479D01*
X001668Y001478D02*
X001078Y001478D01*
X001078Y001477D02*
X001668Y001477D01*
X001078Y001477D01*
X001078Y001476D02*
X001668Y001476D01*
X001668Y001475D02*
X001078Y001475D01*
X001078Y001474D02*
X001668Y001474D01*
X001668Y001473D02*
X001078Y001473D01*
X001668Y001473D01*
X001668Y001472D02*
X001078Y001472D01*
X001078Y001471D02*
X001668Y001471D01*
X001668Y001470D02*
X001078Y001470D01*
X001078Y001469D02*
X001668Y001469D01*
X001078Y001469D01*
X001078Y001468D02*
X001668Y001468D01*
X001668Y001467D02*
X001078Y001467D01*
X001078Y001466D02*
X001668Y001466D01*
X001668Y001465D02*
X001078Y001465D01*
X001668Y001465D01*
X001668Y001464D02*
X001078Y001464D01*
X001078Y001463D02*
X001668Y001463D01*
X001668Y001462D02*
X001078Y001462D01*
X001078Y001461D02*
X001668Y001461D01*
X001078Y001461D01*
X001078Y001460D02*
X001668Y001460D01*
X001668Y001459D02*
X001078Y001459D01*
X001078Y001458D02*
X001668Y001458D01*
X001668Y001457D02*
X001078Y001457D01*
X001668Y001457D01*
X001668Y001456D02*
X001078Y001456D01*
X001078Y001455D02*
X001668Y001455D01*
X001668Y001454D02*
X001078Y001454D01*
X001078Y001453D02*
X001668Y001453D01*
X001078Y001453D01*
X001079Y001452D02*
X001668Y001452D01*
X001668Y001451D02*
X001080Y001451D01*
X001081Y001450D02*
X001668Y001450D01*
X001668Y001449D02*
X001081Y001449D01*
X001082Y001448D02*
X001668Y001448D01*
X001083Y001448D01*
X001084Y001447D02*
X001668Y001447D01*
X001668Y001446D02*
X001085Y001446D01*
X001085Y001445D02*
X001668Y001445D01*
X001668Y001444D02*
X001086Y001444D01*
X001087Y001444D02*
X001668Y001444D01*
X001668Y001443D02*
X001088Y001443D01*
X001089Y001442D02*
X001668Y001442D01*
X001668Y001441D02*
X001089Y001441D01*
X001090Y001440D02*
X001668Y001440D01*
X001091Y001440D01*
X001092Y001439D02*
X001668Y001439D01*
X001668Y001438D02*
X001093Y001438D01*
X001094Y001437D02*
X001668Y001437D01*
X001668Y001436D02*
X001094Y001436D01*
X001095Y001436D02*
X001668Y001436D01*
X001668Y001435D02*
X001096Y001435D01*
X001097Y001434D02*
X001668Y001434D01*
X001668Y001433D02*
X001098Y001433D01*
X001098Y001432D02*
X001668Y001432D01*
X001099Y001432D01*
X001100Y001431D02*
X001668Y001431D01*
X001668Y001430D02*
X001101Y001430D01*
X001102Y001429D02*
X001668Y001429D01*
X001668Y001428D02*
X001102Y001428D01*
X001103Y001428D02*
X001668Y001428D01*
X001668Y001427D02*
X001104Y001427D01*
X001105Y001426D02*
X001668Y001426D01*
X001668Y001425D02*
X001106Y001425D01*
X001106Y001424D02*
X001668Y001424D01*
X001107Y001424D01*
X001108Y001423D02*
X001668Y001423D01*
X001668Y001422D02*
X001109Y001422D01*
X001110Y001421D02*
X001668Y001421D01*
X001668Y001420D02*
X001110Y001420D01*
X001111Y001420D02*
X001668Y001420D01*
X001668Y001419D02*
X001112Y001419D01*
X001113Y001418D02*
X001668Y001418D01*
X001668Y001417D02*
X001114Y001417D01*
X001114Y001416D02*
X001668Y001416D01*
X001115Y001416D01*
X001116Y001415D02*
X001668Y001415D01*
X001668Y001414D02*
X001117Y001414D01*
X001118Y001413D02*
X001668Y001413D01*
X001668Y001412D02*
X001118Y001412D01*
X001119Y001412D02*
X001668Y001412D01*
X001668Y001411D02*
X001120Y001411D01*
X001121Y001410D02*
X001668Y001410D01*
X001668Y001409D02*
X001122Y001409D01*
X001122Y001408D02*
X001668Y001408D01*
X001123Y001408D01*
X001124Y001407D02*
X001668Y001407D01*
X001668Y001406D02*
X001125Y001406D01*
X001126Y001405D02*
X001668Y001405D01*
X001668Y001404D02*
X001126Y001404D01*
X001127Y001403D02*
X001668Y001403D01*
X001128Y001403D01*
X001129Y001402D02*
X001668Y001402D01*
X001668Y001401D02*
X001130Y001401D01*
X001130Y001400D02*
X001668Y001400D01*
X001668Y001399D02*
X001131Y001399D01*
X001132Y001399D02*
X001668Y001399D01*
X001668Y001398D02*
X001133Y001398D01*
X001134Y001397D02*
X001668Y001397D01*
X001668Y001396D02*
X001134Y001396D01*
X001135Y001395D02*
X001668Y001395D01*
X001136Y001395D01*
X001137Y001394D02*
X001668Y001394D01*
X001668Y001393D02*
X001138Y001393D01*
X001139Y001392D02*
X001668Y001392D01*
X001668Y001391D02*
X001139Y001391D01*
X001140Y001391D02*
X001668Y001391D01*
X001668Y001390D02*
X001141Y001390D01*
X001142Y001389D02*
X001668Y001389D01*
X001668Y001388D02*
X001143Y001388D01*
X001143Y001387D02*
X001668Y001387D01*
X001144Y001387D01*
X001145Y001386D02*
X001668Y001386D01*
X001668Y001385D02*
X001146Y001385D01*
X001147Y001384D02*
X001668Y001384D01*
X001668Y001383D02*
X001147Y001383D01*
X001148Y001383D02*
X001668Y001383D01*
X001668Y001382D02*
X001149Y001382D01*
X001150Y001381D02*
X001668Y001381D01*
X001668Y001380D02*
X001151Y001380D01*
X001151Y001379D02*
X001668Y001379D01*
X001152Y001379D01*
X001153Y001378D02*
X001668Y001378D01*
X001668Y001377D02*
X001154Y001377D01*
X001155Y001376D02*
X001668Y001376D01*
X001668Y001375D02*
X001155Y001375D01*
X001156Y001375D02*
X001668Y001375D01*
X001668Y001374D02*
X001157Y001374D01*
X001158Y001373D02*
X001668Y001373D01*
X001668Y001372D02*
X001159Y001372D01*
X001159Y001371D02*
X001668Y001371D01*
X001160Y001371D01*
X001161Y001370D02*
X001668Y001370D01*
X001668Y001369D02*
X001162Y001369D01*
X001163Y001368D02*
X001668Y001368D01*
X001668Y001367D02*
X001163Y001367D01*
X001164Y001367D02*
X001668Y001367D01*
X001668Y001366D02*
X001165Y001366D01*
X001166Y001365D02*
X001668Y001365D01*
X001668Y001364D02*
X001167Y001364D01*
X001167Y001363D02*
X001668Y001363D01*
X001168Y001363D01*
X001169Y001362D02*
X001668Y001362D01*
X001668Y001361D02*
X001170Y001361D01*
X001171Y001360D02*
X001668Y001360D01*
X001668Y001359D02*
X001171Y001359D01*
X001172Y001359D02*
X001668Y001359D01*
X001668Y001358D02*
X001173Y001358D01*
X001174Y001357D02*
X001668Y001357D01*
X001668Y001356D02*
X001175Y001356D01*
X001175Y001355D02*
X001668Y001355D01*
X001668Y001354D02*
X001176Y001354D01*
X001177Y001354D02*
X001668Y001354D01*
X001668Y001353D02*
X001178Y001353D01*
X001179Y001352D02*
X001668Y001352D01*
X001668Y001351D02*
X001179Y001351D01*
X001180Y001350D02*
X001668Y001350D01*
X001181Y001350D01*
X001182Y001349D02*
X001668Y001349D01*
X001668Y001348D02*
X001183Y001348D01*
X001183Y001347D02*
X001668Y001347D01*
X001668Y001346D02*
X001184Y001346D01*
X001185Y001346D02*
X001668Y001346D01*
X001668Y001345D02*
X001186Y001345D01*
X001187Y001344D02*
X001668Y001344D01*
X001668Y001343D02*
X001188Y001343D01*
X001188Y001342D02*
X001668Y001342D01*
X001189Y001342D01*
X001190Y001341D02*
X001668Y001341D01*
X001668Y001340D02*
X001191Y001340D01*
X001192Y001339D02*
X001668Y001339D01*
X001668Y001338D02*
X001192Y001338D01*
X001193Y001338D02*
X001668Y001338D01*
X001668Y001337D02*
X001194Y001337D01*
X001195Y001336D02*
X001668Y001336D01*
X001668Y001335D02*
X001196Y001335D01*
X001196Y001334D02*
X001668Y001334D01*
X001197Y001334D01*
X001198Y001333D02*
X001668Y001333D01*
X001668Y001332D02*
X001199Y001332D01*
X001200Y001331D02*
X001668Y001331D01*
X001668Y001330D02*
X001200Y001330D01*
X001201Y001330D02*
X001668Y001330D01*
X001668Y001329D02*
X001202Y001329D01*
X001203Y001328D02*
X001668Y001328D01*
X001668Y001327D02*
X001204Y001327D01*
X001204Y001326D02*
X001668Y001326D01*
X001205Y001326D01*
X001206Y001325D02*
X001668Y001325D01*
X001668Y001324D02*
X001207Y001324D01*
X001208Y001323D02*
X001668Y001323D01*
X001668Y001322D02*
X001208Y001322D01*
X001209Y001322D02*
X001668Y001322D01*
X001668Y001321D02*
X001210Y001321D01*
X001211Y001320D02*
X001668Y001320D01*
X001668Y001319D02*
X001212Y001319D01*
X001212Y001318D02*
X001668Y001318D01*
X001213Y001318D01*
X001214Y001317D02*
X001668Y001317D01*
X001668Y001316D02*
X001215Y001316D01*
X019582Y001322D02*
X020042Y001322D01*
X020042Y001323D02*
X019582Y001323D01*
X019582Y001324D02*
X020043Y001324D01*
X020044Y001325D02*
X019582Y001325D01*
X019582Y001326D02*
X020045Y001326D01*
X020046Y001326D02*
X019582Y001326D01*
X019582Y001327D02*
X020046Y001327D01*
X020047Y001328D02*
X019582Y001328D01*
X019582Y001329D02*
X020048Y001329D01*
X020049Y001330D02*
X019582Y001330D01*
X020050Y001330D01*
X020050Y001331D02*
X019582Y001331D01*
X019582Y001332D02*
X020051Y001332D01*
X020052Y001333D02*
X019582Y001333D01*
X019582Y001334D02*
X020053Y001334D01*
X020054Y001334D02*
X019582Y001334D01*
X019582Y001335D02*
X020054Y001335D01*
X020055Y001336D02*
X019582Y001336D01*
X019582Y001337D02*
X020056Y001337D01*
X020057Y001338D02*
X019582Y001338D01*
X020058Y001338D01*
X020058Y001339D02*
X019582Y001339D01*
X019582Y001340D02*
X020059Y001340D01*
X020060Y001341D02*
X019582Y001341D01*
X019582Y001342D02*
X020061Y001342D01*
X020062Y001342D02*
X019582Y001342D01*
X019582Y001343D02*
X020062Y001343D01*
X020063Y001344D02*
X019582Y001344D01*
X019582Y001345D02*
X020064Y001345D01*
X020065Y001346D02*
X019582Y001346D01*
X020066Y001346D01*
X020067Y001347D02*
X019582Y001347D01*
X019582Y001348D02*
X020067Y001348D01*
X020068Y001349D02*
X019582Y001349D01*
X019582Y001350D02*
X020069Y001350D01*
X020070Y001350D02*
X019582Y001350D01*
X019582Y001351D02*
X020071Y001351D01*
X020071Y001352D02*
X019582Y001352D01*
X019582Y001353D02*
X020072Y001353D01*
X020073Y001354D02*
X019582Y001354D01*
X020074Y001354D01*
X020075Y001355D02*
X019582Y001355D01*
X019582Y001356D02*
X020075Y001356D01*
X020076Y001357D02*
X019582Y001357D01*
X019582Y001358D02*
X020077Y001358D01*
X020078Y001359D02*
X019582Y001359D01*
X020079Y001359D01*
X020079Y001360D02*
X019582Y001360D01*
X019582Y001361D02*
X020080Y001361D01*
X020081Y001362D02*
X019582Y001362D01*
X019582Y001363D02*
X020082Y001363D01*
X020083Y001363D02*
X019582Y001363D01*
X019582Y001364D02*
X020083Y001364D01*
X020084Y001365D02*
X019582Y001365D01*
X019582Y001366D02*
X020085Y001366D01*
X020086Y001367D02*
X019582Y001367D01*
X020087Y001367D01*
X020087Y001368D02*
X019582Y001368D01*
X019582Y001369D02*
X020088Y001369D01*
X020089Y001370D02*
X019582Y001370D01*
X019582Y001371D02*
X020090Y001371D01*
X020091Y001371D02*
X019582Y001371D01*
X019582Y001372D02*
X020091Y001372D01*
X020092Y001373D02*
X019582Y001373D01*
X019582Y001374D02*
X020093Y001374D01*
X020094Y001375D02*
X019582Y001375D01*
X020095Y001375D01*
X020095Y001376D02*
X019582Y001376D01*
X019582Y001377D02*
X020096Y001377D01*
X020097Y001378D02*
X019582Y001378D01*
X019582Y001379D02*
X020098Y001379D01*
X020099Y001379D02*
X019582Y001379D01*
X019582Y001380D02*
X020099Y001380D01*
X020100Y001381D02*
X019582Y001381D01*
X019582Y001382D02*
X020101Y001382D01*
X020102Y001383D02*
X019582Y001383D01*
X020103Y001383D01*
X020103Y001384D02*
X019582Y001384D01*
X019582Y001385D02*
X020104Y001385D01*
X020105Y001386D02*
X019582Y001386D01*
X019582Y001387D02*
X020106Y001387D01*
X020107Y001387D02*
X019582Y001387D01*
X019582Y001388D02*
X020107Y001388D01*
X020108Y001389D02*
X019582Y001389D01*
X019582Y001390D02*
X020109Y001390D01*
X020110Y001391D02*
X019582Y001391D01*
X020111Y001391D01*
X020111Y001392D02*
X019582Y001392D01*
X019582Y001393D02*
X020112Y001393D01*
X020113Y001394D02*
X019582Y001394D01*
X019582Y001395D02*
X020114Y001395D01*
X020115Y001395D02*
X019582Y001395D01*
X019582Y001396D02*
X020116Y001396D01*
X020116Y001397D02*
X019582Y001397D01*
X019582Y001398D02*
X020117Y001398D01*
X020118Y001399D02*
X019582Y001399D01*
X020119Y001399D01*
X020120Y001400D02*
X019582Y001400D01*
X019582Y001401D02*
X020120Y001401D01*
X020121Y001402D02*
X019582Y001402D01*
X019582Y001403D02*
X020122Y001403D01*
X020123Y001403D02*
X019582Y001403D01*
X019582Y001404D02*
X020124Y001404D01*
X020124Y001405D02*
X019582Y001405D01*
X019582Y001406D02*
X020125Y001406D01*
X020126Y001407D02*
X019582Y001407D01*
X019582Y001408D02*
X020127Y001408D01*
X020128Y001408D02*
X019582Y001408D01*
X019582Y001409D02*
X020128Y001409D01*
X020129Y001410D02*
X019582Y001410D01*
X019582Y001411D02*
X020130Y001411D01*
X020131Y001412D02*
X019582Y001412D01*
X020132Y001412D01*
X020132Y001413D02*
X019582Y001413D01*
X019582Y001414D02*
X020133Y001414D01*
X020134Y001415D02*
X019582Y001415D01*
X019582Y001416D02*
X020135Y001416D01*
X020136Y001416D02*
X019582Y001416D01*
X019582Y001417D02*
X020136Y001417D01*
X020137Y001418D02*
X019582Y001418D01*
X019582Y001419D02*
X020138Y001419D01*
X020139Y001420D02*
X019582Y001420D01*
X020140Y001420D01*
X020140Y001421D02*
X019582Y001421D01*
X019582Y001422D02*
X020141Y001422D01*
X020142Y001423D02*
X019582Y001423D01*
X019582Y001424D02*
X020143Y001424D01*
X020144Y001424D02*
X019582Y001424D01*
X019582Y001425D02*
X020144Y001425D01*
X020145Y001426D02*
X019582Y001426D01*
X019582Y001427D02*
X020146Y001427D01*
X020147Y001428D02*
X019582Y001428D01*
X020148Y001428D01*
X020148Y001429D02*
X019582Y001429D01*
X019582Y001430D02*
X020149Y001430D01*
X020150Y001431D02*
X019582Y001431D01*
X019582Y001432D02*
X020151Y001432D01*
X020152Y001432D02*
X019582Y001432D01*
X019582Y001433D02*
X020152Y001433D01*
X020153Y001434D02*
X019582Y001434D01*
X019582Y001435D02*
X020154Y001435D01*
X020155Y001436D02*
X019582Y001436D01*
X020156Y001436D01*
X020156Y001437D02*
X019582Y001437D01*
X019582Y001438D02*
X020157Y001438D01*
X020158Y001439D02*
X019582Y001439D01*
X019582Y001440D02*
X020159Y001440D01*
X020160Y001440D02*
X019582Y001440D01*
X019582Y001441D02*
X020161Y001441D01*
X020161Y001442D02*
X019582Y001442D01*
X019582Y001443D02*
X020162Y001443D01*
X020163Y001444D02*
X019582Y001444D01*
X020164Y001444D01*
X020165Y001445D02*
X019582Y001445D01*
X019582Y001446D02*
X020165Y001446D01*
X020166Y001447D02*
X019582Y001447D01*
X019582Y001448D02*
X020167Y001448D01*
X020168Y001448D02*
X019582Y001448D01*
X019582Y001449D02*
X020169Y001449D01*
X020169Y001450D02*
X019582Y001450D01*
X019582Y001451D02*
X020170Y001451D01*
X020171Y001452D02*
X019582Y001452D01*
X019582Y001453D02*
X020172Y001453D01*
X019582Y001453D01*
X019582Y001454D02*
X020172Y001454D01*
X020172Y001455D02*
X019582Y001455D01*
X019582Y001456D02*
X020172Y001456D01*
X020172Y001457D02*
X019582Y001457D01*
X020172Y001457D01*
X020172Y001458D02*
X019582Y001458D01*
X019582Y001459D02*
X020172Y001459D01*
X020172Y001460D02*
X019582Y001460D01*
X019582Y001461D02*
X020172Y001461D01*
X019582Y001461D01*
X019582Y001462D02*
X020172Y001462D01*
X020172Y001463D02*
X019582Y001463D01*
X019582Y001464D02*
X020172Y001464D01*
X020172Y001465D02*
X019582Y001465D01*
X020172Y001465D01*
X020172Y001466D02*
X019582Y001466D01*
X019582Y001467D02*
X020172Y001467D01*
X020172Y001468D02*
X019582Y001468D01*
X019582Y001469D02*
X020172Y001469D01*
X019582Y001469D01*
X019582Y001470D02*
X020172Y001470D01*
X020172Y001471D02*
X019582Y001471D01*
X019582Y001472D02*
X020172Y001472D01*
X020172Y001473D02*
X019582Y001473D01*
X020172Y001473D01*
X020172Y001474D02*
X019582Y001474D01*
X019582Y001475D02*
X020172Y001475D01*
X020172Y001476D02*
X019582Y001476D01*
X019582Y001477D02*
X020172Y001477D01*
X019582Y001477D01*
X019582Y001478D02*
X020172Y001478D01*
X020172Y001479D02*
X019582Y001479D01*
X019582Y001480D02*
X020172Y001480D01*
X020172Y001481D02*
X019582Y001481D01*
X020172Y001481D01*
X020172Y001482D02*
X019582Y001482D01*
X019582Y001483D02*
X020172Y001483D01*
X020172Y001484D02*
X019582Y001484D01*
X019582Y001485D02*
X020172Y001485D01*
X019582Y001485D01*
X019582Y001486D02*
X020172Y001486D01*
X020172Y001487D02*
X019582Y001487D01*
X019582Y001488D02*
X020172Y001488D01*
X020172Y001489D02*
X019582Y001489D01*
X020172Y001489D01*
X020172Y001490D02*
X019582Y001490D01*
X019582Y001491D02*
X020172Y001491D01*
X020172Y001492D02*
X019582Y001492D01*
X019582Y001493D02*
X020172Y001493D01*
X019582Y001493D01*
X019582Y001494D02*
X020172Y001494D01*
X020172Y001495D02*
X019582Y001495D01*
X019582Y001496D02*
X020172Y001496D01*
X020172Y001497D02*
X019582Y001497D01*
X020172Y001497D01*
X020172Y001498D02*
X019582Y001498D01*
X019582Y001499D02*
X020172Y001499D01*
X020172Y001500D02*
X019582Y001500D01*
X019582Y001501D02*
X020172Y001501D01*
X020172Y001502D02*
X019582Y001502D01*
X020172Y001502D01*
X020172Y001503D02*
X019582Y001503D01*
X019582Y001504D02*
X020172Y001504D01*
X020172Y001505D02*
X019582Y001505D01*
X019582Y001506D02*
X020172Y001506D01*
X019582Y001506D01*
X019582Y001507D02*
X020172Y001507D01*
X020172Y001508D02*
X019582Y001508D01*
X019582Y001509D02*
X020172Y001509D01*
X020172Y001510D02*
X019582Y001510D01*
X020172Y001510D01*
X020172Y001511D02*
X019582Y001511D01*
X019582Y001512D02*
X020172Y001512D01*
X020041Y001322D02*
X019582Y001322D01*
X019582Y001321D02*
X020040Y001321D01*
X020039Y001320D02*
X019582Y001320D01*
X019582Y001319D02*
X020038Y001319D01*
X020038Y001318D02*
X019582Y001318D01*
X020037Y001318D01*
X020036Y001317D02*
X019582Y001317D01*
X019582Y001316D02*
X020035Y001316D01*
D17*
X018353Y015119D02*
X018353Y015119D01*
X019383Y016149D01*
X019383Y016149D01*
X018353Y015119D01*
X019297Y016063D02*
X019297Y016063D01*
X011867Y021606D02*
X011867Y021606D01*
X012897Y022636D01*
X012897Y022636D01*
X011867Y021606D01*
X012811Y022550D02*
X012811Y022550D01*
D18*
X015347Y020269D02*
X015349Y020269D01*
X015348Y020268D01*
X015347Y020267D01*
X015346Y020268D01*
X015345Y020269D01*
X015346Y020270D01*
X015347Y020271D01*
X015348Y020270D01*
X015349Y020269D01*
X017017Y018599D02*
X017019Y018599D01*
X017018Y018598D01*
X017017Y018597D01*
X017016Y018598D01*
X017015Y018599D01*
X017016Y018600D01*
X017017Y018601D01*
X017018Y018600D01*
X017019Y018599D01*
X014621Y017873D02*
X014623Y017873D01*
X014622Y017872D01*
X014621Y017871D01*
X014620Y017872D01*
X014619Y017873D01*
X014620Y017874D01*
X014621Y017875D01*
X014622Y017874D01*
X014623Y017873D01*
D19*
X013002Y012902D03*
X013002Y012402D03*
X013002Y011902D03*
X013002Y011402D03*
X013002Y010902D03*
X013002Y010402D03*
X013002Y009902D03*
X013002Y009402D03*
X013002Y008902D03*
X013002Y008402D03*
X013002Y007902D03*
X013002Y007402D03*
X013002Y006902D03*
X013002Y006402D03*
X013002Y005902D03*
X013002Y005402D03*
X008248Y005407D03*
X008248Y005907D03*
X008248Y006407D03*
X008248Y006907D03*
X008248Y007407D03*
X008248Y007907D03*
X008248Y008407D03*
X008248Y008907D03*
X008248Y009407D03*
X008248Y009907D03*
X008248Y010407D03*
X008248Y010907D03*
X008248Y011407D03*
X008248Y011907D03*
X003902Y011907D03*
X003902Y011407D03*
X003902Y010907D03*
X003902Y010407D03*
X003902Y009907D03*
X003902Y009407D03*
X003902Y008907D03*
X003902Y008407D03*
X003902Y007907D03*
X003902Y007407D03*
X003902Y006907D03*
X003902Y006407D03*
X003902Y005907D03*
X003902Y005407D03*
X018348Y005402D03*
X018348Y005902D03*
X018348Y006402D03*
X018348Y006902D03*
X018348Y007402D03*
X018348Y007902D03*
X018348Y008402D03*
X018348Y008902D03*
X018348Y009402D03*
X018348Y009902D03*
X018348Y010402D03*
X018348Y010902D03*
X018348Y011402D03*
X018348Y011902D03*
X018348Y012402D03*
X018348Y012902D03*
D20*
X008415Y013734D03*
X007915Y013734D03*
X007415Y013734D03*
X006915Y013734D03*
X006415Y013734D03*
X005915Y013734D03*
X005415Y013734D03*
X004915Y013734D03*
X004415Y013734D03*
X003915Y013734D03*
X003415Y013734D03*
X002915Y013734D03*
X002915Y018081D03*
X003415Y018081D03*
X003915Y018081D03*
X004415Y018081D03*
X004915Y018081D03*
X005415Y018081D03*
X005915Y018081D03*
X006415Y018081D03*
X006915Y018081D03*
X007415Y018081D03*
X007915Y018081D03*
X008415Y018081D03*
D21*
X005295Y019447D03*
X005295Y019947D03*
X005295Y020447D03*
X005295Y020947D03*
X003175Y020947D03*
X003175Y020447D03*
X003175Y019947D03*
X003175Y019447D03*
D22*
X003880Y021727D03*
X004590Y021727D03*
X009360Y012857D03*
X010070Y012857D03*
X016835Y013752D03*
X017545Y013752D03*
D23*
X002015Y016568D03*
X002015Y017277D03*
D24*
X002266Y016900D02*
X002306Y016900D01*
X002395Y016989D01*
X002395Y015673D01*
X001745Y015023D01*
X001745Y012882D01*
X001880Y012747D01*
X001975Y012652D01*
X001971Y012647D01*
X001925Y012537D01*
X001925Y012418D01*
X001971Y012307D01*
X002055Y012223D01*
X002165Y012177D01*
X002285Y012177D01*
X002395Y012223D01*
X002400Y012228D01*
X002405Y012223D01*
X002515Y012177D01*
X002635Y012177D01*
X002745Y012223D01*
X002750Y012228D01*
X002755Y012223D01*
X002865Y012177D01*
X002985Y012177D01*
X003095Y012223D01*
X003100Y012228D01*
X003105Y012223D01*
X003215Y012177D01*
X003335Y012177D01*
X003445Y012223D01*
X003524Y012303D01*
X003592Y012235D01*
X003473Y012235D01*
X003367Y012130D01*
X003367Y011685D01*
X003395Y011657D01*
X003367Y011630D01*
X003367Y011185D01*
X003395Y011157D01*
X003367Y011130D01*
X003367Y010685D01*
X003395Y010657D01*
X003367Y010630D01*
X003367Y010185D01*
X003395Y010157D01*
X003367Y010130D01*
X003367Y009685D01*
X003395Y009657D01*
X003367Y009630D01*
X003367Y009185D01*
X003395Y009157D01*
X003367Y009130D01*
X003367Y008685D01*
X003395Y008657D01*
X003367Y008630D01*
X003367Y008185D01*
X003395Y008157D01*
X003367Y008130D01*
X003367Y007685D01*
X003395Y007657D01*
X003367Y007630D01*
X003367Y007185D01*
X003395Y007157D01*
X003367Y007130D01*
X003367Y006685D01*
X003395Y006657D01*
X003367Y006630D01*
X003367Y006185D01*
X003395Y006157D01*
X003367Y006130D01*
X003367Y005685D01*
X003427Y005626D01*
X003417Y005609D01*
X003407Y005573D01*
X003407Y005441D01*
X003868Y005441D01*
X003868Y005374D01*
X003407Y005374D01*
X003407Y005241D01*
X003417Y005206D01*
X003435Y005174D01*
X003440Y005169D01*
X003410Y005138D01*
X003345Y005073D01*
X003345Y005069D01*
X002488Y004165D01*
X002423Y004100D01*
X002423Y004097D01*
X002420Y004094D01*
X002423Y004002D01*
X002423Y003853D01*
X002381Y003853D01*
X002357Y003830D01*
X002333Y003853D01*
X001791Y003853D01*
X001767Y003830D01*
X001743Y003853D01*
X001713Y003853D01*
X001713Y016259D01*
X001744Y016240D01*
X001780Y016231D01*
X001975Y016231D01*
X001975Y016528D01*
X002055Y016528D01*
X002055Y016608D01*
X002372Y016608D01*
X002372Y016783D01*
X002362Y016819D01*
X002344Y016851D01*
X002317Y016877D01*
X002286Y016895D01*
X002266Y016900D01*
X002337Y016931D02*
X002395Y016931D01*
X002395Y016852D02*
X002342Y016852D01*
X002372Y016774D02*
X002395Y016774D01*
X002395Y016695D02*
X002372Y016695D01*
X002372Y016617D02*
X002395Y016617D01*
X002395Y016538D02*
X002055Y016538D01*
X002055Y016528D02*
X002372Y016528D01*
X002372Y016352D01*
X002362Y016317D01*
X002344Y016285D01*
X002317Y016259D01*
X002286Y016240D01*
X002250Y016231D01*
X002055Y016231D01*
X002055Y016528D01*
X002055Y016460D02*
X001975Y016460D01*
X001975Y016381D02*
X002055Y016381D01*
X002055Y016303D02*
X001975Y016303D01*
X001713Y016224D02*
X002395Y016224D01*
X002395Y016146D02*
X001713Y016146D01*
X001713Y016067D02*
X002395Y016067D01*
X002395Y015989D02*
X001713Y015989D01*
X001713Y015910D02*
X002395Y015910D01*
X002395Y015832D02*
X001713Y015832D01*
X001713Y015753D02*
X002395Y015753D01*
X002395Y015675D02*
X001713Y015675D01*
X001713Y015596D02*
X002319Y015596D01*
X002240Y015518D02*
X001713Y015518D01*
X001713Y015439D02*
X002162Y015439D01*
X002083Y015361D02*
X001713Y015361D01*
X001713Y015282D02*
X002005Y015282D01*
X001926Y015204D02*
X001713Y015204D01*
X001713Y015125D02*
X001848Y015125D01*
X001769Y015047D02*
X001713Y015047D01*
X001713Y014968D02*
X001745Y014968D01*
X001745Y014890D02*
X001713Y014890D01*
X001713Y014811D02*
X001745Y014811D01*
X001745Y014733D02*
X001713Y014733D01*
X001713Y014654D02*
X001745Y014654D01*
X001745Y014576D02*
X001713Y014576D01*
X001713Y014497D02*
X001745Y014497D01*
X001745Y014419D02*
X001713Y014419D01*
X001713Y014340D02*
X001745Y014340D01*
X001745Y014262D02*
X001713Y014262D01*
X001713Y014183D02*
X001745Y014183D01*
X001745Y014105D02*
X001713Y014105D01*
X001713Y014026D02*
X001745Y014026D01*
X001745Y013948D02*
X001713Y013948D01*
X001713Y013869D02*
X001745Y013869D01*
X001745Y013791D02*
X001713Y013791D01*
X001713Y013712D02*
X001745Y013712D01*
X001745Y013634D02*
X001713Y013634D01*
X001713Y013555D02*
X001745Y013555D01*
X001745Y013477D02*
X001713Y013477D01*
X001713Y013398D02*
X001745Y013398D01*
X001745Y013320D02*
X001713Y013320D01*
X001713Y013241D02*
X001745Y013241D01*
X001745Y013163D02*
X001713Y013163D01*
X001713Y013084D02*
X001745Y013084D01*
X001745Y013006D02*
X001713Y013006D01*
X001713Y012927D02*
X001745Y012927D01*
X001713Y012849D02*
X001778Y012849D01*
X001713Y012770D02*
X001857Y012770D01*
X001935Y012692D02*
X001713Y012692D01*
X001713Y012613D02*
X001957Y012613D01*
X001925Y012535D02*
X001713Y012535D01*
X001713Y012456D02*
X001925Y012456D01*
X001941Y012378D02*
X001713Y012378D01*
X001713Y012299D02*
X001979Y012299D01*
X002060Y012221D02*
X001713Y012221D01*
X001713Y012142D02*
X003380Y012142D01*
X003367Y012064D02*
X001713Y012064D01*
X001713Y011985D02*
X003367Y011985D01*
X003367Y011907D02*
X001713Y011907D01*
X001713Y011828D02*
X003367Y011828D01*
X003367Y011750D02*
X001713Y011750D01*
X001713Y011671D02*
X003381Y011671D01*
X003367Y011593D02*
X001713Y011593D01*
X001713Y011514D02*
X003367Y011514D01*
X003367Y011436D02*
X001713Y011436D01*
X001713Y011357D02*
X003367Y011357D01*
X003367Y011279D02*
X001713Y011279D01*
X001713Y011200D02*
X003367Y011200D01*
X003367Y011122D02*
X001713Y011122D01*
X001713Y011043D02*
X003367Y011043D01*
X003367Y010965D02*
X001713Y010965D01*
X001713Y010886D02*
X003367Y010886D01*
X003367Y010808D02*
X001713Y010808D01*
X001713Y010729D02*
X003367Y010729D01*
X003389Y010651D02*
X001713Y010651D01*
X001713Y010572D02*
X003367Y010572D01*
X003367Y010494D02*
X001713Y010494D01*
X001713Y010415D02*
X003367Y010415D01*
X003367Y010337D02*
X001713Y010337D01*
X001713Y010258D02*
X003367Y010258D01*
X003373Y010180D02*
X001713Y010180D01*
X001713Y010101D02*
X003367Y010101D01*
X003367Y010023D02*
X001713Y010023D01*
X001713Y009944D02*
X003367Y009944D01*
X003367Y009866D02*
X001713Y009866D01*
X001713Y009787D02*
X003367Y009787D01*
X003367Y009709D02*
X001713Y009709D01*
X001713Y009630D02*
X003368Y009630D01*
X003367Y009552D02*
X001713Y009552D01*
X001713Y009473D02*
X003367Y009473D01*
X003367Y009395D02*
X001713Y009395D01*
X001713Y009316D02*
X003367Y009316D01*
X003367Y009238D02*
X001713Y009238D01*
X001713Y009159D02*
X003393Y009159D01*
X003367Y009081D02*
X001713Y009081D01*
X001713Y009002D02*
X003367Y009002D01*
X003367Y008924D02*
X001713Y008924D01*
X001713Y008845D02*
X003367Y008845D01*
X003367Y008767D02*
X001713Y008767D01*
X001713Y008688D02*
X003367Y008688D01*
X003367Y008610D02*
X001713Y008610D01*
X001713Y008531D02*
X003367Y008531D01*
X003367Y008453D02*
X001713Y008453D01*
X001713Y008374D02*
X003367Y008374D01*
X003367Y008296D02*
X001713Y008296D01*
X001713Y008217D02*
X003367Y008217D01*
X003377Y008139D02*
X001713Y008139D01*
X001713Y008060D02*
X003367Y008060D01*
X003367Y007982D02*
X001713Y007982D01*
X001713Y007903D02*
X003367Y007903D01*
X003367Y007825D02*
X001713Y007825D01*
X001713Y007746D02*
X003367Y007746D01*
X003385Y007668D02*
X001713Y007668D01*
X001713Y007589D02*
X003367Y007589D01*
X003367Y007511D02*
X001713Y007511D01*
X001713Y007432D02*
X003367Y007432D01*
X003367Y007354D02*
X001713Y007354D01*
X001713Y007275D02*
X003367Y007275D01*
X003367Y007197D02*
X001713Y007197D01*
X001713Y007118D02*
X003367Y007118D01*
X003367Y007040D02*
X001713Y007040D01*
X001713Y006961D02*
X003367Y006961D01*
X003367Y006883D02*
X001713Y006883D01*
X001713Y006804D02*
X003367Y006804D01*
X003367Y006726D02*
X001713Y006726D01*
X001713Y006647D02*
X003385Y006647D01*
X003367Y006569D02*
X001713Y006569D01*
X001713Y006490D02*
X003367Y006490D01*
X003367Y006412D02*
X001713Y006412D01*
X001713Y006333D02*
X003367Y006333D01*
X003367Y006255D02*
X001713Y006255D01*
X001713Y006176D02*
X003376Y006176D01*
X003367Y006098D02*
X001713Y006098D01*
X001713Y006019D02*
X003367Y006019D01*
X003367Y005941D02*
X001713Y005941D01*
X001713Y005862D02*
X003367Y005862D01*
X003367Y005784D02*
X001713Y005784D01*
X001713Y005705D02*
X003367Y005705D01*
X003426Y005627D02*
X001713Y005627D01*
X001713Y005548D02*
X003407Y005548D01*
X003407Y005470D02*
X001713Y005470D01*
X001713Y005391D02*
X003868Y005391D01*
X003407Y005313D02*
X001713Y005313D01*
X001713Y005234D02*
X003409Y005234D01*
X003427Y005156D02*
X001713Y005156D01*
X001713Y005077D02*
X003350Y005077D01*
X003278Y004999D02*
X001713Y004999D01*
X001713Y004920D02*
X003204Y004920D01*
X003129Y004842D02*
X001713Y004842D01*
X001713Y004763D02*
X003055Y004763D01*
X002980Y004685D02*
X001713Y004685D01*
X001713Y004606D02*
X002906Y004606D01*
X002832Y004528D02*
X001713Y004528D01*
X001713Y004449D02*
X002757Y004449D01*
X002683Y004371D02*
X001713Y004371D01*
X001713Y004292D02*
X002608Y004292D01*
X002534Y004214D02*
X001713Y004214D01*
X001713Y004135D02*
X002458Y004135D01*
X002421Y004057D02*
X001713Y004057D01*
X001713Y003978D02*
X002423Y003978D01*
X002423Y003900D02*
X001713Y003900D01*
X001033Y004694D02*
X000845Y004882D01*
X000845Y024474D01*
X000880Y024558D01*
X000944Y024623D01*
X001028Y024657D01*
X018222Y024657D01*
X018306Y024623D01*
X018370Y024558D01*
X018405Y024473D01*
X018410Y024427D01*
X018410Y024075D01*
X018526Y023794D01*
X018742Y023579D01*
X019023Y023462D01*
X020175Y023462D01*
X020221Y023458D01*
X020306Y023423D01*
X020370Y023358D01*
X020405Y023274D01*
X020405Y020646D01*
X020135Y021409D01*
X019747Y022124D01*
X019252Y022769D01*
X018663Y023329D01*
X018663Y023329D01*
X017993Y023790D01*
X017993Y023790D01*
X017259Y024140D01*
X016479Y024371D01*
X015673Y024478D01*
X015673Y024478D01*
X015271Y024467D01*
X002036Y024467D01*
X001677Y024351D01*
X001372Y024129D01*
X001372Y024129D01*
X001372Y024129D01*
X001150Y023823D01*
X001033Y023464D01*
X001033Y023208D01*
X001033Y019360D01*
X001033Y004694D01*
X001033Y004763D02*
X000964Y004763D01*
X001033Y004842D02*
X000885Y004842D01*
X000845Y004920D02*
X001033Y004920D01*
X001033Y004999D02*
X000845Y004999D01*
X000845Y005077D02*
X001033Y005077D01*
X001033Y005156D02*
X000845Y005156D01*
X000845Y005234D02*
X001033Y005234D01*
X001033Y005313D02*
X000845Y005313D01*
X000845Y005391D02*
X001033Y005391D01*
X001033Y005470D02*
X000845Y005470D01*
X000845Y005548D02*
X001033Y005548D01*
X001033Y005627D02*
X000845Y005627D01*
X000845Y005705D02*
X001033Y005705D01*
X001033Y005784D02*
X000845Y005784D01*
X000845Y005862D02*
X001033Y005862D01*
X001033Y005941D02*
X000845Y005941D01*
X000845Y006019D02*
X001033Y006019D01*
X001033Y006098D02*
X000845Y006098D01*
X000845Y006176D02*
X001033Y006176D01*
X001033Y006255D02*
X000845Y006255D01*
X000845Y006333D02*
X001033Y006333D01*
X001033Y006412D02*
X000845Y006412D01*
X000845Y006490D02*
X001033Y006490D01*
X001033Y006569D02*
X000845Y006569D01*
X000845Y006647D02*
X001033Y006647D01*
X001033Y006726D02*
X000845Y006726D01*
X000845Y006804D02*
X001033Y006804D01*
X001033Y006883D02*
X000845Y006883D01*
X000845Y006961D02*
X001033Y006961D01*
X001033Y007040D02*
X000845Y007040D01*
X000845Y007118D02*
X001033Y007118D01*
X001033Y007197D02*
X000845Y007197D01*
X000845Y007275D02*
X001033Y007275D01*
X001033Y007354D02*
X000845Y007354D01*
X000845Y007432D02*
X001033Y007432D01*
X001033Y007511D02*
X000845Y007511D01*
X000845Y007589D02*
X001033Y007589D01*
X001033Y007668D02*
X000845Y007668D01*
X000845Y007746D02*
X001033Y007746D01*
X001033Y007825D02*
X000845Y007825D01*
X000845Y007903D02*
X001033Y007903D01*
X001033Y007982D02*
X000845Y007982D01*
X000845Y008060D02*
X001033Y008060D01*
X001033Y008139D02*
X000845Y008139D01*
X000845Y008217D02*
X001033Y008217D01*
X001033Y008296D02*
X000845Y008296D01*
X000845Y008374D02*
X001033Y008374D01*
X001033Y008453D02*
X000845Y008453D01*
X000845Y008531D02*
X001033Y008531D01*
X001033Y008610D02*
X000845Y008610D01*
X000845Y008688D02*
X001033Y008688D01*
X001033Y008767D02*
X000845Y008767D01*
X000845Y008845D02*
X001033Y008845D01*
X001033Y008924D02*
X000845Y008924D01*
X000845Y009002D02*
X001033Y009002D01*
X001033Y009081D02*
X000845Y009081D01*
X000845Y009159D02*
X001033Y009159D01*
X001033Y009238D02*
X000845Y009238D01*
X000845Y009316D02*
X001033Y009316D01*
X001033Y009395D02*
X000845Y009395D01*
X000845Y009473D02*
X001033Y009473D01*
X001033Y009552D02*
X000845Y009552D01*
X000845Y009630D02*
X001033Y009630D01*
X001033Y009709D02*
X000845Y009709D01*
X000845Y009787D02*
X001033Y009787D01*
X001033Y009866D02*
X000845Y009866D01*
X000845Y009944D02*
X001033Y009944D01*
X001033Y010023D02*
X000845Y010023D01*
X000845Y010101D02*
X001033Y010101D01*
X001033Y010180D02*
X000845Y010180D01*
X000845Y010258D02*
X001033Y010258D01*
X001033Y010337D02*
X000845Y010337D01*
X000845Y010415D02*
X001033Y010415D01*
X001033Y010494D02*
X000845Y010494D01*
X000845Y010572D02*
X001033Y010572D01*
X001033Y010651D02*
X000845Y010651D01*
X000845Y010729D02*
X001033Y010729D01*
X001033Y010808D02*
X000845Y010808D01*
X000845Y010886D02*
X001033Y010886D01*
X001033Y010965D02*
X000845Y010965D01*
X000845Y011043D02*
X001033Y011043D01*
X001033Y011122D02*
X000845Y011122D01*
X000845Y011200D02*
X001033Y011200D01*
X001033Y011279D02*
X000845Y011279D01*
X000845Y011357D02*
X001033Y011357D01*
X001033Y011436D02*
X000845Y011436D01*
X000845Y011514D02*
X001033Y011514D01*
X001033Y011593D02*
X000845Y011593D01*
X000845Y011671D02*
X001033Y011671D01*
X001033Y011750D02*
X000845Y011750D01*
X000845Y011828D02*
X001033Y011828D01*
X001033Y011907D02*
X000845Y011907D01*
X000845Y011985D02*
X001033Y011985D01*
X001033Y012064D02*
X000845Y012064D01*
X000845Y012142D02*
X001033Y012142D01*
X001033Y012221D02*
X000845Y012221D01*
X000845Y012299D02*
X001033Y012299D01*
X001033Y012378D02*
X000845Y012378D01*
X000845Y012456D02*
X001033Y012456D01*
X001033Y012535D02*
X000845Y012535D01*
X000845Y012613D02*
X001033Y012613D01*
X001033Y012692D02*
X000845Y012692D01*
X000845Y012770D02*
X001033Y012770D01*
X001033Y012849D02*
X000845Y012849D01*
X000845Y012927D02*
X001033Y012927D01*
X001033Y013006D02*
X000845Y013006D01*
X000845Y013084D02*
X001033Y013084D01*
X001033Y013163D02*
X000845Y013163D01*
X000845Y013241D02*
X001033Y013241D01*
X001033Y013320D02*
X000845Y013320D01*
X000845Y013398D02*
X001033Y013398D01*
X001033Y013477D02*
X000845Y013477D01*
X000845Y013555D02*
X001033Y013555D01*
X001033Y013634D02*
X000845Y013634D01*
X000845Y013712D02*
X001033Y013712D01*
X001033Y013791D02*
X000845Y013791D01*
X000845Y013869D02*
X001033Y013869D01*
X001033Y013948D02*
X000845Y013948D01*
X000845Y014026D02*
X001033Y014026D01*
X001033Y014105D02*
X000845Y014105D01*
X000845Y014183D02*
X001033Y014183D01*
X001033Y014262D02*
X000845Y014262D01*
X000845Y014340D02*
X001033Y014340D01*
X001033Y014419D02*
X000845Y014419D01*
X000845Y014497D02*
X001033Y014497D01*
X001033Y014576D02*
X000845Y014576D01*
X000845Y014654D02*
X001033Y014654D01*
X001033Y014733D02*
X000845Y014733D01*
X000845Y014811D02*
X001033Y014811D01*
X001033Y014890D02*
X000845Y014890D01*
X000845Y014968D02*
X001033Y014968D01*
X001033Y015047D02*
X000845Y015047D01*
X000845Y015125D02*
X001033Y015125D01*
X001033Y015204D02*
X000845Y015204D01*
X000845Y015282D02*
X001033Y015282D01*
X001033Y015361D02*
X000845Y015361D01*
X000845Y015439D02*
X001033Y015439D01*
X001033Y015518D02*
X000845Y015518D01*
X000845Y015596D02*
X001033Y015596D01*
X001033Y015675D02*
X000845Y015675D01*
X000845Y015753D02*
X001033Y015753D01*
X001033Y015832D02*
X000845Y015832D01*
X000845Y015910D02*
X001033Y015910D01*
X001033Y015989D02*
X000845Y015989D01*
X000845Y016067D02*
X001033Y016067D01*
X001033Y016146D02*
X000845Y016146D01*
X000845Y016224D02*
X001033Y016224D01*
X001033Y016303D02*
X000845Y016303D01*
X000845Y016381D02*
X001033Y016381D01*
X001033Y016460D02*
X000845Y016460D01*
X000845Y016538D02*
X001033Y016538D01*
X001033Y016617D02*
X000845Y016617D01*
X000845Y016695D02*
X001033Y016695D01*
X001033Y016774D02*
X000845Y016774D01*
X000845Y016852D02*
X001033Y016852D01*
X001033Y016931D02*
X000845Y016931D01*
X000845Y017009D02*
X001033Y017009D01*
X001033Y017088D02*
X000845Y017088D01*
X000845Y017166D02*
X001033Y017166D01*
X001033Y017245D02*
X000845Y017245D01*
X000845Y017323D02*
X001033Y017323D01*
X001033Y017402D02*
X000845Y017402D01*
X000845Y017480D02*
X001033Y017480D01*
X001033Y017559D02*
X000845Y017559D01*
X000845Y017637D02*
X001033Y017637D01*
X001033Y017716D02*
X000845Y017716D01*
X000845Y017794D02*
X001033Y017794D01*
X001033Y017873D02*
X000845Y017873D01*
X000845Y017951D02*
X001033Y017951D01*
X001033Y018030D02*
X000845Y018030D01*
X000845Y018108D02*
X001033Y018108D01*
X001033Y018187D02*
X000845Y018187D01*
X000845Y018265D02*
X001033Y018265D01*
X001033Y018344D02*
X000845Y018344D01*
X000845Y018422D02*
X001033Y018422D01*
X001033Y018501D02*
X000845Y018501D01*
X000845Y018579D02*
X001033Y018579D01*
X001033Y018658D02*
X000845Y018658D01*
X000845Y018736D02*
X001033Y018736D01*
X001033Y018815D02*
X000845Y018815D01*
X000845Y018893D02*
X001033Y018893D01*
X001033Y018972D02*
X000845Y018972D01*
X000845Y019050D02*
X001033Y019050D01*
X001033Y019129D02*
X000845Y019129D01*
X000845Y019207D02*
X001033Y019207D01*
X001033Y019286D02*
X000845Y019286D01*
X000845Y019364D02*
X001033Y019364D01*
X001033Y019443D02*
X000845Y019443D01*
X000845Y019521D02*
X001033Y019521D01*
X001033Y019600D02*
X000845Y019600D01*
X000845Y019678D02*
X001033Y019678D01*
X001033Y019757D02*
X000845Y019757D01*
X000845Y019835D02*
X001033Y019835D01*
X001033Y019914D02*
X000845Y019914D01*
X000845Y019992D02*
X001033Y019992D01*
X001033Y020071D02*
X000845Y020071D01*
X000845Y020149D02*
X001033Y020149D01*
X001033Y020228D02*
X000845Y020228D01*
X000845Y020306D02*
X001033Y020306D01*
X001033Y020385D02*
X000845Y020385D01*
X000845Y020463D02*
X001033Y020463D01*
X001033Y020542D02*
X000845Y020542D01*
X000845Y020620D02*
X001033Y020620D01*
X001033Y020699D02*
X000845Y020699D01*
X000845Y020777D02*
X001033Y020777D01*
X001033Y020856D02*
X000845Y020856D01*
X000845Y020934D02*
X001033Y020934D01*
X001033Y021013D02*
X000845Y021013D01*
X000845Y021091D02*
X001033Y021091D01*
X001033Y021170D02*
X000845Y021170D01*
X000845Y021248D02*
X001033Y021248D01*
X001033Y021327D02*
X000845Y021327D01*
X000845Y021405D02*
X001033Y021405D01*
X001033Y021484D02*
X000845Y021484D01*
X000845Y021562D02*
X001033Y021562D01*
X001033Y021641D02*
X000845Y021641D01*
X000845Y021719D02*
X001033Y021719D01*
X001033Y021798D02*
X000845Y021798D01*
X000845Y021876D02*
X001033Y021876D01*
X001033Y021955D02*
X000845Y021955D01*
X000845Y022033D02*
X001033Y022033D01*
X001033Y022112D02*
X000845Y022112D01*
X000845Y022190D02*
X001033Y022190D01*
X001033Y022269D02*
X000845Y022269D01*
X000845Y022347D02*
X001033Y022347D01*
X001033Y022426D02*
X000845Y022426D01*
X000845Y022504D02*
X001033Y022504D01*
X001033Y022583D02*
X000845Y022583D01*
X000845Y022661D02*
X001033Y022661D01*
X001033Y022740D02*
X000845Y022740D01*
X000845Y022818D02*
X001033Y022818D01*
X001033Y022897D02*
X000845Y022897D01*
X000845Y022975D02*
X001033Y022975D01*
X001033Y023054D02*
X000845Y023054D01*
X000845Y023132D02*
X001033Y023132D01*
X001033Y023211D02*
X000845Y023211D01*
X000845Y023289D02*
X001033Y023289D01*
X001033Y023368D02*
X000845Y023368D01*
X000845Y023446D02*
X001033Y023446D01*
X001053Y023525D02*
X000845Y023525D01*
X000845Y023603D02*
X001078Y023603D01*
X001104Y023682D02*
X000845Y023682D01*
X000845Y023760D02*
X001129Y023760D01*
X001150Y023823D02*
X001150Y023823D01*
X001161Y023839D02*
X000845Y023839D01*
X000845Y023917D02*
X001218Y023917D01*
X001275Y023996D02*
X000845Y023996D01*
X000845Y024074D02*
X001332Y024074D01*
X001405Y024153D02*
X000845Y024153D01*
X000845Y024231D02*
X001513Y024231D01*
X001621Y024310D02*
X000845Y024310D01*
X000845Y024388D02*
X001793Y024388D01*
X001677Y024351D02*
X001677Y024351D01*
X002035Y024467D02*
X000845Y024467D01*
X000874Y024545D02*
X018376Y024545D01*
X018406Y024467D02*
X015755Y024467D01*
X016350Y024388D02*
X018410Y024388D01*
X018410Y024310D02*
X016686Y024310D01*
X016479Y024371D02*
X016479Y024371D01*
X016951Y024231D02*
X018410Y024231D01*
X018410Y024153D02*
X017216Y024153D01*
X017259Y024140D02*
X017259Y024140D01*
X017397Y024074D02*
X018410Y024074D01*
X018443Y023996D02*
X017561Y023996D01*
X017725Y023917D02*
X018475Y023917D01*
X018508Y023839D02*
X017890Y023839D01*
X018035Y023760D02*
X018560Y023760D01*
X018526Y023794D02*
X018526Y023794D01*
X018639Y023682D02*
X018150Y023682D01*
X018264Y023603D02*
X018717Y023603D01*
X018742Y023579D02*
X018742Y023579D01*
X018742Y023579D01*
X018872Y023525D02*
X018378Y023525D01*
X018492Y023446D02*
X020248Y023446D01*
X020360Y023368D02*
X018606Y023368D01*
X018704Y023289D02*
X020399Y023289D01*
X020405Y023211D02*
X018787Y023211D01*
X018870Y023132D02*
X020405Y023132D01*
X020405Y023054D02*
X018952Y023054D01*
X019035Y022975D02*
X020405Y022975D01*
X020405Y022897D02*
X019118Y022897D01*
X019200Y022818D02*
X020405Y022818D01*
X020405Y022740D02*
X019275Y022740D01*
X019252Y022769D02*
X019252Y022769D01*
X019335Y022661D02*
X020405Y022661D01*
X020405Y022583D02*
X019395Y022583D01*
X019455Y022504D02*
X020405Y022504D01*
X020405Y022426D02*
X019516Y022426D01*
X019576Y022347D02*
X020405Y022347D01*
X020405Y022269D02*
X019636Y022269D01*
X019696Y022190D02*
X020405Y022190D01*
X020405Y022112D02*
X019754Y022112D01*
X019747Y022124D02*
X019747Y022124D01*
X019796Y022033D02*
X020405Y022033D01*
X020405Y021955D02*
X019839Y021955D01*
X019882Y021876D02*
X020405Y021876D01*
X020405Y021798D02*
X019924Y021798D01*
X019967Y021719D02*
X020405Y021719D01*
X020405Y021641D02*
X020009Y021641D01*
X020052Y021562D02*
X020405Y021562D01*
X020405Y021484D02*
X020094Y021484D01*
X020135Y021409D02*
X020135Y021409D01*
X020136Y021405D02*
X020405Y021405D01*
X020405Y021327D02*
X020164Y021327D01*
X020192Y021248D02*
X020405Y021248D01*
X020405Y021170D02*
X020220Y021170D01*
X020247Y021091D02*
X020405Y021091D01*
X020405Y021013D02*
X020275Y021013D01*
X020303Y020934D02*
X020405Y020934D01*
X020405Y020856D02*
X020331Y020856D01*
X020359Y020777D02*
X020405Y020777D01*
X020405Y020699D02*
X020386Y020699D01*
X019734Y020463D02*
X019550Y020463D01*
X019576Y020385D02*
X019748Y020385D01*
X019734Y020462D02*
X019862Y019770D01*
X019885Y019420D01*
X019885Y016570D01*
X019753Y016702D01*
X019513Y016802D01*
X019253Y016802D01*
X019246Y016799D01*
X019311Y016893D01*
X019628Y017602D01*
X019808Y018358D01*
X019845Y019134D01*
X019738Y019903D01*
X019490Y020639D01*
X019490Y020639D01*
X019111Y021317D01*
X018612Y021912D01*
X018612Y021912D01*
X018012Y022405D01*
X017331Y022779D01*
X017331Y022779D01*
X016592Y023020D01*
X015822Y023120D01*
X015046Y023076D01*
X014293Y022889D01*
X013586Y022565D01*
X013549Y022539D01*
X013549Y022765D01*
X013450Y023005D01*
X013266Y023189D01*
X013027Y023288D01*
X012767Y023288D01*
X012527Y023189D01*
X011356Y022017D01*
X004966Y022017D01*
X004966Y022018D01*
X004861Y022124D01*
X004318Y022124D01*
X004235Y022041D01*
X004152Y022124D01*
X003609Y022124D01*
X003504Y022018D01*
X003504Y021436D01*
X003609Y021331D01*
X003711Y021331D01*
X004341Y020702D01*
X004447Y020657D01*
X004461Y020657D01*
X004421Y020617D01*
X004375Y020507D01*
X004375Y020388D01*
X004421Y020277D01*
X004505Y020193D01*
X004543Y020177D01*
X004299Y020177D01*
X004295Y020182D01*
X004185Y020227D01*
X004065Y020227D01*
X003955Y020182D01*
X003871Y020097D01*
X003825Y019987D01*
X003825Y019868D01*
X003871Y019757D01*
X003701Y019757D01*
X003692Y019741D02*
X003710Y019773D01*
X003720Y019809D01*
X003720Y019927D01*
X003195Y019927D01*
X003195Y019967D01*
X003720Y019967D01*
X003720Y020086D01*
X003710Y020121D01*
X003692Y020153D01*
X003676Y020169D01*
X003760Y020253D01*
X003760Y020642D01*
X003705Y020697D01*
X003760Y020753D01*
X003760Y021142D01*
X003655Y021247D01*
X002695Y021247D01*
X002590Y021142D01*
X002590Y020787D01*
X002157Y020787D01*
X002032Y020736D01*
X001937Y020640D01*
X001885Y020515D01*
X001885Y020380D01*
X001937Y020255D01*
X002032Y020159D01*
X002157Y020107D01*
X002593Y020107D01*
X002644Y020129D01*
X002640Y020121D01*
X002630Y020086D01*
X002630Y019967D01*
X003155Y019967D01*
X003155Y019927D01*
X002630Y019927D01*
X002630Y019809D01*
X002640Y019773D01*
X002658Y019741D01*
X002674Y019726D01*
X002590Y019642D01*
X002590Y019253D01*
X002625Y019218D01*
X002625Y018547D01*
X002587Y018510D01*
X002587Y018371D01*
X001713Y018371D01*
X001713Y023275D01*
X001719Y023356D01*
X001769Y023508D01*
X001863Y023637D01*
X001993Y023732D01*
X002145Y023781D01*
X002225Y023787D01*
X015212Y023787D01*
X015216Y023786D01*
X015279Y023787D01*
X015292Y023787D01*
X015636Y023783D01*
X016334Y023691D01*
X017009Y023491D01*
X017644Y023187D01*
X018224Y022788D01*
X018735Y022304D01*
X019163Y021745D01*
X019499Y021126D01*
X019734Y020462D01*
X019706Y020542D02*
X019523Y020542D01*
X019497Y020620D02*
X019678Y020620D01*
X019650Y020699D02*
X019457Y020699D01*
X019413Y020777D02*
X019623Y020777D01*
X019595Y020856D02*
X019369Y020856D01*
X019325Y020934D02*
X019567Y020934D01*
X019539Y021013D02*
X019281Y021013D01*
X019237Y021091D02*
X019512Y021091D01*
X019475Y021170D02*
X019193Y021170D01*
X019149Y021248D02*
X019433Y021248D01*
X019390Y021327D02*
X019102Y021327D01*
X019111Y021317D02*
X019111Y021317D01*
X019036Y021405D02*
X019348Y021405D01*
X019305Y021484D02*
X018971Y021484D01*
X018905Y021562D02*
X019263Y021562D01*
X019220Y021641D02*
X018839Y021641D01*
X018774Y021719D02*
X019177Y021719D01*
X019123Y021798D02*
X018708Y021798D01*
X018642Y021876D02*
X019063Y021876D01*
X019002Y021955D02*
X018560Y021955D01*
X018612Y021912D02*
X018612Y021912D01*
X018465Y022033D02*
X018942Y022033D01*
X018882Y022112D02*
X018369Y022112D01*
X018274Y022190D02*
X018822Y022190D01*
X018762Y022269D02*
X018178Y022269D01*
X018082Y022347D02*
X018689Y022347D01*
X018606Y022426D02*
X017975Y022426D01*
X018012Y022405D02*
X018012Y022405D01*
X017831Y022504D02*
X018524Y022504D01*
X018441Y022583D02*
X017688Y022583D01*
X017545Y022661D02*
X018358Y022661D01*
X018276Y022740D02*
X017402Y022740D01*
X017210Y022818D02*
X018181Y022818D01*
X018067Y022897D02*
X016969Y022897D01*
X016728Y022975D02*
X017952Y022975D01*
X017838Y023054D02*
X016330Y023054D01*
X016246Y022504D02*
X015052Y022504D01*
X015130Y022524D02*
X015802Y022562D01*
X016469Y022475D01*
X017109Y022267D01*
X017699Y021943D01*
X018219Y021516D01*
X018651Y021000D01*
X018980Y020413D01*
X019195Y019775D01*
X019288Y019108D01*
X019256Y018436D01*
X019100Y017781D01*
X018825Y017167D01*
X018657Y016898D01*
X018639Y016880D01*
X018630Y016857D01*
X018616Y016837D01*
X018609Y016808D01*
X018598Y016781D01*
X018598Y016756D01*
X018593Y016732D01*
X018598Y016703D01*
X018598Y016287D01*
X017800Y015489D01*
X017701Y015249D01*
X017701Y014989D01*
X017800Y014750D01*
X017984Y014566D01*
X018223Y014467D01*
X018483Y014467D01*
X018723Y014566D01*
X019885Y015728D01*
X019885Y013267D01*
X019858Y013240D01*
X019820Y013224D01*
X019800Y013222D01*
X018785Y013222D01*
X018777Y013230D01*
X018381Y013230D01*
X017921Y013689D01*
X017921Y014043D01*
X017816Y014149D01*
X017273Y014149D01*
X017168Y014043D01*
X017168Y014004D01*
X017163Y014023D01*
X017144Y014055D01*
X017118Y014081D01*
X017086Y014099D01*
X017051Y014109D01*
X016875Y014109D01*
X016875Y013792D01*
X016795Y013792D01*
X016795Y013712D01*
X016875Y013712D01*
X016875Y013396D01*
X017051Y013396D01*
X017086Y013405D01*
X017118Y013424D01*
X017144Y013450D01*
X017163Y013482D01*
X017168Y013501D01*
X017168Y013461D01*
X017273Y013356D01*
X017435Y013356D01*
X017814Y012977D01*
X017814Y012680D01*
X017842Y012652D01*
X017822Y012632D01*
X016895Y012632D01*
X015600Y013928D01*
X015679Y014007D01*
X015725Y014118D01*
X015725Y014237D01*
X015679Y014347D01*
X015595Y014432D01*
X015485Y014477D01*
X015365Y014477D01*
X015355Y014473D01*
X015005Y014823D01*
X015005Y015223D01*
X014655Y015573D01*
X014520Y015707D01*
X014070Y015707D01*
X013455Y016323D01*
X013320Y016457D01*
X011070Y016457D01*
X011204Y016592D01*
X011308Y016843D01*
X011308Y017114D01*
X011204Y017365D01*
X011012Y017558D01*
X010761Y017661D01*
X010489Y017661D01*
X010238Y017558D01*
X010046Y017365D01*
X009942Y017114D01*
X009942Y016843D01*
X010046Y016592D01*
X010180Y016457D01*
X009170Y016457D01*
X009155Y016473D01*
X009155Y018573D01*
X008955Y018773D01*
X008820Y018907D01*
X005030Y018907D01*
X004737Y018615D01*
X004693Y018615D01*
X004665Y018587D01*
X004637Y018615D01*
X004193Y018615D01*
X004165Y018587D01*
X004137Y018615D01*
X003693Y018615D01*
X003665Y018587D01*
X003637Y018615D01*
X003205Y018615D01*
X003205Y019147D01*
X003655Y019147D01*
X003760Y019253D01*
X003760Y019642D01*
X003676Y019726D01*
X003692Y019741D01*
X003724Y019678D02*
X003950Y019678D01*
X003955Y019673D02*
X004065Y019627D01*
X004185Y019627D01*
X004295Y019673D01*
X004339Y019717D01*
X004745Y019717D01*
X004794Y019669D01*
X004778Y019653D01*
X004760Y019621D01*
X004750Y019586D01*
X004750Y019467D01*
X005275Y019467D01*
X005275Y019427D01*
X005315Y019427D01*
X005315Y019187D01*
X005718Y019187D01*
X005754Y019197D01*
X005786Y019215D01*
X005812Y019241D01*
X005830Y019273D01*
X005840Y019309D01*
X005840Y019427D01*
X005315Y019427D01*
X005315Y019467D01*
X005840Y019467D01*
X005840Y019586D01*
X005830Y019621D01*
X005812Y019653D01*
X005796Y019669D01*
X005880Y019753D01*
X005880Y020142D01*
X005825Y020197D01*
X005880Y020253D01*
X005880Y020642D01*
X005825Y020697D01*
X005880Y020753D01*
X005880Y021142D01*
X005775Y021247D01*
X004815Y021247D01*
X004805Y021237D01*
X004625Y021237D01*
X004532Y021331D01*
X004861Y021331D01*
X004966Y021436D01*
X004966Y021437D01*
X011230Y021437D01*
X011314Y021236D01*
X011497Y021052D01*
X011737Y020953D01*
X011997Y020953D01*
X012236Y021052D01*
X013034Y021851D01*
X013402Y021851D01*
X013432Y021845D01*
X013455Y021851D01*
X013479Y021851D01*
X013507Y021862D01*
X013537Y021869D01*
X013556Y021883D01*
X013578Y021892D01*
X013596Y021910D01*
X013865Y022082D01*
X014477Y022362D01*
X015130Y022524D01*
X014735Y022426D02*
X016621Y022426D01*
X016469Y022475D02*
X016469Y022475D01*
X016862Y022347D02*
X014445Y022347D01*
X014274Y022269D02*
X017102Y022269D01*
X017248Y022190D02*
X014102Y022190D01*
X013931Y022112D02*
X017391Y022112D01*
X017535Y022033D02*
X013789Y022033D01*
X013667Y021955D02*
X017678Y021955D01*
X017780Y021876D02*
X013547Y021876D01*
X013549Y022583D02*
X013625Y022583D01*
X013549Y022661D02*
X013796Y022661D01*
X013968Y022740D02*
X013549Y022740D01*
X013527Y022818D02*
X014139Y022818D01*
X014326Y022897D02*
X013495Y022897D01*
X013462Y022975D02*
X014642Y022975D01*
X014959Y023054D02*
X013401Y023054D01*
X013323Y023132D02*
X017724Y023132D01*
X017595Y023211D02*
X013213Y023211D01*
X012581Y023211D02*
X001713Y023211D01*
X001714Y023289D02*
X017430Y023289D01*
X017266Y023368D02*
X001723Y023368D01*
X001749Y023446D02*
X017101Y023446D01*
X016893Y023525D02*
X001781Y023525D01*
X001838Y023603D02*
X016628Y023603D01*
X016364Y023682D02*
X001924Y023682D01*
X002081Y023760D02*
X015806Y023760D01*
X017876Y021798D02*
X012982Y021798D01*
X012903Y021719D02*
X017972Y021719D01*
X018067Y021641D02*
X012825Y021641D01*
X012746Y021562D02*
X018163Y021562D01*
X018246Y021484D02*
X012668Y021484D01*
X012589Y021405D02*
X018312Y021405D01*
X018377Y021327D02*
X012511Y021327D01*
X012432Y021248D02*
X018443Y021248D01*
X018509Y021170D02*
X012354Y021170D01*
X012275Y021091D02*
X018575Y021091D01*
X018640Y021013D02*
X012141Y021013D01*
X011593Y021013D02*
X005880Y021013D01*
X005880Y021091D02*
X011458Y021091D01*
X011380Y021170D02*
X005852Y021170D01*
X005880Y020934D02*
X018688Y020934D01*
X018732Y020856D02*
X005880Y020856D01*
X005880Y020777D02*
X018776Y020777D01*
X018820Y020699D02*
X005826Y020699D01*
X005880Y020620D02*
X018864Y020620D01*
X018908Y020542D02*
X015440Y020542D01*
X015431Y020546D02*
X015375Y020557D01*
X015318Y020557D01*
X015263Y020546D01*
X015210Y020524D01*
X015168Y020496D01*
X015347Y020317D01*
X015525Y020496D01*
X015483Y020524D01*
X015431Y020546D01*
X015493Y020463D02*
X018952Y020463D01*
X018990Y020385D02*
X015610Y020385D01*
X015602Y020406D02*
X015573Y020448D01*
X015394Y020269D01*
X015573Y020091D01*
X015602Y020133D01*
X015623Y020185D01*
X015634Y020241D01*
X015634Y020298D01*
X015623Y020353D01*
X015602Y020406D01*
X015510Y020385D02*
X015414Y020385D01*
X015432Y020306D02*
X015357Y020306D01*
X015347Y020317D02*
X015394Y020269D01*
X015347Y020222D01*
X015525Y020043D01*
X015483Y020014D01*
X015431Y019993D01*
X015375Y019982D01*
X015318Y019982D01*
X015263Y019993D01*
X015210Y020014D01*
X015168Y020043D01*
X015347Y020222D01*
X015299Y020269D01*
X015120Y020091D01*
X015092Y020133D01*
X015070Y020185D01*
X015059Y020241D01*
X015059Y020298D01*
X015070Y020353D01*
X015092Y020406D01*
X015120Y020448D01*
X015299Y020269D01*
X015347Y020317D01*
X015336Y020306D02*
X015262Y020306D01*
X015257Y020228D02*
X015340Y020228D01*
X015353Y020228D02*
X015436Y020228D01*
X015419Y020149D02*
X015514Y020149D01*
X015497Y020071D02*
X019095Y020071D01*
X019069Y020149D02*
X015608Y020149D01*
X015632Y020228D02*
X019042Y020228D01*
X019016Y020306D02*
X015633Y020306D01*
X015279Y020385D02*
X015183Y020385D01*
X015200Y020463D02*
X005880Y020463D01*
X005880Y020385D02*
X015083Y020385D01*
X015061Y020306D02*
X005880Y020306D01*
X005855Y020228D02*
X015062Y020228D01*
X015085Y020149D02*
X005873Y020149D01*
X005880Y020071D02*
X015196Y020071D01*
X015179Y020149D02*
X015275Y020149D01*
X015264Y019992D02*
X005880Y019992D01*
X005880Y019914D02*
X019148Y019914D01*
X019122Y019992D02*
X015429Y019992D01*
X015253Y020542D02*
X005880Y020542D01*
X005880Y019835D02*
X019175Y019835D01*
X019197Y019757D02*
X005880Y019757D01*
X005806Y019678D02*
X019208Y019678D01*
X019219Y019600D02*
X005836Y019600D01*
X005840Y019521D02*
X019230Y019521D01*
X019241Y019443D02*
X005315Y019443D01*
X005275Y019443D02*
X003760Y019443D01*
X003760Y019521D02*
X004750Y019521D01*
X004754Y019600D02*
X003760Y019600D01*
X003871Y019757D02*
X003955Y019673D01*
X003838Y019835D02*
X003720Y019835D01*
X003720Y019914D02*
X003825Y019914D01*
X003827Y019992D02*
X003720Y019992D01*
X003720Y020071D02*
X003860Y020071D01*
X003923Y020149D02*
X003694Y020149D01*
X003735Y020228D02*
X004470Y020228D01*
X004409Y020306D02*
X003760Y020306D01*
X003760Y020385D02*
X004376Y020385D01*
X004375Y020463D02*
X003760Y020463D01*
X003760Y020542D02*
X004389Y020542D01*
X004424Y020620D02*
X003760Y020620D01*
X003706Y020699D02*
X004347Y020699D01*
X004265Y020777D02*
X003760Y020777D01*
X003760Y020856D02*
X004186Y020856D01*
X004108Y020934D02*
X003760Y020934D01*
X003760Y021013D02*
X004029Y021013D01*
X003951Y021091D02*
X003760Y021091D01*
X003732Y021170D02*
X003872Y021170D01*
X003794Y021248D02*
X001713Y021248D01*
X001713Y021170D02*
X002618Y021170D01*
X002590Y021091D02*
X001713Y021091D01*
X001713Y021013D02*
X002590Y021013D01*
X002590Y020934D02*
X001713Y020934D01*
X001713Y020856D02*
X002590Y020856D01*
X002133Y020777D02*
X001713Y020777D01*
X001713Y020699D02*
X001996Y020699D01*
X001929Y020620D02*
X001713Y020620D01*
X001713Y020542D02*
X001896Y020542D01*
X001885Y020463D02*
X001713Y020463D01*
X001713Y020385D02*
X001885Y020385D01*
X001915Y020306D02*
X001713Y020306D01*
X001713Y020228D02*
X001964Y020228D01*
X002056Y020149D02*
X001713Y020149D01*
X001713Y020071D02*
X002630Y020071D01*
X002630Y019992D02*
X001713Y019992D01*
X001713Y019914D02*
X002630Y019914D01*
X002630Y019835D02*
X001713Y019835D01*
X001713Y019757D02*
X002649Y019757D01*
X002626Y019678D02*
X001713Y019678D01*
X001713Y019600D02*
X002590Y019600D01*
X002590Y019521D02*
X001713Y019521D01*
X001713Y019443D02*
X002590Y019443D01*
X002590Y019364D02*
X001713Y019364D01*
X001713Y019286D02*
X002590Y019286D01*
X002625Y019207D02*
X001713Y019207D01*
X001713Y019129D02*
X002625Y019129D01*
X002625Y019050D02*
X001713Y019050D01*
X001713Y018972D02*
X002625Y018972D01*
X002625Y018893D02*
X001713Y018893D01*
X001713Y018815D02*
X002625Y018815D01*
X002625Y018736D02*
X001713Y018736D01*
X001713Y018658D02*
X002625Y018658D01*
X002625Y018579D02*
X001713Y018579D01*
X001713Y018501D02*
X002587Y018501D01*
X002587Y018422D02*
X001713Y018422D01*
X003205Y018658D02*
X004780Y018658D01*
X004859Y018736D02*
X003205Y018736D01*
X003205Y018815D02*
X004937Y018815D01*
X005016Y018893D02*
X003205Y018893D01*
X003205Y018972D02*
X019281Y018972D01*
X019285Y019050D02*
X003205Y019050D01*
X003205Y019129D02*
X019285Y019129D01*
X019274Y019207D02*
X005772Y019207D01*
X005834Y019286D02*
X019263Y019286D01*
X019252Y019364D02*
X005840Y019364D01*
X005315Y019364D02*
X005275Y019364D01*
X005275Y019427D02*
X005275Y019187D01*
X004872Y019187D01*
X004836Y019197D01*
X004804Y019215D01*
X004778Y019241D01*
X004760Y019273D01*
X004750Y019309D01*
X004750Y019427D01*
X005275Y019427D01*
X005275Y019286D02*
X005315Y019286D01*
X005315Y019207D02*
X005275Y019207D01*
X004818Y019207D02*
X003715Y019207D01*
X003760Y019286D02*
X004756Y019286D01*
X004750Y019364D02*
X003760Y019364D01*
X004300Y019678D02*
X004784Y019678D01*
X004614Y021248D02*
X011309Y021248D01*
X011276Y021327D02*
X004536Y021327D01*
X004936Y021405D02*
X011243Y021405D01*
X011372Y022033D02*
X004952Y022033D01*
X004873Y022112D02*
X011450Y022112D01*
X011529Y022190D02*
X001713Y022190D01*
X001713Y022112D02*
X003597Y022112D01*
X003518Y022033D02*
X001713Y022033D01*
X001713Y021955D02*
X003504Y021955D01*
X003504Y021876D02*
X001713Y021876D01*
X001713Y021798D02*
X003504Y021798D01*
X003504Y021719D02*
X001713Y021719D01*
X001713Y021641D02*
X003504Y021641D01*
X003504Y021562D02*
X001713Y021562D01*
X001713Y021484D02*
X003504Y021484D01*
X003534Y021405D02*
X001713Y021405D01*
X001713Y021327D02*
X003715Y021327D01*
X004164Y022112D02*
X004306Y022112D01*
X001713Y022269D02*
X011607Y022269D01*
X011686Y022347D02*
X001713Y022347D01*
X001713Y022426D02*
X011764Y022426D01*
X011843Y022504D02*
X001713Y022504D01*
X001713Y022583D02*
X011921Y022583D01*
X012000Y022661D02*
X001713Y022661D01*
X001713Y022740D02*
X012078Y022740D01*
X012157Y022818D02*
X001713Y022818D01*
X001713Y022897D02*
X012235Y022897D01*
X012314Y022975D02*
X001713Y022975D01*
X001713Y023054D02*
X012392Y023054D01*
X012471Y023132D02*
X001713Y023132D01*
X000947Y024624D02*
X018303Y024624D01*
X019602Y020306D02*
X019763Y020306D01*
X019777Y020228D02*
X019629Y020228D01*
X019655Y020149D02*
X019792Y020149D01*
X019807Y020071D02*
X019682Y020071D01*
X019708Y019992D02*
X019821Y019992D01*
X019836Y019914D02*
X019734Y019914D01*
X019738Y019903D02*
X019738Y019903D01*
X019748Y019835D02*
X019850Y019835D01*
X019863Y019757D02*
X019758Y019757D01*
X019769Y019678D02*
X019868Y019678D01*
X019873Y019600D02*
X019780Y019600D01*
X019791Y019521D02*
X019878Y019521D01*
X019884Y019443D02*
X019802Y019443D01*
X019813Y019364D02*
X019885Y019364D01*
X019885Y019286D02*
X019824Y019286D01*
X019835Y019207D02*
X019885Y019207D01*
X019885Y019129D02*
X019845Y019129D01*
X019845Y019134D02*
X019845Y019134D01*
X019841Y019050D02*
X019885Y019050D01*
X019885Y018972D02*
X019838Y018972D01*
X019834Y018893D02*
X019885Y018893D01*
X019885Y018815D02*
X019830Y018815D01*
X019826Y018736D02*
X019885Y018736D01*
X019885Y018658D02*
X019823Y018658D01*
X019819Y018579D02*
X019885Y018579D01*
X019885Y018501D02*
X019815Y018501D01*
X019811Y018422D02*
X019885Y018422D01*
X019885Y018344D02*
X019805Y018344D01*
X019808Y018358D02*
X019808Y018358D01*
X019786Y018265D02*
X019885Y018265D01*
X019885Y018187D02*
X019768Y018187D01*
X019749Y018108D02*
X019885Y018108D01*
X019885Y018030D02*
X019730Y018030D01*
X019711Y017951D02*
X019885Y017951D01*
X019885Y017873D02*
X019693Y017873D01*
X019674Y017794D02*
X019885Y017794D01*
X019885Y017716D02*
X019655Y017716D01*
X019637Y017637D02*
X019885Y017637D01*
X019885Y017559D02*
X019609Y017559D01*
X019628Y017602D02*
X019628Y017602D01*
X019574Y017480D02*
X019885Y017480D01*
X019885Y017402D02*
X019539Y017402D01*
X019504Y017323D02*
X019885Y017323D01*
X019885Y017245D02*
X019469Y017245D01*
X019434Y017166D02*
X019885Y017166D01*
X019885Y017088D02*
X019399Y017088D01*
X019364Y017009D02*
X019885Y017009D01*
X019885Y016931D02*
X019328Y016931D01*
X019311Y016893D02*
X019311Y016893D01*
X019283Y016852D02*
X019885Y016852D01*
X019885Y016774D02*
X019580Y016774D01*
X019760Y016695D02*
X019885Y016695D01*
X019885Y016617D02*
X019838Y016617D01*
X019832Y015675D02*
X019885Y015675D01*
X019885Y015596D02*
X019753Y015596D01*
X019675Y015518D02*
X019885Y015518D01*
X019885Y015439D02*
X019596Y015439D01*
X019518Y015361D02*
X019885Y015361D01*
X019885Y015282D02*
X019439Y015282D01*
X019361Y015204D02*
X019885Y015204D01*
X019885Y015125D02*
X019282Y015125D01*
X019204Y015047D02*
X019885Y015047D01*
X019885Y014968D02*
X019125Y014968D01*
X019047Y014890D02*
X019885Y014890D01*
X019885Y014811D02*
X018968Y014811D01*
X018890Y014733D02*
X019885Y014733D01*
X019885Y014654D02*
X018811Y014654D01*
X018733Y014576D02*
X019885Y014576D01*
X019885Y014497D02*
X018557Y014497D01*
X018149Y014497D02*
X015330Y014497D01*
X015252Y014576D02*
X017974Y014576D01*
X017895Y014654D02*
X015173Y014654D01*
X015095Y014733D02*
X017817Y014733D01*
X017774Y014811D02*
X015016Y014811D01*
X015005Y014890D02*
X017742Y014890D01*
X017709Y014968D02*
X015005Y014968D01*
X015005Y015047D02*
X017701Y015047D01*
X017701Y015125D02*
X015005Y015125D01*
X015005Y015204D02*
X017701Y015204D01*
X017715Y015282D02*
X014945Y015282D01*
X014867Y015361D02*
X017747Y015361D01*
X017780Y015439D02*
X014788Y015439D01*
X014710Y015518D02*
X017829Y015518D01*
X017908Y015596D02*
X014631Y015596D01*
X014553Y015675D02*
X017986Y015675D01*
X018065Y015753D02*
X014024Y015753D01*
X013946Y015832D02*
X018143Y015832D01*
X018222Y015910D02*
X013867Y015910D01*
X013789Y015989D02*
X018300Y015989D01*
X018379Y016067D02*
X013710Y016067D01*
X013632Y016146D02*
X018457Y016146D01*
X018536Y016224D02*
X013553Y016224D01*
X013475Y016303D02*
X018598Y016303D01*
X018598Y016381D02*
X013396Y016381D01*
X014442Y017647D02*
X014485Y017618D01*
X014537Y017597D01*
X014593Y017586D01*
X014649Y017586D01*
X014705Y017597D01*
X014757Y017618D01*
X014800Y017647D01*
X014621Y017825D01*
X014669Y017873D01*
X014668Y017873D01*
X014669Y017873D02*
X014847Y017695D01*
X014876Y017737D01*
X014897Y017789D01*
X014909Y017845D01*
X014909Y017902D01*
X014897Y017957D01*
X014876Y018010D01*
X014847Y018052D01*
X014669Y017873D01*
X014621Y017921D01*
X014800Y018100D01*
X014757Y018128D01*
X014705Y018150D01*
X014649Y018161D01*
X014593Y018161D01*
X014537Y018150D01*
X014485Y018128D01*
X014442Y018100D01*
X014621Y017921D01*
X014573Y017873D01*
X014621Y017825D01*
X014442Y017647D01*
X014456Y017637D02*
X010819Y017637D01*
X011008Y017559D02*
X019000Y017559D01*
X018965Y017480D02*
X011089Y017480D01*
X011167Y017402D02*
X018930Y017402D01*
X018895Y017323D02*
X011221Y017323D01*
X011254Y017245D02*
X018860Y017245D01*
X018825Y017166D02*
X011286Y017166D01*
X011308Y017088D02*
X018776Y017088D01*
X018727Y017009D02*
X011308Y017009D01*
X011308Y016931D02*
X018677Y016931D01*
X018626Y016852D02*
X011308Y016852D01*
X011279Y016774D02*
X018598Y016774D01*
X018598Y016695D02*
X011247Y016695D01*
X011214Y016617D02*
X018598Y016617D01*
X018598Y016538D02*
X011151Y016538D01*
X011072Y016460D02*
X018598Y016460D01*
X019035Y017637D02*
X014786Y017637D01*
X014826Y017716D02*
X014730Y017716D01*
X014748Y017794D02*
X014652Y017794D01*
X014590Y017794D02*
X014494Y017794D01*
X014511Y017716D02*
X014416Y017716D01*
X014394Y017695D02*
X014573Y017873D01*
X014394Y018052D01*
X014366Y018010D01*
X014344Y017957D01*
X014333Y017902D01*
X014333Y017845D01*
X014344Y017789D01*
X014366Y017737D01*
X014394Y017695D01*
X014380Y017716D02*
X009155Y017716D01*
X009155Y017794D02*
X014343Y017794D01*
X014333Y017873D02*
X009155Y017873D01*
X009155Y017951D02*
X014343Y017951D01*
X014380Y018030D02*
X009155Y018030D01*
X009155Y018108D02*
X014455Y018108D01*
X014416Y018030D02*
X014512Y018030D01*
X014495Y017951D02*
X014591Y017951D01*
X014651Y017951D02*
X014747Y017951D01*
X014730Y018030D02*
X014825Y018030D01*
X014862Y018030D02*
X019159Y018030D01*
X019178Y018108D02*
X014787Y018108D01*
X014899Y017951D02*
X019140Y017951D01*
X019122Y017873D02*
X014909Y017873D01*
X014898Y017794D02*
X019103Y017794D01*
X019071Y017716D02*
X014862Y017716D01*
X014573Y017873D02*
X014573Y017873D01*
X016740Y018515D02*
X016762Y018463D01*
X016790Y018420D01*
X016969Y018599D01*
X016790Y018778D01*
X016762Y018735D01*
X016740Y018683D01*
X016729Y018627D01*
X016729Y018571D01*
X016740Y018515D01*
X016746Y018501D02*
X009155Y018501D01*
X009155Y018422D02*
X016789Y018422D01*
X016793Y018422D02*
X016888Y018422D01*
X016838Y018372D02*
X016881Y018344D01*
X009155Y018344D01*
X009155Y018265D02*
X019215Y018265D01*
X019196Y018187D02*
X009155Y018187D01*
X009148Y018579D02*
X016729Y018579D01*
X016735Y018658D02*
X009070Y018658D01*
X008991Y018736D02*
X016763Y018736D01*
X016832Y018736D02*
X016927Y018736D01*
X016910Y018658D02*
X017006Y018658D01*
X017017Y018647D02*
X016969Y018599D01*
X017017Y018551D01*
X017065Y018599D01*
X017243Y018420D01*
X017272Y018463D01*
X017294Y018515D01*
X017305Y018571D01*
X017305Y018627D01*
X017294Y018683D01*
X017272Y018735D01*
X017243Y018778D01*
X017065Y018599D01*
X017017Y018647D01*
X017196Y018826D01*
X017153Y018854D01*
X017101Y018876D01*
X017045Y018887D01*
X016989Y018887D01*
X016933Y018876D01*
X016881Y018854D01*
X016838Y018826D01*
X017017Y018647D01*
X017028Y018658D02*
X017124Y018658D01*
X017107Y018736D02*
X017202Y018736D01*
X017271Y018736D02*
X019270Y018736D01*
X019266Y018658D02*
X017298Y018658D01*
X017305Y018579D02*
X019263Y018579D01*
X019259Y018501D02*
X017288Y018501D01*
X017245Y018422D02*
X019252Y018422D01*
X019234Y018344D02*
X017153Y018344D01*
X017196Y018372D01*
X017017Y018551D01*
X016838Y018372D01*
X016881Y018344D02*
X016933Y018322D01*
X016989Y018311D01*
X017045Y018311D01*
X017101Y018322D01*
X017153Y018344D01*
X017146Y018422D02*
X017241Y018422D01*
X017163Y018501D02*
X017067Y018501D01*
X017084Y018579D02*
X017045Y018579D01*
X016989Y018579D02*
X016950Y018579D01*
X016967Y018501D02*
X016871Y018501D01*
X016849Y018815D02*
X008913Y018815D01*
X008955Y018773D02*
X008955Y018773D01*
X008834Y018893D02*
X019278Y018893D01*
X019274Y018815D02*
X017185Y018815D01*
X015608Y014419D02*
X019885Y014419D01*
X019885Y014340D02*
X015682Y014340D01*
X015715Y014262D02*
X019885Y014262D01*
X019885Y014183D02*
X015725Y014183D01*
X015720Y014105D02*
X016605Y014105D01*
X016620Y014109D02*
X016584Y014099D01*
X016553Y014081D01*
X016526Y014055D01*
X016508Y014023D01*
X016499Y013987D01*
X016499Y013792D01*
X016795Y013792D01*
X016795Y014109D01*
X016620Y014109D01*
X016510Y014026D02*
X015687Y014026D01*
X015620Y013948D02*
X016499Y013948D01*
X016499Y013869D02*
X015658Y013869D01*
X015737Y013791D02*
X016795Y013791D01*
X016795Y013869D02*
X016875Y013869D01*
X016875Y013948D02*
X016795Y013948D01*
X016795Y014026D02*
X016875Y014026D01*
X016875Y014105D02*
X016795Y014105D01*
X017066Y014105D02*
X017229Y014105D01*
X017168Y014026D02*
X017161Y014026D01*
X016795Y013712D02*
X015815Y013712D01*
X015894Y013634D02*
X016499Y013634D01*
X016499Y013712D02*
X016499Y013517D01*
X016508Y013482D01*
X016526Y013450D01*
X016553Y013424D01*
X016584Y013405D01*
X016620Y013396D01*
X016795Y013396D01*
X016795Y013712D01*
X016499Y013712D01*
X016499Y013555D02*
X015972Y013555D01*
X016051Y013477D02*
X016511Y013477D01*
X016611Y013398D02*
X016129Y013398D01*
X016208Y013320D02*
X017471Y013320D01*
X017549Y013241D02*
X016286Y013241D01*
X016365Y013163D02*
X017628Y013163D01*
X017706Y013084D02*
X016443Y013084D01*
X016522Y013006D02*
X017785Y013006D01*
X017814Y012927D02*
X016600Y012927D01*
X016679Y012849D02*
X017814Y012849D01*
X017814Y012770D02*
X016757Y012770D01*
X016836Y012692D02*
X017814Y012692D01*
X018370Y013241D02*
X019860Y013241D01*
X019885Y013320D02*
X018291Y013320D01*
X018213Y013398D02*
X019885Y013398D01*
X019885Y013477D02*
X018134Y013477D01*
X018056Y013555D02*
X019885Y013555D01*
X019885Y013634D02*
X017977Y013634D01*
X017921Y013712D02*
X019885Y013712D01*
X019885Y013791D02*
X017921Y013791D01*
X017921Y013869D02*
X019885Y013869D01*
X019885Y013948D02*
X017921Y013948D01*
X017921Y014026D02*
X019885Y014026D01*
X019885Y014105D02*
X017860Y014105D01*
X017168Y013477D02*
X017160Y013477D01*
X017231Y013398D02*
X017060Y013398D01*
X016875Y013398D02*
X016795Y013398D01*
X016795Y013477D02*
X016875Y013477D01*
X016875Y013555D02*
X016795Y013555D01*
X016795Y013634D02*
X016875Y013634D01*
X015100Y012877D02*
X014795Y012573D01*
X014795Y011483D01*
X014670Y011607D01*
X013919Y011607D01*
X013895Y011632D01*
X013785Y011677D01*
X013665Y011677D01*
X013555Y011632D01*
X013536Y011613D01*
X013536Y011625D01*
X013508Y011652D01*
X013536Y011680D01*
X013536Y011697D01*
X013670Y011697D01*
X014170Y012197D01*
X014305Y012332D01*
X014305Y012333D01*
X014329Y012357D01*
X014375Y012468D01*
X014375Y012587D01*
X014329Y012697D01*
X014245Y012782D01*
X014135Y012827D01*
X014015Y012827D01*
X013905Y012782D01*
X013900Y012777D01*
X013895Y012782D01*
X013785Y012827D01*
X013665Y012827D01*
X013555Y012782D01*
X013531Y012757D01*
X013530Y012757D01*
X013491Y012719D01*
X013496Y012736D01*
X013496Y012869D01*
X013035Y012869D01*
X013035Y012936D01*
X012968Y012936D01*
X012968Y012869D01*
X012507Y012869D01*
X012507Y012736D01*
X012517Y012701D01*
X012527Y012684D01*
X012467Y012625D01*
X012467Y012180D01*
X012495Y012152D01*
X012467Y012125D01*
X012467Y011680D01*
X012495Y011652D01*
X012467Y011625D01*
X012467Y011180D01*
X012495Y011152D01*
X012467Y011125D01*
X012467Y010680D01*
X012495Y010652D01*
X012467Y010625D01*
X012467Y010180D01*
X012495Y010152D01*
X012467Y010125D01*
X012467Y009680D01*
X012495Y009652D01*
X012467Y009625D01*
X012467Y009180D01*
X012495Y009152D01*
X012467Y009125D01*
X012467Y008680D01*
X012495Y008652D01*
X012467Y008625D01*
X012467Y008180D01*
X012495Y008152D01*
X012467Y008125D01*
X012467Y007680D01*
X012495Y007652D01*
X012467Y007625D01*
X012467Y007180D01*
X012495Y007152D01*
X012467Y007125D01*
X012467Y006680D01*
X012495Y006652D01*
X012467Y006625D01*
X012467Y006180D01*
X012495Y006152D01*
X012467Y006125D01*
X012467Y005680D01*
X012527Y005621D01*
X012517Y005604D01*
X012508Y005570D01*
X012320Y005757D01*
X011830Y005757D01*
X011680Y005607D01*
X011545Y005473D01*
X011545Y004873D01*
X010880Y004207D01*
X010560Y004207D01*
X010560Y005068D01*
X010066Y005562D01*
X010406Y005471D01*
X010844Y005471D01*
X011269Y005584D01*
X011649Y005804D01*
X011959Y006114D01*
X012179Y006495D01*
X012292Y006919D01*
X012292Y007358D01*
X012179Y007782D01*
X011959Y008162D01*
X011649Y008472D01*
X011269Y008692D01*
X010844Y008805D01*
X010406Y008805D01*
X009981Y008692D01*
X009601Y008472D01*
X009355Y008226D01*
X009355Y009023D01*
X008875Y009503D01*
X008783Y009595D01*
X008783Y009630D01*
X008755Y009657D01*
X008783Y009685D01*
X008783Y009760D01*
X009670Y010647D01*
X009805Y010782D01*
X009805Y011533D01*
X009829Y011557D01*
X009875Y011668D01*
X009875Y011787D01*
X009829Y011897D01*
X009745Y011982D01*
X009635Y012027D01*
X009515Y012027D01*
X009405Y011982D01*
X009321Y011897D01*
X009291Y011825D01*
X009285Y011827D01*
X009165Y011827D01*
X009055Y011782D01*
X009050Y011777D01*
X009045Y011782D01*
X008935Y011827D01*
X008815Y011827D01*
X008783Y011814D01*
X008783Y012130D01*
X008677Y012235D01*
X008645Y012235D01*
X008645Y012539D01*
X008713Y012567D01*
X008984Y012567D01*
X008984Y012566D01*
X009089Y012461D01*
X009632Y012461D01*
X009737Y012566D01*
X009737Y012606D01*
X009742Y012587D01*
X009761Y012555D01*
X009787Y012529D01*
X009819Y012510D01*
X009854Y012501D01*
X010030Y012501D01*
X010030Y012817D01*
X010110Y012817D01*
X010110Y012897D01*
X010406Y012897D01*
X010406Y013092D01*
X010397Y013128D01*
X010379Y013160D01*
X010352Y013186D01*
X010321Y013204D01*
X010285Y013214D01*
X010110Y013214D01*
X010110Y012897D01*
X010030Y012897D01*
X010030Y013214D01*
X009854Y013214D01*
X009819Y013204D01*
X009787Y013186D01*
X009761Y013160D01*
X009742Y013128D01*
X009737Y013109D01*
X009737Y013148D01*
X009632Y013254D01*
X009089Y013254D01*
X008984Y013148D01*
X008984Y013147D01*
X008713Y013147D01*
X008593Y013197D01*
X008157Y013197D01*
X008032Y013146D01*
X007937Y013050D01*
X007885Y012925D01*
X007885Y012790D01*
X007937Y012665D01*
X008032Y012569D01*
X008065Y012556D01*
X008065Y012235D01*
X007820Y012235D01*
X007714Y012130D01*
X007714Y011685D01*
X007742Y011657D01*
X007714Y011630D01*
X007714Y011492D01*
X007575Y011353D01*
X007569Y011353D01*
X007508Y011286D01*
X007445Y011223D01*
X007445Y011216D01*
X007308Y011066D01*
X007245Y011003D01*
X007245Y011002D01*
X007221Y010977D01*
X007178Y010874D01*
X007075Y010832D01*
X006991Y010747D01*
X006982Y010727D01*
X006865Y010727D01*
X006855Y010723D01*
X006855Y012032D01*
X008010Y013187D01*
X008023Y013200D01*
X008137Y013200D01*
X008196Y013259D01*
X008213Y013249D01*
X008249Y013240D01*
X008381Y013240D01*
X008381Y013700D01*
X008449Y013700D01*
X008449Y013768D01*
X008381Y013768D01*
X008381Y014228D01*
X008249Y014228D01*
X008213Y014219D01*
X008196Y014209D01*
X008137Y014268D01*
X007693Y014268D01*
X007665Y014241D01*
X007645Y014261D01*
X007645Y014283D01*
X007505Y014423D01*
X007370Y014557D01*
X003920Y014557D01*
X003855Y014623D01*
X003855Y016332D01*
X003955Y016432D01*
X003955Y016533D01*
X003979Y016557D01*
X004025Y016668D01*
X004025Y016787D01*
X004000Y016847D01*
X004070Y016847D01*
X004205Y016982D01*
X004645Y017422D01*
X004645Y017554D01*
X004665Y017574D01*
X004693Y017546D01*
X005137Y017546D01*
X005165Y017574D01*
X005185Y017554D01*
X005185Y017542D01*
X007930Y014797D01*
X012530Y014797D01*
X013495Y013832D01*
X013630Y013697D01*
X014280Y013697D01*
X015100Y012877D01*
X015071Y012849D02*
X013496Y012849D01*
X013496Y012770D02*
X013544Y012770D01*
X013496Y012936D02*
X013496Y013068D01*
X013486Y013104D01*
X013468Y013136D01*
X013442Y013162D01*
X013410Y013180D01*
X013374Y013190D01*
X013035Y013190D01*
X013035Y012936D01*
X013496Y012936D01*
X013496Y013006D02*
X014971Y013006D01*
X014893Y013084D02*
X013492Y013084D01*
X013440Y013163D02*
X014814Y013163D01*
X014736Y013241D02*
X009644Y013241D01*
X009723Y013163D02*
X009764Y013163D01*
X010030Y013163D02*
X010110Y013163D01*
X010110Y013084D02*
X010030Y013084D01*
X010030Y013006D02*
X010110Y013006D01*
X010110Y012927D02*
X010030Y012927D01*
X010110Y012849D02*
X012507Y012849D01*
X012507Y012770D02*
X010406Y012770D01*
X010406Y012817D02*
X010110Y012817D01*
X010110Y012501D01*
X010285Y012501D01*
X010321Y012510D01*
X010352Y012529D01*
X010379Y012555D01*
X010397Y012587D01*
X010406Y012622D01*
X010406Y012817D01*
X010406Y012927D02*
X012968Y012927D01*
X012968Y012936D02*
X012507Y012936D01*
X012507Y013068D01*
X012517Y013104D01*
X012535Y013136D01*
X012561Y013162D01*
X012593Y013180D01*
X012629Y013190D01*
X012968Y013190D01*
X012968Y012936D01*
X013035Y012927D02*
X015050Y012927D01*
X014993Y012770D02*
X014256Y012770D01*
X014332Y012692D02*
X014914Y012692D01*
X014836Y012613D02*
X014364Y012613D01*
X014375Y012535D02*
X014795Y012535D01*
X014795Y012456D02*
X014370Y012456D01*
X014338Y012378D02*
X014795Y012378D01*
X014795Y012299D02*
X014272Y012299D01*
X014194Y012221D02*
X014795Y012221D01*
X014795Y012142D02*
X014115Y012142D01*
X014037Y012064D02*
X014795Y012064D01*
X014795Y011985D02*
X013958Y011985D01*
X013880Y011907D02*
X014795Y011907D01*
X014795Y011828D02*
X013801Y011828D01*
X013723Y011750D02*
X014795Y011750D01*
X014795Y011671D02*
X013799Y011671D01*
X013651Y011671D02*
X013527Y011671D01*
X013919Y011147D02*
X014480Y011147D01*
X014595Y011032D01*
X014595Y009698D01*
X014585Y009702D01*
X014465Y009702D01*
X014355Y009657D01*
X014271Y009572D01*
X014225Y009462D01*
X014225Y009343D01*
X014271Y009232D01*
X014355Y009148D01*
X014395Y009132D01*
X014395Y008702D01*
X014300Y008702D01*
X014190Y008657D01*
X014106Y008572D01*
X014060Y008462D01*
X014060Y008343D01*
X014106Y008232D01*
X014190Y008148D01*
X014195Y008146D01*
X014195Y005923D01*
X013580Y005307D01*
X013496Y005307D01*
X013496Y005369D01*
X013035Y005369D01*
X013035Y005436D01*
X013496Y005436D01*
X013496Y005568D01*
X013486Y005604D01*
X013477Y005621D01*
X013536Y005680D01*
X013536Y005697D01*
X013670Y005697D01*
X013750Y005777D01*
X013785Y005777D01*
X013895Y005823D01*
X013979Y005907D01*
X014025Y006018D01*
X014025Y006137D01*
X013979Y006247D01*
X013974Y006252D01*
X013979Y006257D01*
X014025Y006368D01*
X014025Y006487D01*
X013979Y006597D01*
X013974Y006602D01*
X013979Y006607D01*
X014025Y006718D01*
X014025Y006837D01*
X013979Y006947D01*
X013895Y007032D01*
X013785Y007077D01*
X013750Y007077D01*
X013720Y007107D01*
X013536Y007107D01*
X013536Y007125D01*
X013508Y007152D01*
X013528Y007172D01*
X013536Y007172D01*
X013555Y007153D01*
X013665Y007107D01*
X013785Y007107D01*
X013895Y007153D01*
X013979Y007237D01*
X014025Y007348D01*
X014025Y007467D01*
X013979Y007577D01*
X013899Y007657D01*
X013979Y007737D01*
X014025Y007848D01*
X014025Y007967D01*
X013979Y008077D01*
X013895Y008162D01*
X013887Y008165D01*
X013959Y008237D01*
X014005Y008348D01*
X014005Y008467D01*
X013959Y008577D01*
X013887Y008650D01*
X013895Y008653D01*
X013979Y008737D01*
X014025Y008848D01*
X014025Y008967D01*
X013979Y009077D01*
X013899Y009157D01*
X013979Y009237D01*
X014025Y009348D01*
X014025Y009467D01*
X013979Y009577D01*
X013899Y009657D01*
X013979Y009737D01*
X014025Y009848D01*
X014025Y009967D01*
X013979Y010077D01*
X013899Y010157D01*
X013979Y010237D01*
X014025Y010348D01*
X014025Y010467D01*
X013979Y010577D01*
X013899Y010657D01*
X013979Y010737D01*
X014025Y010848D01*
X014025Y010967D01*
X013979Y011077D01*
X013914Y011142D01*
X013919Y011147D01*
X013935Y011122D02*
X014505Y011122D01*
X014584Y011043D02*
X013993Y011043D01*
X014025Y010965D02*
X014595Y010965D01*
X014595Y010886D02*
X014025Y010886D01*
X014008Y010808D02*
X014595Y010808D01*
X014595Y010729D02*
X013971Y010729D01*
X013906Y010651D02*
X014595Y010651D01*
X014595Y010572D02*
X013981Y010572D01*
X014014Y010494D02*
X014595Y010494D01*
X014595Y010415D02*
X014025Y010415D01*
X014021Y010337D02*
X014595Y010337D01*
X014595Y010258D02*
X013988Y010258D01*
X013922Y010180D02*
X014595Y010180D01*
X014595Y010101D02*
X013955Y010101D01*
X014002Y010023D02*
X014595Y010023D01*
X014595Y009944D02*
X014025Y009944D01*
X014025Y009866D02*
X014595Y009866D01*
X014595Y009787D02*
X014000Y009787D01*
X013951Y009709D02*
X014595Y009709D01*
X014329Y009630D02*
X013926Y009630D01*
X013990Y009552D02*
X014262Y009552D01*
X014230Y009473D02*
X014022Y009473D01*
X014025Y009395D02*
X014225Y009395D01*
X014236Y009316D02*
X014012Y009316D01*
X013980Y009238D02*
X014268Y009238D01*
X014344Y009159D02*
X013901Y009159D01*
X013976Y009081D02*
X014395Y009081D01*
X014395Y009002D02*
X014010Y009002D01*
X014025Y008924D02*
X014395Y008924D01*
X014395Y008845D02*
X014024Y008845D01*
X013992Y008767D02*
X014395Y008767D01*
X014266Y008688D02*
X013930Y008688D01*
X013927Y008610D02*
X014143Y008610D01*
X014089Y008531D02*
X013978Y008531D01*
X014005Y008453D02*
X014060Y008453D01*
X014060Y008374D02*
X014005Y008374D01*
X013984Y008296D02*
X014079Y008296D01*
X014121Y008217D02*
X013939Y008217D01*
X013918Y008139D02*
X014195Y008139D01*
X014195Y008060D02*
X013986Y008060D01*
X014019Y007982D02*
X014195Y007982D01*
X014195Y007903D02*
X014025Y007903D01*
X014016Y007825D02*
X014195Y007825D01*
X014195Y007746D02*
X013983Y007746D01*
X013910Y007668D02*
X014195Y007668D01*
X014195Y007589D02*
X013967Y007589D01*
X014007Y007511D02*
X014195Y007511D01*
X014195Y007432D02*
X014025Y007432D01*
X014025Y007354D02*
X014195Y007354D01*
X014195Y007275D02*
X013995Y007275D01*
X013939Y007197D02*
X014195Y007197D01*
X014195Y007118D02*
X013811Y007118D01*
X013875Y007040D02*
X014195Y007040D01*
X014195Y006961D02*
X013965Y006961D01*
X014006Y006883D02*
X014195Y006883D01*
X014195Y006804D02*
X014025Y006804D01*
X014025Y006726D02*
X014195Y006726D01*
X014195Y006647D02*
X013996Y006647D01*
X013991Y006569D02*
X014195Y006569D01*
X014195Y006490D02*
X014024Y006490D01*
X014025Y006412D02*
X014195Y006412D01*
X014195Y006333D02*
X014011Y006333D01*
X013977Y006255D02*
X014195Y006255D01*
X014195Y006176D02*
X014009Y006176D01*
X014025Y006098D02*
X014195Y006098D01*
X014195Y006019D02*
X014025Y006019D01*
X013993Y005941D02*
X014195Y005941D01*
X014135Y005862D02*
X013934Y005862D01*
X014056Y005784D02*
X013800Y005784D01*
X013678Y005705D02*
X013978Y005705D01*
X013899Y005627D02*
X013483Y005627D01*
X013496Y005548D02*
X013821Y005548D01*
X013742Y005470D02*
X013496Y005470D01*
X013496Y005313D02*
X013585Y005313D01*
X013664Y005391D02*
X013035Y005391D01*
X012521Y005627D02*
X012451Y005627D01*
X012467Y005705D02*
X012372Y005705D01*
X012467Y005784D02*
X011614Y005784D01*
X011707Y005862D02*
X012467Y005862D01*
X012467Y005941D02*
X011786Y005941D01*
X011864Y006019D02*
X012467Y006019D01*
X012467Y006098D02*
X011943Y006098D01*
X011995Y006176D02*
X012471Y006176D01*
X012467Y006255D02*
X012040Y006255D01*
X012086Y006333D02*
X012467Y006333D01*
X012467Y006412D02*
X012131Y006412D01*
X012176Y006490D02*
X012467Y006490D01*
X012467Y006569D02*
X012198Y006569D01*
X012220Y006647D02*
X012490Y006647D01*
X012467Y006726D02*
X012241Y006726D01*
X012262Y006804D02*
X012467Y006804D01*
X012467Y006883D02*
X012283Y006883D01*
X012292Y006961D02*
X012467Y006961D01*
X012467Y007040D02*
X012292Y007040D01*
X012292Y007118D02*
X012467Y007118D01*
X012467Y007197D02*
X012292Y007197D01*
X012292Y007275D02*
X012467Y007275D01*
X012467Y007354D02*
X012292Y007354D01*
X012272Y007432D02*
X012467Y007432D01*
X012467Y007511D02*
X012251Y007511D01*
X012230Y007589D02*
X012467Y007589D01*
X012480Y007668D02*
X012209Y007668D01*
X012188Y007746D02*
X012467Y007746D01*
X012467Y007825D02*
X012154Y007825D01*
X012108Y007903D02*
X012467Y007903D01*
X012467Y007982D02*
X012063Y007982D01*
X012018Y008060D02*
X012467Y008060D01*
X012482Y008139D02*
X011972Y008139D01*
X011903Y008217D02*
X012467Y008217D01*
X012467Y008296D02*
X011825Y008296D01*
X011746Y008374D02*
X012467Y008374D01*
X012467Y008453D02*
X011668Y008453D01*
X011546Y008531D02*
X012467Y008531D01*
X012467Y008610D02*
X011410Y008610D01*
X011274Y008688D02*
X012467Y008688D01*
X012467Y008767D02*
X010987Y008767D01*
X010263Y008767D02*
X009355Y008767D01*
X009355Y008845D02*
X012467Y008845D01*
X012467Y008924D02*
X009355Y008924D01*
X009355Y009002D02*
X012467Y009002D01*
X012467Y009081D02*
X009297Y009081D01*
X009218Y009159D02*
X012488Y009159D01*
X012467Y009238D02*
X009140Y009238D01*
X009061Y009316D02*
X012467Y009316D01*
X012467Y009395D02*
X008983Y009395D01*
X008904Y009473D02*
X012467Y009473D01*
X012467Y009552D02*
X008826Y009552D01*
X008782Y009630D02*
X012473Y009630D01*
X012467Y009709D02*
X008783Y009709D01*
X008810Y009787D02*
X012467Y009787D01*
X012467Y009866D02*
X008889Y009866D01*
X008967Y009944D02*
X012467Y009944D01*
X012467Y010023D02*
X009046Y010023D01*
X009124Y010101D02*
X012467Y010101D01*
X012468Y010180D02*
X009203Y010180D01*
X009281Y010258D02*
X012467Y010258D01*
X012467Y010337D02*
X009360Y010337D01*
X009438Y010415D02*
X012467Y010415D01*
X012467Y010494D02*
X009517Y010494D01*
X009595Y010572D02*
X012467Y010572D01*
X012494Y010651D02*
X009674Y010651D01*
X009752Y010729D02*
X012467Y010729D01*
X012467Y010808D02*
X009805Y010808D01*
X009805Y010886D02*
X012467Y010886D01*
X012467Y010965D02*
X009805Y010965D01*
X009805Y011043D02*
X012467Y011043D01*
X012467Y011122D02*
X009805Y011122D01*
X009805Y011200D02*
X012467Y011200D01*
X012467Y011279D02*
X009805Y011279D01*
X009805Y011357D02*
X012467Y011357D01*
X012467Y011436D02*
X009805Y011436D01*
X009805Y011514D02*
X012467Y011514D01*
X012467Y011593D02*
X009844Y011593D01*
X009875Y011671D02*
X012476Y011671D01*
X012467Y011750D02*
X009875Y011750D01*
X009858Y011828D02*
X012467Y011828D01*
X012467Y011907D02*
X009820Y011907D01*
X009736Y011985D02*
X012467Y011985D01*
X012467Y012064D02*
X008783Y012064D01*
X008783Y011985D02*
X009414Y011985D01*
X009330Y011907D02*
X008783Y011907D01*
X008783Y011828D02*
X009292Y011828D01*
X008770Y012142D02*
X012485Y012142D01*
X012467Y012221D02*
X008691Y012221D01*
X008645Y012299D02*
X012467Y012299D01*
X012467Y012378D02*
X008645Y012378D01*
X008645Y012456D02*
X012467Y012456D01*
X012467Y012535D02*
X010359Y012535D01*
X010404Y012613D02*
X012467Y012613D01*
X012522Y012692D02*
X010406Y012692D01*
X010110Y012692D02*
X010030Y012692D01*
X010030Y012770D02*
X010110Y012770D01*
X010110Y012613D02*
X010030Y012613D01*
X010030Y012535D02*
X010110Y012535D01*
X009781Y012535D02*
X009706Y012535D01*
X009015Y012535D02*
X008645Y012535D01*
X008676Y013163D02*
X008998Y013163D01*
X009076Y013241D02*
X008588Y013241D01*
X008581Y013240D02*
X008617Y013249D01*
X008649Y013268D01*
X008675Y013294D01*
X008693Y013326D01*
X008703Y013361D01*
X008703Y013700D01*
X008449Y013700D01*
X008449Y013240D01*
X008581Y013240D01*
X008449Y013241D02*
X008381Y013241D01*
X008381Y013320D02*
X008449Y013320D01*
X008449Y013398D02*
X008381Y013398D01*
X008381Y013477D02*
X008449Y013477D01*
X008449Y013555D02*
X008381Y013555D01*
X008381Y013634D02*
X008449Y013634D01*
X008449Y013712D02*
X013615Y013712D01*
X013536Y013791D02*
X008703Y013791D01*
X008703Y013768D02*
X008703Y014107D01*
X008693Y014142D01*
X008675Y014174D01*
X008649Y014200D01*
X008617Y014219D01*
X008581Y014228D01*
X008449Y014228D01*
X008449Y013768D01*
X008703Y013768D01*
X008703Y013869D02*
X013458Y013869D01*
X013379Y013948D02*
X008703Y013948D01*
X008703Y014026D02*
X013301Y014026D01*
X013222Y014105D02*
X008703Y014105D01*
X008666Y014183D02*
X013144Y014183D01*
X013065Y014262D02*
X008144Y014262D01*
X008381Y014183D02*
X008449Y014183D01*
X008449Y014105D02*
X008381Y014105D01*
X008381Y014026D02*
X008449Y014026D01*
X008449Y013948D02*
X008381Y013948D01*
X008381Y013869D02*
X008449Y013869D01*
X008449Y013791D02*
X008381Y013791D01*
X008703Y013634D02*
X014343Y013634D01*
X014422Y013555D02*
X008703Y013555D01*
X008703Y013477D02*
X014500Y013477D01*
X014579Y013398D02*
X008703Y013398D01*
X008690Y013320D02*
X014657Y013320D01*
X014685Y011593D02*
X014795Y011593D01*
X014795Y011514D02*
X014763Y011514D01*
X013035Y013006D02*
X012968Y013006D01*
X012968Y013084D02*
X013035Y013084D01*
X013035Y013163D02*
X012968Y013163D01*
X012563Y013163D02*
X010376Y013163D01*
X010406Y013084D02*
X012512Y013084D01*
X012507Y013006D02*
X010406Y013006D01*
X012594Y014733D02*
X003855Y014733D01*
X003855Y014811D02*
X007916Y014811D01*
X007837Y014890D02*
X003855Y014890D01*
X003855Y014968D02*
X007759Y014968D01*
X007680Y015047D02*
X003855Y015047D01*
X003855Y015125D02*
X007602Y015125D01*
X007523Y015204D02*
X003855Y015204D01*
X003855Y015282D02*
X007445Y015282D01*
X007366Y015361D02*
X003855Y015361D01*
X003855Y015439D02*
X007288Y015439D01*
X007209Y015518D02*
X003855Y015518D01*
X003855Y015596D02*
X007131Y015596D01*
X007052Y015675D02*
X003855Y015675D01*
X003855Y015753D02*
X006974Y015753D01*
X006895Y015832D02*
X003855Y015832D01*
X003855Y015910D02*
X006817Y015910D01*
X006738Y015989D02*
X003855Y015989D01*
X003855Y016067D02*
X006660Y016067D01*
X006581Y016146D02*
X003855Y016146D01*
X003855Y016224D02*
X006503Y016224D01*
X006424Y016303D02*
X003855Y016303D01*
X003904Y016381D02*
X006346Y016381D01*
X006267Y016460D02*
X003955Y016460D01*
X003960Y016538D02*
X006189Y016538D01*
X006110Y016617D02*
X004004Y016617D01*
X004025Y016695D02*
X006032Y016695D01*
X005953Y016774D02*
X004025Y016774D01*
X004075Y016852D02*
X005875Y016852D01*
X005796Y016931D02*
X004154Y016931D01*
X004232Y017009D02*
X005718Y017009D01*
X005639Y017088D02*
X004311Y017088D01*
X004389Y017166D02*
X005561Y017166D01*
X005482Y017245D02*
X004468Y017245D01*
X004546Y017323D02*
X005404Y017323D01*
X005325Y017402D02*
X004625Y017402D01*
X004645Y017480D02*
X005247Y017480D01*
X005180Y017559D02*
X005150Y017559D01*
X004680Y017559D02*
X004650Y017559D01*
X002395Y016460D02*
X002372Y016460D01*
X002372Y016381D02*
X002395Y016381D01*
X002395Y016303D02*
X002354Y016303D01*
X003855Y014654D02*
X012673Y014654D01*
X012751Y014576D02*
X003902Y014576D01*
X005328Y013200D02*
X005637Y013200D01*
X005665Y013227D01*
X005693Y013200D01*
X006137Y013200D01*
X006165Y013227D01*
X006193Y013200D01*
X006195Y013200D01*
X006195Y010723D01*
X006185Y010727D01*
X006065Y010727D01*
X005956Y010682D01*
X005929Y010747D01*
X005845Y010832D01*
X005735Y010877D01*
X005615Y010877D01*
X005555Y010852D01*
X005555Y012973D01*
X005420Y013107D01*
X005328Y013200D01*
X005365Y013163D02*
X006195Y013163D01*
X006195Y013084D02*
X005443Y013084D01*
X005522Y013006D02*
X006195Y013006D01*
X006195Y012927D02*
X005555Y012927D01*
X005555Y012849D02*
X006195Y012849D01*
X006195Y012770D02*
X005555Y012770D01*
X005555Y012692D02*
X006195Y012692D01*
X006195Y012613D02*
X005555Y012613D01*
X005555Y012535D02*
X006195Y012535D01*
X006195Y012456D02*
X005555Y012456D01*
X005555Y012378D02*
X006195Y012378D01*
X006195Y012299D02*
X005555Y012299D01*
X005555Y012221D02*
X006195Y012221D01*
X006195Y012142D02*
X005555Y012142D01*
X005555Y012064D02*
X006195Y012064D01*
X006195Y011985D02*
X005555Y011985D01*
X005555Y011907D02*
X006195Y011907D01*
X006195Y011828D02*
X005555Y011828D01*
X005555Y011750D02*
X006195Y011750D01*
X006195Y011671D02*
X005555Y011671D01*
X005555Y011593D02*
X006195Y011593D01*
X006195Y011514D02*
X005555Y011514D01*
X005555Y011436D02*
X006195Y011436D01*
X006195Y011357D02*
X005555Y011357D01*
X005555Y011279D02*
X006195Y011279D01*
X006195Y011200D02*
X005555Y011200D01*
X005555Y011122D02*
X006195Y011122D01*
X006195Y011043D02*
X005555Y011043D01*
X005555Y010965D02*
X006195Y010965D01*
X006195Y010886D02*
X005555Y010886D01*
X005869Y010808D02*
X006195Y010808D01*
X006195Y010729D02*
X005937Y010729D01*
X006855Y010729D02*
X006983Y010729D01*
X007051Y010808D02*
X006855Y010808D01*
X006855Y010886D02*
X007183Y010886D01*
X007216Y010965D02*
X006855Y010965D01*
X006855Y011043D02*
X007286Y011043D01*
X007359Y011122D02*
X006855Y011122D01*
X006855Y011200D02*
X007431Y011200D01*
X007501Y011279D02*
X006855Y011279D01*
X006855Y011357D02*
X007580Y011357D01*
X007658Y011436D02*
X006855Y011436D01*
X006855Y011514D02*
X007714Y011514D01*
X007714Y011593D02*
X006855Y011593D01*
X006855Y011671D02*
X007728Y011671D01*
X007714Y011750D02*
X006855Y011750D01*
X006855Y011828D02*
X007714Y011828D01*
X007714Y011907D02*
X006855Y011907D01*
X006855Y011985D02*
X007714Y011985D01*
X007714Y012064D02*
X006887Y012064D01*
X006965Y012142D02*
X007727Y012142D01*
X007805Y012221D02*
X007044Y012221D01*
X007122Y012299D02*
X008065Y012299D01*
X008065Y012378D02*
X007201Y012378D01*
X007279Y012456D02*
X008065Y012456D01*
X008065Y012535D02*
X007358Y012535D01*
X007436Y012613D02*
X007988Y012613D01*
X007926Y012692D02*
X007515Y012692D01*
X007593Y012770D02*
X007893Y012770D01*
X007885Y012849D02*
X007672Y012849D01*
X007750Y012927D02*
X007886Y012927D01*
X007918Y013006D02*
X007829Y013006D01*
X007907Y013084D02*
X007971Y013084D01*
X007986Y013163D02*
X008074Y013163D01*
X008179Y013241D02*
X008242Y013241D01*
X007686Y014262D02*
X007645Y014262D01*
X007587Y014340D02*
X012987Y014340D01*
X012908Y014419D02*
X007509Y014419D01*
X007430Y014497D02*
X012830Y014497D01*
X010178Y016460D02*
X009168Y016460D01*
X009155Y016538D02*
X010099Y016538D01*
X010036Y016617D02*
X009155Y016617D01*
X009155Y016695D02*
X010003Y016695D01*
X009971Y016774D02*
X009155Y016774D01*
X009155Y016852D02*
X009942Y016852D01*
X009942Y016931D02*
X009155Y016931D01*
X009155Y017009D02*
X009942Y017009D01*
X009942Y017088D02*
X009155Y017088D01*
X009155Y017166D02*
X009964Y017166D01*
X009996Y017245D02*
X009155Y017245D01*
X009155Y017323D02*
X010029Y017323D01*
X010083Y017402D02*
X009155Y017402D01*
X009155Y017480D02*
X010161Y017480D01*
X010242Y017559D02*
X009155Y017559D01*
X009155Y017637D02*
X010431Y017637D01*
X003528Y012299D02*
X003521Y012299D01*
X003459Y012221D02*
X003440Y012221D01*
X003110Y012221D02*
X003090Y012221D01*
X002760Y012221D02*
X002740Y012221D01*
X002410Y012221D02*
X002390Y012221D01*
X007755Y005107D02*
X007792Y005107D01*
X007820Y005080D01*
X008677Y005080D01*
X008783Y005185D01*
X008783Y005630D01*
X008755Y005657D01*
X008783Y005685D01*
X008783Y006130D01*
X008755Y006157D01*
X008783Y006185D01*
X008783Y006194D01*
X010100Y004877D01*
X010100Y003853D01*
X010058Y003853D01*
X010034Y003830D01*
X010011Y003853D01*
X009824Y003853D01*
X009305Y004373D01*
X009170Y004507D01*
X008315Y004507D01*
X007755Y005028D01*
X007755Y005107D01*
X007755Y005077D02*
X009900Y005077D01*
X009978Y004999D02*
X007786Y004999D01*
X007871Y004920D02*
X010057Y004920D01*
X010100Y004842D02*
X007955Y004842D01*
X008040Y004763D02*
X010100Y004763D01*
X010100Y004685D02*
X008124Y004685D01*
X008209Y004606D02*
X010100Y004606D01*
X010100Y004528D02*
X008293Y004528D01*
X008753Y005156D02*
X009821Y005156D01*
X009743Y005234D02*
X008783Y005234D01*
X008783Y005313D02*
X009664Y005313D01*
X009586Y005391D02*
X008783Y005391D01*
X008783Y005470D02*
X009507Y005470D01*
X009429Y005548D02*
X008783Y005548D01*
X008783Y005627D02*
X009350Y005627D01*
X009272Y005705D02*
X008783Y005705D01*
X008783Y005784D02*
X009193Y005784D01*
X009115Y005862D02*
X008783Y005862D01*
X008783Y005941D02*
X009036Y005941D01*
X008958Y006019D02*
X008783Y006019D01*
X008783Y006098D02*
X008879Y006098D01*
X008801Y006176D02*
X008774Y006176D01*
X010079Y005548D02*
X010116Y005548D01*
X010158Y005470D02*
X011545Y005470D01*
X011545Y005391D02*
X010236Y005391D01*
X010315Y005313D02*
X011545Y005313D01*
X011545Y005234D02*
X010393Y005234D01*
X010472Y005156D02*
X011545Y005156D01*
X011545Y005077D02*
X010550Y005077D01*
X010560Y004999D02*
X011545Y004999D01*
X011545Y004920D02*
X010560Y004920D01*
X010560Y004842D02*
X011514Y004842D01*
X011436Y004763D02*
X010560Y004763D01*
X010560Y004685D02*
X011357Y004685D01*
X011279Y004606D02*
X010560Y004606D01*
X010560Y004528D02*
X011200Y004528D01*
X011122Y004449D02*
X010560Y004449D01*
X010560Y004371D02*
X011043Y004371D01*
X010965Y004292D02*
X010560Y004292D01*
X010560Y004214D02*
X010886Y004214D01*
X010100Y004214D02*
X009464Y004214D01*
X009542Y004135D02*
X010100Y004135D01*
X010100Y004057D02*
X009621Y004057D01*
X009699Y003978D02*
X010100Y003978D01*
X010100Y003900D02*
X009778Y003900D01*
X010100Y004292D02*
X009385Y004292D01*
X009307Y004371D02*
X010100Y004371D01*
X010100Y004449D02*
X009228Y004449D01*
X009305Y004373D02*
X009305Y004373D01*
X011134Y005548D02*
X011621Y005548D01*
X011680Y005607D02*
X011680Y005607D01*
X011699Y005627D02*
X011342Y005627D01*
X011478Y005705D02*
X011778Y005705D01*
X013536Y007118D02*
X013639Y007118D01*
X009976Y008688D02*
X009355Y008688D01*
X009355Y008610D02*
X009840Y008610D01*
X009704Y008531D02*
X009355Y008531D01*
X009355Y008453D02*
X009582Y008453D01*
X009504Y008374D02*
X009355Y008374D01*
X009355Y008296D02*
X009425Y008296D01*
X017655Y005102D02*
X017655Y004423D01*
X018224Y003853D01*
X018278Y003853D01*
X018302Y003830D01*
X018326Y003853D01*
X018869Y003853D01*
X018893Y003830D01*
X018917Y003853D01*
X019459Y003853D01*
X019516Y003797D01*
X019528Y003804D01*
X019563Y003813D01*
X019837Y003813D01*
X019837Y003327D01*
X019917Y003327D01*
X019917Y003813D01*
X020110Y003813D01*
X020110Y004530D01*
X020150Y004628D01*
X020405Y004882D01*
X020405Y012879D01*
X020222Y012696D01*
X019948Y012582D01*
X018883Y012582D01*
X018883Y012180D01*
X018855Y012152D01*
X018883Y012125D01*
X018883Y011680D01*
X018855Y011652D01*
X018883Y011625D01*
X018883Y011180D01*
X018855Y011152D01*
X018883Y011125D01*
X018883Y010680D01*
X018855Y010652D01*
X018883Y010625D01*
X018883Y010180D01*
X018855Y010152D01*
X018883Y010125D01*
X018883Y009680D01*
X018855Y009652D01*
X018883Y009625D01*
X018883Y009180D01*
X018855Y009152D01*
X018883Y009125D01*
X018883Y008680D01*
X018855Y008652D01*
X018883Y008625D01*
X018883Y008180D01*
X018855Y008152D01*
X018883Y008125D01*
X018883Y007680D01*
X018855Y007652D01*
X018883Y007625D01*
X018883Y007180D01*
X018855Y007152D01*
X018883Y007125D01*
X018883Y006680D01*
X018855Y006652D01*
X018883Y006625D01*
X018883Y006180D01*
X018855Y006152D01*
X018883Y006125D01*
X018883Y005680D01*
X018855Y005652D01*
X018883Y005625D01*
X018883Y005180D01*
X018777Y005075D01*
X017920Y005075D01*
X017853Y005141D01*
X017760Y005102D01*
X017655Y005102D01*
X017655Y005077D02*
X017917Y005077D01*
X017655Y004999D02*
X020405Y004999D01*
X020405Y005077D02*
X018780Y005077D01*
X018858Y005156D02*
X020405Y005156D01*
X020405Y005234D02*
X018883Y005234D01*
X018883Y005313D02*
X020405Y005313D01*
X020405Y005391D02*
X018883Y005391D01*
X018883Y005470D02*
X020405Y005470D01*
X020405Y005548D02*
X018883Y005548D01*
X018880Y005627D02*
X020405Y005627D01*
X020405Y005705D02*
X018883Y005705D01*
X018883Y005784D02*
X020405Y005784D01*
X020405Y005862D02*
X018883Y005862D01*
X018883Y005941D02*
X020405Y005941D01*
X020405Y006019D02*
X018883Y006019D01*
X018883Y006098D02*
X020405Y006098D01*
X020405Y006176D02*
X018879Y006176D01*
X018883Y006255D02*
X020405Y006255D01*
X020405Y006333D02*
X018883Y006333D01*
X018883Y006412D02*
X020405Y006412D01*
X020405Y006490D02*
X018883Y006490D01*
X018883Y006569D02*
X020405Y006569D01*
X020405Y006647D02*
X018860Y006647D01*
X018883Y006726D02*
X020405Y006726D01*
X020405Y006804D02*
X018883Y006804D01*
X018883Y006883D02*
X020405Y006883D01*
X020405Y006961D02*
X018883Y006961D01*
X018883Y007040D02*
X020405Y007040D01*
X020405Y007118D02*
X018883Y007118D01*
X018883Y007197D02*
X020405Y007197D01*
X020405Y007275D02*
X018883Y007275D01*
X018883Y007354D02*
X020405Y007354D01*
X020405Y007432D02*
X018883Y007432D01*
X018883Y007511D02*
X020405Y007511D01*
X020405Y007589D02*
X018883Y007589D01*
X018870Y007668D02*
X020405Y007668D01*
X020405Y007746D02*
X018883Y007746D01*
X018883Y007825D02*
X020405Y007825D01*
X020405Y007903D02*
X018883Y007903D01*
X018883Y007982D02*
X020405Y007982D01*
X020405Y008060D02*
X018883Y008060D01*
X018868Y008139D02*
X020405Y008139D01*
X020405Y008217D02*
X018883Y008217D01*
X018883Y008296D02*
X020405Y008296D01*
X020405Y008374D02*
X018883Y008374D01*
X018883Y008453D02*
X020405Y008453D01*
X020405Y008531D02*
X018883Y008531D01*
X018883Y008610D02*
X020405Y008610D01*
X020405Y008688D02*
X018883Y008688D01*
X018883Y008767D02*
X020405Y008767D01*
X020405Y008845D02*
X018883Y008845D01*
X018883Y008924D02*
X020405Y008924D01*
X020405Y009002D02*
X018883Y009002D01*
X018883Y009081D02*
X020405Y009081D01*
X020405Y009159D02*
X018862Y009159D01*
X018883Y009238D02*
X020405Y009238D01*
X020405Y009316D02*
X018883Y009316D01*
X018883Y009395D02*
X020405Y009395D01*
X020405Y009473D02*
X018883Y009473D01*
X018883Y009552D02*
X020405Y009552D01*
X020405Y009630D02*
X018877Y009630D01*
X018883Y009709D02*
X020405Y009709D01*
X020405Y009787D02*
X018883Y009787D01*
X018883Y009866D02*
X020405Y009866D01*
X020405Y009944D02*
X018883Y009944D01*
X018883Y010023D02*
X020405Y010023D01*
X020405Y010101D02*
X018883Y010101D01*
X018882Y010180D02*
X020405Y010180D01*
X020405Y010258D02*
X018883Y010258D01*
X018883Y010337D02*
X020405Y010337D01*
X020405Y010415D02*
X018883Y010415D01*
X018883Y010494D02*
X020405Y010494D01*
X020405Y010572D02*
X018883Y010572D01*
X018856Y010651D02*
X020405Y010651D01*
X020405Y010729D02*
X018883Y010729D01*
X018883Y010808D02*
X020405Y010808D01*
X020405Y010886D02*
X018883Y010886D01*
X018883Y010965D02*
X020405Y010965D01*
X020405Y011043D02*
X018883Y011043D01*
X018883Y011122D02*
X020405Y011122D01*
X020405Y011200D02*
X018883Y011200D01*
X018883Y011279D02*
X020405Y011279D01*
X020405Y011357D02*
X018883Y011357D01*
X018883Y011436D02*
X020405Y011436D01*
X020405Y011514D02*
X018883Y011514D01*
X018883Y011593D02*
X020405Y011593D01*
X020405Y011671D02*
X018874Y011671D01*
X018883Y011750D02*
X020405Y011750D01*
X020405Y011828D02*
X018883Y011828D01*
X018883Y011907D02*
X020405Y011907D01*
X020405Y011985D02*
X018883Y011985D01*
X018883Y012064D02*
X020405Y012064D01*
X020405Y012142D02*
X018865Y012142D01*
X018883Y012221D02*
X020405Y012221D01*
X020405Y012299D02*
X018883Y012299D01*
X018883Y012378D02*
X020405Y012378D01*
X020405Y012456D02*
X018883Y012456D01*
X018883Y012535D02*
X020405Y012535D01*
X020405Y012613D02*
X020023Y012613D01*
X020213Y012692D02*
X020405Y012692D01*
X020405Y012770D02*
X020297Y012770D01*
X020375Y012849D02*
X020405Y012849D01*
X020405Y004920D02*
X017655Y004920D01*
X017655Y004842D02*
X020365Y004842D01*
X020286Y004763D02*
X017655Y004763D01*
X017655Y004685D02*
X020208Y004685D01*
X020142Y004606D02*
X017655Y004606D01*
X017655Y004528D02*
X020110Y004528D01*
X020110Y004449D02*
X017655Y004449D01*
X017707Y004371D02*
X020110Y004371D01*
X020110Y004292D02*
X017785Y004292D01*
X017864Y004214D02*
X020110Y004214D01*
X020110Y004135D02*
X017942Y004135D01*
X018021Y004057D02*
X020110Y004057D01*
X020110Y003978D02*
X018099Y003978D01*
X018178Y003900D02*
X020110Y003900D01*
X020110Y003821D02*
X019491Y003821D01*
X019837Y003743D02*
X019917Y003743D01*
X019917Y003664D02*
X019837Y003664D01*
X019837Y003586D02*
X019917Y003586D01*
X019917Y003507D02*
X019837Y003507D01*
X019837Y003429D02*
X019917Y003429D01*
X019917Y003350D02*
X019837Y003350D01*
D25*
X019877Y002571D02*
X019877Y004579D01*
X020225Y013327D02*
X020225Y019427D01*
X020214Y019656D01*
X020192Y019885D01*
X020158Y020112D01*
X020115Y020338D01*
X020060Y020561D01*
X019995Y020781D01*
X019919Y020998D01*
X019833Y021211D01*
X019737Y021420D01*
X019632Y021624D01*
X019516Y021823D01*
X019392Y022016D01*
X019258Y022203D01*
X019116Y022383D01*
X018965Y022556D01*
X018806Y022722D01*
X018639Y022881D01*
X018465Y023031D01*
X018285Y023172D01*
X018097Y023305D01*
X017904Y023429D01*
X017704Y023543D01*
X017500Y023648D01*
X017291Y023743D01*
X017077Y023828D01*
X016860Y023903D01*
X016640Y023967D01*
X016416Y024021D01*
X016190Y024064D01*
X015963Y024096D01*
X015734Y024117D01*
X015505Y024128D01*
X015275Y024127D01*
X002225Y024127D01*
X002169Y024125D01*
X002114Y024120D01*
X002059Y024111D01*
X002004Y024098D01*
X001951Y024082D01*
X001899Y024062D01*
X001848Y024039D01*
X001799Y024013D01*
X001752Y023983D01*
X001706Y023951D01*
X001663Y023916D01*
X001623Y023877D01*
X001584Y023837D01*
X001549Y023794D01*
X001517Y023748D01*
X001487Y023701D01*
X001461Y023652D01*
X001438Y023601D01*
X001418Y023549D01*
X001402Y023496D01*
X001389Y023441D01*
X001380Y023386D01*
X001375Y023331D01*
X001373Y023275D01*
X001373Y019427D01*
X001373Y018081D01*
X001373Y017427D01*
X001373Y002571D01*
X008225Y012857D02*
X008525Y012857D01*
X002525Y020447D02*
X002225Y020447D01*
D26*
X004125Y019927D02*
X004145Y019947D01*
X005295Y019947D01*
X005295Y020447D02*
X004675Y020447D01*
X005125Y018677D02*
X004915Y018467D01*
X004915Y018081D01*
X005415Y018081D02*
X005415Y017637D01*
X008025Y015027D01*
X012625Y015027D01*
X013725Y013927D01*
X014375Y013927D01*
X015425Y012877D01*
X015025Y012477D01*
X015025Y005527D01*
X013975Y004477D01*
X012975Y004477D01*
X012101Y003604D01*
X012101Y003481D01*
X012101Y002610D01*
X011511Y002610D02*
X011511Y003481D01*
X011511Y003613D01*
X012575Y004677D01*
X013875Y004677D01*
X014825Y005627D01*
X014825Y011127D01*
X014575Y011377D01*
X013725Y011377D01*
X013127Y011377D01*
X013077Y011427D01*
X013002Y011402D01*
X013002Y010902D02*
X013770Y010902D01*
X013725Y010907D01*
X013725Y010407D02*
X013720Y010402D01*
X013002Y010402D01*
X013002Y009902D02*
X013720Y009902D01*
X013725Y009907D01*
X013725Y009407D02*
X013720Y009402D01*
X013002Y009402D01*
X013002Y008902D02*
X013720Y008902D01*
X013725Y008907D01*
X013705Y008407D02*
X013720Y008402D01*
X013002Y008402D01*
X013002Y007902D02*
X013720Y007902D01*
X013725Y007907D01*
X013725Y007407D02*
X013720Y007402D01*
X013002Y007402D01*
X013002Y006902D02*
X013200Y006902D01*
X013225Y006877D01*
X013625Y006877D01*
X013725Y006777D01*
X013725Y006427D02*
X013077Y006427D01*
X013002Y006402D01*
X013077Y005927D02*
X013002Y005902D01*
X013077Y005927D02*
X013575Y005927D01*
X013725Y006077D01*
X014425Y005827D02*
X014425Y008277D01*
X014360Y008402D01*
X014625Y009302D02*
X014525Y009402D01*
X014625Y009302D02*
X014625Y005727D01*
X013775Y004877D01*
X012175Y004877D01*
X012125Y004827D01*
X012125Y005197D01*
X012075Y005247D01*
X012375Y005177D02*
X012375Y005377D01*
X012225Y005527D01*
X011925Y005527D01*
X011775Y005377D01*
X011775Y004777D01*
X010975Y003977D01*
X010380Y003977D01*
X010330Y003927D01*
X010330Y004973D01*
X008925Y006377D01*
X008925Y007527D01*
X008825Y007677D01*
X008825Y008277D01*
X008695Y008407D01*
X008248Y008407D01*
X008248Y007907D02*
X007795Y007907D01*
X007675Y008027D01*
X007675Y008777D01*
X006425Y010027D01*
X006425Y013774D01*
X006415Y013734D01*
X007275Y014327D02*
X003825Y014327D01*
X003625Y014527D01*
X003625Y016427D01*
X003725Y016527D01*
X003725Y016727D01*
X003725Y017077D02*
X003975Y017077D01*
X004415Y017517D01*
X004415Y018081D01*
X003915Y018081D02*
X003915Y017617D01*
X003715Y017417D01*
X003565Y017417D01*
X003425Y017277D01*
X003425Y015477D01*
X002575Y014627D01*
X002575Y013277D01*
X003275Y012577D01*
X003275Y012477D01*
X002925Y012477D02*
X002925Y012627D01*
X002375Y013177D01*
X002375Y014727D01*
X003225Y015577D01*
X003225Y017427D01*
X003415Y017617D01*
X003415Y018081D01*
X002925Y017077D02*
X002725Y017077D01*
X002625Y016977D01*
X002625Y015577D01*
X001975Y014927D01*
X001975Y012977D01*
X002225Y012727D01*
X002225Y012477D01*
X002575Y012477D02*
X002575Y012677D01*
X002175Y013077D01*
X002175Y014827D01*
X003025Y015677D01*
X003025Y016627D01*
X002925Y016727D01*
X005125Y018677D02*
X008725Y018677D01*
X008925Y018477D01*
X008925Y016377D01*
X009075Y016227D01*
X013225Y016227D01*
X013975Y015477D01*
X014425Y015477D01*
X014775Y015127D01*
X014775Y014727D01*
X015325Y014177D01*
X015425Y014177D01*
X014475Y014127D02*
X013825Y014127D01*
X012725Y015227D01*
X008125Y015227D01*
X005915Y017437D01*
X005915Y018081D01*
X006415Y018081D02*
X006415Y017237D01*
X008225Y015427D01*
X012825Y015427D01*
X013825Y014427D01*
X014075Y014427D01*
X014375Y014527D02*
X014375Y014927D01*
X014225Y015077D01*
X013775Y015077D01*
X013025Y015827D01*
X008425Y015827D01*
X007415Y016837D01*
X007415Y018081D01*
X006915Y018081D02*
X006915Y017037D01*
X008325Y015627D01*
X012925Y015627D01*
X013775Y014777D01*
X014075Y014777D01*
X014375Y014527D02*
X017000Y011902D01*
X018348Y011902D01*
X018348Y011402D02*
X017200Y011402D01*
X014475Y014127D01*
X014575Y014627D02*
X014575Y015027D01*
X014325Y015277D01*
X013875Y015277D01*
X013125Y016027D01*
X008525Y016027D01*
X007915Y016637D01*
X007915Y018081D01*
X007275Y014327D02*
X007415Y014187D01*
X007415Y013734D01*
X007915Y013734D02*
X007915Y013417D01*
X006625Y012127D01*
X006625Y010127D01*
X007845Y008907D01*
X008248Y008907D01*
X008625Y008907D01*
X009125Y008927D02*
X008645Y009407D01*
X008248Y009407D01*
X008248Y009907D02*
X007145Y009907D01*
X006925Y010127D01*
X006925Y010427D01*
X007245Y010507D02*
X007245Y010577D01*
X007245Y010507D02*
X007345Y010407D01*
X008248Y010407D01*
X008555Y010407D01*
X009225Y011077D01*
X009225Y011527D01*
X008875Y011527D02*
X008875Y011177D01*
X008605Y010907D01*
X008248Y010907D01*
X008248Y011407D02*
X007955Y011407D01*
X007675Y011127D01*
X007475Y010907D01*
X007475Y010807D01*
X008248Y009907D02*
X008605Y009907D01*
X009575Y010877D01*
X009575Y011727D01*
X009125Y008927D02*
X009125Y008027D01*
X008248Y007907D02*
X008168Y007877D01*
X008248Y007407D02*
X007905Y007407D01*
X007805Y007307D01*
X007805Y006907D02*
X008248Y006907D01*
X008248Y006407D02*
X007805Y006407D01*
X007475Y006277D02*
X007525Y006177D01*
X007525Y004927D01*
X008225Y004277D01*
X009075Y004277D01*
X009739Y003613D01*
X009739Y003481D01*
X009739Y002610D01*
X010330Y002610D02*
X010330Y003481D01*
X010330Y003927D01*
X010920Y003623D02*
X010920Y003481D01*
X010920Y002610D01*
X010920Y003623D02*
X012125Y004827D01*
X012475Y005077D02*
X012375Y005177D01*
X012475Y005077D02*
X013675Y005077D01*
X014425Y005827D01*
X015225Y005427D02*
X014075Y004277D01*
X013325Y004277D01*
X012692Y003644D01*
X012692Y003481D01*
X012692Y002610D01*
X013282Y002610D02*
X013282Y003481D01*
X013282Y003685D01*
X013675Y004077D01*
X014175Y004077D01*
X015425Y005327D01*
X015425Y007577D01*
X015725Y007877D01*
X018273Y007877D01*
X018348Y007902D01*
X018348Y007402D02*
X017750Y007402D01*
X017425Y007077D01*
X017425Y004327D01*
X018007Y003746D01*
X018007Y003481D01*
X018007Y002610D01*
X018597Y002610D02*
X018597Y003481D01*
X019877Y002571D02*
X019877Y001471D01*
X017416Y002610D02*
X017416Y003481D01*
X017425Y003489D01*
X017425Y004027D01*
X017225Y004277D01*
X017225Y006777D01*
X017100Y006902D01*
X017075Y006902D01*
X016925Y006402D02*
X017025Y006302D01*
X017025Y004277D01*
X016826Y004128D01*
X016826Y003481D01*
X016826Y002610D01*
X016235Y002610D02*
X016235Y003481D01*
X016235Y003838D01*
X016825Y004377D01*
X016825Y005837D01*
X016750Y005902D01*
X016735Y005902D01*
X016550Y005402D02*
X016625Y005327D01*
X016625Y004477D01*
X016025Y003927D01*
X015725Y003927D01*
X015645Y003847D01*
X015645Y003481D01*
X015645Y002610D01*
X015054Y002610D02*
X015054Y003481D01*
X015054Y004057D01*
X016025Y005027D01*
X016025Y005977D01*
X016115Y006077D01*
X015925Y006427D02*
X015875Y006427D01*
X015825Y006377D01*
X015825Y005127D01*
X014464Y003766D01*
X014464Y003481D01*
X014464Y002610D01*
X013873Y002610D02*
X013873Y003481D01*
X013873Y003675D01*
X014075Y003877D01*
X014275Y003877D01*
X015625Y005227D01*
X015625Y006677D01*
X015725Y006777D01*
X015225Y005427D02*
X015225Y012277D01*
X015425Y012477D01*
X015425Y012877D02*
X017400Y010902D01*
X018348Y010902D01*
X018348Y010402D02*
X015800Y010402D01*
X015625Y010577D01*
X015625Y011477D01*
X015675Y011527D01*
X015425Y011727D02*
X015425Y010127D01*
X015650Y009902D01*
X018348Y009902D01*
X018348Y009402D02*
X015500Y009402D01*
X016075Y008877D02*
X016100Y008902D01*
X018348Y008902D01*
X018348Y008402D02*
X015500Y008402D01*
X017700Y006902D02*
X018348Y006902D01*
X018348Y006402D02*
X017700Y006402D01*
X017700Y005902D02*
X018348Y005902D01*
X018348Y005402D02*
X017700Y005402D01*
X016550Y005402D02*
X016525Y005402D01*
X013282Y003585D02*
X013282Y003481D01*
X013225Y006877D02*
X013077Y006877D01*
X009149Y003654D02*
X009149Y003481D01*
X009149Y002610D01*
X008558Y002610D02*
X008558Y003481D01*
X008558Y003644D01*
X008325Y003877D01*
X008025Y003877D01*
X006575Y005227D01*
X006575Y008377D01*
X005325Y009627D01*
X005325Y009927D01*
X004915Y010337D01*
X004915Y010617D01*
X004575Y010957D01*
X004475Y010957D01*
X004425Y010907D01*
X003902Y010907D01*
X003902Y010407D02*
X004475Y010407D01*
X004625Y010327D01*
X005125Y009827D01*
X005125Y009527D01*
X006375Y008277D01*
X006375Y005127D01*
X007968Y003635D01*
X007968Y003481D01*
X007968Y002610D01*
X007377Y002610D02*
X007377Y003481D01*
X007377Y003825D01*
X006175Y005027D01*
X006175Y008157D01*
X004925Y009407D01*
X004925Y009577D01*
X004625Y009877D01*
X004475Y009907D01*
X003902Y009907D01*
X003902Y009407D02*
X004475Y009407D01*
X004625Y009407D01*
X005975Y008057D01*
X005975Y004927D01*
X006786Y004116D01*
X006786Y003481D01*
X006786Y002610D01*
X006196Y002610D02*
X006196Y003481D01*
X006196Y004407D01*
X005775Y004827D01*
X005775Y007957D01*
X004825Y008907D01*
X004475Y008907D01*
X003902Y008907D01*
X003902Y008407D02*
X004475Y008407D01*
X005025Y008407D01*
X005575Y007857D01*
X005575Y003550D01*
X005605Y003481D01*
X005605Y002610D01*
X005015Y002610D02*
X005015Y003481D01*
X005015Y004367D01*
X005375Y004727D01*
X005375Y007407D01*
X004875Y007907D01*
X004475Y007907D01*
X003902Y007907D01*
X004052Y007507D02*
X003902Y007407D01*
X004005Y007407D01*
X004075Y007477D01*
X004052Y007507D02*
X004475Y007507D01*
X004975Y007507D01*
X005175Y007307D01*
X005175Y004827D01*
X004424Y004077D01*
X004424Y003481D01*
X004424Y002610D01*
X003834Y002610D02*
X003834Y003481D01*
X003834Y004186D01*
X004075Y004427D01*
X003675Y004727D02*
X003243Y004296D01*
X003243Y003481D01*
X003243Y003596D01*
X003243Y003481D02*
X003243Y002610D01*
X002653Y002610D02*
X002653Y003481D01*
X002653Y004005D01*
X003575Y004977D01*
X004675Y004977D01*
X004775Y005077D01*
X004775Y005377D01*
X004575Y005377D01*
X004775Y005377D02*
X004775Y006927D01*
X004575Y007127D01*
X004475Y007127D01*
X004275Y006907D02*
X004425Y006757D01*
X004475Y006757D01*
X004275Y006907D02*
X003902Y006907D01*
X003902Y006407D02*
X004002Y006357D01*
X004475Y006357D01*
X004475Y005907D02*
X003902Y005907D01*
X003675Y004727D02*
X004775Y004727D01*
X004975Y004927D01*
X004975Y007117D01*
X004875Y007217D01*
X006775Y008477D02*
X006775Y005577D01*
X006945Y005407D01*
X007045Y005407D01*
X007045Y005907D02*
X006975Y005977D01*
X006975Y008577D01*
X005725Y009827D01*
X005725Y010127D01*
X005325Y010527D01*
X005325Y012877D01*
X004915Y013287D01*
X004915Y013734D01*
X004415Y013734D02*
X004415Y013487D01*
X005125Y012777D01*
X005125Y010427D01*
X005525Y010027D01*
X005525Y009727D01*
X006775Y008477D01*
X007275Y008577D02*
X005925Y009927D01*
X005925Y010227D01*
X005675Y010477D01*
X005675Y010577D01*
X006125Y010427D02*
X006125Y010027D01*
X007475Y008677D01*
X007475Y006277D01*
X007275Y006227D02*
X007325Y006127D01*
X007325Y004827D01*
X008125Y004077D01*
X008725Y004077D01*
X009149Y003654D01*
X008248Y005407D02*
X007805Y005407D01*
X007805Y005907D02*
X008248Y005907D01*
X007275Y006227D02*
X007275Y008577D01*
X004475Y011577D02*
X004375Y011577D01*
X004205Y011407D01*
X003902Y011407D01*
X003825Y012327D02*
X004175Y012327D01*
X003825Y012327D02*
X002915Y013237D01*
X002915Y013734D01*
X003415Y013734D02*
X003415Y013087D01*
X003875Y012627D01*
X004375Y012627D01*
X004475Y012527D01*
X004625Y012827D02*
X004825Y012627D01*
X004825Y012527D01*
X004625Y012827D02*
X004075Y012827D01*
X003915Y012987D01*
X003915Y013734D01*
X013002Y012402D02*
X013500Y012402D01*
X013625Y012527D01*
X013725Y012527D01*
X014075Y012527D02*
X014075Y012427D01*
X013575Y011927D01*
X013077Y011927D01*
X013002Y011902D01*
X013002Y012402D02*
X013077Y012427D01*
X014575Y014627D02*
X016800Y012402D01*
X018348Y012402D01*
X015675Y011877D02*
X015575Y011877D01*
X015425Y011727D01*
X001373Y002571D02*
X001373Y001471D01*
D27*
X018348Y012902D02*
X019800Y012902D01*
X019839Y012904D01*
X019878Y012909D01*
X019916Y012918D01*
X019954Y012931D01*
X019989Y012947D01*
X020024Y012966D01*
X020056Y012988D01*
X020086Y013013D01*
X020114Y013041D01*
X020139Y013071D01*
X020161Y013103D01*
X020180Y013138D01*
X020196Y013173D01*
X020209Y013211D01*
X020218Y013249D01*
X020223Y013288D01*
X020225Y013327D01*
D28*
X018348Y012902D02*
X018298Y012902D01*
X017545Y013656D01*
X011789Y021727D02*
X004590Y021727D01*
X003880Y021727D02*
X003880Y021572D01*
X004505Y020947D01*
X005295Y020947D01*
X003175Y020447D02*
X002525Y020447D01*
X002945Y019447D02*
X002915Y019417D01*
X002915Y018081D01*
X001373Y018081D01*
X001373Y017427D02*
X001373Y017277D01*
X002015Y017277D01*
X001373Y019427D02*
X001373Y019447D01*
X002945Y019447D02*
X003175Y019447D01*
X008225Y012857D02*
X008355Y012857D01*
X008355Y011907D01*
X008248Y011907D01*
X008248Y012857D02*
X008525Y012857D01*
X009360Y012857D01*
X001471Y003481D02*
X001373Y003382D01*
X001373Y002571D01*
D29*
X017545Y013656D02*
X017545Y013877D01*
X017525Y013877D01*
X017525Y013752D01*
X017545Y013752D01*
D30*
X008525Y012857D03*
X008225Y012857D03*
X002525Y020447D03*
X002225Y020447D03*
D31*
X011789Y021727D02*
X012382Y022121D01*
X013425Y022121D01*
X013425Y022120D02*
X013583Y022226D01*
X013747Y022325D01*
X013914Y022415D01*
X014087Y022497D01*
X014262Y022570D01*
X014442Y022635D01*
X014624Y022690D01*
X014809Y022737D01*
X014995Y022775D01*
X015184Y022803D01*
X015373Y022823D01*
X015564Y022833D01*
X015754Y022833D01*
X015945Y022824D01*
X016134Y022806D01*
X016323Y022779D01*
X016510Y022742D01*
X016695Y022697D01*
X016878Y022642D01*
X017057Y022579D01*
X017234Y022506D01*
X017406Y022426D01*
X017575Y022336D01*
X017738Y022239D01*
X017897Y022134D01*
X018051Y022021D01*
X018199Y021901D01*
X018340Y021774D01*
X018476Y021639D01*
X018604Y021499D01*
X018726Y021352D01*
X018840Y021200D01*
X018947Y021042D01*
X019046Y020879D01*
X019136Y020711D01*
X019219Y020539D01*
X019293Y020364D01*
X019358Y020185D01*
X019414Y020003D01*
X019462Y019818D01*
X019500Y019631D01*
X019529Y019443D01*
X019549Y019253D01*
X019559Y019063D01*
X019560Y018873D01*
X019552Y018682D01*
X019535Y018492D01*
X019508Y018304D01*
X019472Y018117D01*
X019427Y017932D01*
X019373Y017749D01*
X019310Y017569D01*
X019238Y017392D01*
X019158Y017220D01*
X019069Y017051D01*
X018972Y016887D01*
X018868Y016728D01*
X018868Y016727D02*
X018868Y015634D01*
M02*
