G75*
G70*
%OFA0B0*%
%FSLAX24Y24*%
%IPPOS*%
%LPD*%
%AMOC8*
5,1,8,0,0,1.08239X$1,22.5*
%
%ADD10C,0.0050*%
%ADD11C,0.0000*%
%ADD12C,0.0240*%
%ADD13C,0.0010*%
%ADD14C,0.0040*%
%ADD15C,0.0020*%
%ADD16C,0.0030*%
%ADD17C,0.0080*%
%ADD18C,0.0100*%
%ADD19C,0.0280*%
%ADD20C,0.0220*%
%ADD21C,0.0320*%
D10*
X000875Y001427D02*
X000875Y004477D01*
X000575Y004777D01*
X000575Y008477D01*
X000150Y008477D01*
X000150Y009677D01*
X000575Y009677D01*
X000575Y017927D01*
X000150Y017927D01*
X000150Y019127D01*
X000575Y019127D01*
X000575Y024427D01*
X000577Y024471D01*
X000583Y024514D01*
X000592Y024556D01*
X000605Y024598D01*
X000622Y024638D01*
X000642Y024677D01*
X000665Y024714D01*
X000692Y024748D01*
X000721Y024781D01*
X000754Y024810D01*
X000788Y024837D01*
X000825Y024860D01*
X000864Y024880D01*
X000904Y024897D01*
X000946Y024910D01*
X000988Y024919D01*
X001031Y024925D01*
X001075Y024927D01*
X005675Y024927D01*
X005675Y025127D01*
X006875Y025127D01*
X006875Y024927D01*
X014375Y024927D01*
X014375Y025127D01*
X015575Y025127D01*
X015575Y024927D01*
X018175Y024927D01*
X018219Y024925D01*
X018262Y024919D01*
X018304Y024910D01*
X018346Y024897D01*
X018386Y024880D01*
X018425Y024860D01*
X018462Y024837D01*
X018496Y024810D01*
X018529Y024781D01*
X018558Y024748D01*
X018585Y024714D01*
X018608Y024677D01*
X018628Y024638D01*
X018645Y024598D01*
X018658Y024556D01*
X018667Y024514D01*
X018673Y024471D01*
X018675Y024427D01*
X018675Y024227D01*
X018677Y024183D01*
X018683Y024140D01*
X018692Y024098D01*
X018705Y024056D01*
X018722Y024016D01*
X018742Y023977D01*
X018765Y023940D01*
X018792Y023906D01*
X018821Y023873D01*
X018854Y023844D01*
X018888Y023817D01*
X018925Y023794D01*
X018964Y023774D01*
X019004Y023757D01*
X019046Y023744D01*
X019088Y023735D01*
X019131Y023729D01*
X019175Y023727D01*
X020175Y023727D01*
X020219Y023725D01*
X020262Y023719D01*
X020304Y023710D01*
X020346Y023697D01*
X020386Y023680D01*
X020425Y023660D01*
X020462Y023637D01*
X020496Y023610D01*
X020529Y023581D01*
X020558Y023548D01*
X020585Y023514D01*
X020608Y023477D01*
X020628Y023438D01*
X020645Y023398D01*
X020658Y023356D01*
X020667Y023314D01*
X020673Y023271D01*
X020675Y023227D01*
X020675Y019127D01*
X021100Y019127D01*
X021100Y017927D01*
X020675Y017927D01*
X020675Y009677D01*
X021100Y009677D01*
X021100Y008477D01*
X020675Y008477D01*
X020675Y004777D01*
X020375Y004477D01*
X020375Y001427D01*
X020373Y001383D01*
X020367Y001340D01*
X020358Y001298D01*
X020345Y001256D01*
X020328Y001216D01*
X020308Y001177D01*
X020285Y001140D01*
X020258Y001106D01*
X020229Y001073D01*
X020196Y001044D01*
X020162Y001017D01*
X020125Y000994D01*
X020086Y000974D01*
X020046Y000957D01*
X020004Y000944D01*
X019962Y000935D01*
X019919Y000929D01*
X019875Y000927D01*
X001375Y000927D01*
X001331Y000929D01*
X001288Y000935D01*
X001246Y000944D01*
X001204Y000957D01*
X001164Y000974D01*
X001125Y000994D01*
X001088Y001017D01*
X001054Y001044D01*
X001021Y001073D01*
X000992Y001106D01*
X000965Y001140D01*
X000942Y001177D01*
X000922Y001216D01*
X000905Y001256D01*
X000892Y001298D01*
X000883Y001340D01*
X000877Y001383D01*
X000875Y001427D01*
D11*
X009198Y007138D02*
X009200Y007213D01*
X009206Y007288D01*
X009216Y007363D01*
X009230Y007437D01*
X009247Y007510D01*
X009269Y007583D01*
X009294Y007653D01*
X009323Y007723D01*
X009356Y007791D01*
X009392Y007857D01*
X009432Y007921D01*
X009475Y007983D01*
X009521Y008042D01*
X009570Y008099D01*
X009623Y008154D01*
X009678Y008205D01*
X009735Y008254D01*
X009795Y008299D01*
X009858Y008341D01*
X009922Y008380D01*
X009989Y008415D01*
X010057Y008447D01*
X010127Y008475D01*
X010198Y008500D01*
X010271Y008520D01*
X010344Y008537D01*
X010419Y008550D01*
X010493Y008559D01*
X010569Y008564D01*
X010644Y008565D01*
X010719Y008562D01*
X010794Y008555D01*
X010869Y008544D01*
X010943Y008529D01*
X011016Y008511D01*
X011087Y008488D01*
X011158Y008462D01*
X011227Y008432D01*
X011295Y008398D01*
X011360Y008361D01*
X011424Y008321D01*
X011485Y008277D01*
X011544Y008230D01*
X011600Y008180D01*
X011654Y008127D01*
X011705Y008071D01*
X011752Y008013D01*
X011797Y007952D01*
X011838Y007889D01*
X011876Y007824D01*
X011911Y007757D01*
X011942Y007688D01*
X011969Y007618D01*
X011992Y007547D01*
X012012Y007474D01*
X012028Y007400D01*
X012040Y007326D01*
X012048Y007251D01*
X012052Y007176D01*
X012052Y007100D01*
X012048Y007025D01*
X012040Y006950D01*
X012028Y006876D01*
X012012Y006802D01*
X011992Y006729D01*
X011969Y006658D01*
X011942Y006588D01*
X011911Y006519D01*
X011876Y006452D01*
X011838Y006387D01*
X011797Y006324D01*
X011752Y006263D01*
X011705Y006205D01*
X011654Y006149D01*
X011600Y006096D01*
X011544Y006046D01*
X011485Y005999D01*
X011424Y005955D01*
X011360Y005915D01*
X011295Y005878D01*
X011227Y005844D01*
X011158Y005814D01*
X011087Y005788D01*
X011016Y005765D01*
X010943Y005747D01*
X010869Y005732D01*
X010794Y005721D01*
X010719Y005714D01*
X010644Y005711D01*
X010569Y005712D01*
X010493Y005717D01*
X010419Y005726D01*
X010344Y005739D01*
X010271Y005756D01*
X010198Y005776D01*
X010127Y005801D01*
X010057Y005829D01*
X009989Y005861D01*
X009922Y005896D01*
X009858Y005935D01*
X009795Y005977D01*
X009735Y006022D01*
X009678Y006071D01*
X009623Y006122D01*
X009570Y006177D01*
X009521Y006234D01*
X009475Y006293D01*
X009432Y006355D01*
X009392Y006419D01*
X009356Y006485D01*
X009323Y006553D01*
X009294Y006623D01*
X009269Y006693D01*
X009247Y006766D01*
X009230Y006839D01*
X009216Y006913D01*
X009206Y006988D01*
X009200Y007063D01*
X009198Y007138D01*
X010182Y016979D02*
X010184Y017020D01*
X010190Y017062D01*
X010199Y017102D01*
X010213Y017141D01*
X010230Y017179D01*
X010250Y017215D01*
X010274Y017249D01*
X010301Y017281D01*
X010331Y017310D01*
X010363Y017336D01*
X010398Y017359D01*
X010434Y017379D01*
X010472Y017395D01*
X010512Y017407D01*
X010553Y017416D01*
X010594Y017421D01*
X010635Y017422D01*
X010677Y017419D01*
X010718Y017412D01*
X010758Y017402D01*
X010797Y017387D01*
X010834Y017369D01*
X010870Y017348D01*
X010904Y017323D01*
X010935Y017296D01*
X010963Y017266D01*
X010988Y017233D01*
X011010Y017197D01*
X011029Y017160D01*
X011044Y017122D01*
X011056Y017082D01*
X011064Y017041D01*
X011068Y017000D01*
X011068Y016958D01*
X011064Y016917D01*
X011056Y016876D01*
X011044Y016836D01*
X011029Y016798D01*
X011010Y016761D01*
X010988Y016725D01*
X010963Y016692D01*
X010935Y016662D01*
X010904Y016635D01*
X010870Y016610D01*
X010834Y016589D01*
X010797Y016571D01*
X010758Y016556D01*
X010718Y016546D01*
X010677Y016539D01*
X010635Y016536D01*
X010594Y016537D01*
X010553Y016542D01*
X010512Y016551D01*
X010472Y016563D01*
X010434Y016579D01*
X010398Y016599D01*
X010363Y016622D01*
X010331Y016648D01*
X010301Y016677D01*
X010274Y016709D01*
X010250Y016743D01*
X010230Y016779D01*
X010213Y016817D01*
X010199Y016856D01*
X010190Y016896D01*
X010184Y016938D01*
X010182Y016979D01*
D12*
X009975Y018277D03*
X009975Y018577D03*
X009675Y018577D03*
X009675Y018877D03*
X006625Y019427D03*
X006325Y019427D03*
X006325Y019127D03*
X006325Y019727D03*
X004675Y020447D03*
X004125Y019927D03*
X002475Y022027D03*
X002475Y022327D03*
X002475Y022627D03*
X002475Y022927D03*
X002925Y017077D03*
X002925Y016727D03*
X003725Y016727D03*
X003725Y017077D03*
X002215Y015727D03*
X001915Y015727D03*
X001915Y015427D03*
X001915Y016027D03*
X002225Y012477D03*
X002575Y012477D03*
X002925Y012477D03*
X003275Y012477D03*
X004175Y012327D03*
X004475Y012527D03*
X004825Y012527D03*
X005725Y012327D03*
X005725Y012027D03*
X006025Y012027D03*
X006025Y012327D03*
X007175Y011777D03*
X007475Y011777D03*
X007475Y012077D03*
X007475Y012377D03*
X007475Y010807D03*
X007245Y010577D03*
X006925Y010427D03*
X006125Y010427D03*
X005675Y010577D03*
X004475Y010407D03*
X004475Y009907D03*
X004475Y009407D03*
X004475Y008907D03*
X004475Y008407D03*
X004475Y007907D03*
X004475Y007507D03*
X004475Y007127D03*
X004475Y006757D03*
X004475Y006357D03*
X004475Y005907D03*
X004575Y005377D03*
X004075Y004427D03*
X003834Y003481D03*
X004424Y003481D03*
X005015Y003481D03*
X005605Y003481D03*
X006196Y003481D03*
X006786Y003481D03*
X007377Y003481D03*
X007968Y003481D03*
X008558Y003481D03*
X009149Y003481D03*
X009739Y003481D03*
X010330Y003481D03*
X010920Y003481D03*
X011511Y003481D03*
X012101Y003481D03*
X012692Y003481D03*
X013282Y003481D03*
X013873Y003481D03*
X014464Y003481D03*
X015054Y003481D03*
X015645Y003481D03*
X016235Y003481D03*
X016826Y003481D03*
X017416Y003481D03*
X018007Y003481D03*
X018597Y003481D03*
X019188Y003481D03*
X019779Y003481D03*
X019625Y005327D03*
X019325Y005327D03*
X019625Y005627D03*
X019925Y005627D03*
X017700Y005402D03*
X017700Y005902D03*
X017700Y006402D03*
X017700Y006902D03*
X017075Y006902D03*
X016925Y006402D03*
X016735Y005902D03*
X016525Y005402D03*
X016115Y006077D03*
X015925Y006427D03*
X015725Y006777D03*
X015500Y008402D03*
X016075Y008877D03*
X015500Y009402D03*
X014525Y009402D03*
X013725Y009407D03*
X013725Y008907D03*
X013705Y008407D03*
X013725Y007907D03*
X013725Y007407D03*
X013725Y006777D03*
X013725Y006427D03*
X013725Y006077D03*
X012325Y005927D03*
X012025Y005927D03*
X012325Y006227D03*
X012325Y006527D03*
X012075Y005247D03*
X014360Y008402D03*
X013725Y009907D03*
X013725Y010407D03*
X014175Y010327D03*
X014475Y010327D03*
X014475Y010627D03*
X014475Y010927D03*
X013725Y010907D03*
X013725Y011377D03*
X013725Y012527D03*
X014075Y012527D03*
X015425Y012477D03*
X015675Y011877D03*
X015675Y011527D03*
X015975Y013977D03*
X015975Y014277D03*
X016275Y014277D03*
X016275Y014577D03*
X015425Y014177D03*
X014075Y014427D03*
X014075Y014777D03*
X011625Y014127D03*
X011325Y014127D03*
X011325Y013827D03*
X011325Y013527D03*
X009575Y011727D03*
X009225Y011527D03*
X008875Y011527D03*
X008625Y008907D03*
X009125Y008027D03*
X007805Y007307D03*
X007805Y006907D03*
X007805Y006407D03*
X007805Y005907D03*
X007805Y005407D03*
X008125Y004927D03*
X008425Y004927D03*
X008425Y004627D03*
X008725Y004627D03*
X007045Y005407D03*
X007045Y005907D03*
X004875Y007217D03*
X002325Y006427D03*
X002325Y006127D03*
X002025Y006127D03*
X002025Y005827D03*
X002062Y003481D03*
X001471Y003481D03*
X002653Y003481D03*
X003243Y003481D03*
X004475Y010957D03*
X004475Y011577D03*
X012825Y017877D03*
X013125Y017877D03*
X013125Y018177D03*
X012825Y018177D03*
X009825Y022727D03*
X009525Y022727D03*
X009525Y023027D03*
X009825Y023027D03*
X017625Y024527D03*
X017925Y024527D03*
X017925Y024227D03*
X018225Y024527D03*
X018575Y017877D03*
X018575Y017577D03*
X018575Y017277D03*
X018275Y017577D03*
X019825Y012127D03*
X019825Y011827D03*
X019825Y011527D03*
X019525Y011527D03*
D13*
X011050Y002882D02*
X011171Y002002D01*
X011161Y001984D01*
X011153Y001976D01*
X011143Y001968D01*
X011135Y001967D01*
X010516Y001966D01*
X010494Y001979D01*
X010481Y001993D01*
X010472Y002014D01*
X010414Y002429D01*
X010726Y002428D01*
X010738Y002364D01*
X010524Y002364D01*
X010557Y002104D01*
X010569Y002084D01*
X010584Y002070D01*
X010598Y002061D01*
X010608Y002057D01*
X010719Y002056D01*
X011035Y002065D01*
X011047Y002078D01*
X011057Y002091D01*
X011058Y002120D01*
X010964Y002806D01*
X010950Y002825D01*
X010936Y002834D01*
X010926Y002837D01*
X010917Y002840D01*
X010491Y002839D01*
X010496Y002839D02*
X010485Y002834D01*
X010479Y002827D01*
X010470Y002816D01*
X010466Y002805D01*
X010467Y002794D01*
X010470Y002777D01*
X010489Y002616D01*
X010491Y002615D02*
X010388Y002616D01*
X010354Y002868D01*
X010354Y002881D01*
X010360Y002894D01*
X010371Y002911D01*
X010381Y002923D01*
X010393Y002931D01*
X011012Y002932D01*
X011024Y002924D01*
X011031Y002915D01*
X011040Y002907D01*
X011046Y002897D01*
X011049Y002891D01*
X011050Y002882D01*
X010887Y002743D02*
X010881Y002745D01*
X010866Y002746D01*
X010568Y002746D01*
X010560Y002742D01*
X010552Y002734D01*
X010548Y002726D01*
X010548Y002714D01*
X010565Y002568D01*
X010574Y002567D01*
X010586Y002568D01*
X010592Y002570D01*
X010590Y002576D01*
X010591Y002570D02*
X010575Y002709D01*
X010577Y002719D01*
X010585Y002724D01*
X010592Y002726D01*
X010865Y002727D01*
X010870Y002722D01*
X010875Y002706D01*
X010878Y002683D01*
X010882Y002652D01*
X010888Y002612D01*
X010892Y002570D01*
X010896Y002568D01*
X010902Y002569D01*
X010915Y002568D01*
X010909Y002574D01*
X010898Y002576D01*
X010876Y002726D01*
X010870Y002732D01*
X010857Y002733D01*
X010838Y002733D01*
X010803Y002734D01*
X010648Y002734D01*
X010605Y002734D01*
X010575Y002732D01*
X010580Y002727D01*
X010575Y002723D01*
X010570Y002716D01*
X010568Y002704D01*
X010584Y002571D01*
X010574Y002573D01*
X010568Y002577D01*
X010554Y002714D01*
X010556Y002724D01*
X010561Y002734D01*
X010575Y002737D01*
X010605Y002739D01*
X010683Y002740D01*
X010758Y002739D01*
X010807Y002738D01*
X010849Y002738D01*
X010877Y002737D01*
X010889Y002732D01*
X010907Y002580D01*
X010882Y002730D01*
X010892Y002736D02*
X010887Y002743D01*
X010892Y002736D02*
X010898Y002720D01*
X010916Y002568D01*
X010909Y002336D02*
X010946Y002336D01*
X010947Y002335D02*
X010959Y002215D01*
X010919Y002214D01*
X010909Y002336D01*
X010915Y002325D02*
X010916Y002306D01*
X010944Y002306D01*
X010942Y002318D01*
X010930Y002320D01*
X010919Y002318D01*
X010922Y002312D01*
X010936Y002312D01*
X010942Y002327D02*
X010918Y002327D01*
X010915Y002325D01*
X010885Y002300D02*
X010889Y002253D01*
X010989Y002253D01*
X010980Y002300D01*
X010981Y002299D02*
X010987Y002255D01*
X010980Y002259D02*
X010977Y002284D01*
X010900Y002285D01*
X010900Y002266D01*
X010971Y002267D01*
X010971Y002276D01*
X010903Y002275D01*
X010894Y002260D02*
X010980Y002259D01*
X010951Y002251D02*
X010930Y002244D01*
X010923Y002246D01*
X010925Y002222D01*
X010949Y002221D01*
X010953Y002225D01*
X010951Y002240D01*
X010941Y002239D01*
X010931Y002239D01*
X010929Y002229D01*
X010940Y002227D01*
X010947Y002229D01*
X010938Y002233D01*
X010931Y002232D01*
X010950Y002245D01*
X010979Y002290D02*
X010892Y002291D01*
X010894Y002260D01*
X010885Y002300D02*
X010976Y002300D01*
X011133Y001967D02*
X011135Y001967D01*
X011142Y001926D02*
X011158Y001759D01*
X011075Y001759D01*
X011114Y001432D01*
X011115Y001432D02*
X009978Y001433D01*
X010054Y001891D01*
X010052Y001898D01*
X009969Y001898D01*
X009944Y002075D01*
X010097Y002075D01*
X010053Y002429D01*
X010369Y002429D01*
X010436Y001974D01*
X010454Y001948D01*
X010484Y001926D01*
X010488Y001925D01*
X011142Y001926D01*
X011093Y001880D02*
X011107Y001806D01*
X011100Y001804D01*
X011012Y001804D01*
X011059Y001468D01*
X011054Y001468D02*
X010977Y001469D01*
X010926Y001805D01*
X010841Y001805D01*
X010839Y001806D01*
X010836Y001807D01*
X010824Y001879D01*
X011093Y001880D01*
X010795Y001880D02*
X010853Y001469D01*
X010848Y001469D02*
X010588Y001469D01*
X010583Y001476D01*
X010577Y001485D01*
X010568Y001487D01*
X010560Y001484D01*
X010548Y001480D01*
X010533Y001476D01*
X010523Y001469D01*
X010438Y001470D01*
X010424Y001478D01*
X010407Y001487D01*
X010392Y001497D01*
X010371Y001511D01*
X010359Y001527D01*
X010350Y001542D01*
X010341Y001552D01*
X010333Y001579D01*
X010331Y001603D01*
X010332Y001624D01*
X010339Y001647D01*
X010349Y001668D01*
X010363Y001689D01*
X010381Y001709D01*
X010402Y001720D01*
X010425Y001724D01*
X010454Y001733D01*
X010470Y001748D01*
X010472Y001758D01*
X010472Y001778D01*
X010457Y001790D01*
X010446Y001801D01*
X010439Y001805D01*
X010422Y001804D01*
X010411Y001798D01*
X010406Y001794D01*
X010382Y001795D01*
X010356Y001797D01*
X010348Y001799D01*
X010343Y001806D01*
X010340Y001815D01*
X010341Y001860D01*
X010340Y001859D02*
X010346Y001868D01*
X010355Y001872D01*
X010372Y001877D01*
X010391Y001878D01*
X010429Y001880D01*
X010453Y001879D01*
X010472Y001876D01*
X010488Y001870D01*
X010503Y001861D01*
X010523Y001840D01*
X010540Y001822D01*
X010550Y001802D01*
X010556Y001784D01*
X010555Y001784D02*
X010556Y001724D01*
X010544Y001706D01*
X010521Y001681D01*
X010492Y001660D01*
X010465Y001649D01*
X010440Y001638D01*
X010429Y001627D01*
X010416Y001615D01*
X010414Y001602D01*
X010415Y001583D01*
X010421Y001573D01*
X010432Y001563D01*
X010446Y001553D01*
X010460Y001553D01*
X010519Y001553D01*
X010530Y001561D01*
X010546Y001568D01*
X010564Y001570D01*
X010584Y001566D01*
X010591Y001556D01*
X010591Y001554D01*
X010760Y001553D01*
X010747Y001636D01*
X010625Y001637D01*
X010621Y001640D01*
X010609Y001722D01*
X010732Y001722D01*
X010722Y001804D01*
X010587Y001804D01*
X010578Y001811D01*
X010575Y001821D01*
X010574Y001829D01*
X010574Y001877D01*
X010575Y001877D01*
X010576Y001878D01*
X010795Y001880D01*
X010391Y001945D02*
X010330Y002393D01*
X010326Y002392D02*
X010235Y002392D01*
X010301Y001945D01*
X010391Y001945D01*
X010267Y001944D02*
X010202Y002391D01*
X010117Y002393D01*
X010164Y002028D01*
X009997Y002029D01*
X010005Y001946D01*
X010267Y001944D01*
X010181Y001879D02*
X010339Y001530D01*
X010359Y001470D01*
X010356Y001470D02*
X010282Y001469D01*
X010274Y001474D01*
X010270Y001482D01*
X010260Y001502D01*
X010231Y001572D01*
X010135Y001572D01*
X010126Y001470D01*
X010044Y001469D01*
X010043Y001472D01*
X010042Y001510D01*
X010107Y001875D01*
X010110Y001880D01*
X010181Y001879D01*
X010166Y001724D02*
X010153Y001655D01*
X010193Y001654D01*
X010168Y001703D01*
X010160Y001661D01*
X010182Y001663D01*
X010170Y001684D01*
X010167Y001668D01*
X010170Y001669D01*
X010175Y001670D01*
X010194Y001655D02*
X010166Y001724D01*
X010576Y002573D02*
X010561Y002699D01*
X010563Y002716D01*
X010565Y002729D01*
X010571Y002731D01*
X010568Y002726D01*
D14*
X010470Y002635D02*
X010445Y002797D01*
X010455Y002832D01*
X010472Y002848D01*
X010488Y002855D01*
X010928Y002861D01*
X010959Y002841D01*
X010976Y002825D01*
X010980Y002810D01*
X011081Y002083D01*
X011060Y002060D01*
X011040Y002047D01*
X010622Y002035D01*
X010578Y002044D01*
X010560Y002067D01*
X010542Y002088D01*
X010502Y002371D01*
X010517Y002385D01*
X010555Y002385D01*
X010718Y002383D01*
X010712Y002410D01*
X010455Y002409D01*
X010498Y002397D01*
X010471Y002385D01*
X010472Y002357D01*
X010507Y002085D01*
X010587Y002018D01*
X010505Y002060D01*
X010520Y002012D01*
X010551Y002009D01*
X011119Y002014D01*
X011055Y002022D01*
X011108Y002039D01*
X011088Y002047D01*
X011120Y002061D01*
X011110Y002079D01*
X010994Y002875D01*
X010975Y002864D01*
X010975Y002878D01*
X010956Y002877D01*
X010454Y002880D01*
X010415Y002882D01*
X010403Y002868D01*
X010403Y002839D01*
X010448Y002856D01*
X010410Y002834D01*
X010421Y002820D01*
X010408Y002811D01*
X010434Y002659D01*
X010403Y002633D02*
X010470Y002635D01*
X010403Y002633D02*
X010374Y002866D01*
X010377Y002881D01*
X010402Y002913D01*
X010918Y002911D01*
X011009Y002912D01*
X011027Y002891D01*
X011148Y002013D01*
X011149Y002001D01*
X011132Y001985D01*
X011116Y001983D01*
X010529Y001983D01*
X010513Y001988D01*
X010493Y002009D01*
X010486Y002050D01*
X010434Y002411D01*
X010453Y002396D01*
X010354Y002410D02*
X010420Y001941D01*
X010410Y001943D01*
X010347Y002398D01*
X010354Y002410D02*
X010090Y002410D01*
X010095Y002407D02*
X010074Y002412D01*
X010118Y002078D01*
X010139Y002085D02*
X010095Y002407D01*
X010219Y002404D02*
X010227Y002335D01*
X010289Y001918D01*
X010334Y001926D02*
X009995Y001925D01*
X009985Y001956D01*
X009976Y002019D01*
X009966Y002057D01*
X010140Y002057D01*
X010144Y002046D01*
X009984Y002049D01*
X009979Y001978D02*
X009983Y001919D01*
X010050Y001917D01*
X010111Y001901D01*
X010339Y001888D01*
X010321Y001868D01*
X010319Y001788D01*
X010345Y001780D01*
X010391Y001773D01*
X010418Y001777D01*
X010432Y001781D01*
X010453Y001764D01*
X010439Y001749D01*
X010400Y001740D01*
X010355Y001711D01*
X010332Y001672D01*
X010315Y001628D01*
X010205Y001870D01*
X010288Y001862D01*
X010243Y001847D01*
X010315Y001694D01*
X010371Y001750D01*
X010320Y001768D01*
X010326Y001734D01*
X010294Y001840D01*
X010277Y001837D01*
X010291Y001805D01*
X010361Y001893D02*
X010364Y001923D01*
X010479Y001905D01*
X010618Y001906D01*
X010600Y001897D02*
X010669Y001899D01*
X010809Y001897D01*
X010806Y001901D02*
X010822Y001800D01*
X010829Y001788D02*
X010873Y001469D01*
X010919Y001474D01*
X010884Y001754D01*
X010863Y001762D01*
X010890Y001491D01*
X010955Y001471D02*
X010911Y001785D01*
X010829Y001788D01*
X010820Y001899D02*
X010806Y001901D01*
X010820Y001899D02*
X011090Y001898D01*
X011114Y001888D01*
X011125Y001797D01*
X011115Y001789D01*
X011066Y001785D01*
X011070Y001778D01*
X011142Y001777D01*
X011125Y001907D01*
X010640Y001905D01*
X010600Y001897D02*
X010557Y001897D01*
X010472Y001895D01*
X010410Y001899D01*
X010361Y001893D01*
X010334Y001926D02*
X010397Y001930D01*
X010430Y001951D02*
X010443Y001939D01*
X010459Y001921D01*
X010474Y001909D01*
X010220Y001550D02*
X010154Y001553D01*
X010148Y001473D01*
X010213Y001476D01*
X010203Y001519D01*
X010182Y001518D01*
X010179Y001494D01*
X010220Y001550D02*
X010254Y001467D01*
X010258Y001455D01*
X010123Y001451D02*
X009997Y001449D01*
X010080Y001924D01*
X010098Y001928D01*
X010014Y001478D01*
X010023Y001469D01*
X010025Y001492D01*
X010123Y001451D02*
X010558Y001452D01*
X010542Y001459D01*
X010551Y001459D01*
X010567Y001464D01*
X010579Y001452D01*
X010599Y001452D01*
X011060Y001451D01*
X011050Y001452D02*
X011093Y001448D01*
X011051Y001783D01*
X011034Y001788D01*
X011080Y001467D01*
X010959Y001454D02*
X010955Y001471D01*
X010144Y002058D02*
X010139Y002085D01*
D15*
X010311Y001609D02*
X010315Y001603D01*
X010365Y001482D01*
X010369Y001470D01*
X010385Y001473D01*
X010389Y001472D01*
X010372Y001482D01*
X010364Y001504D02*
X010349Y001528D01*
X010336Y001551D01*
X010323Y001587D01*
X010321Y001606D01*
X010311Y001609D01*
X010364Y001504D02*
X010401Y001479D01*
X010420Y001468D01*
D16*
X010448Y001569D02*
X010435Y001579D01*
X010432Y001597D01*
X010440Y001617D01*
X010427Y001609D01*
X010477Y001637D01*
X010522Y001661D01*
X010606Y001635D01*
X010624Y001622D01*
X010736Y001623D01*
X010742Y001582D01*
X010589Y001595D01*
X010473Y001589D01*
X010455Y001594D01*
X010478Y001617D01*
X010522Y001636D01*
X010727Y001602D01*
X010524Y001614D01*
X010492Y001612D01*
X010602Y001647D01*
X010563Y001817D01*
X010561Y001867D01*
X010500Y001881D01*
X010521Y001862D01*
X010544Y001843D01*
X010553Y001826D01*
X010577Y001777D01*
X010569Y001731D01*
X010564Y001712D01*
X010547Y001686D01*
X010531Y001668D01*
X010570Y001668D01*
X010581Y001659D01*
X010573Y001692D01*
X010598Y001682D01*
X010584Y001792D01*
X010709Y001792D01*
X010718Y001736D01*
X010609Y001734D01*
X010604Y001769D01*
X010673Y001771D01*
X010698Y001759D01*
X010657Y001750D01*
X010610Y001750D01*
X010570Y001581D02*
X010542Y001579D01*
X010518Y001571D01*
X010499Y001566D01*
X010467Y001567D01*
X010448Y001569D01*
X010570Y001581D02*
X010590Y001577D01*
X010599Y001571D01*
X010615Y001566D01*
X010681Y001565D01*
X010744Y001564D01*
D17*
X010585Y001247D02*
X010916Y001247D01*
X010928Y001240D01*
X010954Y001247D01*
X011026Y001247D01*
X011035Y001239D01*
X011057Y001242D01*
X011061Y001239D01*
X011111Y001245D01*
X011157Y001241D01*
X011163Y001247D01*
X011191Y001247D01*
X011201Y001256D01*
X011213Y001258D01*
X011250Y001305D01*
X011300Y001355D01*
X011300Y001369D01*
X011307Y001378D01*
X011300Y001439D01*
X011300Y001508D01*
X011300Y001508D01*
X011300Y001512D01*
X011290Y001524D01*
X011278Y001615D01*
X011294Y001634D01*
X011343Y001682D01*
X011343Y001692D01*
X011349Y001699D01*
X011347Y001715D01*
X011351Y001720D01*
X011343Y001787D01*
X011343Y001801D01*
X011343Y001856D01*
X011333Y001867D01*
X011331Y001895D01*
X011349Y001913D01*
X011348Y001921D01*
X011351Y001924D01*
X011351Y001933D01*
X011364Y001951D01*
X011362Y001968D01*
X011370Y001983D01*
X011352Y002042D01*
X011351Y002051D01*
X011352Y002075D01*
X011347Y002081D01*
X011346Y002086D01*
X011345Y002102D01*
X011343Y002104D01*
X011243Y002836D01*
X011246Y002840D01*
X011240Y002872D01*
X011249Y002893D01*
X011238Y002918D01*
X011242Y002939D01*
X011233Y002952D01*
X011233Y002956D01*
X011226Y002965D01*
X011223Y002982D01*
X011223Y002986D01*
X011218Y002991D01*
X011217Y003000D01*
X011198Y003013D01*
X011189Y003035D01*
X011188Y003039D01*
X011161Y003056D01*
X011149Y003074D01*
X011141Y003076D01*
X011125Y003097D01*
X011115Y003098D01*
X011110Y003104D01*
X011100Y003105D01*
X011089Y003117D01*
X011066Y003117D01*
X011046Y003129D01*
X010991Y003116D01*
X010981Y003116D01*
X010973Y003118D01*
X010972Y003117D01*
X010945Y003119D01*
X010942Y003116D01*
X010467Y003116D01*
X010462Y003121D01*
X010423Y003116D01*
X010407Y003116D01*
X010345Y003126D01*
X010332Y003116D01*
X010316Y003116D01*
X010303Y003103D01*
X010297Y003102D01*
X010297Y003102D01*
X010290Y003101D01*
X010270Y003077D01*
X010255Y003074D01*
X010238Y003047D01*
X010235Y003045D01*
X010226Y003041D01*
X010223Y003036D01*
X010210Y003026D01*
X010207Y003004D01*
X010192Y002993D01*
X010190Y002983D01*
X010181Y002972D01*
X010181Y002969D01*
X010169Y002957D01*
X010169Y002942D01*
X010169Y002940D01*
X010169Y002936D01*
X010163Y002926D01*
X010164Y002923D01*
X010161Y002920D01*
X010163Y002907D01*
X010154Y002890D01*
X010169Y002848D01*
X010164Y002815D01*
X010169Y002808D01*
X010169Y002791D01*
X010179Y002782D01*
X010201Y002614D01*
X010154Y002614D01*
X010150Y002617D01*
X010138Y002615D01*
X010130Y002621D01*
X010110Y002619D01*
X010106Y002622D01*
X010072Y002618D01*
X010037Y002625D01*
X010019Y002614D01*
X009976Y002614D01*
X009967Y002604D01*
X009954Y002603D01*
X009914Y002551D01*
X009904Y002542D01*
X009897Y002537D01*
X009896Y002534D01*
X009868Y002505D01*
X009868Y002492D01*
X009860Y002482D01*
X009868Y002417D01*
X009868Y002409D01*
X009860Y002376D01*
X009868Y002364D01*
X009868Y002352D01*
X009877Y002343D01*
X009887Y002260D01*
X009868Y002260D01*
X009857Y002250D01*
X009843Y002248D01*
X009804Y002197D01*
X009759Y002152D01*
X009759Y002137D01*
X009750Y002125D01*
X009755Y002091D01*
X009751Y002083D01*
X009759Y002054D01*
X009759Y001998D01*
X009766Y001991D01*
X009766Y001973D01*
X009771Y001969D01*
X009773Y001961D01*
X009783Y001890D01*
X009782Y001839D01*
X009783Y001838D01*
X009783Y001823D01*
X009794Y001812D01*
X009796Y001797D01*
X009845Y001760D01*
X009808Y001542D01*
X009796Y001529D01*
X009796Y001513D01*
X009793Y001509D01*
X009793Y001448D01*
X009783Y001387D01*
X009793Y001373D01*
X009793Y001356D01*
X009836Y001313D01*
X009872Y001263D01*
X009889Y001260D01*
X009901Y001248D01*
X009962Y001248D01*
X010023Y001237D01*
X010028Y001241D01*
X010045Y001238D01*
X010058Y001247D01*
X010224Y001247D01*
X010241Y001239D01*
X010266Y001247D01*
X010521Y001247D01*
X010526Y001244D01*
X010532Y001246D01*
X010556Y001236D01*
X010585Y001247D01*
X011254Y001309D02*
X020076Y001309D01*
X020070Y001297D02*
X020006Y001232D01*
X019921Y001197D01*
X019875Y001192D01*
X001375Y001192D01*
X001329Y001197D01*
X001244Y001232D01*
X001180Y001297D01*
X001145Y001382D01*
X001140Y001427D01*
X001140Y004530D01*
X001100Y004628D01*
X000845Y004882D01*
X000845Y024474D01*
X000880Y024558D01*
X000944Y024623D01*
X001028Y024657D01*
X018222Y024657D01*
X018306Y024623D01*
X018370Y024558D01*
X018405Y024473D01*
X018410Y024427D01*
X018410Y024075D01*
X018526Y023794D01*
X018742Y023579D01*
X019023Y023462D01*
X020175Y023462D01*
X020221Y023458D01*
X020306Y023423D01*
X020370Y023358D01*
X020405Y023274D01*
X020405Y004882D01*
X020150Y004628D01*
X020110Y004530D01*
X020110Y001427D01*
X020105Y001382D01*
X020070Y001297D01*
X020003Y001231D02*
X001247Y001231D01*
X001174Y001309D02*
X009838Y001309D01*
X009783Y001388D02*
X001144Y001388D01*
X001140Y001466D02*
X009793Y001466D01*
X009809Y001545D02*
X001140Y001545D01*
X001140Y001623D02*
X009822Y001623D01*
X009835Y001702D02*
X001140Y001702D01*
X001140Y001780D02*
X009818Y001780D01*
X009782Y001859D02*
X001140Y001859D01*
X001140Y001937D02*
X009776Y001937D01*
X009759Y002016D02*
X001140Y002016D01*
X001140Y002094D02*
X009755Y002094D01*
X009781Y002173D02*
X001140Y002173D01*
X001140Y002251D02*
X009859Y002251D01*
X009879Y002330D02*
X001140Y002330D01*
X001140Y002408D02*
X009868Y002408D01*
X009864Y002487D02*
X001140Y002487D01*
X001140Y002565D02*
X009925Y002565D01*
X010158Y002879D02*
X001140Y002879D01*
X001140Y002801D02*
X010169Y002801D01*
X010187Y002722D02*
X001140Y002722D01*
X001140Y002644D02*
X010197Y002644D01*
X010170Y002958D02*
X001140Y002958D01*
X001140Y003036D02*
X010223Y003036D01*
X010315Y003115D02*
X001140Y003115D01*
X001140Y003193D02*
X001381Y003193D01*
X001412Y003181D02*
X001531Y003181D01*
X001641Y003226D01*
X001726Y003311D01*
X001767Y003409D01*
X001808Y003311D01*
X001892Y003226D01*
X002002Y003181D01*
X002122Y003181D01*
X002232Y003226D01*
X002316Y003311D01*
X002357Y003409D01*
X002398Y003311D01*
X002483Y003226D01*
X002593Y003181D01*
X002712Y003181D01*
X002822Y003226D01*
X002907Y003311D01*
X002948Y003409D01*
X002989Y003311D01*
X003073Y003226D01*
X003183Y003181D01*
X003303Y003181D01*
X003413Y003226D01*
X003497Y003311D01*
X003538Y003409D01*
X003579Y003311D01*
X003664Y003226D01*
X003774Y003181D01*
X003893Y003181D01*
X004004Y003226D01*
X004088Y003311D01*
X004129Y003409D01*
X004170Y003311D01*
X004254Y003226D01*
X004365Y003181D01*
X004484Y003181D01*
X004594Y003226D01*
X004679Y003311D01*
X004719Y003409D01*
X004760Y003311D01*
X004845Y003226D01*
X004955Y003181D01*
X005074Y003181D01*
X005185Y003226D01*
X005269Y003311D01*
X005310Y003409D01*
X005351Y003311D01*
X005435Y003226D01*
X005546Y003181D01*
X005665Y003181D01*
X005775Y003226D01*
X005860Y003311D01*
X005901Y003409D01*
X005942Y003311D01*
X006026Y003226D01*
X006136Y003181D01*
X006256Y003181D01*
X006366Y003226D01*
X006450Y003311D01*
X006491Y003409D01*
X006532Y003311D01*
X006616Y003226D01*
X006727Y003181D01*
X006846Y003181D01*
X006956Y003226D01*
X007041Y003311D01*
X007082Y003409D01*
X007123Y003311D01*
X007207Y003226D01*
X007317Y003181D01*
X007437Y003181D01*
X007547Y003226D01*
X007631Y003311D01*
X007672Y003409D01*
X007713Y003311D01*
X007798Y003226D01*
X007908Y003181D01*
X008027Y003181D01*
X008137Y003226D01*
X008222Y003311D01*
X008263Y003409D01*
X008304Y003311D01*
X008388Y003226D01*
X008498Y003181D01*
X008618Y003181D01*
X008728Y003226D01*
X008812Y003311D01*
X008853Y003409D01*
X008894Y003311D01*
X008979Y003226D01*
X009089Y003181D01*
X009208Y003181D01*
X009319Y003226D01*
X009403Y003311D01*
X009444Y003409D01*
X009485Y003311D01*
X009569Y003226D01*
X009679Y003181D01*
X009799Y003181D01*
X009909Y003226D01*
X009994Y003311D01*
X010034Y003409D01*
X010075Y003311D01*
X010160Y003226D01*
X010270Y003181D01*
X010389Y003181D01*
X010500Y003226D01*
X010584Y003311D01*
X010625Y003409D01*
X010666Y003311D01*
X010750Y003226D01*
X010861Y003181D01*
X010980Y003181D01*
X011090Y003226D01*
X011175Y003311D01*
X011216Y003409D01*
X011256Y003311D01*
X011341Y003226D01*
X011451Y003181D01*
X011571Y003181D01*
X011681Y003226D01*
X011765Y003311D01*
X011806Y003409D01*
X011847Y003311D01*
X011931Y003226D01*
X012042Y003181D01*
X012161Y003181D01*
X012271Y003226D01*
X012356Y003311D01*
X012397Y003409D01*
X012438Y003311D01*
X012522Y003226D01*
X012632Y003181D01*
X012752Y003181D01*
X012862Y003226D01*
X012946Y003311D01*
X012987Y003409D01*
X013028Y003311D01*
X013113Y003226D01*
X013223Y003181D01*
X013342Y003181D01*
X013452Y003226D01*
X013537Y003311D01*
X013578Y003409D01*
X013619Y003311D01*
X013703Y003226D01*
X013813Y003181D01*
X013933Y003181D01*
X014043Y003226D01*
X014127Y003311D01*
X014168Y003409D01*
X014209Y003311D01*
X014294Y003226D01*
X014404Y003181D01*
X014523Y003181D01*
X014634Y003226D01*
X014718Y003311D01*
X014759Y003409D01*
X014800Y003311D01*
X014884Y003226D01*
X014994Y003181D01*
X015114Y003181D01*
X015155Y003197D01*
X015270Y003082D01*
X015405Y002947D01*
X018390Y002947D01*
X018623Y003181D01*
X018657Y003181D01*
X018767Y003226D01*
X018852Y003311D01*
X018893Y003409D01*
X018934Y003311D01*
X019018Y003226D01*
X019128Y003181D01*
X019248Y003181D01*
X019358Y003226D01*
X019442Y003311D01*
X019488Y003421D01*
X019488Y003540D01*
X019442Y003650D01*
X019358Y003735D01*
X019248Y003781D01*
X019128Y003781D01*
X019018Y003735D01*
X018934Y003650D01*
X018893Y003552D01*
X018852Y003650D01*
X018767Y003735D01*
X018657Y003781D01*
X018538Y003781D01*
X018428Y003735D01*
X018343Y003650D01*
X018302Y003552D01*
X018261Y003650D01*
X018177Y003735D01*
X018119Y003759D01*
X017605Y004273D01*
X017470Y004407D01*
X016570Y004407D01*
X015770Y005207D01*
X012375Y005207D01*
X012375Y005307D01*
X012329Y005417D01*
X012245Y005502D01*
X012135Y005547D01*
X012015Y005547D01*
X011905Y005502D01*
X011821Y005417D01*
X011817Y005407D01*
X010220Y005407D01*
X010066Y005562D01*
X010406Y005471D01*
X010844Y005471D01*
X011269Y005584D01*
X011649Y005804D01*
X011959Y006114D01*
X012179Y006495D01*
X012292Y006919D01*
X012292Y007135D01*
X013436Y005991D01*
X013471Y005907D01*
X013555Y005823D01*
X013665Y005777D01*
X013785Y005777D01*
X013895Y005823D01*
X013919Y005847D01*
X015921Y005847D01*
X015945Y005823D01*
X016055Y005777D01*
X016175Y005777D01*
X016285Y005823D01*
X016369Y005907D01*
X016415Y006018D01*
X016415Y006137D01*
X016369Y006247D01*
X016285Y006332D01*
X016221Y006358D01*
X016225Y006368D01*
X016225Y006487D01*
X016179Y006597D01*
X016095Y006682D01*
X016023Y006712D01*
X016025Y006718D01*
X016025Y006837D01*
X015979Y006947D01*
X015975Y006952D01*
X016170Y007147D01*
X016305Y007282D01*
X016305Y008683D01*
X016329Y008707D01*
X016375Y008818D01*
X016375Y008937D01*
X016329Y009047D01*
X016245Y009132D01*
X016135Y009177D01*
X016015Y009177D01*
X015905Y009132D01*
X015821Y009047D01*
X015775Y008937D01*
X015775Y008818D01*
X015821Y008707D01*
X015845Y008683D01*
X015845Y007473D01*
X015730Y007357D01*
X014025Y007357D01*
X014025Y007467D01*
X013979Y007577D01*
X013899Y007657D01*
X013979Y007737D01*
X014025Y007848D01*
X014025Y007967D01*
X013979Y008077D01*
X013895Y008162D01*
X013887Y008165D01*
X013959Y008237D01*
X014005Y008348D01*
X014005Y008467D01*
X013959Y008577D01*
X013887Y008650D01*
X013895Y008653D01*
X013979Y008737D01*
X014025Y008848D01*
X014025Y008967D01*
X013979Y009077D01*
X013899Y009157D01*
X013979Y009237D01*
X014025Y009348D01*
X014025Y009467D01*
X013979Y009577D01*
X013899Y009657D01*
X013979Y009737D01*
X014025Y009848D01*
X014025Y009967D01*
X013979Y010077D01*
X013899Y010157D01*
X013979Y010237D01*
X014025Y010348D01*
X014025Y010467D01*
X013979Y010577D01*
X013899Y010657D01*
X013979Y010737D01*
X014025Y010848D01*
X014025Y010967D01*
X013979Y011077D01*
X013914Y011142D01*
X013979Y011207D01*
X014025Y011318D01*
X014025Y011437D01*
X014021Y011447D01*
X015330Y011447D01*
X015345Y011432D01*
X015480Y011297D01*
X015481Y011297D01*
X015505Y011273D01*
X015615Y011227D01*
X015735Y011227D01*
X015845Y011273D01*
X015929Y011357D01*
X020405Y011357D01*
X020405Y011279D02*
X015851Y011279D01*
X015929Y011357D02*
X015975Y011468D01*
X015975Y011587D01*
X015929Y011697D01*
X015924Y011702D01*
X015929Y011707D01*
X015975Y011818D01*
X015975Y011937D01*
X015929Y012047D01*
X015845Y012132D01*
X015735Y012177D01*
X015615Y012177D01*
X015505Y012132D01*
X015481Y012107D01*
X013430Y012107D01*
X013295Y011973D01*
X013180Y011857D01*
X009846Y011857D01*
X009829Y011897D01*
X009745Y011982D01*
X009635Y012027D01*
X009515Y012027D01*
X009405Y011982D01*
X009405Y011982D01*
X009405Y014623D01*
X009270Y014757D01*
X005205Y018823D01*
X005205Y020243D01*
X004975Y020473D01*
X004975Y020507D01*
X004929Y020617D01*
X004845Y020702D01*
X004735Y020747D01*
X004615Y020747D01*
X004505Y020702D01*
X004421Y020617D01*
X004375Y020507D01*
X004375Y020388D01*
X004421Y020277D01*
X004505Y020193D01*
X004615Y020147D01*
X004650Y020147D01*
X004745Y020052D01*
X004745Y018632D01*
X004880Y018497D01*
X008945Y014432D01*
X008945Y012023D01*
X008780Y011857D01*
X008645Y011723D01*
X008645Y011722D01*
X008621Y011697D01*
X008575Y011587D01*
X008575Y011507D01*
X004771Y011507D01*
X004775Y011518D01*
X004775Y011637D01*
X004729Y011747D01*
X004645Y011832D01*
X004535Y011877D01*
X004415Y011877D01*
X004305Y011832D01*
X004221Y011747D01*
X004205Y011709D01*
X004205Y012027D01*
X004235Y012027D01*
X004345Y012073D01*
X004429Y012157D01*
X004458Y012227D01*
X004535Y012227D01*
X004645Y012273D01*
X004650Y012278D01*
X004655Y012273D01*
X004765Y012227D01*
X004885Y012227D01*
X004995Y012273D01*
X005079Y012357D01*
X005125Y012468D01*
X005125Y012587D01*
X005079Y012697D01*
X005055Y012722D01*
X005055Y012723D01*
X004920Y012857D01*
X004720Y013057D01*
X003780Y013057D01*
X003449Y012727D01*
X003445Y012732D01*
X003335Y012777D01*
X003215Y012777D01*
X003105Y012732D01*
X003100Y012727D01*
X003095Y012732D01*
X002985Y012777D01*
X002865Y012777D01*
X002755Y012732D01*
X002750Y012727D01*
X002745Y012732D01*
X002635Y012777D01*
X002515Y012777D01*
X002405Y012732D01*
X002400Y012727D01*
X002395Y012732D01*
X002285Y012777D01*
X002165Y012777D01*
X002055Y012732D01*
X001971Y012647D01*
X001925Y012537D01*
X001925Y012418D01*
X001971Y012307D01*
X002055Y012223D01*
X002139Y012188D01*
X002545Y011782D01*
X002545Y006482D01*
X002995Y006032D01*
X002995Y005732D01*
X003345Y005382D01*
X003345Y003982D01*
X003628Y003699D01*
X003579Y003650D01*
X003538Y003552D01*
X003497Y003650D01*
X003413Y003735D01*
X003303Y003781D01*
X003183Y003781D01*
X003073Y003735D01*
X002989Y003650D01*
X002948Y003552D01*
X002907Y003650D01*
X002822Y003735D01*
X002712Y003781D01*
X002593Y003781D01*
X002483Y003735D01*
X002398Y003650D01*
X002357Y003552D01*
X002316Y003650D01*
X002232Y003735D01*
X002122Y003781D01*
X002002Y003781D01*
X001892Y003735D01*
X001808Y003650D01*
X001767Y003552D01*
X001726Y003650D01*
X001641Y003735D01*
X001531Y003781D01*
X001412Y003781D01*
X001302Y003735D01*
X001217Y003650D01*
X001171Y003540D01*
X001171Y003421D01*
X001217Y003311D01*
X001302Y003226D01*
X001412Y003181D01*
X001562Y003193D02*
X001971Y003193D01*
X001846Y003272D02*
X001687Y003272D01*
X001742Y003350D02*
X001791Y003350D01*
X001781Y003586D02*
X001753Y003586D01*
X001712Y003664D02*
X001822Y003664D01*
X001911Y003743D02*
X001622Y003743D01*
X001321Y003743D02*
X001140Y003743D01*
X001140Y003821D02*
X003506Y003821D01*
X003584Y003743D02*
X003394Y003743D01*
X003484Y003664D02*
X003593Y003664D01*
X003553Y003586D02*
X003524Y003586D01*
X003514Y003350D02*
X003563Y003350D01*
X003618Y003272D02*
X003459Y003272D01*
X003334Y003193D02*
X003743Y003193D01*
X003924Y003193D02*
X004334Y003193D01*
X004209Y003272D02*
X004049Y003272D01*
X004104Y003350D02*
X004153Y003350D01*
X004515Y003193D02*
X004924Y003193D01*
X004799Y003272D02*
X004640Y003272D01*
X004695Y003350D02*
X004744Y003350D01*
X005105Y003193D02*
X005515Y003193D01*
X005390Y003272D02*
X005230Y003272D01*
X005286Y003350D02*
X005335Y003350D01*
X005696Y003193D02*
X006105Y003193D01*
X005980Y003272D02*
X005821Y003272D01*
X005876Y003350D02*
X005925Y003350D01*
X006286Y003193D02*
X006696Y003193D01*
X006571Y003272D02*
X006411Y003272D01*
X006467Y003350D02*
X006516Y003350D01*
X006877Y003193D02*
X007286Y003193D01*
X007161Y003272D02*
X007002Y003272D01*
X007057Y003350D02*
X007106Y003350D01*
X007468Y003193D02*
X007877Y003193D01*
X007752Y003272D02*
X007593Y003272D01*
X007648Y003350D02*
X007697Y003350D01*
X008058Y003193D02*
X008467Y003193D01*
X008342Y003272D02*
X008183Y003272D01*
X008238Y003350D02*
X008287Y003350D01*
X008649Y003193D02*
X009058Y003193D01*
X008933Y003272D02*
X008774Y003272D01*
X008829Y003350D02*
X008878Y003350D01*
X009239Y003193D02*
X009649Y003193D01*
X009524Y003272D02*
X009364Y003272D01*
X009419Y003350D02*
X009468Y003350D01*
X009830Y003193D02*
X010239Y003193D01*
X010114Y003272D02*
X009955Y003272D01*
X010010Y003350D02*
X010059Y003350D01*
X010420Y003193D02*
X010830Y003193D01*
X010705Y003272D02*
X010545Y003272D01*
X010601Y003350D02*
X010649Y003350D01*
X011011Y003193D02*
X011420Y003193D01*
X011295Y003272D02*
X011136Y003272D01*
X011191Y003350D02*
X011240Y003350D01*
X011090Y003115D02*
X015237Y003115D01*
X015159Y003193D02*
X015145Y003193D01*
X014964Y003193D02*
X014554Y003193D01*
X014679Y003272D02*
X014839Y003272D01*
X014783Y003350D02*
X014734Y003350D01*
X014373Y003193D02*
X013964Y003193D01*
X014089Y003272D02*
X014248Y003272D01*
X014193Y003350D02*
X014144Y003350D01*
X013782Y003193D02*
X013373Y003193D01*
X013498Y003272D02*
X013657Y003272D01*
X013602Y003350D02*
X013553Y003350D01*
X013192Y003193D02*
X012783Y003193D01*
X012908Y003272D02*
X013067Y003272D01*
X013012Y003350D02*
X012963Y003350D01*
X012601Y003193D02*
X012192Y003193D01*
X012317Y003272D02*
X012476Y003272D01*
X012421Y003350D02*
X012372Y003350D01*
X012011Y003193D02*
X011601Y003193D01*
X011726Y003272D02*
X011886Y003272D01*
X011831Y003350D02*
X011782Y003350D01*
X011188Y003036D02*
X015316Y003036D01*
X015394Y002958D02*
X011232Y002958D01*
X011244Y002879D02*
X020110Y002879D01*
X020110Y002801D02*
X011248Y002801D01*
X011259Y002722D02*
X020110Y002722D01*
X020110Y002644D02*
X011270Y002644D01*
X011280Y002565D02*
X020110Y002565D01*
X020110Y002487D02*
X011291Y002487D01*
X011302Y002408D02*
X020110Y002408D01*
X020110Y002330D02*
X011313Y002330D01*
X011323Y002251D02*
X020110Y002251D01*
X020110Y002173D02*
X011334Y002173D01*
X011346Y002094D02*
X020110Y002094D01*
X020110Y002016D02*
X011360Y002016D01*
X011354Y001937D02*
X020110Y001937D01*
X020110Y001859D02*
X011341Y001859D01*
X011343Y001780D02*
X020110Y001780D01*
X020110Y001702D02*
X011349Y001702D01*
X011286Y001623D02*
X020110Y001623D01*
X020110Y001545D02*
X011287Y001545D01*
X011300Y001466D02*
X020110Y001466D01*
X020106Y001388D02*
X011306Y001388D01*
X009220Y004257D02*
X004329Y004257D01*
X004329Y004257D01*
X004375Y004368D01*
X004375Y004487D01*
X004329Y004597D01*
X004255Y004672D01*
X004255Y005372D01*
X004275Y005352D01*
X004275Y005318D01*
X004321Y005207D01*
X004405Y005123D01*
X004515Y005077D01*
X004635Y005077D01*
X004745Y005123D01*
X004829Y005207D01*
X004875Y005318D01*
X004875Y005437D01*
X004829Y005547D01*
X004745Y005632D01*
X004659Y005667D01*
X004669Y005677D01*
X004750Y005677D01*
X005920Y006847D01*
X006055Y006982D01*
X006055Y007532D01*
X006370Y007847D01*
X008220Y007847D01*
X008370Y007997D01*
X008770Y007997D01*
X008695Y007923D01*
X008695Y006633D01*
X008325Y007003D01*
X008325Y007203D01*
X008125Y007403D01*
X008066Y007462D01*
X008059Y007477D01*
X007975Y007562D01*
X007865Y007607D01*
X007745Y007607D01*
X007635Y007562D01*
X007551Y007477D01*
X007505Y007367D01*
X007505Y007248D01*
X007551Y007137D01*
X007581Y007107D01*
X007551Y007077D01*
X007505Y006967D01*
X007505Y006848D01*
X007551Y006737D01*
X007631Y006657D01*
X007551Y006577D01*
X007505Y006467D01*
X007505Y006348D01*
X007551Y006237D01*
X007631Y006157D01*
X007611Y006137D01*
X007239Y006137D01*
X007215Y006162D01*
X007105Y006207D01*
X006985Y006207D01*
X006875Y006162D01*
X006791Y006077D01*
X006745Y005967D01*
X006745Y005848D01*
X006791Y005737D01*
X006871Y005657D01*
X006791Y005577D01*
X006745Y005467D01*
X006745Y005348D01*
X006791Y005237D01*
X006875Y005153D01*
X006985Y005107D01*
X007105Y005107D01*
X007215Y005153D01*
X007239Y005177D01*
X007611Y005177D01*
X007635Y005153D01*
X007745Y005107D01*
X007865Y005107D01*
X007975Y005153D01*
X007999Y005177D01*
X008300Y005177D01*
X009220Y004257D01*
X009185Y004292D02*
X004344Y004292D01*
X004375Y004371D02*
X009106Y004371D01*
X009028Y004449D02*
X004375Y004449D01*
X004358Y004528D02*
X008949Y004528D01*
X008871Y004606D02*
X004320Y004606D01*
X004255Y004685D02*
X008792Y004685D01*
X008714Y004763D02*
X004255Y004763D01*
X004255Y004842D02*
X008635Y004842D01*
X008557Y004920D02*
X004255Y004920D01*
X004255Y004999D02*
X008478Y004999D01*
X008400Y005077D02*
X004255Y005077D01*
X004255Y005156D02*
X004372Y005156D01*
X004310Y005234D02*
X004255Y005234D01*
X004255Y005313D02*
X004277Y005313D01*
X004778Y005156D02*
X006872Y005156D01*
X006794Y005234D02*
X004840Y005234D01*
X004873Y005313D02*
X006759Y005313D01*
X006745Y005391D02*
X004875Y005391D01*
X004861Y005470D02*
X006746Y005470D01*
X006779Y005548D02*
X004828Y005548D01*
X004750Y005627D02*
X006840Y005627D01*
X006823Y005705D02*
X004778Y005705D01*
X004857Y005784D02*
X006771Y005784D01*
X006745Y005862D02*
X004935Y005862D01*
X005014Y005941D02*
X006745Y005941D01*
X006767Y006019D02*
X005092Y006019D01*
X005171Y006098D02*
X006811Y006098D01*
X006910Y006176D02*
X005249Y006176D01*
X005328Y006255D02*
X007543Y006255D01*
X007511Y006333D02*
X005406Y006333D01*
X005485Y006412D02*
X007505Y006412D01*
X007515Y006490D02*
X005563Y006490D01*
X005642Y006569D02*
X007547Y006569D01*
X007621Y006647D02*
X005720Y006647D01*
X005799Y006726D02*
X007562Y006726D01*
X007523Y006804D02*
X005877Y006804D01*
X005956Y006883D02*
X007505Y006883D01*
X007505Y006961D02*
X006034Y006961D01*
X006055Y007040D02*
X007535Y007040D01*
X007570Y007118D02*
X006055Y007118D01*
X006055Y007197D02*
X007526Y007197D01*
X007505Y007275D02*
X006055Y007275D01*
X006055Y007354D02*
X007505Y007354D01*
X007532Y007432D02*
X006055Y007432D01*
X006055Y007511D02*
X007584Y007511D01*
X007702Y007589D02*
X006112Y007589D01*
X006191Y007668D02*
X008695Y007668D01*
X008695Y007746D02*
X006269Y007746D01*
X006348Y007825D02*
X008695Y007825D01*
X008695Y007903D02*
X008276Y007903D01*
X008355Y007982D02*
X008754Y007982D01*
X008695Y007589D02*
X007908Y007589D01*
X008026Y007511D02*
X008695Y007511D01*
X008695Y007432D02*
X008095Y007432D01*
X008174Y007354D02*
X008695Y007354D01*
X008695Y007275D02*
X008252Y007275D01*
X008325Y007197D02*
X008695Y007197D01*
X008695Y007118D02*
X008325Y007118D01*
X008325Y007040D02*
X008695Y007040D01*
X008695Y006961D02*
X008366Y006961D01*
X008445Y006883D02*
X008695Y006883D01*
X008695Y006804D02*
X008523Y006804D01*
X008602Y006726D02*
X008695Y006726D01*
X008695Y006647D02*
X008680Y006647D01*
X007612Y006176D02*
X007180Y006176D01*
X007218Y005156D02*
X007632Y005156D01*
X007978Y005156D02*
X008321Y005156D01*
X010079Y005548D02*
X010116Y005548D01*
X010158Y005470D02*
X011873Y005470D01*
X011614Y005784D02*
X013650Y005784D01*
X013800Y005784D02*
X016040Y005784D01*
X016190Y005784D02*
X016459Y005784D01*
X016481Y005732D02*
X016511Y005702D01*
X016465Y005702D01*
X016355Y005657D01*
X016271Y005572D01*
X016225Y005462D01*
X016225Y005343D01*
X016271Y005232D01*
X016355Y005148D01*
X016465Y005102D01*
X016585Y005102D01*
X016695Y005148D01*
X016719Y005172D01*
X017506Y005172D01*
X017530Y005148D01*
X017640Y005102D01*
X017760Y005102D01*
X017870Y005148D01*
X017954Y005232D01*
X018000Y005343D01*
X018000Y005462D01*
X017954Y005572D01*
X017874Y005652D01*
X017954Y005732D01*
X018000Y005843D01*
X018000Y005962D01*
X017954Y006072D01*
X017874Y006152D01*
X017954Y006232D01*
X018000Y006343D01*
X018000Y006462D01*
X017954Y006572D01*
X017874Y006652D01*
X017954Y006732D01*
X018000Y006843D01*
X018000Y006962D01*
X017954Y007072D01*
X017870Y007157D01*
X017760Y007202D01*
X017640Y007202D01*
X017530Y007157D01*
X017506Y007132D01*
X017269Y007132D01*
X017245Y007157D01*
X017135Y007202D01*
X017015Y007202D01*
X016905Y007157D01*
X016821Y007072D01*
X016775Y006962D01*
X016775Y006843D01*
X016821Y006732D01*
X016855Y006698D01*
X016755Y006657D01*
X016671Y006572D01*
X016625Y006462D01*
X016625Y006343D01*
X016671Y006232D01*
X016701Y006202D01*
X016675Y006202D01*
X016565Y006157D01*
X016481Y006072D01*
X016435Y005962D01*
X016435Y005843D01*
X016481Y005732D01*
X016508Y005705D02*
X011478Y005705D01*
X011342Y005627D02*
X016325Y005627D01*
X016261Y005548D02*
X011134Y005548D01*
X011707Y005862D02*
X013516Y005862D01*
X013457Y005941D02*
X011786Y005941D01*
X011864Y006019D02*
X013408Y006019D01*
X013329Y006098D02*
X011943Y006098D01*
X011995Y006176D02*
X013251Y006176D01*
X013172Y006255D02*
X012040Y006255D01*
X012086Y006333D02*
X013094Y006333D01*
X013015Y006412D02*
X012131Y006412D01*
X012176Y006490D02*
X012937Y006490D01*
X012858Y006569D02*
X012198Y006569D01*
X012220Y006647D02*
X012780Y006647D01*
X012701Y006726D02*
X012241Y006726D01*
X012262Y006804D02*
X012623Y006804D01*
X012544Y006883D02*
X012283Y006883D01*
X012292Y006961D02*
X012466Y006961D01*
X012387Y007040D02*
X012292Y007040D01*
X012292Y007118D02*
X012309Y007118D01*
X012277Y005470D02*
X016228Y005470D01*
X016225Y005391D02*
X012340Y005391D01*
X012373Y005313D02*
X016237Y005313D01*
X016270Y005234D02*
X012375Y005234D01*
X014025Y007432D02*
X015805Y007432D01*
X015845Y007511D02*
X014007Y007511D01*
X013967Y007589D02*
X015845Y007589D01*
X015845Y007668D02*
X013910Y007668D01*
X013983Y007746D02*
X015845Y007746D01*
X015845Y007825D02*
X014016Y007825D01*
X014025Y007903D02*
X015845Y007903D01*
X015845Y007982D02*
X014019Y007982D01*
X013986Y008060D02*
X015845Y008060D01*
X015845Y008139D02*
X015648Y008139D01*
X015670Y008148D02*
X015754Y008232D01*
X015800Y008343D01*
X015800Y008462D01*
X015754Y008572D01*
X015670Y008657D01*
X015560Y008702D01*
X015440Y008702D01*
X015330Y008657D01*
X015306Y008632D01*
X014554Y008632D01*
X014530Y008657D01*
X014420Y008702D01*
X014300Y008702D01*
X014190Y008657D01*
X014106Y008572D01*
X014060Y008462D01*
X014060Y008343D01*
X014106Y008232D01*
X014190Y008148D01*
X014300Y008102D01*
X014420Y008102D01*
X014530Y008148D01*
X014554Y008172D01*
X015306Y008172D01*
X015330Y008148D01*
X015440Y008102D01*
X015560Y008102D01*
X015670Y008148D01*
X015739Y008217D02*
X015845Y008217D01*
X015845Y008296D02*
X015781Y008296D01*
X015800Y008374D02*
X015845Y008374D01*
X015845Y008453D02*
X015800Y008453D01*
X015771Y008531D02*
X015845Y008531D01*
X015845Y008610D02*
X015717Y008610D01*
X015594Y008688D02*
X015840Y008688D01*
X015796Y008767D02*
X013992Y008767D01*
X014024Y008845D02*
X015775Y008845D01*
X015775Y008924D02*
X014025Y008924D01*
X014010Y009002D02*
X015802Y009002D01*
X015854Y009081D02*
X013976Y009081D01*
X013901Y009159D02*
X014344Y009159D01*
X014355Y009148D02*
X014271Y009232D01*
X014225Y009343D01*
X014225Y009462D01*
X014271Y009572D01*
X014355Y009657D01*
X014465Y009702D01*
X014585Y009702D01*
X014695Y009657D01*
X014719Y009632D01*
X015306Y009632D01*
X015330Y009657D01*
X015440Y009702D01*
X015560Y009702D01*
X015670Y009657D01*
X015754Y009572D01*
X015800Y009462D01*
X015800Y009343D01*
X015754Y009232D01*
X015670Y009148D01*
X015560Y009102D01*
X015440Y009102D01*
X015330Y009148D01*
X015306Y009172D01*
X014719Y009172D01*
X014695Y009148D01*
X014585Y009102D01*
X014465Y009102D01*
X014355Y009148D01*
X014268Y009238D02*
X013980Y009238D01*
X014012Y009316D02*
X014236Y009316D01*
X014225Y009395D02*
X014025Y009395D01*
X014022Y009473D02*
X014230Y009473D01*
X014262Y009552D02*
X013990Y009552D01*
X013926Y009630D02*
X014329Y009630D01*
X014000Y009787D02*
X020405Y009787D01*
X020405Y009709D02*
X013951Y009709D01*
X014025Y009866D02*
X020405Y009866D01*
X020405Y009944D02*
X014025Y009944D01*
X014002Y010023D02*
X020405Y010023D01*
X020405Y010101D02*
X013955Y010101D01*
X013922Y010180D02*
X020405Y010180D01*
X020405Y010258D02*
X013988Y010258D01*
X014021Y010337D02*
X020405Y010337D01*
X020405Y010415D02*
X014025Y010415D01*
X014014Y010494D02*
X020405Y010494D01*
X020405Y010572D02*
X013981Y010572D01*
X013906Y010651D02*
X020405Y010651D01*
X020405Y010729D02*
X013971Y010729D01*
X014008Y010808D02*
X020405Y010808D01*
X020405Y010886D02*
X014025Y010886D01*
X014025Y010965D02*
X020405Y010965D01*
X020405Y011043D02*
X013993Y011043D01*
X013935Y011122D02*
X020405Y011122D01*
X020405Y011200D02*
X013972Y011200D01*
X014009Y011279D02*
X015499Y011279D01*
X015420Y011357D02*
X014025Y011357D01*
X014025Y011436D02*
X015341Y011436D01*
X015962Y011436D02*
X020405Y011436D01*
X020405Y011514D02*
X015975Y011514D01*
X015973Y011593D02*
X020405Y011593D01*
X020405Y011671D02*
X015940Y011671D01*
X015947Y011750D02*
X020405Y011750D01*
X020405Y011828D02*
X015975Y011828D01*
X015975Y011907D02*
X020405Y011907D01*
X020405Y011985D02*
X015955Y011985D01*
X015913Y012064D02*
X020405Y012064D01*
X020405Y012142D02*
X015819Y012142D01*
X015671Y012299D02*
X020405Y012299D01*
X020405Y012221D02*
X015590Y012221D01*
X015595Y012223D02*
X015679Y012307D01*
X015725Y012418D01*
X015725Y012537D01*
X015679Y012647D01*
X015655Y012672D01*
X015655Y013983D01*
X015679Y014007D01*
X015725Y014118D01*
X015725Y014237D01*
X015679Y014347D01*
X015595Y014432D01*
X015485Y014477D01*
X015365Y014477D01*
X015255Y014432D01*
X015171Y014347D01*
X015125Y014237D01*
X015125Y014118D01*
X015171Y014007D01*
X015195Y013983D01*
X015195Y012672D01*
X015171Y012647D01*
X015125Y012537D01*
X015125Y012418D01*
X015171Y012307D01*
X015255Y012223D01*
X015365Y012177D01*
X015485Y012177D01*
X015595Y012223D01*
X015531Y012142D02*
X009405Y012142D01*
X009405Y012064D02*
X013386Y012064D01*
X013308Y011985D02*
X009736Y011985D01*
X009820Y011907D02*
X013229Y011907D01*
X013555Y012273D02*
X013471Y012357D01*
X013425Y012468D01*
X013425Y012587D01*
X013471Y012697D01*
X013495Y012722D01*
X013495Y014673D01*
X013630Y014807D01*
X013830Y015007D01*
X013881Y015007D01*
X013905Y015032D01*
X014015Y015077D01*
X014135Y015077D01*
X014245Y015032D01*
X014329Y014947D01*
X014375Y014837D01*
X014375Y014718D01*
X014329Y014607D01*
X014324Y014602D01*
X014329Y014597D01*
X014375Y014487D01*
X014375Y014368D01*
X014329Y014257D01*
X014245Y014173D01*
X014155Y014136D01*
X014155Y012873D01*
X014170Y012857D01*
X014305Y012723D01*
X014305Y012722D01*
X014329Y012697D01*
X014375Y012587D01*
X014375Y012468D01*
X014329Y012357D01*
X014245Y012273D01*
X014135Y012227D01*
X014015Y012227D01*
X013905Y012273D01*
X013900Y012278D01*
X013895Y012273D01*
X013785Y012227D01*
X013665Y012227D01*
X013555Y012273D01*
X013529Y012299D02*
X009405Y012299D01*
X009405Y012221D02*
X015260Y012221D01*
X015179Y012299D02*
X014271Y012299D01*
X014338Y012378D02*
X015141Y012378D01*
X015125Y012456D02*
X014370Y012456D01*
X014375Y012535D02*
X015125Y012535D01*
X015157Y012613D02*
X014364Y012613D01*
X014332Y012692D02*
X015195Y012692D01*
X015195Y012770D02*
X014257Y012770D01*
X014179Y012849D02*
X015195Y012849D01*
X015195Y012927D02*
X014155Y012927D01*
X014155Y013006D02*
X015195Y013006D01*
X015195Y013084D02*
X014155Y013084D01*
X014155Y013163D02*
X015195Y013163D01*
X015195Y013241D02*
X014155Y013241D01*
X014155Y013320D02*
X015195Y013320D01*
X015195Y013398D02*
X014155Y013398D01*
X014155Y013477D02*
X015195Y013477D01*
X015195Y013555D02*
X014155Y013555D01*
X014155Y013634D02*
X015195Y013634D01*
X015195Y013712D02*
X014155Y013712D01*
X014155Y013791D02*
X015195Y013791D01*
X015195Y013869D02*
X014155Y013869D01*
X014155Y013948D02*
X015195Y013948D01*
X015163Y014026D02*
X014155Y014026D01*
X014155Y014105D02*
X015130Y014105D01*
X015125Y014183D02*
X014255Y014183D01*
X014331Y014262D02*
X015135Y014262D01*
X015168Y014340D02*
X014364Y014340D01*
X014375Y014419D02*
X015242Y014419D01*
X015608Y014419D02*
X020405Y014419D01*
X020405Y014497D02*
X014371Y014497D01*
X014338Y014576D02*
X020405Y014576D01*
X020405Y014654D02*
X014349Y014654D01*
X014375Y014733D02*
X020405Y014733D01*
X020405Y014811D02*
X014375Y014811D01*
X014353Y014890D02*
X020405Y014890D01*
X020405Y014968D02*
X014308Y014968D01*
X014208Y015047D02*
X020405Y015047D01*
X020405Y015125D02*
X008902Y015125D01*
X008981Y015047D02*
X013942Y015047D01*
X013791Y014968D02*
X009059Y014968D01*
X009138Y014890D02*
X013712Y014890D01*
X013634Y014811D02*
X009216Y014811D01*
X009295Y014733D02*
X013555Y014733D01*
X013495Y014654D02*
X009373Y014654D01*
X009405Y014576D02*
X013495Y014576D01*
X013495Y014497D02*
X009405Y014497D01*
X009405Y014419D02*
X013495Y014419D01*
X013495Y014340D02*
X009405Y014340D01*
X009405Y014262D02*
X013495Y014262D01*
X013495Y014183D02*
X009405Y014183D01*
X009405Y014105D02*
X013495Y014105D01*
X013495Y014026D02*
X009405Y014026D01*
X009405Y013948D02*
X013495Y013948D01*
X013495Y013869D02*
X009405Y013869D01*
X009405Y013791D02*
X013495Y013791D01*
X013495Y013712D02*
X009405Y013712D01*
X009405Y013634D02*
X013495Y013634D01*
X013495Y013555D02*
X009405Y013555D01*
X009405Y013477D02*
X013495Y013477D01*
X013495Y013398D02*
X009405Y013398D01*
X009405Y013320D02*
X013495Y013320D01*
X013495Y013241D02*
X009405Y013241D01*
X009405Y013163D02*
X013495Y013163D01*
X013495Y013084D02*
X009405Y013084D01*
X009405Y013006D02*
X013495Y013006D01*
X013495Y012927D02*
X009405Y012927D01*
X009405Y012849D02*
X013495Y012849D01*
X013495Y012770D02*
X009405Y012770D01*
X009405Y012692D02*
X013468Y012692D01*
X013436Y012613D02*
X009405Y012613D01*
X009405Y012535D02*
X013425Y012535D01*
X013430Y012456D02*
X009405Y012456D01*
X009405Y012378D02*
X013462Y012378D01*
X015655Y012692D02*
X020405Y012692D01*
X020405Y012770D02*
X015655Y012770D01*
X015655Y012849D02*
X020405Y012849D01*
X020405Y012927D02*
X015655Y012927D01*
X015655Y013006D02*
X020405Y013006D01*
X020405Y013084D02*
X015655Y013084D01*
X015655Y013163D02*
X020405Y013163D01*
X020405Y013241D02*
X015655Y013241D01*
X015655Y013320D02*
X020405Y013320D01*
X020405Y013398D02*
X015655Y013398D01*
X015655Y013477D02*
X020405Y013477D01*
X020405Y013555D02*
X015655Y013555D01*
X015655Y013634D02*
X020405Y013634D01*
X020405Y013712D02*
X015655Y013712D01*
X015655Y013791D02*
X020405Y013791D01*
X020405Y013869D02*
X015655Y013869D01*
X015655Y013948D02*
X020405Y013948D01*
X020405Y014026D02*
X015687Y014026D01*
X015720Y014105D02*
X020405Y014105D01*
X020405Y014183D02*
X015725Y014183D01*
X015715Y014262D02*
X020405Y014262D01*
X020405Y014340D02*
X015682Y014340D01*
X015693Y012613D02*
X020405Y012613D01*
X020405Y012535D02*
X015725Y012535D01*
X015725Y012456D02*
X020405Y012456D01*
X020405Y012378D02*
X015709Y012378D01*
X015696Y009630D02*
X020405Y009630D01*
X020405Y009552D02*
X015763Y009552D01*
X015795Y009473D02*
X020405Y009473D01*
X020405Y009395D02*
X015800Y009395D01*
X015789Y009316D02*
X020405Y009316D01*
X020405Y009238D02*
X015757Y009238D01*
X015681Y009159D02*
X015972Y009159D01*
X016178Y009159D02*
X020405Y009159D01*
X020405Y009081D02*
X016296Y009081D01*
X016348Y009002D02*
X020405Y009002D01*
X020405Y008924D02*
X016375Y008924D01*
X016375Y008845D02*
X020405Y008845D01*
X020405Y008767D02*
X016354Y008767D01*
X016310Y008688D02*
X020405Y008688D01*
X020405Y008610D02*
X016305Y008610D01*
X016305Y008531D02*
X020405Y008531D01*
X020405Y008453D02*
X016305Y008453D01*
X016305Y008374D02*
X020405Y008374D01*
X020405Y008296D02*
X016305Y008296D01*
X016305Y008217D02*
X020405Y008217D01*
X020405Y008139D02*
X016305Y008139D01*
X016305Y008060D02*
X020405Y008060D01*
X020405Y007982D02*
X016305Y007982D01*
X016305Y007903D02*
X020405Y007903D01*
X020405Y007825D02*
X016305Y007825D01*
X016305Y007746D02*
X020405Y007746D01*
X020405Y007668D02*
X016305Y007668D01*
X016305Y007589D02*
X020405Y007589D01*
X020405Y007511D02*
X016305Y007511D01*
X016305Y007432D02*
X020405Y007432D01*
X020405Y007354D02*
X016305Y007354D01*
X016298Y007275D02*
X020405Y007275D01*
X020405Y007197D02*
X017773Y007197D01*
X017627Y007197D02*
X017148Y007197D01*
X017002Y007197D02*
X016220Y007197D01*
X016141Y007118D02*
X016867Y007118D01*
X016807Y007040D02*
X016063Y007040D01*
X015984Y006961D02*
X016775Y006961D01*
X016775Y006883D02*
X016006Y006883D01*
X016025Y006804D02*
X016791Y006804D01*
X016827Y006726D02*
X016025Y006726D01*
X016129Y006647D02*
X016746Y006647D01*
X016669Y006569D02*
X016191Y006569D01*
X016224Y006490D02*
X016637Y006490D01*
X016625Y006412D02*
X016225Y006412D01*
X016281Y006333D02*
X016629Y006333D01*
X016661Y006255D02*
X016362Y006255D01*
X016399Y006176D02*
X016613Y006176D01*
X016506Y006098D02*
X016415Y006098D01*
X016415Y006019D02*
X016459Y006019D01*
X016435Y005941D02*
X016383Y005941D01*
X016435Y005862D02*
X016324Y005862D01*
X016347Y005156D02*
X015822Y005156D01*
X015900Y005077D02*
X020405Y005077D01*
X020405Y004999D02*
X015979Y004999D01*
X016057Y004920D02*
X020405Y004920D01*
X020365Y004842D02*
X016136Y004842D01*
X016214Y004763D02*
X020286Y004763D01*
X020208Y004685D02*
X016293Y004685D01*
X016371Y004606D02*
X020142Y004606D01*
X020110Y004528D02*
X016450Y004528D01*
X016528Y004449D02*
X020110Y004449D01*
X020110Y004371D02*
X017507Y004371D01*
X017585Y004292D02*
X020110Y004292D01*
X020110Y004214D02*
X017664Y004214D01*
X017742Y004135D02*
X020110Y004135D01*
X020110Y004057D02*
X017821Y004057D01*
X017899Y003978D02*
X020110Y003978D01*
X020110Y003900D02*
X017978Y003900D01*
X018056Y003821D02*
X020110Y003821D01*
X020110Y003743D02*
X019339Y003743D01*
X019428Y003664D02*
X020110Y003664D01*
X020110Y003586D02*
X019469Y003586D01*
X019488Y003507D02*
X020110Y003507D01*
X020110Y003429D02*
X019488Y003429D01*
X019459Y003350D02*
X020110Y003350D01*
X020110Y003272D02*
X019404Y003272D01*
X019279Y003193D02*
X020110Y003193D01*
X020110Y003115D02*
X018557Y003115D01*
X018479Y003036D02*
X020110Y003036D01*
X020110Y002958D02*
X018400Y002958D01*
X018688Y003193D02*
X019097Y003193D01*
X018972Y003272D02*
X018813Y003272D01*
X018868Y003350D02*
X018917Y003350D01*
X018907Y003586D02*
X018879Y003586D01*
X018838Y003664D02*
X018948Y003664D01*
X019037Y003743D02*
X018748Y003743D01*
X018447Y003743D02*
X018158Y003743D01*
X018247Y003664D02*
X018357Y003664D01*
X018316Y003586D02*
X018288Y003586D01*
X017878Y005156D02*
X020405Y005156D01*
X020405Y005234D02*
X017955Y005234D01*
X017988Y005313D02*
X020405Y005313D01*
X020405Y005391D02*
X018000Y005391D01*
X017997Y005470D02*
X020405Y005470D01*
X020405Y005548D02*
X017964Y005548D01*
X017900Y005627D02*
X020405Y005627D01*
X020405Y005705D02*
X017927Y005705D01*
X017976Y005784D02*
X020405Y005784D01*
X020405Y005862D02*
X018000Y005862D01*
X018000Y005941D02*
X020405Y005941D01*
X020405Y006019D02*
X017976Y006019D01*
X017929Y006098D02*
X020405Y006098D01*
X020405Y006176D02*
X017898Y006176D01*
X017964Y006255D02*
X020405Y006255D01*
X020405Y006333D02*
X017996Y006333D01*
X018000Y006412D02*
X020405Y006412D01*
X020405Y006490D02*
X017988Y006490D01*
X017956Y006569D02*
X020405Y006569D01*
X020405Y006647D02*
X017879Y006647D01*
X017948Y006726D02*
X020405Y006726D01*
X020405Y006804D02*
X017984Y006804D01*
X018000Y006883D02*
X020405Y006883D01*
X020405Y006961D02*
X018000Y006961D01*
X017968Y007040D02*
X020405Y007040D01*
X020405Y007118D02*
X017908Y007118D01*
X017522Y005156D02*
X016703Y005156D01*
X015352Y008139D02*
X014508Y008139D01*
X014212Y008139D02*
X013918Y008139D01*
X013939Y008217D02*
X014121Y008217D01*
X014079Y008296D02*
X013984Y008296D01*
X014005Y008374D02*
X014060Y008374D01*
X014060Y008453D02*
X014005Y008453D01*
X013978Y008531D02*
X014089Y008531D01*
X014143Y008610D02*
X013927Y008610D01*
X013930Y008688D02*
X014266Y008688D01*
X014454Y008688D02*
X015406Y008688D01*
X015319Y009159D02*
X014706Y009159D01*
X009414Y011985D02*
X009405Y011985D01*
X008945Y012064D02*
X004323Y012064D01*
X004414Y012142D02*
X008945Y012142D01*
X008945Y012221D02*
X004456Y012221D01*
X004205Y011985D02*
X008908Y011985D01*
X008829Y011907D02*
X004205Y011907D01*
X004205Y011828D02*
X004302Y011828D01*
X004223Y011750D02*
X004205Y011750D01*
X004648Y011828D02*
X008751Y011828D01*
X008672Y011750D02*
X004727Y011750D01*
X004761Y011671D02*
X008610Y011671D01*
X008577Y011593D02*
X004775Y011593D01*
X004774Y011514D02*
X008575Y011514D01*
X008945Y012299D02*
X005021Y012299D01*
X005088Y012378D02*
X008945Y012378D01*
X008945Y012456D02*
X005120Y012456D01*
X005125Y012535D02*
X008115Y012535D01*
X008157Y012517D02*
X008593Y012517D01*
X008718Y012569D01*
X008813Y012665D01*
X008865Y012790D01*
X008865Y012925D01*
X008813Y013050D01*
X008718Y013146D01*
X008593Y013197D01*
X008295Y013197D01*
X007889Y013603D01*
X007783Y013647D01*
X001695Y013647D01*
X001689Y013648D01*
X001678Y013652D01*
X001670Y013661D01*
X001666Y013672D01*
X001665Y013677D01*
X001665Y020157D01*
X002037Y020157D01*
X002157Y020107D01*
X002593Y020107D01*
X002718Y020159D01*
X002813Y020255D01*
X002865Y020380D01*
X002865Y020515D01*
X002813Y020640D01*
X002718Y020736D01*
X002593Y020787D01*
X002157Y020787D01*
X002037Y020737D01*
X001534Y020737D01*
X001328Y020652D01*
X001328Y020652D01*
X001170Y020495D01*
X001170Y020495D01*
X001085Y020289D01*
X001085Y013556D01*
X001178Y013332D01*
X001349Y013160D01*
X001574Y013067D01*
X007605Y013067D01*
X007887Y012786D01*
X007937Y012665D01*
X008032Y012569D01*
X008157Y012517D01*
X007988Y012613D02*
X005114Y012613D01*
X005082Y012692D02*
X007926Y012692D01*
X007893Y012770D02*
X005007Y012770D01*
X004929Y012849D02*
X007823Y012849D01*
X007745Y012927D02*
X004850Y012927D01*
X004772Y013006D02*
X007666Y013006D01*
X008094Y013398D02*
X008945Y013398D01*
X008945Y013320D02*
X008173Y013320D01*
X008251Y013241D02*
X008945Y013241D01*
X008945Y013163D02*
X008676Y013163D01*
X008779Y013084D02*
X008945Y013084D01*
X008945Y013006D02*
X008832Y013006D01*
X008864Y012927D02*
X008945Y012927D01*
X008945Y012849D02*
X008865Y012849D01*
X008857Y012770D02*
X008945Y012770D01*
X008945Y012692D02*
X008824Y012692D01*
X008762Y012613D02*
X008945Y012613D01*
X008945Y012535D02*
X008635Y012535D01*
X008945Y013477D02*
X008016Y013477D01*
X007937Y013555D02*
X008945Y013555D01*
X008945Y013634D02*
X007815Y013634D01*
X008801Y014576D02*
X001665Y014576D01*
X001665Y014654D02*
X008723Y014654D01*
X008644Y014733D02*
X001665Y014733D01*
X001665Y014811D02*
X008566Y014811D01*
X008487Y014890D02*
X001665Y014890D01*
X001665Y014968D02*
X008409Y014968D01*
X008330Y015047D02*
X001665Y015047D01*
X001665Y015125D02*
X008252Y015125D01*
X008173Y015204D02*
X001665Y015204D01*
X001665Y015282D02*
X008095Y015282D01*
X008016Y015361D02*
X001665Y015361D01*
X001665Y015439D02*
X007938Y015439D01*
X007859Y015518D02*
X001665Y015518D01*
X001665Y015596D02*
X007781Y015596D01*
X007702Y015675D02*
X001665Y015675D01*
X001665Y015753D02*
X007624Y015753D01*
X007545Y015832D02*
X001665Y015832D01*
X001665Y015910D02*
X007467Y015910D01*
X007388Y015989D02*
X001665Y015989D01*
X001665Y016067D02*
X007310Y016067D01*
X007231Y016146D02*
X001665Y016146D01*
X001665Y016224D02*
X007153Y016224D01*
X007074Y016303D02*
X001665Y016303D01*
X001665Y016381D02*
X006996Y016381D01*
X006917Y016460D02*
X003863Y016460D01*
X003895Y016473D02*
X003919Y016497D01*
X003920Y016497D01*
X004120Y016697D01*
X004255Y016832D01*
X004255Y019657D01*
X004295Y019673D01*
X004379Y019757D01*
X004745Y019757D01*
X004745Y019835D02*
X004412Y019835D01*
X004425Y019868D02*
X004379Y019757D01*
X004300Y019678D02*
X004745Y019678D01*
X004745Y019600D02*
X004255Y019600D01*
X004255Y019521D02*
X004745Y019521D01*
X004745Y019443D02*
X004255Y019443D01*
X004255Y019364D02*
X004745Y019364D01*
X004745Y019286D02*
X004255Y019286D01*
X004255Y019207D02*
X004745Y019207D01*
X004745Y019129D02*
X004255Y019129D01*
X004255Y019050D02*
X004745Y019050D01*
X004745Y018972D02*
X004255Y018972D01*
X004255Y018893D02*
X004745Y018893D01*
X004745Y018815D02*
X004255Y018815D01*
X004255Y018736D02*
X004745Y018736D01*
X004745Y018658D02*
X004255Y018658D01*
X004255Y018579D02*
X004798Y018579D01*
X004876Y018501D02*
X004255Y018501D01*
X004255Y018422D02*
X004955Y018422D01*
X005033Y018344D02*
X004255Y018344D01*
X004255Y018265D02*
X005112Y018265D01*
X005190Y018187D02*
X004255Y018187D01*
X004255Y018108D02*
X005269Y018108D01*
X005347Y018030D02*
X004255Y018030D01*
X004255Y017951D02*
X005426Y017951D01*
X005504Y017873D02*
X004255Y017873D01*
X004255Y017794D02*
X005583Y017794D01*
X005661Y017716D02*
X004255Y017716D01*
X004255Y017637D02*
X005740Y017637D01*
X005818Y017559D02*
X004255Y017559D01*
X004255Y017480D02*
X005897Y017480D01*
X005975Y017402D02*
X004255Y017402D01*
X004255Y017323D02*
X006054Y017323D01*
X006132Y017245D02*
X004255Y017245D01*
X004255Y017166D02*
X006211Y017166D01*
X006289Y017088D02*
X004255Y017088D01*
X004255Y017009D02*
X006368Y017009D01*
X006446Y016931D02*
X004255Y016931D01*
X004255Y016852D02*
X006525Y016852D01*
X006603Y016774D02*
X004197Y016774D01*
X004118Y016695D02*
X006682Y016695D01*
X006760Y016617D02*
X004040Y016617D01*
X003961Y016538D02*
X006839Y016538D01*
X007018Y017009D02*
X009942Y017009D01*
X009942Y016931D02*
X007097Y016931D01*
X007175Y016852D02*
X009942Y016852D01*
X009942Y016843D02*
X010046Y016592D01*
X010238Y016400D01*
X010489Y016296D01*
X010761Y016296D01*
X011012Y016400D01*
X011204Y016592D01*
X011308Y016843D01*
X011308Y017114D01*
X011204Y017365D01*
X011012Y017558D01*
X010761Y017661D01*
X010489Y017661D01*
X010238Y017558D01*
X010046Y017365D01*
X009942Y017114D01*
X009942Y016843D01*
X009971Y016774D02*
X007254Y016774D01*
X007332Y016695D02*
X010003Y016695D01*
X010036Y016617D02*
X007411Y016617D01*
X007489Y016538D02*
X010099Y016538D01*
X010178Y016460D02*
X007568Y016460D01*
X007646Y016381D02*
X010282Y016381D01*
X010472Y016303D02*
X007725Y016303D01*
X007803Y016224D02*
X020405Y016224D01*
X020405Y016146D02*
X007882Y016146D01*
X007960Y016067D02*
X020405Y016067D01*
X020405Y015989D02*
X008039Y015989D01*
X008117Y015910D02*
X020405Y015910D01*
X020405Y015832D02*
X008196Y015832D01*
X008274Y015753D02*
X020405Y015753D01*
X020405Y015675D02*
X008353Y015675D01*
X008431Y015596D02*
X020405Y015596D01*
X020405Y015518D02*
X008510Y015518D01*
X008588Y015439D02*
X020405Y015439D01*
X020405Y015361D02*
X008667Y015361D01*
X008745Y015282D02*
X020405Y015282D01*
X020405Y015204D02*
X008824Y015204D01*
X008880Y014497D02*
X001665Y014497D01*
X001665Y014419D02*
X008945Y014419D01*
X008945Y014340D02*
X001665Y014340D01*
X001665Y014262D02*
X008945Y014262D01*
X008945Y014183D02*
X001665Y014183D01*
X001665Y014105D02*
X008945Y014105D01*
X008945Y014026D02*
X001665Y014026D01*
X001665Y013948D02*
X008945Y013948D01*
X008945Y013869D02*
X001665Y013869D01*
X001665Y013791D02*
X008945Y013791D01*
X008945Y013712D02*
X001665Y013712D01*
X001118Y013477D02*
X000845Y013477D01*
X000845Y013555D02*
X001085Y013555D01*
X001085Y013556D02*
X001085Y013556D01*
X001085Y013634D02*
X000845Y013634D01*
X000845Y013712D02*
X001085Y013712D01*
X001085Y013791D02*
X000845Y013791D01*
X000845Y013869D02*
X001085Y013869D01*
X001085Y013948D02*
X000845Y013948D01*
X000845Y014026D02*
X001085Y014026D01*
X001085Y014105D02*
X000845Y014105D01*
X000845Y014183D02*
X001085Y014183D01*
X001085Y014262D02*
X000845Y014262D01*
X000845Y014340D02*
X001085Y014340D01*
X001085Y014419D02*
X000845Y014419D01*
X000845Y014497D02*
X001085Y014497D01*
X001085Y014576D02*
X000845Y014576D01*
X000845Y014654D02*
X001085Y014654D01*
X001085Y014733D02*
X000845Y014733D01*
X000845Y014811D02*
X001085Y014811D01*
X001085Y014890D02*
X000845Y014890D01*
X000845Y014968D02*
X001085Y014968D01*
X001085Y015047D02*
X000845Y015047D01*
X000845Y015125D02*
X001085Y015125D01*
X001085Y015204D02*
X000845Y015204D01*
X000845Y015282D02*
X001085Y015282D01*
X001085Y015361D02*
X000845Y015361D01*
X000845Y015439D02*
X001085Y015439D01*
X001085Y015518D02*
X000845Y015518D01*
X000845Y015596D02*
X001085Y015596D01*
X001085Y015675D02*
X000845Y015675D01*
X000845Y015753D02*
X001085Y015753D01*
X001085Y015832D02*
X000845Y015832D01*
X000845Y015910D02*
X001085Y015910D01*
X001085Y015989D02*
X000845Y015989D01*
X000845Y016067D02*
X001085Y016067D01*
X001085Y016146D02*
X000845Y016146D01*
X000845Y016224D02*
X001085Y016224D01*
X001085Y016303D02*
X000845Y016303D01*
X000845Y016381D02*
X001085Y016381D01*
X001085Y016460D02*
X000845Y016460D01*
X000845Y016538D02*
X001085Y016538D01*
X001085Y016617D02*
X000845Y016617D01*
X000845Y016695D02*
X001085Y016695D01*
X001085Y016774D02*
X000845Y016774D01*
X000845Y016852D02*
X001085Y016852D01*
X001085Y016931D02*
X000845Y016931D01*
X000845Y017009D02*
X001085Y017009D01*
X001085Y017088D02*
X000845Y017088D01*
X000845Y017166D02*
X001085Y017166D01*
X001085Y017245D02*
X000845Y017245D01*
X000845Y017323D02*
X001085Y017323D01*
X001085Y017402D02*
X000845Y017402D01*
X000845Y017480D02*
X001085Y017480D01*
X001085Y017559D02*
X000845Y017559D01*
X000845Y017637D02*
X001085Y017637D01*
X001085Y017716D02*
X000845Y017716D01*
X000845Y017794D02*
X001085Y017794D01*
X001085Y017873D02*
X000845Y017873D01*
X000845Y017951D02*
X001085Y017951D01*
X001085Y018030D02*
X000845Y018030D01*
X000845Y018108D02*
X001085Y018108D01*
X001085Y018187D02*
X000845Y018187D01*
X000845Y018265D02*
X001085Y018265D01*
X001085Y018344D02*
X000845Y018344D01*
X000845Y018422D02*
X001085Y018422D01*
X001085Y018501D02*
X000845Y018501D01*
X000845Y018579D02*
X001085Y018579D01*
X001085Y018658D02*
X000845Y018658D01*
X000845Y018736D02*
X001085Y018736D01*
X001085Y018815D02*
X000845Y018815D01*
X000845Y018893D02*
X001085Y018893D01*
X001085Y018972D02*
X000845Y018972D01*
X000845Y019050D02*
X001085Y019050D01*
X001085Y019129D02*
X000845Y019129D01*
X000845Y019207D02*
X001085Y019207D01*
X001085Y019286D02*
X000845Y019286D01*
X000845Y019364D02*
X001085Y019364D01*
X001085Y019443D02*
X000845Y019443D01*
X000845Y019521D02*
X001085Y019521D01*
X001085Y019600D02*
X000845Y019600D01*
X000845Y019678D02*
X001085Y019678D01*
X001085Y019757D02*
X000845Y019757D01*
X000845Y019835D02*
X001085Y019835D01*
X001085Y019914D02*
X000845Y019914D01*
X000845Y019992D02*
X001085Y019992D01*
X001085Y020071D02*
X000845Y020071D01*
X000845Y020149D02*
X001085Y020149D01*
X001085Y020228D02*
X000845Y020228D01*
X000845Y020306D02*
X001092Y020306D01*
X001125Y020385D02*
X000845Y020385D01*
X000845Y020463D02*
X001157Y020463D01*
X001218Y020542D02*
X000845Y020542D01*
X000845Y020620D02*
X001296Y020620D01*
X001441Y020699D02*
X000845Y020699D01*
X000845Y020777D02*
X002133Y020777D01*
X002617Y020777D02*
X020405Y020777D01*
X020405Y020699D02*
X004848Y020699D01*
X004926Y020620D02*
X020405Y020620D01*
X020405Y020542D02*
X004961Y020542D01*
X004984Y020463D02*
X020405Y020463D01*
X020405Y020385D02*
X005063Y020385D01*
X005141Y020306D02*
X020405Y020306D01*
X020405Y020228D02*
X005205Y020228D01*
X005205Y020149D02*
X020405Y020149D01*
X020405Y020071D02*
X005205Y020071D01*
X005205Y019992D02*
X020405Y019992D01*
X020405Y019914D02*
X005205Y019914D01*
X005205Y019835D02*
X020405Y019835D01*
X020405Y019757D02*
X005205Y019757D01*
X005205Y019678D02*
X020405Y019678D01*
X020405Y019600D02*
X005205Y019600D01*
X005205Y019521D02*
X020405Y019521D01*
X020405Y019443D02*
X005205Y019443D01*
X005205Y019364D02*
X020405Y019364D01*
X020405Y019286D02*
X005205Y019286D01*
X005205Y019207D02*
X020405Y019207D01*
X020405Y019129D02*
X005205Y019129D01*
X005205Y019050D02*
X020405Y019050D01*
X020405Y018972D02*
X005205Y018972D01*
X005205Y018893D02*
X020405Y018893D01*
X020405Y018815D02*
X005213Y018815D01*
X005291Y018736D02*
X020405Y018736D01*
X020405Y018658D02*
X005370Y018658D01*
X005448Y018579D02*
X020405Y018579D01*
X020405Y018501D02*
X005527Y018501D01*
X005605Y018422D02*
X020405Y018422D01*
X020405Y018344D02*
X005684Y018344D01*
X005762Y018265D02*
X020405Y018265D01*
X020405Y018187D02*
X005841Y018187D01*
X005919Y018108D02*
X020405Y018108D01*
X020405Y018030D02*
X005998Y018030D01*
X006076Y017951D02*
X020405Y017951D01*
X020405Y017873D02*
X006155Y017873D01*
X006233Y017794D02*
X020405Y017794D01*
X020405Y017716D02*
X006312Y017716D01*
X006390Y017637D02*
X010431Y017637D01*
X010242Y017559D02*
X006469Y017559D01*
X006547Y017480D02*
X010161Y017480D01*
X010083Y017402D02*
X006626Y017402D01*
X006704Y017323D02*
X010029Y017323D01*
X009996Y017245D02*
X006783Y017245D01*
X006861Y017166D02*
X009964Y017166D01*
X009942Y017088D02*
X006940Y017088D01*
X004745Y019914D02*
X004425Y019914D01*
X004425Y019868D02*
X004425Y019987D01*
X004379Y020097D01*
X004295Y020182D01*
X004185Y020227D01*
X004065Y020227D01*
X003955Y020182D01*
X003871Y020097D01*
X003825Y019987D01*
X003825Y019953D01*
X003795Y019923D01*
X003795Y017373D01*
X003785Y017377D01*
X003665Y017377D01*
X003555Y017332D01*
X003531Y017307D01*
X003119Y017307D01*
X003095Y017332D01*
X002985Y017377D01*
X002865Y017377D01*
X002755Y017332D01*
X002671Y017247D01*
X002625Y017137D01*
X002625Y017018D01*
X002671Y016907D01*
X002676Y016902D01*
X002671Y016897D01*
X002625Y016787D01*
X002625Y016668D01*
X002671Y016557D01*
X002755Y016473D01*
X002865Y016427D01*
X002985Y016427D01*
X003095Y016473D01*
X003119Y016497D01*
X003531Y016497D01*
X003555Y016473D01*
X003665Y016427D01*
X003785Y016427D01*
X003895Y016473D01*
X003587Y016460D02*
X003063Y016460D01*
X002787Y016460D02*
X001665Y016460D01*
X001665Y016538D02*
X002690Y016538D01*
X002646Y016617D02*
X001665Y016617D01*
X001665Y016695D02*
X002625Y016695D01*
X002625Y016774D02*
X001665Y016774D01*
X001665Y016852D02*
X002652Y016852D01*
X002661Y016931D02*
X001665Y016931D01*
X001665Y017009D02*
X002628Y017009D01*
X002625Y017088D02*
X001665Y017088D01*
X001665Y017166D02*
X002637Y017166D01*
X002670Y017245D02*
X001665Y017245D01*
X001665Y017323D02*
X002747Y017323D01*
X003103Y017323D02*
X003547Y017323D01*
X003795Y017402D02*
X001665Y017402D01*
X001665Y017480D02*
X003795Y017480D01*
X003795Y017559D02*
X001665Y017559D01*
X001665Y017637D02*
X003795Y017637D01*
X003795Y017716D02*
X001665Y017716D01*
X001665Y017794D02*
X003795Y017794D01*
X003795Y017873D02*
X001665Y017873D01*
X001665Y017951D02*
X003795Y017951D01*
X003795Y018030D02*
X001665Y018030D01*
X001665Y018108D02*
X003795Y018108D01*
X003795Y018187D02*
X001665Y018187D01*
X001665Y018265D02*
X003795Y018265D01*
X003795Y018344D02*
X001665Y018344D01*
X001665Y018422D02*
X003795Y018422D01*
X003795Y018501D02*
X001665Y018501D01*
X001665Y018579D02*
X003795Y018579D01*
X003795Y018658D02*
X001665Y018658D01*
X001665Y018736D02*
X003795Y018736D01*
X003795Y018815D02*
X001665Y018815D01*
X001665Y018893D02*
X003795Y018893D01*
X003795Y018972D02*
X001665Y018972D01*
X001665Y019050D02*
X003795Y019050D01*
X003795Y019129D02*
X001665Y019129D01*
X001665Y019207D02*
X003795Y019207D01*
X003795Y019286D02*
X001665Y019286D01*
X001665Y019364D02*
X003795Y019364D01*
X003795Y019443D02*
X001665Y019443D01*
X001665Y019521D02*
X003795Y019521D01*
X003795Y019600D02*
X001665Y019600D01*
X001665Y019678D02*
X003795Y019678D01*
X003795Y019757D02*
X001665Y019757D01*
X001665Y019835D02*
X003795Y019835D01*
X003795Y019914D02*
X001665Y019914D01*
X001665Y019992D02*
X003827Y019992D01*
X003860Y020071D02*
X001665Y020071D01*
X001665Y020149D02*
X002056Y020149D01*
X002694Y020149D02*
X003923Y020149D01*
X004327Y020149D02*
X004610Y020149D01*
X004726Y020071D02*
X004390Y020071D01*
X004423Y019992D02*
X004745Y019992D01*
X004470Y020228D02*
X002786Y020228D01*
X002835Y020306D02*
X004409Y020306D01*
X004376Y020385D02*
X002865Y020385D01*
X002865Y020463D02*
X004375Y020463D01*
X004389Y020542D02*
X002854Y020542D01*
X002821Y020620D02*
X004424Y020620D01*
X004502Y020699D02*
X002754Y020699D01*
X000845Y020856D02*
X020405Y020856D01*
X020405Y020934D02*
X000845Y020934D01*
X000845Y021013D02*
X020405Y021013D01*
X020405Y021091D02*
X000845Y021091D01*
X000845Y021170D02*
X020405Y021170D01*
X020405Y021248D02*
X000845Y021248D01*
X000845Y021327D02*
X020405Y021327D01*
X020405Y021405D02*
X000845Y021405D01*
X000845Y021484D02*
X020405Y021484D01*
X020405Y021562D02*
X000845Y021562D01*
X000845Y021641D02*
X020405Y021641D01*
X020405Y021719D02*
X000845Y021719D01*
X000845Y021798D02*
X020405Y021798D01*
X020405Y021876D02*
X000845Y021876D01*
X000845Y021955D02*
X020405Y021955D01*
X020405Y022033D02*
X000845Y022033D01*
X000845Y022112D02*
X020405Y022112D01*
X020405Y022190D02*
X000845Y022190D01*
X000845Y022269D02*
X020405Y022269D01*
X020405Y022347D02*
X000845Y022347D01*
X000845Y022426D02*
X020405Y022426D01*
X020405Y022504D02*
X000845Y022504D01*
X000845Y022583D02*
X020405Y022583D01*
X020405Y022661D02*
X000845Y022661D01*
X000845Y022740D02*
X020405Y022740D01*
X020405Y022818D02*
X000845Y022818D01*
X000845Y022897D02*
X020405Y022897D01*
X020405Y022975D02*
X000845Y022975D01*
X000845Y023054D02*
X020405Y023054D01*
X020405Y023132D02*
X000845Y023132D01*
X000845Y023211D02*
X020405Y023211D01*
X020399Y023289D02*
X000845Y023289D01*
X000845Y023368D02*
X020360Y023368D01*
X020248Y023446D02*
X000845Y023446D01*
X000845Y023525D02*
X018872Y023525D01*
X018742Y023579D02*
X018742Y023579D01*
X018742Y023579D01*
X018717Y023603D02*
X000845Y023603D01*
X000845Y023682D02*
X018639Y023682D01*
X018560Y023760D02*
X000845Y023760D01*
X000845Y023839D02*
X018508Y023839D01*
X018526Y023794D02*
X018526Y023794D01*
X018475Y023917D02*
X000845Y023917D01*
X000845Y023996D02*
X018443Y023996D01*
X018410Y024074D02*
X000845Y024074D01*
X000845Y024153D02*
X018410Y024153D01*
X018410Y024231D02*
X000845Y024231D01*
X000845Y024310D02*
X018410Y024310D01*
X018410Y024388D02*
X000845Y024388D01*
X000845Y024467D02*
X018406Y024467D01*
X018376Y024545D02*
X000874Y024545D01*
X000947Y024624D02*
X018303Y024624D01*
X020405Y017637D02*
X010819Y017637D01*
X011008Y017559D02*
X020405Y017559D01*
X020405Y017480D02*
X011089Y017480D01*
X011167Y017402D02*
X020405Y017402D01*
X020405Y017323D02*
X011221Y017323D01*
X011254Y017245D02*
X020405Y017245D01*
X020405Y017166D02*
X011286Y017166D01*
X011308Y017088D02*
X020405Y017088D01*
X020405Y017009D02*
X011308Y017009D01*
X011308Y016931D02*
X020405Y016931D01*
X020405Y016852D02*
X011308Y016852D01*
X011279Y016774D02*
X020405Y016774D01*
X020405Y016695D02*
X011247Y016695D01*
X011214Y016617D02*
X020405Y016617D01*
X020405Y016538D02*
X011151Y016538D01*
X011072Y016460D02*
X020405Y016460D01*
X020405Y016381D02*
X010968Y016381D01*
X010778Y016303D02*
X020405Y016303D01*
X003728Y013006D02*
X000845Y013006D01*
X000845Y013084D02*
X001533Y013084D01*
X001349Y013160D02*
X001349Y013160D01*
X001347Y013163D02*
X000845Y013163D01*
X000845Y013241D02*
X001268Y013241D01*
X001190Y013320D02*
X000845Y013320D01*
X000845Y013398D02*
X001150Y013398D01*
X000845Y012927D02*
X003650Y012927D01*
X003571Y012849D02*
X000845Y012849D01*
X000845Y012770D02*
X002148Y012770D01*
X002302Y012770D02*
X002498Y012770D01*
X002652Y012770D02*
X002848Y012770D01*
X003002Y012770D02*
X003198Y012770D01*
X003352Y012770D02*
X003493Y012770D01*
X002499Y011828D02*
X000845Y011828D01*
X000845Y011750D02*
X002545Y011750D01*
X002545Y011671D02*
X000845Y011671D01*
X000845Y011593D02*
X002545Y011593D01*
X002545Y011514D02*
X000845Y011514D01*
X000845Y011436D02*
X002545Y011436D01*
X002545Y011357D02*
X000845Y011357D01*
X000845Y011279D02*
X002545Y011279D01*
X002545Y011200D02*
X000845Y011200D01*
X000845Y011122D02*
X002545Y011122D01*
X002545Y011043D02*
X000845Y011043D01*
X000845Y010965D02*
X002545Y010965D01*
X002545Y010886D02*
X000845Y010886D01*
X000845Y010808D02*
X002545Y010808D01*
X002545Y010729D02*
X000845Y010729D01*
X000845Y010651D02*
X002545Y010651D01*
X002545Y010572D02*
X000845Y010572D01*
X000845Y010494D02*
X002545Y010494D01*
X002545Y010415D02*
X000845Y010415D01*
X000845Y010337D02*
X002545Y010337D01*
X002545Y010258D02*
X000845Y010258D01*
X000845Y010180D02*
X002545Y010180D01*
X002545Y010101D02*
X000845Y010101D01*
X000845Y010023D02*
X002545Y010023D01*
X002545Y009944D02*
X000845Y009944D01*
X000845Y009866D02*
X002545Y009866D01*
X002545Y009787D02*
X000845Y009787D01*
X000845Y009709D02*
X002545Y009709D01*
X002545Y009630D02*
X000845Y009630D01*
X000845Y009552D02*
X002545Y009552D01*
X002545Y009473D02*
X000845Y009473D01*
X000845Y009395D02*
X002545Y009395D01*
X002545Y009316D02*
X000845Y009316D01*
X000845Y009238D02*
X002545Y009238D01*
X002545Y009159D02*
X000845Y009159D01*
X000845Y009081D02*
X002545Y009081D01*
X002545Y009002D02*
X000845Y009002D01*
X000845Y008924D02*
X002545Y008924D01*
X002545Y008845D02*
X000845Y008845D01*
X000845Y008767D02*
X002545Y008767D01*
X002545Y008688D02*
X000845Y008688D01*
X000845Y008610D02*
X002545Y008610D01*
X002545Y008531D02*
X000845Y008531D01*
X000845Y008453D02*
X002545Y008453D01*
X002545Y008374D02*
X000845Y008374D01*
X000845Y008296D02*
X002545Y008296D01*
X002545Y008217D02*
X000845Y008217D01*
X000845Y008139D02*
X002545Y008139D01*
X002545Y008060D02*
X000845Y008060D01*
X000845Y007982D02*
X002545Y007982D01*
X002545Y007903D02*
X000845Y007903D01*
X000845Y007825D02*
X002545Y007825D01*
X002545Y007746D02*
X000845Y007746D01*
X000845Y007668D02*
X002545Y007668D01*
X002545Y007589D02*
X000845Y007589D01*
X000845Y007511D02*
X002545Y007511D01*
X002545Y007432D02*
X000845Y007432D01*
X000845Y007354D02*
X002545Y007354D01*
X002545Y007275D02*
X000845Y007275D01*
X000845Y007197D02*
X002545Y007197D01*
X002545Y007118D02*
X000845Y007118D01*
X000845Y007040D02*
X002545Y007040D01*
X002545Y006961D02*
X000845Y006961D01*
X000845Y006883D02*
X002545Y006883D01*
X002545Y006804D02*
X000845Y006804D01*
X000845Y006726D02*
X002545Y006726D01*
X002545Y006647D02*
X000845Y006647D01*
X000845Y006569D02*
X002545Y006569D01*
X002545Y006490D02*
X000845Y006490D01*
X000845Y006412D02*
X002615Y006412D01*
X002694Y006333D02*
X000845Y006333D01*
X000845Y006255D02*
X002772Y006255D01*
X002851Y006176D02*
X000845Y006176D01*
X000845Y006098D02*
X002929Y006098D01*
X002995Y006019D02*
X000845Y006019D01*
X000845Y005941D02*
X002995Y005941D01*
X002995Y005862D02*
X000845Y005862D01*
X000845Y005784D02*
X002995Y005784D01*
X003022Y005705D02*
X000845Y005705D01*
X000845Y005627D02*
X003100Y005627D01*
X003179Y005548D02*
X000845Y005548D01*
X000845Y005470D02*
X003257Y005470D01*
X003336Y005391D02*
X000845Y005391D01*
X000845Y005313D02*
X003345Y005313D01*
X003345Y005234D02*
X000845Y005234D01*
X000845Y005156D02*
X003345Y005156D01*
X003345Y005077D02*
X000845Y005077D01*
X000845Y004999D02*
X003345Y004999D01*
X003345Y004920D02*
X000845Y004920D01*
X000885Y004842D02*
X003345Y004842D01*
X003345Y004763D02*
X000964Y004763D01*
X001042Y004685D02*
X003345Y004685D01*
X003345Y004606D02*
X001108Y004606D01*
X001140Y004528D02*
X003345Y004528D01*
X003345Y004449D02*
X001140Y004449D01*
X001140Y004371D02*
X003345Y004371D01*
X003345Y004292D02*
X001140Y004292D01*
X001140Y004214D02*
X003345Y004214D01*
X003345Y004135D02*
X001140Y004135D01*
X001140Y004057D02*
X003345Y004057D01*
X003349Y003978D02*
X001140Y003978D01*
X001140Y003900D02*
X003427Y003900D01*
X003092Y003743D02*
X002803Y003743D01*
X002893Y003664D02*
X003003Y003664D01*
X002962Y003586D02*
X002934Y003586D01*
X002923Y003350D02*
X002972Y003350D01*
X003028Y003272D02*
X002868Y003272D01*
X002743Y003193D02*
X003152Y003193D01*
X002562Y003193D02*
X002153Y003193D01*
X002278Y003272D02*
X002437Y003272D01*
X002382Y003350D02*
X002333Y003350D01*
X002343Y003586D02*
X002371Y003586D01*
X002412Y003664D02*
X002302Y003664D01*
X002213Y003743D02*
X002502Y003743D01*
X001231Y003664D02*
X001140Y003664D01*
X001140Y003586D02*
X001190Y003586D01*
X001171Y003507D02*
X001140Y003507D01*
X001140Y003429D02*
X001171Y003429D01*
X001140Y003350D02*
X001201Y003350D01*
X001256Y003272D02*
X001140Y003272D01*
X000845Y011907D02*
X002420Y011907D01*
X002342Y011985D02*
X000845Y011985D01*
X000845Y012064D02*
X002263Y012064D01*
X002185Y012142D02*
X000845Y012142D01*
X000845Y012221D02*
X002060Y012221D01*
X001979Y012299D02*
X000845Y012299D01*
X000845Y012378D02*
X001941Y012378D01*
X001925Y012456D02*
X000845Y012456D01*
X000845Y012535D02*
X001925Y012535D01*
X001957Y012613D02*
X000845Y012613D01*
X000845Y012692D02*
X002015Y012692D01*
D18*
X002225Y012477D02*
X002225Y012427D01*
X002775Y011877D01*
X002775Y006577D01*
X003225Y006127D01*
X003225Y005827D01*
X003575Y005477D01*
X003575Y004077D01*
X003825Y003827D01*
X009375Y003827D01*
X009475Y003777D01*
X013036Y003777D01*
X013282Y003481D01*
X012025Y005177D02*
X012075Y005247D01*
X012025Y005177D02*
X010125Y005177D01*
X008925Y006377D01*
X008925Y007827D01*
X009125Y008027D01*
X008925Y008227D02*
X008275Y008227D01*
X008125Y008077D01*
X006275Y008077D01*
X005825Y007627D01*
X005825Y007077D01*
X004655Y005907D01*
X004475Y005907D01*
X004345Y005907D01*
X004025Y006227D01*
X004025Y006527D01*
X003575Y006977D01*
X003575Y012527D01*
X003875Y012827D01*
X004625Y012827D01*
X004825Y012627D01*
X004825Y012527D01*
X004475Y012527D02*
X004375Y012627D01*
X003975Y012627D01*
X003775Y012427D01*
X003775Y007077D01*
X004495Y006357D01*
X004475Y006357D01*
X004805Y006357D01*
X005625Y007177D01*
X005625Y007727D01*
X006175Y008277D01*
X008025Y008277D01*
X008175Y008427D01*
X008825Y008427D01*
X009425Y009027D01*
X011475Y009027D01*
X012525Y007977D01*
X012525Y007527D01*
X013625Y006427D01*
X013725Y006427D01*
X015925Y006427D01*
X015725Y006777D02*
X013725Y006777D01*
X013575Y006777D01*
X012725Y007627D01*
X012725Y008077D01*
X011575Y009227D01*
X009325Y009227D01*
X008725Y008627D01*
X008075Y008627D01*
X007925Y008477D01*
X006075Y008477D01*
X005425Y007827D01*
X005425Y007277D01*
X004905Y006757D01*
X004475Y006757D01*
X004425Y006757D01*
X003975Y007207D01*
X003975Y012127D01*
X004175Y012327D01*
X003375Y012327D02*
X003375Y006877D01*
X003825Y006427D01*
X003825Y006127D01*
X004575Y005377D01*
X004025Y005627D02*
X004025Y004477D01*
X004075Y004427D01*
X003775Y004177D02*
X003925Y004027D01*
X009425Y004027D01*
X009525Y003977D01*
X015150Y003977D01*
X015350Y003777D01*
X015350Y003327D01*
X015500Y003177D01*
X018294Y003177D01*
X018597Y003481D01*
X018007Y003481D02*
X018007Y003546D01*
X017375Y004177D01*
X016475Y004177D01*
X015675Y004977D01*
X010025Y004977D01*
X008095Y006907D01*
X008095Y007107D01*
X007895Y007307D01*
X007805Y007307D01*
X007795Y006907D02*
X007805Y006907D01*
X007795Y006907D02*
X009925Y004777D01*
X015575Y004777D01*
X016375Y003977D01*
X017075Y003977D01*
X017416Y003636D01*
X017416Y003481D01*
X016826Y003481D02*
X016826Y003577D01*
X016625Y003777D01*
X016275Y003777D01*
X015475Y004577D01*
X009825Y004577D01*
X008095Y006307D01*
X008095Y006311D01*
X007998Y006407D01*
X007805Y006407D01*
X007805Y005907D02*
X008195Y005907D01*
X009725Y004377D01*
X015375Y004377D01*
X016235Y003517D01*
X016235Y003481D01*
X015645Y003481D02*
X015645Y003783D01*
X015250Y004177D01*
X009625Y004177D01*
X008395Y005407D01*
X007805Y005407D01*
X007045Y005407D01*
X007045Y005907D02*
X007805Y005907D01*
X008925Y008227D02*
X009525Y008827D01*
X011375Y008827D01*
X012325Y007877D01*
X012325Y007427D01*
X013675Y006077D01*
X013725Y006077D01*
X016115Y006077D01*
X016525Y005402D02*
X017700Y005402D01*
X017700Y005902D02*
X016735Y005902D01*
X016925Y006402D02*
X017700Y006402D01*
X017700Y006902D02*
X017075Y006902D01*
X016075Y007377D02*
X016075Y008877D01*
X015500Y008402D02*
X014360Y008402D01*
X013705Y008407D02*
X013595Y008407D01*
X011975Y010027D01*
X008275Y010027D01*
X007525Y009277D01*
X005675Y009277D01*
X004805Y008407D01*
X004475Y008407D01*
X004475Y007907D02*
X004605Y007907D01*
X005775Y009077D01*
X007625Y009077D01*
X008375Y009827D01*
X011875Y009827D01*
X013725Y007977D01*
X013725Y007907D01*
X013725Y007407D02*
X013720Y007402D01*
X013550Y007402D01*
X013125Y007827D01*
X013125Y008277D01*
X011775Y009627D01*
X008475Y009627D01*
X007725Y008877D01*
X005875Y008877D01*
X004505Y007507D01*
X004475Y007507D01*
X004175Y007377D02*
X004425Y007127D01*
X004475Y007127D01*
X004175Y007377D02*
X004175Y010527D01*
X004325Y010677D01*
X004575Y010677D01*
X004775Y010877D01*
X007405Y010877D01*
X007475Y010807D01*
X007245Y010577D02*
X007145Y010677D01*
X005775Y010677D01*
X005675Y010577D01*
X006125Y010427D02*
X006925Y010427D01*
X007125Y010077D02*
X004805Y010077D01*
X004475Y010407D01*
X004475Y009907D02*
X004505Y009877D01*
X007225Y009877D01*
X007975Y010627D01*
X012275Y010627D01*
X012995Y009907D01*
X013725Y009907D01*
X013725Y009407D02*
X013195Y009407D01*
X012175Y010427D01*
X008273Y010429D01*
X008076Y010429D01*
X007325Y009677D01*
X005475Y009677D01*
X005205Y009407D01*
X004475Y009407D01*
X004475Y008907D02*
X005005Y008907D01*
X005575Y009477D01*
X007425Y009477D01*
X008175Y010227D01*
X012075Y010227D01*
X013395Y008907D01*
X013725Y008907D01*
X014525Y009402D02*
X015500Y009402D01*
X016075Y007377D02*
X015825Y007127D01*
X013525Y007127D01*
X012925Y007727D01*
X012925Y008177D01*
X011675Y009427D01*
X008575Y009427D01*
X008055Y008907D01*
X008625Y008907D01*
X008055Y008907D02*
X007825Y008677D01*
X005975Y008677D01*
X004875Y007577D01*
X004875Y007217D01*
X003625Y006327D02*
X003625Y006027D01*
X004025Y005627D01*
X003775Y005577D02*
X003425Y005927D01*
X003425Y006227D01*
X002975Y006677D01*
X002975Y012027D01*
X002575Y012427D01*
X002575Y012477D01*
X002925Y012477D02*
X002925Y012377D01*
X003175Y012127D01*
X003175Y006777D01*
X003625Y006327D01*
X003775Y005577D02*
X003775Y004177D01*
X007125Y010077D02*
X007875Y010827D01*
X012375Y010827D01*
X012795Y010407D01*
X013725Y010407D01*
X013725Y010907D02*
X013605Y011027D01*
X008525Y011027D01*
X008475Y011077D01*
X004595Y011077D01*
X004475Y010957D01*
X004675Y011277D02*
X008575Y011277D01*
X008625Y011227D01*
X013575Y011227D01*
X013725Y011377D01*
X013625Y011677D02*
X015425Y011677D01*
X015575Y011527D01*
X015675Y011527D01*
X015675Y011877D02*
X013525Y011877D01*
X013275Y011627D01*
X009675Y011627D01*
X009575Y011727D01*
X009325Y011427D02*
X013375Y011427D01*
X013625Y011677D01*
X013725Y012527D02*
X013725Y014577D01*
X013925Y014777D01*
X014075Y014777D01*
X014075Y014427D02*
X013925Y014277D01*
X013925Y012777D01*
X014075Y012627D01*
X014075Y012527D01*
X015425Y012477D02*
X015425Y014177D01*
X009325Y011427D02*
X009225Y011527D01*
X008875Y011527D02*
X008875Y011627D01*
X009175Y011927D01*
X009175Y014527D01*
X004975Y018727D01*
X004975Y020147D01*
X004675Y020447D01*
X004125Y019927D02*
X004025Y019827D01*
X004025Y016927D01*
X003825Y016727D01*
X003725Y016727D01*
X002925Y016727D01*
X002925Y017077D02*
X003725Y017077D01*
X003275Y012477D02*
X003275Y012427D01*
X003375Y012327D01*
X004475Y011577D02*
X004475Y011477D01*
X004675Y011277D01*
D19*
X008225Y012857D03*
X008525Y012857D03*
X002525Y020447D03*
X002225Y020447D03*
D20*
X001645Y020447D01*
X001615Y020445D01*
X001585Y020440D01*
X001556Y020432D01*
X001528Y020420D01*
X001501Y020406D01*
X001477Y020388D01*
X001454Y020368D01*
X001434Y020345D01*
X001416Y020321D01*
X001402Y020294D01*
X001390Y020266D01*
X001382Y020237D01*
X001377Y020207D01*
X001375Y020177D01*
X001375Y013677D01*
X001377Y013644D01*
X001382Y013610D01*
X001391Y013578D01*
X001403Y013547D01*
X001418Y013517D01*
X001436Y013489D01*
X001457Y013463D01*
X001481Y013439D01*
X001507Y013418D01*
X001535Y013400D01*
X001565Y013385D01*
X001596Y013373D01*
X001628Y013364D01*
X001662Y013359D01*
X001695Y013357D01*
X007725Y013357D01*
X008225Y012857D01*
D21*
X008525Y012857D01*
X002525Y020447D02*
X002225Y020447D01*
M02*
