G75*
G70*
%OFA0B0*%
%FSLAX24Y24*%
%IPPOS*%
%LPD*%
%AMOC8*
5,1,8,0,0,1.08239X$1,22.5*
%
%ADD10C,0.0050*%
%ADD11C,0.0060*%
%ADD12C,0.0000*%
%ADD13C,0.2854*%
%ADD14C,0.0886*%
%ADD15C,0.0010*%
%ADD16C,0.0040*%
%ADD17C,0.0020*%
%ADD18C,0.0030*%
D10*
X000875Y001427D02*
X000875Y004477D01*
X000575Y004777D01*
X000575Y008477D01*
X000150Y008477D01*
X000150Y009677D01*
X000575Y009677D01*
X000575Y017927D01*
X000150Y017927D01*
X000150Y019127D01*
X000575Y019127D01*
X000575Y024427D01*
X000577Y024471D01*
X000583Y024514D01*
X000592Y024556D01*
X000605Y024598D01*
X000622Y024638D01*
X000642Y024677D01*
X000665Y024714D01*
X000692Y024748D01*
X000721Y024781D01*
X000754Y024810D01*
X000788Y024837D01*
X000825Y024860D01*
X000864Y024880D01*
X000904Y024897D01*
X000946Y024910D01*
X000988Y024919D01*
X001031Y024925D01*
X001075Y024927D01*
X005675Y024927D01*
X005675Y025127D01*
X006875Y025127D01*
X006875Y024927D01*
X014375Y024927D01*
X014375Y025127D01*
X015575Y025127D01*
X015575Y024927D01*
X018175Y024927D01*
X018219Y024925D01*
X018262Y024919D01*
X018304Y024910D01*
X018346Y024897D01*
X018386Y024880D01*
X018425Y024860D01*
X018462Y024837D01*
X018496Y024810D01*
X018529Y024781D01*
X018558Y024748D01*
X018585Y024714D01*
X018608Y024677D01*
X018628Y024638D01*
X018645Y024598D01*
X018658Y024556D01*
X018667Y024514D01*
X018673Y024471D01*
X018675Y024427D01*
X018675Y024227D01*
X018677Y024183D01*
X018683Y024140D01*
X018692Y024098D01*
X018705Y024056D01*
X018722Y024016D01*
X018742Y023977D01*
X018765Y023940D01*
X018792Y023906D01*
X018821Y023873D01*
X018854Y023844D01*
X018888Y023817D01*
X018925Y023794D01*
X018964Y023774D01*
X019004Y023757D01*
X019046Y023744D01*
X019088Y023735D01*
X019131Y023729D01*
X019175Y023727D01*
X020175Y023727D01*
X020219Y023725D01*
X020262Y023719D01*
X020304Y023710D01*
X020346Y023697D01*
X020386Y023680D01*
X020425Y023660D01*
X020462Y023637D01*
X020496Y023610D01*
X020529Y023581D01*
X020558Y023548D01*
X020585Y023514D01*
X020608Y023477D01*
X020628Y023438D01*
X020645Y023398D01*
X020658Y023356D01*
X020667Y023314D01*
X020673Y023271D01*
X020675Y023227D01*
X020675Y019127D01*
X021100Y019127D01*
X021100Y017927D01*
X020675Y017927D01*
X020675Y009677D01*
X021100Y009677D01*
X021100Y008477D01*
X020675Y008477D01*
X020675Y004777D01*
X020375Y004477D01*
X020375Y001427D01*
X020373Y001383D01*
X020367Y001340D01*
X020358Y001298D01*
X020345Y001256D01*
X020328Y001216D01*
X020308Y001177D01*
X020285Y001140D01*
X020258Y001106D01*
X020229Y001073D01*
X020196Y001044D01*
X020162Y001017D01*
X020125Y000994D01*
X020086Y000974D01*
X020046Y000957D01*
X020004Y000944D01*
X019962Y000935D01*
X019919Y000929D01*
X019875Y000927D01*
X001375Y000927D01*
X001331Y000929D01*
X001288Y000935D01*
X001246Y000944D01*
X001204Y000957D01*
X001164Y000974D01*
X001125Y000994D01*
X001088Y001017D01*
X001054Y001044D01*
X001021Y001073D01*
X000992Y001106D01*
X000965Y001140D01*
X000942Y001177D01*
X000922Y001216D01*
X000905Y001256D01*
X000892Y001298D01*
X000883Y001340D01*
X000877Y001383D01*
X000875Y001427D01*
X000575Y008527D02*
X000175Y008527D01*
X000175Y009627D01*
X000575Y009627D01*
X000575Y008527D01*
X000575Y008562D02*
X000175Y008562D01*
X000175Y008611D02*
X000575Y008611D01*
X000575Y008659D02*
X000175Y008659D01*
X000175Y008708D02*
X000575Y008708D01*
X000575Y008756D02*
X000175Y008756D01*
X000175Y008805D02*
X000575Y008805D01*
X000575Y008853D02*
X000175Y008853D01*
X000175Y008902D02*
X000575Y008902D01*
X000575Y008950D02*
X000175Y008950D01*
X000175Y008999D02*
X000575Y008999D01*
X000575Y009047D02*
X000175Y009047D01*
X000175Y009096D02*
X000575Y009096D01*
X000575Y009144D02*
X000175Y009144D01*
X000175Y009193D02*
X000575Y009193D01*
X000575Y009241D02*
X000175Y009241D01*
X000175Y009290D02*
X000575Y009290D01*
X000575Y009338D02*
X000175Y009338D01*
X000175Y009387D02*
X000575Y009387D01*
X000575Y009435D02*
X000175Y009435D01*
X000175Y009484D02*
X000575Y009484D01*
X000575Y009532D02*
X000175Y009532D01*
X000175Y009581D02*
X000575Y009581D01*
X000575Y017977D02*
X000175Y017977D01*
X000175Y019077D01*
X000575Y019077D01*
X000575Y017977D01*
X000575Y018020D02*
X000175Y018020D01*
X000175Y018068D02*
X000575Y018068D01*
X000575Y018117D02*
X000175Y018117D01*
X000175Y018165D02*
X000575Y018165D01*
X000575Y018214D02*
X000175Y018214D01*
X000175Y018262D02*
X000575Y018262D01*
X000575Y018311D02*
X000175Y018311D01*
X000175Y018359D02*
X000575Y018359D01*
X000575Y018408D02*
X000175Y018408D01*
X000175Y018456D02*
X000575Y018456D01*
X000575Y018505D02*
X000175Y018505D01*
X000175Y018553D02*
X000575Y018553D01*
X000575Y018602D02*
X000175Y018602D01*
X000175Y018650D02*
X000575Y018650D01*
X000575Y018699D02*
X000175Y018699D01*
X000175Y018747D02*
X000575Y018747D01*
X000575Y018796D02*
X000175Y018796D01*
X000175Y018844D02*
X000575Y018844D01*
X000575Y018893D02*
X000175Y018893D01*
X000175Y018941D02*
X000575Y018941D01*
X000575Y018990D02*
X000175Y018990D01*
X000175Y019038D02*
X000575Y019038D01*
X005725Y024927D02*
X006825Y024927D01*
X006825Y025077D01*
X005725Y025077D01*
X005725Y024927D01*
X005725Y024955D02*
X006825Y024955D01*
X006825Y025004D02*
X005725Y025004D01*
X005725Y025052D02*
X006825Y025052D01*
X014425Y025052D02*
X015525Y025052D01*
X015525Y025077D02*
X015525Y024927D01*
X014425Y024927D01*
X014425Y025077D01*
X015525Y025077D01*
X015525Y025004D02*
X014425Y025004D01*
X014425Y024955D02*
X015525Y024955D01*
X020675Y019077D02*
X020675Y017977D01*
X021075Y017977D01*
X021075Y019077D01*
X020675Y019077D01*
X020675Y019038D02*
X021075Y019038D01*
X021075Y018990D02*
X020675Y018990D01*
X020675Y018941D02*
X021075Y018941D01*
X021075Y018893D02*
X020675Y018893D01*
X020675Y018844D02*
X021075Y018844D01*
X021075Y018796D02*
X020675Y018796D01*
X020675Y018747D02*
X021075Y018747D01*
X021075Y018699D02*
X020675Y018699D01*
X020675Y018650D02*
X021075Y018650D01*
X021075Y018602D02*
X020675Y018602D01*
X020675Y018553D02*
X021075Y018553D01*
X021075Y018505D02*
X020675Y018505D01*
X020675Y018456D02*
X021075Y018456D01*
X021075Y018408D02*
X020675Y018408D01*
X020675Y018359D02*
X021075Y018359D01*
X021075Y018311D02*
X020675Y018311D01*
X020675Y018262D02*
X021075Y018262D01*
X021075Y018214D02*
X020675Y018214D01*
X020675Y018165D02*
X021075Y018165D01*
X021075Y018117D02*
X020675Y018117D01*
X020675Y018068D02*
X021075Y018068D01*
X021075Y018020D02*
X020675Y018020D01*
X020675Y009627D02*
X020675Y008527D01*
X021075Y008527D01*
X021075Y009627D01*
X020675Y009627D01*
X020675Y009581D02*
X021075Y009581D01*
X021075Y009532D02*
X020675Y009532D01*
X020675Y009484D02*
X021075Y009484D01*
X021075Y009435D02*
X020675Y009435D01*
X020675Y009387D02*
X021075Y009387D01*
X021075Y009338D02*
X020675Y009338D01*
X020675Y009290D02*
X021075Y009290D01*
X021075Y009241D02*
X020675Y009241D01*
X020675Y009193D02*
X021075Y009193D01*
X021075Y009144D02*
X020675Y009144D01*
X020675Y009096D02*
X021075Y009096D01*
X021075Y009047D02*
X020675Y009047D01*
X020675Y008999D02*
X021075Y008999D01*
X021075Y008950D02*
X020675Y008950D01*
X020675Y008902D02*
X021075Y008902D01*
X021075Y008853D02*
X020675Y008853D01*
X020675Y008805D02*
X021075Y008805D01*
X021075Y008756D02*
X020675Y008756D01*
X020675Y008708D02*
X021075Y008708D01*
X021075Y008659D02*
X020675Y008659D01*
X020675Y008611D02*
X021075Y008611D01*
X021075Y008562D02*
X020675Y008562D01*
X015772Y002166D02*
X015772Y002146D01*
X014959Y002171D02*
X014939Y002134D01*
X014917Y002106D01*
X014884Y002091D01*
X014849Y002084D02*
X014784Y002111D01*
X014752Y002174D01*
X014757Y002246D01*
X014799Y002296D01*
X014822Y002311D01*
X014884Y002311D01*
X014937Y002276D01*
X014959Y002231D01*
X014959Y002171D01*
X016832Y001986D02*
X016862Y001966D01*
D11*
X007713Y002032D02*
X007486Y002259D01*
X007486Y002316D01*
X007543Y002373D01*
X007656Y002373D01*
X007713Y002316D01*
X007344Y002316D02*
X007344Y002089D01*
X007118Y002316D01*
X007118Y002089D01*
X007174Y002032D01*
X007288Y002032D01*
X007344Y002089D01*
X007486Y002032D02*
X007713Y002032D01*
X007344Y002316D02*
X007288Y002373D01*
X007174Y002373D01*
X007118Y002316D01*
X006976Y002316D02*
X006919Y002373D01*
X006806Y002373D01*
X006749Y002316D01*
X006749Y002259D01*
X006976Y002032D01*
X006749Y002032D01*
X006608Y002203D02*
X006381Y002203D01*
X006438Y002373D02*
X006438Y002032D01*
X006240Y002032D02*
X006013Y002373D01*
X005871Y002316D02*
X005871Y002089D01*
X005644Y002316D01*
X005644Y002089D01*
X005701Y002032D01*
X005815Y002032D01*
X005871Y002089D01*
X005871Y002316D02*
X005815Y002373D01*
X005701Y002373D01*
X005644Y002316D01*
X005503Y002373D02*
X005503Y002203D01*
X005389Y002259D01*
X005333Y002259D01*
X005276Y002203D01*
X005276Y002089D01*
X005333Y002032D01*
X005446Y002032D01*
X005503Y002089D01*
X005503Y002373D02*
X005276Y002373D01*
X004766Y002373D02*
X004766Y002146D01*
X004653Y002032D01*
X004539Y002146D01*
X004539Y002373D01*
X004398Y002259D02*
X004285Y002373D01*
X004285Y002032D01*
X004398Y002032D02*
X004171Y002032D01*
X004030Y002032D02*
X003973Y002032D01*
X003973Y002089D01*
X004030Y002089D01*
X004030Y002032D01*
X003846Y002032D02*
X003619Y002032D01*
X003732Y002032D02*
X003732Y002373D01*
X003846Y002259D01*
X006438Y002373D02*
X006608Y002203D01*
D12*
X009198Y007138D02*
X009200Y007213D01*
X009206Y007288D01*
X009216Y007363D01*
X009230Y007437D01*
X009247Y007510D01*
X009269Y007583D01*
X009294Y007653D01*
X009323Y007723D01*
X009356Y007791D01*
X009392Y007857D01*
X009432Y007921D01*
X009475Y007983D01*
X009521Y008042D01*
X009570Y008099D01*
X009623Y008154D01*
X009678Y008205D01*
X009735Y008254D01*
X009795Y008299D01*
X009858Y008341D01*
X009922Y008380D01*
X009989Y008415D01*
X010057Y008447D01*
X010127Y008475D01*
X010198Y008500D01*
X010271Y008520D01*
X010344Y008537D01*
X010419Y008550D01*
X010493Y008559D01*
X010569Y008564D01*
X010644Y008565D01*
X010719Y008562D01*
X010794Y008555D01*
X010869Y008544D01*
X010943Y008529D01*
X011016Y008511D01*
X011087Y008488D01*
X011158Y008462D01*
X011227Y008432D01*
X011295Y008398D01*
X011360Y008361D01*
X011424Y008321D01*
X011485Y008277D01*
X011544Y008230D01*
X011600Y008180D01*
X011654Y008127D01*
X011705Y008071D01*
X011752Y008013D01*
X011797Y007952D01*
X011838Y007889D01*
X011876Y007824D01*
X011911Y007757D01*
X011942Y007688D01*
X011969Y007618D01*
X011992Y007547D01*
X012012Y007474D01*
X012028Y007400D01*
X012040Y007326D01*
X012048Y007251D01*
X012052Y007176D01*
X012052Y007100D01*
X012048Y007025D01*
X012040Y006950D01*
X012028Y006876D01*
X012012Y006802D01*
X011992Y006729D01*
X011969Y006658D01*
X011942Y006588D01*
X011911Y006519D01*
X011876Y006452D01*
X011838Y006387D01*
X011797Y006324D01*
X011752Y006263D01*
X011705Y006205D01*
X011654Y006149D01*
X011600Y006096D01*
X011544Y006046D01*
X011485Y005999D01*
X011424Y005955D01*
X011360Y005915D01*
X011295Y005878D01*
X011227Y005844D01*
X011158Y005814D01*
X011087Y005788D01*
X011016Y005765D01*
X010943Y005747D01*
X010869Y005732D01*
X010794Y005721D01*
X010719Y005714D01*
X010644Y005711D01*
X010569Y005712D01*
X010493Y005717D01*
X010419Y005726D01*
X010344Y005739D01*
X010271Y005756D01*
X010198Y005776D01*
X010127Y005801D01*
X010057Y005829D01*
X009989Y005861D01*
X009922Y005896D01*
X009858Y005935D01*
X009795Y005977D01*
X009735Y006022D01*
X009678Y006071D01*
X009623Y006122D01*
X009570Y006177D01*
X009521Y006234D01*
X009475Y006293D01*
X009432Y006355D01*
X009392Y006419D01*
X009356Y006485D01*
X009323Y006553D01*
X009294Y006623D01*
X009269Y006693D01*
X009247Y006766D01*
X009230Y006839D01*
X009216Y006913D01*
X009206Y006988D01*
X009200Y007063D01*
X009198Y007138D01*
X010182Y016979D02*
X010184Y017020D01*
X010190Y017062D01*
X010199Y017102D01*
X010213Y017141D01*
X010230Y017179D01*
X010250Y017215D01*
X010274Y017249D01*
X010301Y017281D01*
X010331Y017310D01*
X010363Y017336D01*
X010398Y017359D01*
X010434Y017379D01*
X010472Y017395D01*
X010512Y017407D01*
X010553Y017416D01*
X010594Y017421D01*
X010635Y017422D01*
X010677Y017419D01*
X010718Y017412D01*
X010758Y017402D01*
X010797Y017387D01*
X010834Y017369D01*
X010870Y017348D01*
X010904Y017323D01*
X010935Y017296D01*
X010963Y017266D01*
X010988Y017233D01*
X011010Y017197D01*
X011029Y017160D01*
X011044Y017122D01*
X011056Y017082D01*
X011064Y017041D01*
X011068Y017000D01*
X011068Y016958D01*
X011064Y016917D01*
X011056Y016876D01*
X011044Y016836D01*
X011029Y016798D01*
X011010Y016761D01*
X010988Y016725D01*
X010963Y016692D01*
X010935Y016662D01*
X010904Y016635D01*
X010870Y016610D01*
X010834Y016589D01*
X010797Y016571D01*
X010758Y016556D01*
X010718Y016546D01*
X010677Y016539D01*
X010635Y016536D01*
X010594Y016537D01*
X010553Y016542D01*
X010512Y016551D01*
X010472Y016563D01*
X010434Y016579D01*
X010398Y016599D01*
X010363Y016622D01*
X010331Y016648D01*
X010301Y016677D01*
X010274Y016709D01*
X010250Y016743D01*
X010230Y016779D01*
X010213Y016817D01*
X010199Y016856D01*
X010190Y016896D01*
X010184Y016938D01*
X010182Y016979D01*
D13*
X010625Y007138D03*
D14*
X010625Y016979D03*
D15*
X010393Y002931D02*
X010381Y002923D01*
X010371Y002911D01*
X010360Y002894D01*
X010354Y002881D01*
X010354Y002868D01*
X010388Y002616D01*
X010491Y002615D01*
X010489Y002616D02*
X010470Y002777D01*
X010467Y002794D01*
X010466Y002805D01*
X010470Y002816D01*
X010479Y002827D01*
X010485Y002834D01*
X010496Y002839D01*
X010491Y002839D02*
X010917Y002840D01*
X010926Y002837D01*
X010936Y002834D01*
X010950Y002825D01*
X010964Y002806D01*
X011058Y002120D01*
X011057Y002091D01*
X011047Y002078D01*
X011035Y002065D01*
X010719Y002056D01*
X010608Y002057D01*
X010598Y002061D01*
X010584Y002070D01*
X010569Y002084D01*
X010557Y002104D01*
X010524Y002364D01*
X010738Y002364D01*
X010726Y002428D01*
X010414Y002429D01*
X010472Y002014D01*
X010481Y001993D01*
X010494Y001979D01*
X010516Y001966D01*
X011135Y001967D01*
X011133Y001967D01*
X011135Y001967D02*
X011143Y001968D01*
X011153Y001976D01*
X011161Y001984D01*
X011171Y002002D01*
X011050Y002882D01*
X011049Y002891D01*
X011046Y002897D01*
X011040Y002907D01*
X011031Y002915D01*
X011024Y002924D01*
X011012Y002932D01*
X010393Y002931D01*
X010560Y002742D02*
X010552Y002734D01*
X010548Y002726D01*
X010548Y002714D01*
X010565Y002568D01*
X010574Y002567D01*
X010586Y002568D01*
X010592Y002570D01*
X010590Y002576D01*
X010591Y002570D02*
X010575Y002709D01*
X010577Y002719D01*
X010585Y002724D01*
X010592Y002726D01*
X010865Y002727D01*
X010870Y002722D01*
X010875Y002706D01*
X010878Y002683D01*
X010882Y002652D01*
X010888Y002612D01*
X010892Y002570D01*
X010896Y002568D01*
X010902Y002569D01*
X010915Y002568D01*
X010909Y002574D01*
X010898Y002576D01*
X010876Y002726D01*
X010870Y002732D01*
X010857Y002733D01*
X010838Y002733D01*
X010803Y002734D01*
X010648Y002734D01*
X010605Y002734D01*
X010575Y002732D01*
X010580Y002727D01*
X010575Y002723D01*
X010570Y002716D01*
X010568Y002704D01*
X010584Y002571D01*
X010574Y002573D01*
X010568Y002577D01*
X010554Y002714D01*
X010556Y002724D01*
X010561Y002734D01*
X010575Y002737D01*
X010605Y002739D01*
X010683Y002740D01*
X010758Y002739D01*
X010807Y002738D01*
X010849Y002738D01*
X010877Y002737D01*
X010889Y002732D01*
X010907Y002580D01*
X010882Y002730D01*
X010892Y002736D02*
X010887Y002743D01*
X010881Y002745D01*
X010866Y002746D01*
X010568Y002746D01*
X010560Y002742D01*
X010565Y002729D02*
X010571Y002731D01*
X010568Y002726D01*
X010565Y002729D02*
X010563Y002716D01*
X010561Y002699D01*
X010576Y002573D01*
X010369Y002429D02*
X010436Y001974D01*
X010454Y001948D01*
X010484Y001926D01*
X010488Y001925D01*
X011142Y001926D01*
X011158Y001759D01*
X011075Y001759D01*
X011114Y001432D01*
X011115Y001432D02*
X009978Y001433D01*
X010054Y001891D01*
X010052Y001898D01*
X009969Y001898D01*
X009944Y002075D01*
X010097Y002075D01*
X010053Y002429D01*
X010369Y002429D01*
X010330Y002393D02*
X010391Y001945D01*
X010301Y001945D01*
X010235Y002392D01*
X010326Y002392D01*
X010202Y002391D02*
X010267Y001944D01*
X010005Y001946D01*
X009997Y002029D01*
X010164Y002028D01*
X010117Y002393D01*
X010202Y002391D01*
X010181Y001879D02*
X010110Y001880D01*
X010107Y001875D01*
X010042Y001510D01*
X010043Y001472D01*
X010044Y001469D01*
X010126Y001470D01*
X010135Y001572D01*
X010231Y001572D01*
X010260Y001502D01*
X010270Y001482D01*
X010274Y001474D01*
X010282Y001469D01*
X010356Y001470D01*
X010359Y001470D02*
X010339Y001530D01*
X010181Y001879D01*
X010166Y001724D02*
X010153Y001655D01*
X010193Y001654D01*
X010168Y001703D01*
X010160Y001661D01*
X010182Y001663D01*
X010170Y001684D01*
X010167Y001668D01*
X010170Y001669D01*
X010175Y001670D01*
X010194Y001655D02*
X010166Y001724D01*
X010339Y001647D02*
X010349Y001668D01*
X010363Y001689D01*
X010381Y001709D01*
X010402Y001720D01*
X010425Y001724D01*
X010454Y001733D01*
X010470Y001748D01*
X010472Y001758D01*
X010472Y001778D01*
X010457Y001790D01*
X010446Y001801D01*
X010439Y001805D01*
X010422Y001804D01*
X010411Y001798D01*
X010406Y001794D01*
X010382Y001795D01*
X010356Y001797D01*
X010348Y001799D01*
X010343Y001806D01*
X010340Y001815D01*
X010341Y001860D01*
X010340Y001859D02*
X010346Y001868D01*
X010355Y001872D01*
X010372Y001877D01*
X010391Y001878D01*
X010429Y001880D01*
X010453Y001879D01*
X010472Y001876D01*
X010488Y001870D01*
X010503Y001861D01*
X010523Y001840D01*
X010540Y001822D01*
X010550Y001802D01*
X010556Y001784D01*
X010555Y001784D02*
X010556Y001724D01*
X010544Y001706D01*
X010521Y001681D01*
X010492Y001660D01*
X010465Y001649D01*
X010440Y001638D01*
X010429Y001627D01*
X010416Y001615D01*
X010414Y001602D01*
X010415Y001583D01*
X010421Y001573D01*
X010432Y001563D01*
X010446Y001553D01*
X010460Y001553D01*
X010519Y001553D01*
X010530Y001561D01*
X010546Y001568D01*
X010564Y001570D01*
X010584Y001566D01*
X010591Y001556D01*
X010591Y001554D01*
X010760Y001553D01*
X010747Y001636D01*
X010625Y001637D01*
X010621Y001640D01*
X010609Y001722D01*
X010732Y001722D01*
X010722Y001804D01*
X010587Y001804D01*
X010578Y001811D01*
X010575Y001821D01*
X010574Y001829D01*
X010574Y001877D01*
X010575Y001877D01*
X010576Y001878D01*
X010795Y001880D01*
X010853Y001469D01*
X010848Y001469D02*
X010588Y001469D01*
X010583Y001476D01*
X010577Y001485D01*
X010568Y001487D01*
X010560Y001484D01*
X010548Y001480D01*
X010533Y001476D01*
X010523Y001469D01*
X010438Y001470D01*
X010424Y001478D01*
X010407Y001487D01*
X010392Y001497D01*
X010371Y001511D01*
X010359Y001527D01*
X010350Y001542D01*
X010341Y001552D01*
X010333Y001579D01*
X010331Y001603D01*
X010332Y001624D01*
X010339Y001647D01*
X010836Y001807D02*
X010824Y001879D01*
X011093Y001880D01*
X011107Y001806D01*
X011100Y001804D01*
X011012Y001804D01*
X011059Y001468D01*
X011054Y001468D02*
X010977Y001469D01*
X010926Y001805D01*
X010841Y001805D01*
X010839Y001806D01*
X010836Y001807D01*
X010919Y002214D02*
X010909Y002336D01*
X010946Y002336D01*
X010947Y002335D02*
X010959Y002215D01*
X010919Y002214D01*
X010925Y002222D02*
X010949Y002221D01*
X010953Y002225D01*
X010951Y002240D01*
X010941Y002239D01*
X010931Y002239D01*
X010929Y002229D01*
X010940Y002227D01*
X010947Y002229D01*
X010938Y002233D01*
X010931Y002232D01*
X010950Y002245D01*
X010951Y002251D02*
X010930Y002244D01*
X010923Y002246D01*
X010925Y002222D01*
X010889Y002253D02*
X010989Y002253D01*
X010980Y002300D01*
X010981Y002299D02*
X010987Y002255D01*
X010980Y002259D02*
X010977Y002284D01*
X010900Y002285D01*
X010900Y002266D01*
X010971Y002267D01*
X010971Y002276D01*
X010903Y002275D01*
X010894Y002260D02*
X010980Y002259D01*
X010979Y002290D02*
X010892Y002291D01*
X010894Y002260D01*
X010889Y002253D02*
X010885Y002300D01*
X010976Y002300D01*
X010944Y002306D02*
X010942Y002318D01*
X010930Y002320D01*
X010919Y002318D01*
X010922Y002312D01*
X010936Y002312D01*
X010944Y002306D02*
X010916Y002306D01*
X010915Y002325D01*
X010918Y002327D01*
X010942Y002327D01*
X010916Y002568D02*
X010898Y002720D01*
X010892Y002736D01*
D16*
X010980Y002810D02*
X011081Y002083D01*
X011060Y002060D01*
X011040Y002047D01*
X010622Y002035D01*
X010578Y002044D01*
X010560Y002067D01*
X010542Y002088D01*
X010502Y002371D01*
X010517Y002385D01*
X010555Y002385D01*
X010718Y002383D01*
X010712Y002410D01*
X010455Y002409D01*
X010498Y002397D01*
X010471Y002385D01*
X010472Y002357D01*
X010507Y002085D01*
X010587Y002018D01*
X010505Y002060D01*
X010520Y002012D01*
X010551Y002009D01*
X011119Y002014D01*
X011055Y002022D01*
X011108Y002039D01*
X011088Y002047D01*
X011120Y002061D01*
X011110Y002079D01*
X010994Y002875D01*
X010975Y002864D01*
X010975Y002878D01*
X010956Y002877D01*
X010454Y002880D01*
X010415Y002882D01*
X010403Y002868D01*
X010403Y002839D01*
X010448Y002856D01*
X010410Y002834D01*
X010421Y002820D01*
X010408Y002811D01*
X010434Y002659D01*
X010403Y002633D02*
X010470Y002635D01*
X010445Y002797D01*
X010455Y002832D01*
X010472Y002848D01*
X010488Y002855D01*
X010928Y002861D01*
X010959Y002841D01*
X010976Y002825D01*
X010980Y002810D01*
X011027Y002891D02*
X011009Y002912D01*
X010918Y002911D01*
X010402Y002913D01*
X010377Y002881D01*
X010374Y002866D01*
X010403Y002633D01*
X010434Y002411D02*
X010486Y002050D01*
X010493Y002009D01*
X010513Y001988D01*
X010529Y001983D01*
X011116Y001983D01*
X011132Y001985D01*
X011149Y002001D01*
X011148Y002013D01*
X011027Y002891D01*
X010453Y002396D02*
X010434Y002411D01*
X010354Y002410D02*
X010420Y001941D01*
X010410Y001943D01*
X010347Y002398D01*
X010354Y002410D02*
X010090Y002410D01*
X010095Y002407D02*
X010074Y002412D01*
X010118Y002078D01*
X010139Y002085D02*
X010095Y002407D01*
X010219Y002404D02*
X010227Y002335D01*
X010289Y001918D01*
X010334Y001926D02*
X009995Y001925D01*
X009985Y001956D01*
X009976Y002019D01*
X009966Y002057D01*
X010140Y002057D01*
X010144Y002046D01*
X009984Y002049D01*
X009979Y001978D02*
X009983Y001919D01*
X010050Y001917D01*
X010111Y001901D01*
X010339Y001888D01*
X010321Y001868D01*
X010319Y001788D01*
X010345Y001780D01*
X010391Y001773D01*
X010418Y001777D01*
X010432Y001781D01*
X010453Y001764D01*
X010439Y001749D01*
X010400Y001740D01*
X010355Y001711D01*
X010332Y001672D01*
X010315Y001628D01*
X010205Y001870D01*
X010288Y001862D01*
X010243Y001847D01*
X010315Y001694D01*
X010371Y001750D01*
X010320Y001768D01*
X010326Y001734D01*
X010294Y001840D01*
X010277Y001837D01*
X010291Y001805D01*
X010361Y001893D02*
X010364Y001923D01*
X010479Y001905D01*
X010618Y001906D01*
X010600Y001897D02*
X010669Y001899D01*
X010809Y001897D01*
X010806Y001901D02*
X010822Y001800D01*
X010829Y001788D02*
X010873Y001469D01*
X010919Y001474D01*
X010884Y001754D01*
X010863Y001762D01*
X010890Y001491D01*
X010955Y001471D02*
X010911Y001785D01*
X010829Y001788D01*
X010820Y001899D02*
X010806Y001901D01*
X010820Y001899D02*
X011090Y001898D01*
X011114Y001888D01*
X011125Y001797D01*
X011115Y001789D01*
X011066Y001785D01*
X011070Y001778D01*
X011142Y001777D01*
X011125Y001907D01*
X010640Y001905D01*
X010600Y001897D02*
X010557Y001897D01*
X010472Y001895D01*
X010410Y001899D01*
X010361Y001893D01*
X010334Y001926D02*
X010397Y001930D01*
X010430Y001951D02*
X010443Y001939D01*
X010459Y001921D01*
X010474Y001909D01*
X010220Y001550D02*
X010154Y001553D01*
X010148Y001473D01*
X010213Y001476D01*
X010203Y001519D01*
X010182Y001518D01*
X010179Y001494D01*
X010220Y001550D02*
X010254Y001467D01*
X010258Y001455D01*
X010123Y001451D02*
X009997Y001449D01*
X010080Y001924D01*
X010098Y001928D01*
X010014Y001478D01*
X010023Y001469D01*
X010025Y001492D01*
X010123Y001451D02*
X010558Y001452D01*
X010542Y001459D01*
X010551Y001459D01*
X010567Y001464D01*
X010579Y001452D01*
X010599Y001452D01*
X011060Y001451D01*
X011050Y001452D02*
X011093Y001448D01*
X011051Y001783D01*
X011034Y001788D01*
X011080Y001467D01*
X010959Y001454D02*
X010955Y001471D01*
X010144Y002058D02*
X010139Y002085D01*
X014322Y002094D02*
X014324Y002249D01*
X014352Y002294D01*
X014402Y002309D01*
X014439Y002306D01*
X014472Y002279D01*
X014487Y002274D02*
X014482Y002086D01*
X014642Y002094D02*
X014644Y002244D01*
X014609Y002299D01*
X014572Y002314D01*
X014519Y002299D01*
X014487Y002274D01*
D17*
X014504Y002254D02*
X014517Y002271D01*
X014529Y002281D01*
X014549Y002291D01*
X014579Y002291D01*
X014597Y002284D01*
X014607Y002274D01*
X014614Y002261D01*
X014622Y002246D01*
X014622Y002071D01*
X014664Y002071D01*
X014664Y002244D01*
X014654Y002279D01*
X014639Y002304D01*
X014617Y002321D01*
X014584Y002334D01*
X014544Y002334D01*
X014524Y002326D01*
X014499Y002311D01*
X014489Y002301D01*
X014479Y002301D01*
X014467Y002309D01*
X014452Y002321D01*
X014434Y002331D01*
X014422Y002334D01*
X014387Y002334D01*
X014369Y002329D01*
X014349Y002319D01*
X014332Y002304D01*
X014319Y002289D01*
X014309Y002266D01*
X014304Y002251D01*
X014302Y002229D01*
X014302Y002074D01*
X014347Y002074D01*
X014347Y002246D01*
X014354Y002264D01*
X014364Y002279D01*
X014379Y002284D01*
X014389Y002289D01*
X014429Y002289D01*
X014447Y002274D01*
X014457Y002259D01*
X014459Y002254D01*
X014459Y002074D01*
X014504Y002074D01*
X014504Y002254D01*
X014729Y002229D02*
X014737Y002256D01*
X014747Y002276D01*
X014784Y002314D01*
X014812Y002329D01*
X014839Y002334D01*
X014882Y002334D01*
X014909Y002324D01*
X014937Y002306D01*
X014959Y002284D01*
X014974Y002261D01*
X014984Y002224D01*
X014984Y002176D01*
X014979Y002159D01*
X014972Y002139D01*
X014962Y002121D01*
X014944Y002104D01*
X014924Y002086D01*
X014904Y002076D01*
X014879Y002069D01*
X014869Y002069D01*
X014867Y002069D02*
X014834Y002069D01*
X014812Y002074D01*
X014787Y002084D01*
X014764Y002104D01*
X014747Y002129D01*
X014734Y002146D01*
X014729Y002171D01*
X014729Y002229D01*
X014777Y002226D02*
X014784Y002246D01*
X014797Y002266D01*
X014812Y002281D01*
X014827Y002289D01*
X014834Y002291D01*
X014874Y002291D01*
X014892Y002286D01*
X014912Y002274D01*
X014922Y002261D01*
X014934Y002241D01*
X014939Y002226D01*
X014939Y002176D01*
X014929Y002154D01*
X014917Y002134D01*
X014899Y002119D01*
X014882Y002109D01*
X014842Y002109D01*
X014849Y002106D02*
X014829Y002111D01*
X014809Y002121D01*
X014797Y002134D01*
X014784Y002151D01*
X014779Y002164D01*
X014777Y002174D01*
X014777Y002226D01*
X015037Y002286D02*
X015037Y002329D01*
X015087Y002329D01*
X015109Y002326D01*
X015132Y002319D01*
X015157Y002304D01*
X015174Y002286D01*
X015187Y002271D01*
X015197Y002251D01*
X015204Y002231D01*
X015209Y002214D01*
X015209Y002184D01*
X015204Y002159D01*
X015192Y002134D01*
X015179Y002119D01*
X015164Y002104D01*
X015144Y002089D01*
X015127Y002081D01*
X015107Y002076D01*
X015079Y002071D01*
X015037Y002071D01*
X015037Y002114D01*
X015087Y002114D01*
X015104Y002119D01*
X015127Y002129D01*
X015144Y002146D01*
X015157Y002164D01*
X015162Y002176D01*
X015164Y002181D01*
X015164Y002221D01*
X015154Y002236D01*
X015142Y002259D01*
X015119Y002274D01*
X015104Y002281D01*
X015079Y002286D01*
X015037Y002286D01*
X015052Y002301D02*
X015107Y002299D01*
X015152Y002266D01*
X015177Y002231D01*
X015174Y002166D01*
X015144Y002124D01*
X015107Y002104D01*
X015052Y002099D01*
X015047Y002084D02*
X015114Y002089D01*
X015164Y002121D01*
X015192Y002169D01*
X015192Y002236D01*
X015154Y002286D01*
X015107Y002314D01*
X015052Y002316D01*
X015052Y002301D01*
X015082Y002071D02*
X015079Y002071D01*
X015287Y002086D02*
X015287Y002104D01*
X015292Y002114D01*
X015304Y002126D01*
X015327Y002126D01*
X015337Y002119D01*
X015344Y002109D01*
X015344Y002089D01*
X015342Y002081D01*
X015332Y002071D01*
X015322Y002069D01*
X015304Y002086D01*
X015302Y002104D01*
X015314Y002114D01*
X015327Y002104D01*
X015324Y002089D01*
X015317Y002096D01*
X015317Y002069D02*
X015307Y002069D01*
X015299Y002071D01*
X015289Y002079D01*
X015287Y002086D01*
X015432Y002074D02*
X015432Y002214D01*
X015437Y002239D01*
X015444Y002259D01*
X015459Y002286D01*
X015479Y002306D01*
X015509Y002324D01*
X015529Y002331D01*
X015544Y002334D01*
X015584Y002334D01*
X015609Y002326D01*
X015632Y002316D01*
X015654Y002296D01*
X015672Y002274D01*
X015682Y002251D01*
X015689Y002226D01*
X015689Y002176D01*
X015677Y002139D01*
X015657Y002109D01*
X015639Y002091D01*
X015617Y002081D01*
X015587Y002069D01*
X015544Y002069D01*
X015497Y002084D01*
X015492Y002086D01*
X015484Y002086D01*
X015474Y002074D01*
X015467Y002074D01*
X015462Y002074D02*
X015432Y002074D01*
X015444Y002081D02*
X015449Y002219D01*
X015472Y002279D01*
X015502Y002301D01*
X015547Y002316D01*
X015592Y002316D01*
X015632Y002299D01*
X015667Y002251D01*
X015674Y002219D01*
X015672Y002166D01*
X015632Y002104D01*
X015584Y002081D01*
X015542Y002086D01*
X015499Y002104D01*
X015479Y002096D01*
X015464Y002086D01*
X015464Y002096D01*
X015494Y002114D01*
X015459Y002104D01*
X015469Y002126D01*
X015459Y002126D01*
X015467Y002226D01*
X015494Y002284D01*
X015552Y002304D01*
X015609Y002296D01*
X015649Y002259D01*
X015659Y002184D01*
X015644Y002141D01*
X015614Y002106D01*
X015542Y002091D01*
X015537Y002106D02*
X015517Y002114D01*
X015499Y002126D01*
X015497Y002129D01*
X015489Y002121D01*
X015482Y002126D02*
X015479Y002129D01*
X015477Y002134D01*
X015479Y002229D01*
X015484Y002241D01*
X015494Y002261D01*
X015512Y002279D01*
X015532Y002289D01*
X015539Y002291D01*
X015582Y002291D01*
X015604Y002284D01*
X015622Y002271D01*
X015634Y002254D01*
X015644Y002236D01*
X015644Y002166D01*
X015634Y002151D01*
X015617Y002126D01*
X015597Y002111D01*
X015579Y002106D01*
X015537Y002106D01*
X015747Y002116D02*
X015747Y002159D01*
X015754Y002179D01*
X015772Y002194D01*
X015879Y002241D01*
X015889Y002251D01*
X015892Y002256D01*
X015892Y002274D01*
X015887Y002284D01*
X015884Y002286D01*
X015877Y002289D01*
X015759Y002289D01*
X015759Y002329D01*
X015872Y002329D01*
X015894Y002324D01*
X015909Y002316D01*
X015924Y002301D01*
X015934Y002286D01*
X015937Y002269D01*
X015937Y002254D01*
X015929Y002236D01*
X015917Y002219D01*
X015879Y002194D01*
X015802Y002161D01*
X015792Y002149D01*
X015787Y002136D01*
X015797Y002124D01*
X015809Y002114D01*
X015937Y002114D01*
X015937Y002074D01*
X015822Y002074D01*
X015782Y002081D01*
X015762Y002094D01*
X015747Y002116D01*
X015762Y002119D02*
X015769Y002169D01*
X015792Y002191D01*
X015897Y002236D01*
X015909Y002256D01*
X015899Y002286D01*
X015884Y002301D01*
X015774Y002304D01*
X015772Y002314D01*
X015884Y002311D01*
X015914Y002296D01*
X015919Y002249D01*
X015894Y002219D01*
X015789Y002171D01*
X015779Y002141D01*
X015774Y002121D01*
X015799Y002104D01*
X015809Y002099D02*
X015924Y002099D01*
X015929Y002096D01*
X015902Y002094D01*
X015927Y002086D02*
X015799Y002089D01*
X015809Y002099D01*
X015792Y002089D02*
X015762Y002119D01*
X015934Y002076D02*
X015937Y002074D01*
X016014Y002119D02*
X016032Y002099D01*
X016049Y002086D01*
X016069Y002076D01*
X016092Y002069D01*
X016142Y002069D01*
X016162Y002074D01*
X016187Y002084D01*
X016207Y002099D01*
X016224Y002119D01*
X016242Y002149D01*
X016249Y002174D01*
X016252Y002199D01*
X016247Y002229D01*
X016239Y002256D01*
X016214Y002294D01*
X016189Y002314D01*
X016162Y002329D01*
X016144Y002334D01*
X016097Y002334D01*
X016069Y002326D01*
X016047Y002314D01*
X016029Y002299D01*
X016012Y002279D01*
X015997Y002256D01*
X016152Y002168D01*
X016172Y002198D01*
X016069Y002259D01*
X016072Y002271D01*
X016079Y002284D01*
X016092Y002291D01*
X016144Y002291D01*
X016167Y002279D01*
X016187Y002259D01*
X016194Y002246D01*
X016202Y002236D01*
X016204Y002206D01*
X016204Y002184D01*
X016194Y002159D01*
X016182Y002134D01*
X016162Y002121D01*
X016147Y002114D01*
X016139Y002109D01*
X016099Y002109D01*
X016084Y002116D01*
X016067Y002129D01*
X016052Y002144D01*
X016042Y002161D01*
X016034Y002191D01*
X015989Y002184D01*
X015999Y002151D01*
X016014Y002119D01*
X016032Y002119D02*
X016007Y002176D01*
X016024Y002174D02*
X016039Y002131D01*
X016087Y002101D01*
X016102Y002094D01*
X016144Y002094D01*
X016192Y002119D01*
X016219Y002181D01*
X016214Y002241D01*
X016194Y002276D01*
X016152Y002301D01*
X016099Y002304D01*
X016072Y002291D01*
X016059Y002274D01*
X016054Y002256D01*
X016167Y002191D01*
X016158Y002179D01*
X016017Y002261D01*
X016052Y002301D01*
X016039Y002261D01*
X016052Y002284D02*
X016092Y002321D01*
X016109Y002321D01*
X016147Y002321D02*
X016209Y002284D01*
X016227Y002241D01*
X016234Y002174D01*
X016204Y002111D01*
X016144Y002081D01*
X016089Y002081D01*
X016032Y002119D01*
X016059Y002306D02*
X016147Y002319D01*
X016299Y002331D02*
X016379Y002331D01*
X016377Y002339D01*
X016377Y002399D01*
X016424Y002399D01*
X016424Y002151D01*
X016412Y002116D01*
X016397Y002094D01*
X016374Y002081D01*
X016352Y002076D01*
X016332Y002071D01*
X016314Y002084D01*
X016352Y002091D01*
X016384Y002101D01*
X016399Y002129D01*
X016412Y002159D01*
X016412Y002384D01*
X016392Y002386D01*
X016394Y002156D01*
X016372Y002111D01*
X016312Y002094D01*
X016302Y002111D02*
X016337Y002111D01*
X016352Y002119D01*
X016362Y002126D01*
X016369Y002134D01*
X016377Y002149D01*
X016377Y002286D01*
X016369Y002289D01*
X016299Y002289D01*
X016299Y002331D01*
X016312Y002316D02*
X016382Y002316D01*
X016384Y002301D02*
X016312Y002299D01*
X016312Y002316D01*
X016302Y002111D02*
X016302Y002071D01*
X016327Y002071D01*
X016499Y002074D02*
X016499Y002446D01*
X016544Y002446D01*
X016544Y002076D01*
X016544Y002074D02*
X016499Y002074D01*
X016512Y002084D02*
X016512Y002434D01*
X016532Y002434D01*
X016529Y002084D01*
X016627Y002074D02*
X016627Y002329D01*
X016672Y002329D01*
X016672Y002074D01*
X016627Y002074D01*
X016639Y002086D02*
X016644Y002316D01*
X016659Y002316D02*
X016654Y002086D01*
X016639Y002086D01*
X016747Y002061D02*
X016747Y002219D01*
X016752Y002239D01*
X016759Y002261D01*
X016774Y002284D01*
X016794Y002306D01*
X016814Y002319D01*
X016842Y002331D01*
X016857Y002334D01*
X016899Y002334D01*
X016932Y002324D01*
X016954Y002311D01*
X016972Y002294D01*
X016987Y002274D01*
X016997Y002256D01*
X017004Y002224D01*
X017004Y002179D01*
X016999Y002159D01*
X016989Y002134D01*
X016974Y002111D01*
X016952Y002089D01*
X016902Y002069D01*
X016859Y002069D01*
X016812Y002084D01*
X016794Y002089D01*
X016794Y002044D01*
X016809Y002026D01*
X016829Y002009D01*
X016849Y001999D01*
X016869Y001994D01*
X016899Y001994D01*
X016949Y002006D01*
X016959Y001966D01*
X016897Y001949D01*
X016867Y001949D01*
X016832Y001954D01*
X016809Y001966D01*
X016784Y001984D01*
X016764Y002009D01*
X016754Y002034D01*
X016747Y002061D01*
X016764Y002049D02*
X016764Y002229D01*
X016782Y002231D01*
X016779Y002036D01*
X016827Y001986D01*
X016884Y001979D01*
X016939Y001991D01*
X016952Y001981D02*
X016884Y001964D01*
X016824Y001971D01*
X016782Y002011D01*
X016764Y002049D01*
X016794Y002099D02*
X016874Y002076D01*
X016942Y002096D01*
X016974Y002141D01*
X016987Y002174D01*
X016984Y002249D01*
X016942Y002299D01*
X016889Y002319D01*
X016844Y002314D01*
X016802Y002294D01*
X016767Y002239D01*
X016782Y002239D02*
X016807Y002286D01*
X016847Y002299D01*
X016899Y002304D01*
X016934Y002289D01*
X016964Y002254D01*
X016972Y002186D01*
X016957Y002134D01*
X016917Y002099D01*
X016859Y002091D01*
X016794Y002121D01*
X016794Y002099D01*
X016817Y002124D02*
X016789Y002141D01*
X016794Y002139D02*
X016794Y002231D01*
X016799Y002246D01*
X016812Y002266D01*
X016832Y002281D01*
X016852Y002291D01*
X016889Y002291D01*
X016907Y002289D01*
X016924Y002276D01*
X016937Y002264D01*
X016949Y002249D01*
X016957Y002234D01*
X016959Y002236D02*
X016957Y002171D01*
X016939Y002139D01*
X016922Y002119D01*
X016899Y002109D01*
X016857Y002109D01*
X016849Y002111D01*
X016817Y002124D01*
X016659Y002376D02*
X016649Y002376D01*
X016639Y002406D01*
X016649Y002416D01*
X016659Y002409D01*
X016657Y002391D01*
X016669Y002386D02*
X016659Y002376D01*
X016649Y002379D02*
X016642Y002376D01*
X016632Y002381D01*
X016627Y002389D01*
X016622Y002399D01*
X016622Y002406D01*
X016624Y002416D01*
X016634Y002426D01*
X016642Y002431D01*
X016657Y002431D01*
X016667Y002424D01*
X016674Y002411D01*
X016674Y002396D01*
X016669Y002386D01*
X010420Y001468D02*
X010401Y001479D01*
X010364Y001504D01*
X010349Y001528D01*
X010336Y001551D01*
X010323Y001587D01*
X010321Y001606D01*
X010311Y001609D01*
X010315Y001603D01*
X010365Y001482D01*
X010369Y001470D01*
X010385Y001473D01*
X010389Y001472D01*
X010372Y001482D01*
D18*
X010435Y001579D02*
X010432Y001597D01*
X010440Y001617D01*
X010427Y001609D01*
X010477Y001637D01*
X010522Y001661D01*
X010606Y001635D01*
X010624Y001622D01*
X010736Y001623D01*
X010742Y001582D01*
X010589Y001595D01*
X010473Y001589D01*
X010455Y001594D01*
X010478Y001617D01*
X010522Y001636D01*
X010727Y001602D01*
X010524Y001614D01*
X010492Y001612D01*
X010602Y001647D01*
X010563Y001817D01*
X010561Y001867D01*
X010500Y001881D01*
X010521Y001862D01*
X010544Y001843D01*
X010553Y001826D01*
X010577Y001777D01*
X010569Y001731D01*
X010564Y001712D01*
X010547Y001686D01*
X010531Y001668D01*
X010570Y001668D01*
X010581Y001659D01*
X010573Y001692D01*
X010598Y001682D01*
X010584Y001792D01*
X010709Y001792D01*
X010718Y001736D01*
X010609Y001734D01*
X010604Y001769D01*
X010673Y001771D01*
X010698Y001759D01*
X010657Y001750D01*
X010610Y001750D01*
X010570Y001581D02*
X010542Y001579D01*
X010518Y001571D01*
X010499Y001566D01*
X010467Y001567D01*
X010448Y001569D01*
X010435Y001579D01*
X010570Y001581D02*
X010590Y001577D01*
X010599Y001571D01*
X010615Y001566D01*
X010681Y001565D01*
X010744Y001564D01*
M02*
